<svg width="160" height="150" viewBox="0 0 160 150" fill="none" xmlns="http://www.w3.org/2000/svg">
<path d="M152.352 48.214C134.472 33.0709 115.469 19.3051 95.5064 7.03502C92.2884 5.05079 88.5819 4 84.801 4C81.0201 4 77.3137 5.05079 74.0956 7.03502C54.1415 19.3148 35.1474 33.0896 17.2767 48.2408C14.3855 50.693 12.2353 53.9025 11.0676 57.5088C9.8999 61.1151 9.76086 64.9754 10.6661 68.6564C16.1793 91.4118 23.4266 113.712 32.3446 135.362C33.7787 138.868 36.1604 141.906 39.2232 144.137C42.286 146.367 45.9092 147.702 49.6873 147.991C73.0453 149.757 96.5033 149.757 119.861 147.991C123.641 147.697 127.266 146.362 130.333 144.132C133.399 141.903 135.787 138.867 137.231 135.362C146.137 113.708 153.384 91.4084 158.909 68.6564C159.802 64.9727 159.654 61.1135 158.482 57.5089C157.31 53.9042 155.16 50.6957 152.272 48.2408L152.352 48.214Z" fill="white"/>
<path fill-rule="evenodd" clip-rule="evenodd" d="M45.6576 43.4918L45.1878 43.9834V63.5242V83.0647H41.2546C38.1771 83.0647 37.2037 83.1284 36.7801 83.3578C35.901 83.8336 35.7523 84.6833 36.3975 85.5417L36.7941 86.0696H44.8189H52.8436V92.5801V99.0906H45.0825C38.6455 99.0906 37.2291 99.1407 36.7801 99.3837C35.901 99.8595 35.7523 100.709 36.3975 101.568L36.7941 102.095H45.8381H54.8822L55.2985 101.632C55.625 101.268 55.7145 100.923 55.7145 100.029V98.8903H57.0616C57.8534 98.8903 62.1893 99.5508 67.5811 100.493C72.6259 101.374 76.9756 102.095 77.2472 102.095C77.5186 102.095 80.1549 101.371 83.1058 100.486L88.4709 98.8773L93.4083 96.2919C96.124 94.87 98.4001 93.5585 98.4665 93.3774C98.8288 92.3894 98.1903 90.0073 97.3737 89.3004C97.0833 89.049 97.0561 87.8114 97.0561 74.8619V60.6984L96.6132 60.2627C96.0664 59.7252 95.3294 59.7046 94.7328 60.21L94.2809 60.593L94.2292 74.2244L94.1773 87.8559L93.4636 87.9765C91.6299 88.2862 90.7513 88.6047 88.4464 89.7964L85.9682 91.0777H82.6006H79.2331L77.2828 89.425L75.3327 87.7723L78.8658 87.7177C83.4551 87.6465 83.2756 87.7828 83.2756 84.3712C83.2756 82.1687 83.2301 81.8458 82.7877 80.9169C82.2216 79.7275 81.3008 78.92 80.0676 78.5318C78.7686 78.1225 65.106 78.133 64.3657 78.5438C64.0814 78.7015 62.6012 80.1438 61.0761 81.749L58.3034 84.6673H57.0509C55.8359 84.6673 55.7921 84.6493 55.5825 84.0684C55.4592 83.7266 55.148 83.3824 54.8581 83.2671C54.5786 83.1557 52.9343 83.0647 51.2043 83.0647H48.0587V64.5348V46.0049H56.5758H65.093L65.0958 51.7642C65.0989 57.996 65.1519 58.361 66.1049 58.7118C66.5273 58.8672 67.0789 58.7521 68.928 58.122L71.2259 57.339L73.3837 58.0824C74.5703 58.491 75.6921 58.8256 75.8764 58.8256C76.0605 58.8256 76.4227 58.6042 76.681 58.3338L77.1509 57.8422V51.9234V46.0049H85.6575H94.1641L94.2225 50.3066C94.2784 54.4271 94.2987 54.627 94.7008 55.0477C95.2683 55.641 96.2373 55.6328 96.7032 55.0306C97.0267 54.6126 97.0561 54.1246 97.0561 49.2024V43.8303L96.5518 43.4153L96.0475 43H71.0875H46.1273L45.6576 43.4918ZM74.28 50.6337C74.28 54.254 74.2279 55.242 74.0407 55.1677C73.9092 55.1154 73.1923 54.8678 72.4476 54.6174L71.0936 54.162L69.768 54.62C69.039 54.872 68.3348 55.1196 68.2032 55.1703C68.0162 55.2424 67.9639 54.2526 67.9639 50.6337V46.0049H71.1219H74.28V50.6337ZM52.1383 64.0354C51.4037 64.3451 51.3124 64.8539 51.3124 68.6374C51.3124 72.2224 51.318 72.2713 51.7823 72.7571L52.252 73.2489H61.9885H71.725L72.1413 72.7853C72.5379 72.3432 72.5574 72.1461 72.5574 68.5693C72.5574 64.8525 72.553 64.8124 72.0875 64.3255L71.6179 63.8337L62.0871 63.8463C56.8453 63.8533 52.3684 63.9384 52.1383 64.0354ZM69.6865 68.5413V70.244H61.9349H54.1834V68.5413V66.8385H61.9349H69.6865V68.5413ZM79.9111 81.8476C80.3321 82.2618 80.4047 82.505 80.4047 83.5002V84.6673H75.7244C72.6537 84.6673 70.881 84.745 70.5698 84.8937C70.0057 85.1625 69.6003 86.071 69.7801 86.6635C69.885 87.0097 76.198 92.5046 77.9113 93.741C78.3225 94.0379 78.9435 94.0825 82.6562 94.0825H86.928L88.4035 93.1775C90.1352 92.115 92.3966 91.1652 93.611 90.9905C94.4937 90.8635 95.3255 91.1446 95.4754 91.6206C95.5217 91.7676 93.9823 92.6813 91.5669 93.9405C87.7041 95.9542 87.423 96.0649 82.3923 97.56L77.2026 99.1022L67.997 97.4938C61.8245 96.4153 58.2846 95.8854 57.253 95.8854H55.7145V91.7788V87.6722H57.583H59.4512L62.5114 84.4616L65.5715 81.251L72.4944 81.3065L79.4173 81.362L79.9111 81.8476ZM103.081 109.081C102.098 109.548 101.114 110.578 100.668 111.606C100.391 112.244 100.317 112.924 100.314 114.866C100.309 117.997 100.452 118.199 102.798 118.384C103.272 118.421 102.669 118.466 101.458 118.483L99.2572 118.515L96.815 117.229C93.1061 115.278 90.7603 114.885 88.8632 115.898C87.9045 116.41 87.2325 117.246 86.8011 118.464C86.6143 118.992 86.452 119.442 86.4405 119.464C86.429 119.487 85.824 119.279 85.0964 119.002C83.4002 118.358 81.6606 118.182 80.4607 118.534C78.3502 119.152 76.6772 122.256 77.5423 123.948C77.6581 124.174 79.7769 125.405 82.5665 126.866L87.3906 129.393L93.0225 131.081L98.6543 132.768L107.898 131.154L117.142 129.54H124.89C130.161 129.54 132.787 129.469 133.104 129.317C133.591 129.085 133.996 128.377 133.996 127.757C133.996 127.558 133.784 127.156 133.526 126.865L133.057 126.335L124.961 126.338L116.866 126.342L107.839 127.922L98.8133 129.503L93.6761 127.949C88.7478 126.459 88.3794 126.312 84.6154 124.339C82.4574 123.209 80.6489 122.241 80.5964 122.189C80.5438 122.137 80.673 121.959 80.8835 121.794C81.7672 121.097 84.8361 122.031 87.8785 123.923L89.1802 124.732H93.334H97.4881L104.647 121.401C112.294 117.842 112.693 117.588 112.478 116.422C112.25 115.181 112.001 115.117 107.466 115.117H103.372V114.006C103.372 113.093 103.456 112.807 103.842 112.403L104.312 111.911H111.165H118.019L120.792 114.83C122.317 116.435 123.797 117.877 124.081 118.035C124.736 118.398 132.364 118.453 133.104 118.099C134.039 117.654 134.256 116.372 133.526 115.608C133.059 115.119 133.034 115.117 129.275 115.117H125.493L122.41 111.911L119.328 108.706L111.589 108.711C104.509 108.715 103.785 108.746 103.081 109.081ZM94.0263 119.394C96.3129 120.39 97.535 121.139 97.2169 121.351C97.0758 121.444 96.2714 121.521 95.4293 121.521C93.9444 121.521 93.8347 121.487 91.8052 120.394L89.7123 119.267L90.1777 118.872C90.8088 118.338 91.9583 118.493 94.0263 119.394Z" fill="#1D6BD0"/>
<path d="M49 24.5C49 38.031 38.031 49 24.5 49C10.969 49 0 38.031 0 24.5C0 10.969 10.969 0 24.5 0C38.031 0 49 10.969 49 24.5Z" fill="#FF8535"/>
<path d="M32.5466 26.3042H29.8106V23.1602H26.1386V26.3042H21.6266L28.9706 16.2002H24.8906L16.9706 26.8562V29.4722H26.0186V33.0002H29.8106V29.4722H32.5466V26.3042Z" fill="white"/>
</svg>
