<svg id="Layer_1" data-name="Layer 1" xmlns="http://www.w3.org/2000/svg" viewBox="0 0 22.68 22.68"><defs><style>.cls-1{fill:#999;}</style></defs><path class="cls-1" d="M16.25,16.9a7.87,7.87,0,0,1-10.37.66L8,15.42H9.1V14.34L10.42,13a3,3,0,0,0,0,.31A1.94,1.94,0,0,0,11.17,15a3.56,3.56,0,0,0,2.21.6,3.53,3.53,0,0,0,2.2-.6,1.92,1.92,0,0,0,.79-1.65,1.93,1.93,0,0,0-1.5-2v0a2,2,0,0,0,.92-.69,1.88,1.88,0,0,0,.33-1.14A1.86,1.86,0,0,0,15.41,8l1.5-1.5c.14.18.27.36.39.55h2.28a9.93,9.93,0,1,0,0,8.62H17.24A8,8,0,0,1,16.25,16.9Zm-2.21-3a.94.94,0,0,1-1.32,0,1.17,1.17,0,0,1-.21-.73,1.45,1.45,0,0,1,.18-.78.76.76,0,0,1,.69-.28.74.74,0,0,1,.68.28,1.36,1.36,0,0,1,.19.78A1.17,1.17,0,0,1,14,13.89ZM12.9,10.54,14,9.4a2,2,0,0,1,0,.36,1.58,1.58,0,0,1-.13.71.56.56,0,0,1-.56.26A.58.58,0,0,1,12.9,10.54ZM5.12,5.77a7.85,7.85,0,0,1,10.37-.65L13.17,7.44,10.71,9.9,9.1,11.51,7,13.59,4.46,16.15A7.89,7.89,0,0,1,5.12,5.77Zm15.05,5.16V9.05h-2v1.88H16.55v1.71h1.67v1.9h2v-1.9h1.69V10.93ZM7,12.66,9.1,9.19V7.51H7.83l-2.57,1v1.6L7,9.47Z"/></svg>