<svg width="38" height="37" viewBox="0 0 38 37" fill="none" xmlns="http://www.w3.org/2000/svg">
<path d="M26.6612 27.8692C24.9729 27.8692 23.6192 29.2229 23.6192 30.9112C23.6192 31.718 23.9397 32.4917 24.5102 33.0622C25.0807 33.6327 25.8544 33.9532 26.6612 33.9532C27.468 33.9532 28.2417 33.6327 28.8122 33.0622C29.3827 32.4917 29.7032 31.718 29.7032 30.9112C29.7032 29.2229 28.3343 27.8692 26.6612 27.8692ZM2.3252 3.5332V6.5752H5.3672L10.8428 18.1196L8.77423 21.846C8.54608 22.2719 8.40919 22.7739 8.40919 23.3062C8.40919 24.113 8.72969 24.8867 9.30018 25.4572C9.87066 26.0277 10.6444 26.3482 11.4512 26.3482H29.7032V23.3062H12.09C11.9892 23.3062 11.8924 23.2661 11.8211 23.1948C11.7498 23.1235 11.7098 23.0268 11.7098 22.926C11.7098 22.8499 11.725 22.7891 11.7554 22.7434L13.1243 20.2642H24.4557C25.5965 20.2642 26.6004 19.6254 27.1175 18.6976L32.5627 8.8567C32.6691 8.61334 32.7452 8.35477 32.7452 8.0962C32.7452 7.69281 32.5849 7.30594 32.2997 7.02069C32.0145 6.73545 31.6276 6.5752 31.2242 6.5752H8.7286L7.29886 3.5332H2.3252ZM11.4512 27.8692C9.76288 27.8692 8.40919 29.2229 8.40919 30.9112C8.40919 31.718 8.72969 32.4917 9.30018 33.0622C9.87066 33.6327 10.6444 33.9532 11.4512 33.9532C12.258 33.9532 13.0317 33.6327 13.6022 33.0622C14.1727 32.4917 14.4932 31.718 14.4932 30.9112C14.4932 29.2229 13.1243 27.8692 11.4512 27.8692Z" fill="#BEBEBE"/>
</svg>
