<svg width="437" height="425" viewBox="0 0 437 425" fill="none" xmlns="http://www.w3.org/2000/svg">
<path d="M414.328 130.095C362.51 86.2228 307.437 46.3412 249.584 10.7929C240.258 5.04431 229.517 2 218.559 2C207.602 2 196.86 5.04431 187.534 10.7929C129.705 46.3693 74.6585 86.2768 22.8675 130.172C14.4885 137.277 8.25713 146.575 4.87296 157.023C1.48878 167.471 1.08585 178.655 3.7094 189.319C19.6872 255.245 40.6905 319.852 66.5355 382.574C70.6917 392.733 77.594 401.535 86.4704 407.997C95.3467 414.459 105.847 418.325 116.796 419.163C184.49 424.279 252.473 424.279 320.167 419.163C331.122 418.313 341.627 414.443 350.514 407.984C359.401 401.524 366.321 392.729 370.505 382.574C396.316 319.839 417.318 255.235 433.331 189.319C435.919 178.647 435.49 167.466 432.094 157.023C428.698 146.58 422.467 137.284 414.096 130.172L414.328 130.095Z" fill="url(#paint0_linear_609_14622)" stroke="url(#paint1_linear_609_14622)" stroke-width="4"/>
<path d="M292.776 313.965H134.038C131.003 313.965 128.093 312.76 125.946 310.614C123.8 308.467 122.595 305.557 122.595 302.522V181.643C122.595 181.277 122.74 180.926 122.999 180.667C123.258 180.408 123.609 180.263 123.975 180.263H302.839C303.02 180.263 303.199 180.298 303.367 180.368C303.534 180.437 303.687 180.539 303.815 180.667C303.943 180.795 304.045 180.947 304.114 181.115C304.183 181.282 304.219 181.462 304.219 181.643V302.614C304.195 305.633 302.978 308.52 300.835 310.646C298.692 312.772 295.795 313.965 292.776 313.965ZM125.264 183.024V302.675C125.264 304.978 126.179 307.186 127.807 308.814C129.435 310.443 131.644 311.357 133.946 311.357H292.776C295.078 311.357 297.287 310.443 298.915 308.814C300.543 307.186 301.458 304.978 301.458 302.675V183.024H125.264Z" fill="#1D6BD0"/>
<path d="M222.241 208.916H204.662C204.296 208.916 203.945 208.771 203.686 208.512C203.427 208.253 203.281 207.902 203.281 207.536V189.987C203.281 189.621 203.427 189.27 203.686 189.011C203.945 188.752 204.296 188.606 204.662 188.606H222.241C222.608 188.606 222.959 188.752 223.218 189.011C223.477 189.27 223.622 189.621 223.622 189.987V207.536C223.622 207.902 223.477 208.253 223.218 208.512C222.959 208.771 222.608 208.916 222.241 208.916ZM206.042 206.155H220.861V191.245H206.042V206.155Z" fill="#1D6BD0"/>
<path d="M246.786 208.916H229.207C228.841 208.916 228.489 208.771 228.231 208.512C227.972 208.253 227.826 207.902 227.826 207.536V189.987C227.826 189.621 227.972 189.27 228.231 189.011C228.489 188.752 228.841 188.606 229.207 188.606H246.786C247.147 188.614 247.49 188.763 247.743 189.022C247.995 189.28 248.136 189.626 248.136 189.987V207.536C248.136 207.897 247.995 208.243 247.743 208.501C247.49 208.759 247.147 208.908 246.786 208.916ZM230.587 206.155H245.406V191.245H230.587V206.155Z" fill="#1D6BD0"/>
<path d="M271.299 208.916H253.719C253.353 208.916 253.002 208.771 252.743 208.512C252.484 208.253 252.339 207.902 252.339 207.536V189.987C252.339 189.621 252.484 189.27 252.743 189.011C253.002 188.752 253.353 188.606 253.719 188.606H271.299C271.665 188.606 272.016 188.752 272.275 189.011C272.534 189.27 272.68 189.621 272.68 189.987V207.536C272.68 207.902 272.534 208.253 272.275 208.512C272.016 208.771 271.665 208.916 271.299 208.916ZM255.1 206.155H269.918V191.245H255.1V206.155Z" fill="#1D6BD0"/>
<path d="M295.844 208.916H278.264C277.898 208.916 277.547 208.771 277.288 208.512C277.029 208.253 276.884 207.902 276.884 207.536V189.987C276.884 189.621 277.029 189.27 277.288 189.011C277.547 188.752 277.898 188.606 278.264 188.606H295.844C296.205 188.614 296.548 188.763 296.8 189.022C297.053 189.28 297.194 189.626 297.194 189.987V207.536C297.194 207.897 297.053 208.243 296.8 208.501C296.548 208.759 296.205 208.908 295.844 208.916V208.916ZM279.645 206.155H294.463V191.245H279.645V206.155Z" fill="#1D6BD0"/>
<path d="M148.643 233.399H131.094C130.728 233.399 130.377 233.253 130.118 232.995C129.859 232.736 129.714 232.384 129.714 232.018V214.439C129.722 214.078 129.871 213.735 130.129 213.482C130.387 213.23 130.734 213.089 131.094 213.089H148.643C149.004 213.089 149.351 213.23 149.609 213.482C149.867 213.735 150.016 214.078 150.024 214.439V232.018C150.024 232.384 149.878 232.736 149.62 232.995C149.361 233.253 149.009 233.399 148.643 233.399V233.399ZM132.475 230.638H147.263V215.789H132.475V230.638Z" fill="#1D6BD0"/>
<path d="M173.185 233.399H155.605C155.239 233.399 154.888 233.253 154.629 232.995C154.37 232.736 154.225 232.384 154.225 232.018V214.439C154.233 214.078 154.382 213.735 154.64 213.482C154.898 213.23 155.244 213.089 155.605 213.089H173.185C173.546 213.089 173.892 213.23 174.15 213.482C174.408 213.735 174.557 214.078 174.565 214.439V232.018C174.565 232.384 174.42 232.736 174.161 232.995C173.902 233.253 173.551 233.399 173.185 233.399V233.399ZM156.986 230.638H171.804V215.789H156.986V230.638Z" fill="#1D6BD0"/>
<path d="M197.729 233.399H180.149C179.783 233.399 179.432 233.253 179.173 232.995C178.914 232.736 178.769 232.384 178.769 232.018V214.439C178.777 214.078 178.926 213.735 179.184 213.482C179.442 213.23 179.788 213.089 180.149 213.089H197.729C198.087 213.089 198.43 213.231 198.683 213.484C198.936 213.737 199.079 214.081 199.079 214.439V232.018C199.079 232.379 198.937 232.726 198.685 232.984C198.433 233.242 198.089 233.391 197.729 233.399V233.399ZM181.53 230.638H196.348V215.789H181.53V230.638Z" fill="#1D6BD0"/>
<path d="M222.241 233.399H204.662C204.296 233.399 203.945 233.253 203.686 232.995C203.427 232.736 203.281 232.384 203.281 232.018V214.439C203.289 214.078 203.438 213.735 203.696 213.482C203.954 213.23 204.301 213.089 204.662 213.089H222.241C222.602 213.089 222.949 213.23 223.207 213.482C223.465 213.735 223.614 214.078 223.622 214.439V232.018C223.622 232.384 223.477 232.736 223.218 232.995C222.959 233.253 222.608 233.399 222.241 233.399V233.399ZM206.042 230.638H220.861V215.789H206.042V230.638Z" fill="#1D6BD0"/>
<path d="M246.786 233.399H229.207C228.841 233.399 228.489 233.253 228.231 232.995C227.972 232.736 227.826 232.384 227.826 232.018V214.439C227.834 214.078 227.983 213.735 228.241 213.482C228.499 213.23 228.846 213.089 229.207 213.089H246.786C247.144 213.089 247.488 213.231 247.741 213.484C247.994 213.737 248.136 214.081 248.136 214.439V232.018C248.136 232.379 247.995 232.726 247.743 232.984C247.49 233.242 247.147 233.391 246.786 233.399V233.399ZM230.587 230.638H245.406V215.789H230.587V230.638Z" fill="#1D6BD0"/>
<path d="M271.299 233.399H253.719C253.353 233.399 253.002 233.253 252.743 232.995C252.484 232.736 252.339 232.384 252.339 232.018V214.439C252.347 214.078 252.496 213.735 252.754 213.482C253.012 213.23 253.359 213.089 253.719 213.089H271.299C271.66 213.089 272.006 213.23 272.265 213.482C272.523 213.735 272.672 214.078 272.68 214.439V232.018C272.68 232.384 272.534 232.736 272.275 232.995C272.016 233.253 271.665 233.399 271.299 233.399V233.399ZM255.1 230.638H269.918V215.789H255.1V230.638Z" fill="#1D6BD0"/>
<path d="M295.844 233.399H278.264C277.898 233.399 277.547 233.253 277.288 232.995C277.029 232.736 276.884 232.384 276.884 232.018V214.439C276.892 214.078 277.041 213.735 277.299 213.482C277.557 213.23 277.903 213.089 278.264 213.089H295.844C296.202 213.089 296.545 213.231 296.798 213.484C297.052 213.737 297.194 214.081 297.194 214.439V232.018C297.194 232.379 297.053 232.726 296.8 232.984C296.548 233.242 296.205 233.391 295.844 233.399V233.399ZM279.645 230.638H294.463V215.789H279.645V230.638Z" fill="#1D6BD0"/>
<path d="M148.643 257.882H131.094C130.728 257.882 130.377 257.736 130.118 257.477C129.859 257.218 129.714 256.867 129.714 256.501V238.922C129.714 238.74 129.75 238.561 129.819 238.393C129.888 238.226 129.99 238.074 130.118 237.945C130.246 237.817 130.399 237.715 130.566 237.646C130.734 237.577 130.913 237.541 131.094 237.541H148.643C148.825 237.541 149.004 237.577 149.172 237.646C149.339 237.715 149.491 237.817 149.62 237.945C149.748 238.074 149.849 238.226 149.919 238.393C149.988 238.561 150.024 238.74 150.024 238.922V256.501C150.024 256.867 149.878 257.218 149.62 257.477C149.361 257.736 149.009 257.882 148.643 257.882V257.882ZM132.475 255.121H147.263V240.333H132.475V255.121Z" fill="#1D6BD0"/>
<path d="M173.185 257.882H155.605C155.239 257.882 154.888 257.736 154.629 257.477C154.37 257.218 154.225 256.867 154.225 256.501V238.922C154.225 238.74 154.26 238.561 154.33 238.393C154.399 238.226 154.501 238.074 154.629 237.945C154.757 237.817 154.909 237.715 155.077 237.646C155.244 237.577 155.424 237.541 155.605 237.541H173.185C173.366 237.541 173.546 237.577 173.713 237.646C173.881 237.715 174.033 237.817 174.161 237.945C174.289 238.074 174.391 238.226 174.46 238.393C174.53 238.561 174.565 238.74 174.565 238.922V256.501C174.565 256.867 174.42 257.218 174.161 257.477C173.902 257.736 173.551 257.882 173.185 257.882V257.882ZM156.986 255.121H171.804V240.333H156.986V255.121Z" fill="#1D6BD0"/>
<path d="M197.729 257.882H180.149C179.783 257.882 179.432 257.736 179.173 257.477C178.914 257.218 178.769 256.867 178.769 256.501V238.922C178.769 238.74 178.804 238.561 178.874 238.393C178.943 238.226 179.045 238.074 179.173 237.945C179.301 237.817 179.453 237.715 179.621 237.646C179.788 237.577 179.968 237.541 180.149 237.541H197.729C198.089 237.549 198.433 237.698 198.685 237.956C198.937 238.214 199.079 238.561 199.079 238.922V256.501C199.079 256.862 198.937 257.209 198.685 257.467C198.433 257.725 198.089 257.874 197.729 257.882V257.882ZM181.53 255.121H196.348V240.333H181.53V255.121Z" fill="#1D6BD0"/>
<path d="M222.241 257.882H204.662C204.296 257.882 203.945 257.736 203.686 257.477C203.427 257.218 203.281 256.867 203.281 256.501V238.922C203.281 238.74 203.317 238.561 203.386 238.393C203.456 238.226 203.557 238.074 203.686 237.945C203.814 237.817 203.966 237.715 204.134 237.646C204.301 237.577 204.481 237.541 204.662 237.541H222.241C222.423 237.541 222.602 237.577 222.77 237.646C222.937 237.715 223.089 237.817 223.218 237.945C223.346 238.074 223.447 238.226 223.517 238.393C223.586 238.561 223.622 238.74 223.622 238.922V256.501C223.622 256.867 223.477 257.218 223.218 257.477C222.959 257.736 222.608 257.882 222.241 257.882ZM206.042 255.121H220.861V240.333H206.042V255.121Z" fill="#1D6BD0"/>
<path d="M246.786 257.882H229.207C228.841 257.882 228.489 257.736 228.231 257.477C227.972 257.218 227.826 256.867 227.826 256.501V238.922C227.826 238.74 227.862 238.561 227.931 238.393C228.001 238.226 228.102 238.074 228.231 237.945C228.359 237.817 228.511 237.715 228.678 237.646C228.846 237.577 229.025 237.541 229.207 237.541H246.786C247.147 237.549 247.49 237.698 247.743 237.956C247.995 238.214 248.136 238.561 248.136 238.922V256.501C248.136 256.862 247.995 257.209 247.743 257.467C247.49 257.725 247.147 257.874 246.786 257.882ZM230.587 255.121H245.406V240.333H230.587V255.121Z" fill="#1D6BD0"/>
<path d="M271.299 257.882H253.719C253.353 257.882 253.002 257.736 252.743 257.477C252.484 257.218 252.339 256.867 252.339 256.501V238.922C252.347 238.558 252.495 238.211 252.752 237.954C253.009 237.697 253.356 237.549 253.719 237.541H271.299C271.48 237.541 271.66 237.577 271.827 237.646C271.995 237.715 272.147 237.817 272.275 237.945C272.403 238.074 272.505 238.226 272.574 238.393C272.644 238.561 272.68 238.74 272.68 238.922V256.501C272.68 256.867 272.534 257.218 272.275 257.477C272.016 257.736 271.665 257.882 271.299 257.882ZM255.1 255.121H269.918V240.333H255.1V255.121Z" fill="#1D6BD0"/>
<path d="M295.844 257.882H278.264C277.898 257.882 277.547 257.736 277.288 257.477C277.029 257.218 276.884 256.867 276.884 256.501V238.922C276.884 238.74 276.92 238.561 276.989 238.393C277.058 238.226 277.16 238.074 277.288 237.945C277.416 237.817 277.569 237.715 277.736 237.646C277.904 237.577 278.083 237.541 278.264 237.541H295.844C296.205 237.549 296.548 237.698 296.8 237.956C297.053 238.214 297.194 238.561 297.194 238.922V256.501C297.194 256.862 297.053 257.209 296.8 257.467C296.548 257.725 296.205 257.874 295.844 257.882V257.882ZM279.645 255.121H294.463V240.333H279.645V255.121Z" fill="#1D6BD0"/>
<path d="M148.643 282.365H131.094C130.913 282.365 130.734 282.329 130.566 282.26C130.399 282.191 130.246 282.089 130.118 281.961C129.99 281.833 129.888 281.68 129.819 281.513C129.75 281.345 129.714 281.166 129.714 280.985V263.405C129.714 263.039 129.859 262.688 130.118 262.429C130.377 262.17 130.728 262.024 131.094 262.024H148.643C149.009 262.024 149.361 262.17 149.62 262.429C149.878 262.688 150.024 263.039 150.024 263.405V280.985C150.024 281.166 149.988 281.345 149.919 281.513C149.849 281.68 149.748 281.833 149.62 281.961C149.491 282.089 149.339 282.191 149.172 282.26C149.004 282.329 148.825 282.365 148.643 282.365V282.365ZM132.475 279.604H147.263V264.878H132.475V279.604Z" fill="#1D6BD0"/>
<path d="M173.185 282.365H155.605C155.424 282.365 155.244 282.329 155.077 282.26C154.909 282.191 154.757 282.089 154.629 281.961C154.501 281.833 154.399 281.68 154.33 281.513C154.26 281.345 154.225 281.166 154.225 280.985V263.405C154.225 263.039 154.37 262.688 154.629 262.429C154.888 262.17 155.239 262.024 155.605 262.024H173.185C173.551 262.024 173.902 262.17 174.161 262.429C174.42 262.688 174.565 263.039 174.565 263.405V280.985C174.565 281.166 174.53 281.345 174.46 281.513C174.391 281.68 174.289 281.833 174.161 281.961C174.033 282.089 173.881 282.191 173.713 282.26C173.546 282.329 173.366 282.365 173.185 282.365V282.365ZM156.986 279.604H171.804V264.878H156.986V279.604Z" fill="#1D6BD0"/>
<path d="M197.729 282.365H180.149C179.968 282.365 179.788 282.329 179.621 282.26C179.453 282.191 179.301 282.089 179.173 281.961C179.045 281.833 178.943 281.68 178.874 281.513C178.804 281.345 178.769 281.166 178.769 280.985V263.405C178.769 263.039 178.914 262.688 179.173 262.429C179.432 262.17 179.783 262.024 180.149 262.024H197.729C198.089 262.032 198.433 262.181 198.685 262.439C198.937 262.698 199.079 263.044 199.079 263.405V280.985C199.079 281.345 198.937 281.692 198.685 281.95C198.433 282.208 198.089 282.357 197.729 282.365V282.365ZM181.53 279.604H196.348V264.878H181.53V279.604Z" fill="#1D6BD0"/>
<path d="M222.241 282.365H204.662C204.481 282.365 204.301 282.329 204.134 282.26C203.966 282.191 203.814 282.089 203.686 281.961C203.557 281.833 203.456 281.68 203.386 281.513C203.317 281.345 203.281 281.166 203.281 280.985V263.405C203.281 263.039 203.427 262.688 203.686 262.429C203.945 262.17 204.296 262.024 204.662 262.024H222.241C222.608 262.024 222.959 262.17 223.218 262.429C223.477 262.688 223.622 263.039 223.622 263.405V280.985C223.622 281.166 223.586 281.345 223.517 281.513C223.447 281.68 223.346 281.833 223.218 281.961C223.089 282.089 222.937 282.191 222.77 282.26C222.602 282.329 222.423 282.365 222.241 282.365ZM206.042 279.604H220.861V264.878H206.042V279.604Z" fill="#1D6BD0"/>
<path d="M246.786 282.365H229.207C229.025 282.365 228.846 282.329 228.678 282.26C228.511 282.191 228.359 282.089 228.231 281.961C228.102 281.833 228.001 281.68 227.931 281.513C227.862 281.345 227.826 281.166 227.826 280.985V263.405C227.826 263.039 227.972 262.688 228.231 262.429C228.489 262.17 228.841 262.024 229.207 262.024H246.786C247.147 262.032 247.49 262.181 247.743 262.439C247.995 262.698 248.136 263.044 248.136 263.405V280.985C248.136 281.345 247.995 281.692 247.743 281.95C247.49 282.208 247.147 282.357 246.786 282.365V282.365ZM230.587 279.604H245.406V264.878H230.587V279.604Z" fill="#1D6BD0"/>
<path d="M271.299 282.365H253.719C253.538 282.365 253.359 282.329 253.191 282.26C253.024 282.191 252.871 282.089 252.743 281.961C252.615 281.833 252.513 281.68 252.444 281.513C252.375 281.345 252.339 281.166 252.339 280.985V263.405C252.339 263.039 252.484 262.688 252.743 262.429C253.002 262.17 253.353 262.024 253.719 262.024H271.299C271.665 262.024 272.016 262.17 272.275 262.429C272.534 262.688 272.68 263.039 272.68 263.405V280.985C272.68 281.166 272.644 281.345 272.574 281.513C272.505 281.68 272.403 281.833 272.275 281.961C272.147 282.089 271.995 282.191 271.827 282.26C271.66 282.329 271.48 282.365 271.299 282.365ZM255.1 279.604H269.918V264.878H255.1V279.604Z" fill="#1D6BD0"/>
<path d="M295.844 282.365H278.264C278.083 282.365 277.904 282.329 277.736 282.26C277.569 282.191 277.416 282.089 277.288 281.961C277.16 281.833 277.058 281.68 276.989 281.513C276.92 281.345 276.884 281.166 276.884 280.985V263.405C276.884 263.039 277.029 262.688 277.288 262.429C277.547 262.17 277.898 262.024 278.264 262.024H295.844C296.205 262.032 296.548 262.181 296.8 262.439C297.053 262.698 297.194 263.044 297.194 263.405V280.985C297.194 281.345 297.053 281.692 296.8 281.95C296.548 282.208 296.205 282.357 295.844 282.365V282.365ZM279.645 279.604H294.463V264.878H279.645V279.604Z" fill="#1D6BD0"/>
<path d="M148.643 306.847H131.094C130.728 306.847 130.377 306.701 130.118 306.442C129.859 306.183 129.714 305.832 129.714 305.466V287.886C129.714 287.52 129.859 287.169 130.118 286.91C130.377 286.651 130.728 286.506 131.094 286.506H148.643C149.009 286.506 149.361 286.651 149.62 286.91C149.878 287.169 150.024 287.52 150.024 287.886V305.466C150.024 305.832 149.878 306.183 149.62 306.442C149.361 306.701 149.009 306.847 148.643 306.847V306.847ZM132.475 304.085H147.263V289.42H132.475V304.085Z" fill="#1D6BD0"/>
<path d="M173.185 306.847H155.605C155.239 306.847 154.888 306.701 154.629 306.442C154.37 306.183 154.225 305.832 154.225 305.466V287.886C154.225 287.52 154.37 287.169 154.629 286.91C154.888 286.651 155.239 286.506 155.605 286.506H173.185C173.551 286.506 173.902 286.651 174.161 286.91C174.42 287.169 174.565 287.52 174.565 287.886V305.466C174.565 305.832 174.42 306.183 174.161 306.442C173.902 306.701 173.551 306.847 173.185 306.847V306.847ZM156.986 304.085H171.804V289.42H156.986V304.085Z" fill="#1D6BD0"/>
<path d="M197.729 306.847H180.149C179.783 306.847 179.432 306.701 179.173 306.442C178.914 306.183 178.769 305.832 178.769 305.466V287.886C178.769 287.52 178.914 287.169 179.173 286.91C179.432 286.651 179.783 286.506 180.149 286.506H197.729C198.089 286.514 198.433 286.663 198.685 286.921C198.937 287.179 199.079 287.526 199.079 287.886V305.466C199.079 305.827 198.937 306.173 198.685 306.432C198.433 306.69 198.089 306.839 197.729 306.847V306.847ZM181.53 304.085H196.348V289.42H181.53V304.085Z" fill="#1D6BD0"/>
<path d="M222.241 306.847H204.662C204.296 306.847 203.945 306.701 203.686 306.442C203.427 306.183 203.281 305.832 203.281 305.466V287.886C203.281 287.52 203.427 287.169 203.686 286.91C203.945 286.651 204.296 286.506 204.662 286.506H222.241C222.608 286.506 222.959 286.651 223.218 286.91C223.477 287.169 223.622 287.52 223.622 287.886V305.466C223.622 305.832 223.477 306.183 223.218 306.442C222.959 306.701 222.608 306.847 222.241 306.847ZM206.042 304.085H220.861V289.42H206.042V304.085Z" fill="#1D6BD0"/>
<path d="M246.786 306.847H229.207C228.841 306.847 228.489 306.701 228.231 306.442C227.972 306.183 227.826 305.832 227.826 305.466V287.886C227.826 287.52 227.972 287.169 228.231 286.91C228.489 286.651 228.841 286.506 229.207 286.506H246.786C247.147 286.514 247.49 286.663 247.743 286.921C247.995 287.179 248.136 287.526 248.136 287.886V305.466C248.136 305.827 247.995 306.173 247.743 306.432C247.49 306.69 247.147 306.839 246.786 306.847ZM230.587 304.085H245.406V289.42H230.587V304.085Z" fill="#1D6BD0"/>
<path d="M271.299 306.847H253.719C253.353 306.847 253.002 306.701 252.743 306.442C252.484 306.183 252.339 305.832 252.339 305.466V287.886C252.339 287.52 252.484 287.169 252.743 286.91C253.002 286.651 253.353 286.506 253.719 286.506H271.299C271.665 286.506 272.016 286.651 272.275 286.91C272.534 287.169 272.68 287.52 272.68 287.886V305.466C272.68 305.832 272.534 306.183 272.275 306.442C272.016 306.701 271.665 306.847 271.299 306.847ZM255.1 304.085H269.918V289.42H255.1V304.085Z" fill="#1D6BD0"/>
<path d="M137.23 168.389C135.412 168.389 133.669 167.669 132.381 166.387C131.093 165.105 130.366 163.365 130.357 161.547V149.889C130.357 148.066 131.081 146.318 132.37 145.029C133.659 143.741 135.407 143.017 137.23 143.017C139.052 143.017 140.8 143.741 142.089 145.029C143.378 146.318 144.102 148.066 144.102 149.889V161.547C144.094 163.365 143.366 165.105 142.078 166.387C140.79 167.669 139.047 168.389 137.23 168.389V168.389ZM137.23 145.778C136.139 145.778 135.094 146.211 134.323 146.982C133.552 147.753 133.119 148.799 133.119 149.889V161.547C133.119 162.638 133.552 163.683 134.323 164.454C135.094 165.225 136.139 165.658 137.23 165.658C138.32 165.658 139.366 165.225 140.137 164.454C140.908 163.683 141.341 162.638 141.341 161.547V149.889C141.341 148.799 140.908 147.753 140.137 146.982C139.366 146.211 138.32 145.778 137.23 145.778Z" fill="#1D6BD0"/>
<path d="M162.508 168.389C160.691 168.389 158.947 167.669 157.659 166.387C156.371 165.105 155.644 163.365 155.636 161.547V149.889C155.636 148.066 156.36 146.318 157.649 145.029C158.937 143.741 160.685 143.017 162.508 143.017C164.331 143.017 166.079 143.741 167.367 145.029C168.656 146.318 169.38 148.066 169.38 149.889V161.547C169.38 162.448 169.202 163.34 168.857 164.172C168.511 165.005 168.004 165.76 167.366 166.396C166.727 167.032 165.969 167.535 165.136 167.877C164.302 168.219 163.409 168.393 162.508 168.389V168.389ZM162.508 145.778C161.418 145.778 160.372 146.211 159.601 146.982C158.83 147.753 158.397 148.799 158.397 149.889V161.547C158.397 162.638 158.83 163.683 159.601 164.454C160.372 165.225 161.418 165.658 162.508 165.658C163.598 165.658 164.644 165.225 165.415 164.454C166.186 163.683 166.619 162.638 166.619 161.547V149.889C166.619 148.799 166.186 147.753 165.415 146.982C164.644 146.211 163.598 145.778 162.508 145.778Z" fill="#1D6BD0"/>
<path d="M187.788 168.389C185.971 168.389 184.228 167.669 182.94 166.387C181.652 165.105 180.924 163.365 180.916 161.547V149.889C180.916 148.066 181.64 146.318 182.929 145.029C184.218 143.741 185.966 143.017 187.788 143.017C189.611 143.017 191.359 143.741 192.648 145.029C193.937 146.318 194.661 148.066 194.661 149.889V161.547C194.661 162.448 194.483 163.34 194.137 164.172C193.791 165.005 193.284 165.76 192.646 166.396C192.007 167.032 191.249 167.535 190.416 167.877C189.582 168.219 188.689 168.393 187.788 168.389ZM187.788 145.778C187.238 145.761 186.69 145.856 186.177 146.055C185.664 146.254 185.196 146.554 184.802 146.938C184.407 147.321 184.093 147.78 183.879 148.287C183.665 148.794 183.554 149.339 183.554 149.889V161.547C183.554 162.638 183.988 163.683 184.759 164.454C185.53 165.225 186.575 165.658 187.666 165.658C188.756 165.658 189.802 165.225 190.573 164.454C191.344 163.683 191.777 162.638 191.777 161.547V149.889C191.777 148.819 191.361 147.792 190.616 147.024C189.872 146.257 188.857 145.81 187.788 145.778V145.778Z" fill="#1D6BD0"/>
<path d="M213.07 168.389C211.252 168.389 209.509 167.669 208.221 166.387C206.933 165.105 206.205 163.365 206.197 161.547V149.889C206.197 148.066 206.921 146.318 208.21 145.029C209.499 143.741 211.247 143.017 213.07 143.017C214.892 143.017 216.64 143.741 217.929 145.029C219.218 146.318 219.942 148.066 219.942 149.889V161.547C219.942 162.448 219.764 163.34 219.418 164.172C219.072 165.005 218.566 165.76 217.927 166.396C217.289 167.032 216.531 167.535 215.697 167.877C214.864 168.219 213.971 168.393 213.07 168.389V168.389ZM213.07 145.778C211.979 145.778 210.934 146.211 210.163 146.982C209.392 147.753 208.958 148.799 208.958 149.889V161.547C208.958 162.638 209.392 163.683 210.163 164.454C210.934 165.225 211.979 165.658 213.07 165.658C214.16 165.658 215.206 165.225 215.977 164.454C216.748 163.683 217.181 162.638 217.181 161.547V149.889C217.181 148.799 216.748 147.753 215.977 146.982C215.206 146.211 214.16 145.778 213.07 145.778V145.778Z" fill="#1D6BD0"/>
<path d="M238.35 168.39C236.536 168.39 234.795 167.669 233.512 166.386C232.229 165.103 231.509 163.363 231.509 161.548V149.89C231.446 148.951 231.576 148.009 231.892 147.122C232.209 146.236 232.703 145.424 233.346 144.736C233.989 144.049 234.766 143.501 235.63 143.127C236.493 142.752 237.424 142.559 238.365 142.559C239.307 142.559 240.238 142.752 241.101 143.127C241.964 143.501 242.742 144.049 243.384 144.736C244.027 145.424 244.522 146.236 244.838 147.122C245.155 148.009 245.285 148.951 245.222 149.89V161.548C245.222 162.449 245.044 163.341 244.699 164.173C244.353 165.005 243.846 165.761 243.208 166.397C242.569 167.032 241.811 167.536 240.978 167.878C240.144 168.22 239.251 168.394 238.35 168.39V168.39ZM238.35 145.779C237.262 145.787 236.221 146.222 235.452 146.992C234.683 147.761 234.247 148.802 234.239 149.89V161.548C234.239 162.638 234.672 163.684 235.443 164.455C236.214 165.226 237.26 165.659 238.35 165.659C239.44 165.659 240.486 165.226 241.257 164.455C242.028 163.684 242.461 162.638 242.461 161.548V149.89C242.461 148.799 242.028 147.754 241.257 146.983C240.486 146.212 239.44 145.779 238.35 145.779V145.779Z" fill="#1D6BD0"/>
<path d="M263.63 168.39C261.816 168.39 260.076 167.669 258.793 166.386C257.51 165.103 256.789 163.363 256.789 161.548V149.89C256.726 148.951 256.857 148.009 257.173 147.122C257.489 146.236 257.984 145.424 258.627 144.736C259.27 144.049 260.047 143.501 260.91 143.127C261.773 142.752 262.705 142.559 263.646 142.559C264.587 142.559 265.518 142.752 266.381 143.127C267.245 143.501 268.022 144.049 268.665 144.736C269.308 145.424 269.802 146.236 270.119 147.122C270.435 148.009 270.565 148.951 270.503 149.89V161.548C270.503 162.449 270.325 163.341 269.979 164.173C269.633 165.005 269.127 165.761 268.488 166.397C267.849 167.032 267.092 167.536 266.258 167.878C265.424 168.22 264.531 168.394 263.63 168.39V168.39ZM263.63 145.779C262.545 145.787 261.508 146.223 260.743 146.994C259.979 147.764 259.55 148.805 259.55 149.89V161.548C259.639 162.573 260.109 163.528 260.867 164.223C261.625 164.919 262.617 165.304 263.646 165.304C264.675 165.304 265.666 164.919 266.424 164.223C267.183 163.528 267.653 162.573 267.741 161.548V149.89C267.741 149.35 267.635 148.815 267.429 148.317C267.222 147.818 266.919 147.365 266.537 146.983C266.156 146.601 265.702 146.298 265.204 146.092C264.705 145.885 264.17 145.779 263.63 145.779V145.779Z" fill="#1D6BD0"/>
<path d="M295.352 320.745H131.767C127.881 320.737 124.155 319.189 121.407 316.441C118.658 313.692 117.111 309.967 117.103 306.08V155.595C117.103 155.229 117.248 154.878 117.507 154.619C117.766 154.36 118.117 154.215 118.483 154.215H127.84C128.207 154.215 128.558 154.36 128.817 154.619C129.076 154.878 129.221 155.229 129.221 155.595V161.547C129.221 163.671 130.065 165.708 131.566 167.209C133.068 168.711 135.105 169.555 137.228 169.555C139.352 169.555 141.389 168.711 142.891 167.209C144.392 165.708 145.236 163.671 145.236 161.547V155.595C145.236 155.229 145.381 154.878 145.64 154.619C145.899 154.36 146.25 154.215 146.617 154.215H153.121C153.487 154.215 153.838 154.36 154.097 154.619C154.356 154.878 154.501 155.229 154.501 155.595V161.547C154.501 163.671 155.345 165.708 156.847 167.209C158.348 168.711 160.385 169.555 162.509 169.555C164.632 169.555 166.669 168.711 168.171 167.209C169.672 165.708 170.516 163.671 170.516 161.547V155.595C170.516 155.414 170.552 155.235 170.621 155.067C170.691 154.9 170.792 154.747 170.92 154.619C171.049 154.491 171.201 154.389 171.368 154.32C171.536 154.251 171.715 154.215 171.897 154.215H178.401C178.767 154.215 179.118 154.36 179.377 154.619C179.636 154.878 179.781 155.229 179.781 155.595V161.547C179.781 163.671 180.625 165.708 182.127 167.209C183.628 168.711 185.665 169.555 187.789 169.555C189.912 169.555 191.949 168.711 193.451 167.209C194.953 165.708 195.796 163.671 195.796 161.547V155.595C195.796 155.229 195.942 154.878 196.201 154.619C196.46 154.36 196.811 154.215 197.177 154.215H203.681C204.047 154.215 204.398 154.36 204.657 154.619C204.916 154.878 205.062 155.229 205.062 155.595V161.547C205.188 163.589 206.088 165.506 207.579 166.908C209.069 168.309 211.038 169.089 213.084 169.089C215.13 169.089 217.099 168.309 218.59 166.908C220.08 165.506 220.981 163.589 221.107 161.547V155.595C221.107 155.235 221.248 154.888 221.501 154.63C221.753 154.372 222.096 154.223 222.457 154.215H228.961C229.327 154.215 229.678 154.36 229.937 154.619C230.196 154.878 230.342 155.229 230.342 155.595V161.547C230.468 163.589 231.368 165.506 232.859 166.908C234.35 168.309 236.319 169.089 238.364 169.089C240.41 169.089 242.379 168.309 243.87 166.908C245.361 165.506 246.261 163.589 246.387 161.547V155.595C246.387 155.235 246.528 154.888 246.781 154.63C247.033 154.372 247.376 154.223 247.737 154.215H254.119C254.485 154.215 254.836 154.36 255.095 154.619C255.354 154.878 255.499 155.229 255.499 155.595V161.547C255.625 163.589 256.526 165.506 258.016 166.908C259.507 168.309 261.476 169.089 263.522 169.089C265.568 169.089 267.537 168.309 269.027 166.908C270.518 165.506 271.418 163.589 271.545 161.547V155.595C271.545 155.229 271.69 154.878 271.949 154.619C272.208 154.36 272.559 154.215 272.925 154.215H279.399C279.765 154.215 280.116 154.36 280.375 154.619C280.634 154.878 280.779 155.229 280.779 155.595V161.547C280.906 163.589 281.806 165.506 283.297 166.908C284.787 168.309 286.756 169.089 288.802 169.089C290.848 169.089 292.817 168.309 294.308 166.908C295.798 165.506 296.698 163.589 296.825 161.547V155.595C296.825 155.229 296.97 154.878 297.229 154.619C297.488 154.36 297.839 154.215 298.205 154.215H308.514C308.88 154.215 309.231 154.36 309.49 154.619C309.749 154.878 309.894 155.229 309.894 155.595V306.08C309.887 309.946 308.356 313.653 305.634 316.398C302.912 319.143 299.218 320.704 295.352 320.745V320.745ZM119.864 156.976V306.08C119.864 309.237 121.118 312.265 123.35 314.497C125.583 316.729 128.61 317.984 131.767 317.984H295.352C298.509 317.984 301.537 316.729 303.769 314.497C306.002 312.265 307.256 309.237 307.256 306.08V156.976H299.709V161.547C299.425 164.197 298.171 166.649 296.189 168.43C294.207 170.212 291.636 171.197 288.971 171.197C286.306 171.197 283.735 170.212 281.752 168.43C279.77 166.649 278.517 164.197 278.233 161.547V156.976H274.429V161.547C274.145 164.197 272.891 166.649 270.909 168.43C268.927 170.212 266.356 171.197 263.691 171.197C261.026 171.197 258.455 170.212 256.472 168.43C254.49 166.649 253.236 164.197 252.953 161.547V156.976H249.118V161.547C249.23 163.026 249.035 164.511 248.546 165.911C248.057 167.311 247.284 168.594 246.276 169.681C245.268 170.769 244.047 171.636 242.688 172.229C241.329 172.822 239.862 173.128 238.38 173.128C236.897 173.128 235.431 172.822 234.072 172.229C232.713 171.636 231.491 170.769 230.483 169.681C229.475 168.594 228.703 167.311 228.214 165.911C227.725 164.511 227.53 163.026 227.642 161.547V156.976H223.838V161.547C223.949 163.026 223.755 164.511 223.266 165.911C222.777 167.311 222.004 168.594 220.996 169.681C219.988 170.769 218.766 171.636 217.408 172.229C216.049 172.822 214.582 173.128 213.1 173.128C211.617 173.128 210.15 172.822 208.792 172.229C207.433 171.636 206.211 170.769 205.203 169.681C204.195 168.594 203.422 167.311 202.933 165.911C202.445 164.511 202.25 163.026 202.362 161.547V156.976H198.557V161.547C198.669 163.026 198.475 164.511 197.986 165.911C197.497 167.311 196.724 168.594 195.716 169.681C194.708 170.769 193.486 171.636 192.127 172.229C190.769 172.822 189.302 173.128 187.819 173.128C186.337 173.128 184.87 172.822 183.511 172.229C182.153 171.636 180.931 170.769 179.923 169.681C178.915 168.594 178.142 167.311 177.653 165.911C177.164 164.511 176.97 163.026 177.082 161.547V156.976H173.277V161.547C173.389 163.026 173.194 164.511 172.706 165.911C172.217 167.311 171.444 168.594 170.436 169.681C169.428 170.769 168.206 171.636 166.847 172.229C165.489 172.822 164.022 173.128 162.539 173.128C161.057 173.128 159.59 172.822 158.231 172.229C156.873 171.636 155.651 170.769 154.643 169.681C153.635 168.594 152.862 167.311 152.373 165.911C151.884 164.511 151.69 163.026 151.801 161.547V156.976H147.997V161.547C147.792 164.255 146.572 166.785 144.581 168.632C142.59 170.478 139.975 171.504 137.259 171.504C134.544 171.504 131.929 170.478 129.937 168.632C127.946 166.785 126.726 164.255 126.521 161.547V156.976H119.864Z" fill="#1D6BD0"/>
<path d="M288.909 168.39C287.094 168.39 285.354 167.669 284.071 166.386C282.788 165.103 282.067 163.363 282.067 161.548V149.89C282.004 148.951 282.135 148.009 282.451 147.122C282.767 146.236 283.262 145.424 283.905 144.736C284.548 144.049 285.325 143.501 286.188 143.127C287.052 142.752 287.983 142.559 288.924 142.559C289.865 142.559 290.796 142.752 291.66 143.127C292.523 143.501 293.3 144.049 293.943 144.736C294.586 145.424 295.081 146.236 295.397 147.122C295.713 148.009 295.844 148.951 295.781 149.89V161.548C295.781 162.449 295.603 163.341 295.257 164.173C294.912 165.005 294.405 165.761 293.766 166.397C293.128 167.032 292.37 167.536 291.536 167.878C290.703 168.22 289.81 168.394 288.909 168.39V168.39ZM288.909 145.779C288.369 145.779 287.834 145.885 287.335 146.092C286.837 146.298 286.383 146.601 286.002 146.983C285.62 147.365 285.317 147.818 285.111 148.317C284.904 148.815 284.798 149.35 284.798 149.89V161.548C284.886 162.573 285.356 163.528 286.115 164.223C286.873 164.919 287.864 165.304 288.893 165.304C289.922 165.304 290.914 164.919 291.672 164.223C292.43 163.528 292.9 162.573 292.989 161.548V149.89C292.989 148.805 292.56 147.764 291.796 146.994C291.032 146.223 289.994 145.787 288.909 145.779V145.779Z" fill="#1D6BD0"/>
<defs>
<linearGradient id="paint0_linear_609_14622" x1="218.5" y1="2" x2="218.5" y2="423" gradientUnits="userSpaceOnUse">
<stop stop-color="white"/>
<stop offset="1" stop-color="#F2F2F2"/>
</linearGradient>
<linearGradient id="paint1_linear_609_14622" x1="218.5" y1="2" x2="218.5" y2="423" gradientUnits="userSpaceOnUse">
<stop stop-color="#4299FF"/>
<stop offset="1" stop-color="#1D6BD0"/>
</linearGradient>
</defs>
</svg>
