<svg width="35" height="33" viewBox="0 0 35 33" fill="none" xmlns="http://www.w3.org/2000/svg">
<path d="M32.9263 3.64545L30.681 2.67333V18.3488L34.7527 8.17622C35.4397 6.40558 34.6522 4.37454 32.9263 3.64545ZM0.252059 10.0684L8.56304 30.8127C9.08248 32.1494 10.3057 32.9653 11.5959 33C12.0315 33 12.4839 32.9132 12.9196 32.7223L25.2688 27.4277C26.5255 26.8895 27.2963 25.6049 27.3298 24.3204C27.3465 23.869 27.2628 23.3656 27.112 22.9143L18.7339 2.16991C18.248 0.833246 17.0081 0.0173593 15.7011 0C15.2654 0 14.8298 0.104156 14.4109 0.260389L2.07846 5.55497C0.369351 6.28406 -0.451694 8.3151 0.252059 10.0684ZM27.313 3.47186C27.313 2.55106 26.96 1.66798 26.3315 1.01688C25.703 0.365784 24.8506 0 23.9618 0H21.5322L27.313 14.4776" fill="url(#paint0_linear_519_12804)"/>
<defs>
<linearGradient id="paint0_linear_519_12804" x1="17.5" y1="0" x2="17.5" y2="33" gradientUnits="userSpaceOnUse">
<stop stop-color="#FF9635"/>
<stop offset="1" stop-color="#FF6B35"/>
</linearGradient>
</defs>
</svg>
