<svg width="249" height="264" viewBox="0 0 249 264" fill="none" xmlns="http://www.w3.org/2000/svg">
<mask id="mask0_510_18393" style="mask-type:alpha" maskUnits="userSpaceOnUse" x="0" y="0" width="249" height="264">
<path d="M117.151 0.0368408C219.091 -2.08904 247.525 88.3198 249 133.79C249 184.722 228.647 264 132.194 264C35.7405 264 2.99936 190.48 1.22958 169.664C-1.48471 137.739 -10.274 2.69419 117.151 0.0368408Z" fill="#BDDFFF"/>
</mask>
<g mask="url(#mask0_510_18393)">
<path d="M309 -10H-31V281H309V-10Z" fill="#F2F6FF"/>
<path d="M242.802 241.648C248.695 241.648 266.143 232.703 266.143 231.021C266.143 229.339 248.744 220.296 242.845 220.296C240.052 220.35 237.392 221.495 235.433 223.487C233.475 225.48 232.375 228.16 232.37 230.953C232.364 233.746 233.453 236.431 235.403 238.431C237.353 240.431 240.009 241.588 242.802 241.653V241.648Z" fill="#B3D6FF"/>
<path d="M251.196 264.21C257.046 264.956 275.473 258.253 275.688 256.58C275.902 254.908 259.761 243.774 253.911 243.028C251.102 242.668 248.266 243.439 246.025 245.17C243.784 246.902 242.323 249.452 241.963 252.261C241.603 255.07 242.373 257.907 244.105 260.148C245.836 262.389 248.387 263.85 251.196 264.21Z" fill="#B3D6FF"/>
<path d="M107.161 205.589C107.161 205.589 111.865 196.404 111.334 192.914C110.802 189.423 107.921 179.488 108.686 175.788C108.92 174.633 111.353 165.804 113.561 164.6C115.048 163.786 118.329 167.13 117.179 171.639C115.175 179.488 117.564 184.11 118.856 187.439C121.064 193.123 121.912 196.511 121.985 193.777C121.985 193.777 120.952 185.275 121.356 181.589C121.464 180.59 123.677 172.907 125.798 172.2C126.948 171.82 130.546 173.731 129.132 180.79C128.196 185.431 130.799 188.478 132.705 191.685C134.358 194.459 142.411 201.499 142.411 201.499L131.516 209.786L107.161 205.589Z" fill="#E96F5F"/>
<path d="M100.136 190.598C100.136 190.598 95.0125 176.07 94.6225 170.123C94.4713 167.729 94.7053 159.837 96.6602 158.462C99.8923 156.205 103.592 161.875 103.251 169.114C102.91 176.353 109.92 181.935 113.298 186.664C121.688 198.456 126.748 205.554 126.748 205.554L100.136 190.598Z" fill="#F78978"/>
<path d="M116.428 138.699C115.341 137.617 117.515 137.422 117.515 135.146V133.132C117.515 126.632 118.986 121.239 121.927 116.952C124.868 112.666 129.643 108.452 136.25 104.312C139.07 102.732 141.786 100.973 144.381 99.0466C145.886 97.9354 147.129 96.5077 148.023 94.8639C148.807 93.1126 149.177 91.2044 149.105 89.287C149.105 85.4683 147.685 82.5254 144.844 80.4584C142.004 78.3915 137.901 77.3596 132.535 77.3629C124.066 77.3629 116.477 79.5826 109.769 84.022C108.531 84.7484 107.707 85.1043 107.293 85.1043C106.362 85.1043 103.037 83.6418 102.418 82.4913L98.9272 73.0241C98.5647 72.4685 98.3515 71.8288 98.3081 71.1668C98.3081 70.2406 98.8785 69.4118 100.014 68.6903C109.611 62.1904 121.536 58.9404 135.787 58.9404C147.35 58.9404 156.694 61.5989 163.818 66.9158C170.942 72.2328 174.504 79.6411 174.504 89.1407C174.504 95.3319 173.059 100.441 170.17 104.468C167.28 108.494 162.633 112.315 156.227 115.929C151.167 118.818 147.709 121.502 145.853 123.982C143.998 126.462 143.068 129.611 143.065 133.43V135.131C143.065 137.406 142.548 139.085 141.515 140.167C140.481 141.254 138.678 141.79 136.099 141.79H124.482C122.005 141.805 117.511 139.782 116.428 138.699ZM116.428 163.264C114.829 161.977 116.428 161.631 116.428 159.462V156.21C116.428 153.935 117.228 152.148 118.827 150.848C120.426 149.548 122.723 148.898 125.72 148.898H134.704C137.798 148.898 140.147 149.548 141.749 150.848C143.351 152.148 144.15 153.935 144.147 156.21V159.462C144.147 161.737 143.348 163.492 141.749 164.727C140.15 165.962 137.802 166.581 134.704 166.584H125.72C122.727 166.584 118.027 164.556 116.428 163.264Z" fill="#DB4619"/>
<path d="M225.91 211.863C222.244 210.849 218.802 209.883 215.809 209.011C214.137 208.523 212.606 208.065 211.246 207.646C209.057 206.968 207.346 206.393 206.21 205.954C203.363 204.833 198.898 203.731 195.212 201.567C192.726 200.104 190.62 198.13 189.635 195.327C187.198 188.38 174.216 176.085 162.467 168.052C156.061 163.664 149.519 156.508 147.15 153.612C145.288 151.33 138.809 141.532 136.328 140.747C134.865 140.289 131.35 144.311 130.912 146.597C129.971 151.53 133.408 157.761 140.276 167.233C146.823 176.256 147.628 181.482 147.345 186.372C147.16 189.545 146.507 192.709 142.65 195.58C141.453 196.555 140.189 197.444 138.868 198.242C134.743 200.68 127.962 203.073 121.318 197.755L121.084 197.569C118.208 195.351 114.556 193.962 111.256 192.436C107.799 190.837 104.723 189.082 103.339 186.06C101.647 182.389 98.6638 179.113 95.578 175.418C93.1534 172.639 91.0048 169.632 89.1626 166.438C84.5558 158.102 79.2323 158.638 77.3945 162.104C76.4195 163.996 81.036 177.177 81.9477 179.03C83.1615 181.511 93.0772 198.042 95.2124 200.68C100.453 207.173 123.048 226.673 127.377 229.978C134.675 235.618 154.735 236.91 171.31 239.694C172.422 239.879 173.528 240.079 174.63 240.293C180.687 241.474 186.648 243.104 192.463 245.168C194.309 245.818 196.135 246.514 197.942 247.255C198.756 247.591 199.575 247.932 200.38 248.283C211.997 235.565 220.148 223.421 225.91 211.863Z" fill="#FFA089"/>
<path d="M196.392 250.54L174.503 240.244L195.193 201.547L216.53 207.475L196.392 250.54Z" fill="#BBCFF8"/>
<path d="M298.853 227.648L212.362 205.428L211.967 206.208L211.246 207.67L192.443 245.207L191.02 248.049L189.723 250.638L254.184 287C278.003 278.961 296.655 251.072 298.853 227.648Z" fill="#1D6BD7"/>
<path d="M200.809 208.591C201.052 208.821 201.358 208.973 201.688 209.029C202.017 209.084 202.356 209.041 202.661 208.904C202.966 208.767 203.224 208.543 203.402 208.26C203.58 207.976 203.669 207.647 203.66 207.312C203.65 206.978 203.542 206.654 203.348 206.381C203.155 206.109 202.885 205.899 202.572 205.78C202.26 205.661 201.919 205.637 201.593 205.711C201.267 205.786 200.97 205.955 200.74 206.198C200.587 206.359 200.468 206.549 200.389 206.757C200.309 206.965 200.272 207.186 200.278 207.409C200.284 207.631 200.334 207.85 200.426 208.053C200.517 208.256 200.647 208.439 200.809 208.591Z" fill="#100259"/>
<path d="M115.648 138.075C114.559 136.993 114.017 135.314 114.02 133.039V131.026C114.02 124.526 115.492 119.133 118.436 114.846C121.381 110.559 126.155 106.35 132.759 102.22C135.58 100.641 138.296 98.8823 140.89 96.9548C142.394 95.8452 143.635 94.419 144.527 92.777C145.313 91.0261 145.685 89.1178 145.614 87.2001C145.614 83.3781 144.194 80.4353 141.354 78.3715C138.513 76.3078 134.41 75.2759 129.044 75.2759C120.575 75.2759 112.986 77.4957 106.278 81.9351C105.04 82.6566 104.211 83.0174 103.802 83.0174C102.872 83.0174 102.097 82.4502 101.477 81.316L95.4365 70.9372C95.0755 70.3808 94.8624 69.7416 94.8174 69.0799C94.8174 68.1536 95.3828 67.3249 96.5236 66.6034C106.124 60.1035 118.048 56.8535 132.296 56.8535C143.859 56.8535 153.201 59.512 160.322 64.8289C167.443 70.1459 171.006 77.5525 171.013 87.0489C171.013 93.2434 169.567 98.3539 166.674 102.381C163.782 106.407 159.136 110.226 152.737 113.837C147.676 116.729 144.218 119.414 142.363 121.89C140.507 124.367 139.577 127.516 139.574 131.338V133.039C139.574 135.314 139.057 136.993 138.024 138.075C136.991 139.157 135.184 139.698 132.603 139.698H120.986C118.51 139.698 116.73 139.157 115.648 138.075ZM115.336 162.542C114.558 161.926 113.936 161.136 113.519 160.235C113.102 159.334 112.903 158.347 112.938 157.355V154.104C112.938 151.829 113.737 150.041 115.336 148.741C116.935 147.441 119.233 146.791 122.229 146.791H131.209C134.303 146.791 136.651 147.441 138.253 148.741C139.047 149.383 139.679 150.203 140.097 151.135C140.514 152.067 140.706 153.084 140.656 154.104V157.355C140.656 159.622 139.852 161.382 138.253 162.62C136.654 163.859 134.304 164.478 131.209 164.478H122.229C119.236 164.478 116.938 163.833 115.336 162.542Z" fill="#FF6B35"/>
<path d="M188.25 192.475C183.975 185.358 172.743 175.067 162.467 168.037C156.066 163.649 149.519 156.493 147.15 153.597C145.288 151.321 138.809 141.517 136.327 140.732C134.865 140.274 131.35 144.301 130.911 146.582C129.971 151.516 133.402 157.751 140.276 167.218C146.823 176.241 147.628 181.467 147.345 186.352C147.345 186.469 147.345 186.576 147.345 186.688L188.25 192.475Z" fill="#FFA089"/>
<path d="M202.783 66.2182L180.709 73.7158C180.447 73.8053 180.17 73.8422 179.893 73.8242C179.617 73.8061 179.347 73.7337 179.098 73.6109C178.85 73.4881 178.629 73.3175 178.446 73.1087C178.264 72.9 178.125 72.6574 178.037 72.3947C177.858 71.8659 177.895 71.2874 178.142 70.7864C178.389 70.2854 178.825 69.903 179.354 69.7232L201.427 62.2256C201.958 62.0473 202.537 62.0862 203.038 62.3338C203.54 62.5814 203.923 63.0174 204.104 63.5467C204.282 64.0762 204.243 64.6546 203.995 65.1554C203.748 65.6561 203.311 66.0383 202.783 66.2182Z" fill="#FF8434"/>
<path d="M176.23 46.9719L169.034 60.028C168.575 60.8604 168.878 61.907 169.711 62.3658L170.389 62.7399C171.222 63.1986 172.268 62.8957 172.727 62.0634L179.923 49.0073C180.381 48.1749 180.079 47.1283 179.246 46.6696L178.567 46.2954C177.735 45.8367 176.688 46.1396 176.23 46.9719Z" fill="#FF8434"/>
<path d="M154.615 43.5936L153.91 53.5966C153.855 54.3755 154.442 55.0513 155.221 55.1062L156.461 55.1936C157.24 55.2484 157.916 54.6615 157.97 53.8827L158.675 43.8797C158.73 43.1008 158.143 42.425 157.364 42.3701L156.124 42.2827C155.345 42.2279 154.67 42.8148 154.615 43.5936Z" fill="#FF8434"/>
</g>
</svg>
