<svg width="378" height="38" viewBox="0 0 378 38" fill="none" xmlns="http://www.w3.org/2000/svg">
<path fill-rule="evenodd" clip-rule="evenodd" d="M378 19.0005C378 8.50718 369.386 0.000366433 358.761 0.000366433C354.15 0.000366433 349.954 1.59391 346.641 4.26492C349.168 6.67477 351.098 9.69203 352.133 13.1026H350.535C349.533 10.0704 347.773 7.39503 345.485 5.24814C343.183 7.41379 341.459 10.1093 340.469 13.0935H338.87C339.891 9.74541 341.762 6.71079 344.306 4.27806C341 1.63445 336.825 0 332.24 0C321.614 0 313 8.50682 313 19.0002C313 29.4932 321.614 38 332.24 38C336.824 38 341 36.3655 344.306 33.7219C341.798 31.3194 339.901 28.2981 338.87 24.9069H340.469C341.459 27.8911 343.183 30.5865 345.485 32.7522C347.773 30.605 349.533 27.93 350.535 24.8974H352.133C351.098 28.308 349.168 31.3256 346.641 33.7351C349.954 36.4057 354.15 37.9996 358.761 37.9996C369.386 38 378 29.4932 378 19.0005ZM363.86 23.451L365.189 16.4209H366.868L367.044 17.1137C367.345 16.7667 367.921 16.4209 368.899 16.4209L368.373 18.2522C367.896 18.2522 366.994 18.1291 366.418 20.2329L365.816 23.451H363.86ZM338.117 14.6341H340.053L339.656 16.4968H340.697L340.35 18.0162H339.358L338.812 20.8589C338.712 21.3984 338.762 21.8889 339.879 21.7172L339.755 23.1384C339.333 23.4079 338.762 23.4821 338.315 23.4821C337.868 23.4821 336.404 23.2118 336.777 21.3005L338.117 14.6341ZM346.505 20.3202C346.729 19.1923 347.25 16.3989 343.85 16.3989C340.723 16.3989 340.326 19.4622 340.252 19.9031C340.177 20.3446 340.128 23.4569 343.478 23.4569C344.297 23.4817 345.488 23.3834 345.96 23.138L346.258 21.6927C345.96 21.7654 344.843 21.864 344.073 21.864C343.304 21.864 342.064 21.9133 342.287 20.3202H346.505ZM336.281 18.0655L336.727 16.6437C335.809 16.3007 335.09 16.3745 334.816 16.3745C334.543 16.3745 332.219 16.3463 331.863 18.0411C331.59 19.3402 332.072 19.8775 332.533 20.0751C333.278 20.3939 333.7 20.688 334.097 20.8841C334.589 21.1266 334.498 21.9378 333.849 21.9378C333.551 21.9378 332.261 22.0846 331.293 21.7658L331.02 23.2118C331.914 23.4572 332.633 23.4572 333.303 23.4572C333.775 23.4572 336.083 23.5799 336.405 21.4718C336.562 20.444 336.107 19.9765 335.735 19.757C335.363 19.5115 334.742 19.1686 334.345 18.9965C333.948 18.8252 333.65 18.1638 334.37 17.9677C334.816 17.9183 335.734 17.9183 336.281 18.0655ZM323.723 23.4569L325.336 14.9771H322.16L319.802 20.124L319.429 14.9771H316.328L314.665 23.4569H316.6L317.791 17.3299L318.313 23.4569H320.149L322.855 17.4771L321.713 23.4569H323.723ZM325.857 16.6195L325.559 18.1389C326.031 18.0904 327.297 17.8942 327.967 17.9183C328.637 17.9428 329.381 17.8449 329.158 18.8986C328.661 18.948 325.187 18.4085 324.642 21.349C324.418 22.7958 325.683 23.5306 326.676 23.4821C327.669 23.4327 327.942 23.31 328.289 23.0646L328.538 23.4569H330.349L331.118 19.6339C331.317 18.678 331.639 16.3741 328.389 16.3741C327.793 16.3989 327.123 16.3741 325.857 16.6195ZM357.227 16.9377C356.729 16.6433 356.383 16.5947 355.737 16.5947C355.092 16.5947 353.652 17.2036 353.38 18.9231C353.057 20.9571 354.472 21.9616 356.457 21.3005L357.028 23.016C356.383 23.31 355.737 23.4569 354.67 23.4569C352.66 23.4569 350.476 21.6927 351.469 18.1141C352.201 15.4774 354.497 14.5117 355.837 14.5607C357.425 14.6191 357.996 15.1487 358.492 15.6882L357.227 16.9377ZM373.73 17.2317C373.357 16.9625 373.135 16.3989 372.216 16.3989C371.149 16.3989 369.486 16.2028 368.543 19.3888C367.913 21.5182 369.188 23.4572 370.578 23.4572C371.223 23.4331 371.868 23.1632 372.265 22.8937L372.514 23.4572H374.598L376.286 14.5366H374.251L373.73 17.2317ZM358.616 16.6195L358.318 18.1389C358.79 18.0904 360.055 17.8942 360.726 17.9183C361.396 17.9428 362.141 17.8449 361.917 18.8986C361.421 18.948 357.946 18.4085 357.401 21.349C357.177 22.7958 358.442 23.5306 359.435 23.4821C360.428 23.4327 360.7 23.31 361.049 23.0646L361.297 23.4569H363.108L363.878 19.6339C364.076 18.678 364.399 16.3741 361.147 16.3741C360.552 16.3989 359.882 16.3741 358.616 16.6195ZM342.411 19.0458H344.818C344.942 18.3596 344.719 17.7711 343.949 17.7711C343.18 17.7711 342.634 18.1634 342.411 19.0458ZM328.836 20.3202C328.513 20.2701 327.793 20.0747 327.173 20.4915C326.552 20.9082 326.378 21.6427 327.024 21.8889C327.645 22.1245 328.562 21.7176 328.687 21.0791L328.836 20.3202ZM373.035 20.0992C373.234 19.4622 373.125 18.6667 372.911 18.3844C372.316 17.6002 370.946 18.22 370.529 19.757C370.256 20.7614 370.852 21.5211 371.521 21.5211C372.242 21.5207 372.688 20.9571 373.035 20.0992ZM361.595 20.3202C361.272 20.2701 360.553 20.0747 359.932 20.4915C359.311 20.9082 359.138 21.6427 359.783 21.8889C360.405 22.1245 361.321 21.7176 361.445 21.0791L361.595 20.3202ZM346.561 23.4569L347.876 16.4968H349.539L349.713 17.1831C350.011 16.8398 350.582 16.4968 351.549 16.4968L351.053 18.3351C350.582 18.3351 349.663 18.1883 349.092 20.2705L348.497 23.4572H346.561V23.4569Z" fill="white"/>
<path fill-rule="evenodd" clip-rule="evenodd" d="M21.39 22.1614L25.783 6.97081C26.522 4.42535 28.8622 2.65995 31.4898 2.65995H42V35.6688H31.4898V16.1673H30.7508L24.7566 35.6688H17.2434L11.2493 16.1673H10.5103V35.6277H0V2.6189H10.4692C13.1789 2.6189 15.5191 4.38429 16.2581 6.97081L20.651 22.1614H21.39ZM57.806 22.1613L65.196 6.14959C66.1814 4.01469 68.3163 2.65985 70.6565 2.65985H79.5656V35.6687H69.0553V16.1672H68.3163L60.9262 32.1789C59.9409 34.3138 57.806 35.6687 55.4658 35.6687H46.5567V2.65985H57.067V22.1613H57.806ZM84.081 17.6452V35.6687H94.5502V25.1584H105.841C110.726 25.1584 114.914 22.0382 116.433 17.6452H84.081ZM82.5633 2.65985H105.842C112.041 2.65985 117.091 7.7097 117.05 13.9091C117.05 14.6892 117.009 15.4282 116.845 16.1672H98.7803C90.6923 16.1672 83.9592 10.3373 82.5633 2.65985Z" fill="white"/>
<path d="M196.824 2.67336L191.21 35.6117H200.185L205.803 2.67336H196.824Z" fill="white"/>
<path d="M224.578 2C228.06 2 230.847 2.71609 232.626 3.38345L231.409 10.5221L230.605 10.1421C228.947 9.47469 226.82 8.83452 223.884 8.88012C220.368 8.88012 218.741 10.3441 218.741 11.7132C218.721 13.2562 220.643 14.2729 223.782 15.7967C228.962 18.1478 231.354 20.9989 231.321 24.7461C231.251 31.5835 225.124 36 215.685 36C211.658 35.9587 207.78 35.1624 205.682 34.2426L206.942 26.8692L208.1 27.3926C211.049 28.6219 212.958 29.1211 216.552 29.1211C219.133 29.1211 221.902 28.1129 221.924 25.9048C221.941 24.4634 220.766 23.434 217.271 21.819C213.864 20.2436 209.353 17.6031 209.403 12.8702C209.456 6.4674 215.706 2 224.578 2Z" fill="white"/>
<path fill-rule="evenodd" clip-rule="evenodd" d="M248.794 2.67287H255.733L263 35.59H254.668C254.668 35.59 253.844 31.8075 253.576 30.6543C252.266 30.6543 243.106 30.6401 242.076 30.6401C241.727 31.5315 240.186 35.59 240.186 35.59H230.757L244.092 5.40436C245.036 3.25939 246.645 2.67287 248.794 2.67287ZM248.302 14.7347C248.302 14.7347 245.467 22.0446 244.724 23.9425L252.178 23.9419C251.818 22.2933 250.099 14.4308 250.099 14.4308L249.492 11.5909C249.254 12.2411 248.923 13.1008 248.669 13.7572C248.441 14.3494 248.277 14.7762 248.302 14.7347Z" fill="white"/>
<path d="M174.797 25.1354L183.587 2.67287L193.099 2.67254L178.963 35.5486L169.463 35.5592L161.494 7.00471C158.719 5.45826 155.549 4.21604 152 3.35708L152.115 2.67172H166.594C168.544 2.74525 170.121 3.36784 170.664 5.45357L173.719 20.1404C173.768 20.2841 173.816 20.4276 173.86 20.5707L174.797 25.1354Z" fill="white"/>
</svg>
