<svg width="944" height="917" viewBox="0 0 944 917" fill="none" xmlns="http://www.w3.org/2000/svg">
<path d="M421.061 332.534C405.659 332.466 390.276 333.652 375.067 336.08C360.498 338.512 346.874 344.877 335.667 354.484C321.831 367.246 311.127 383.019 304.383 400.579C293.758 428.014 286.876 456.75 283.923 486.016C278.819 514.538 277.568 543.613 280.202 572.466C281.522 589.334 287.819 605.433 298.296 618.731C307.105 628.548 319.063 634.995 332.116 636.966C347.001 639.218 362.041 640.29 377.096 640.174H388.933C392.991 640.174 397.726 640.174 402.968 640.174L446.088 333.885C441.751 333.632 437.404 333.632 433.067 333.885L421.061 332.534ZM645.286 354.484C636.416 344.683 624.505 338.142 611.466 335.911C596.601 333.455 581.553 332.269 566.486 332.365H552.958C549.017 332.103 545.062 332.103 541.121 332.365L498.001 639.499C501.942 639.761 505.897 639.761 509.838 639.499H522.351C537.742 639.589 553.117 638.517 568.346 636.291C583.196 634.324 597.197 628.24 608.76 618.731C622.542 605.891 633.187 590.063 639.874 572.466C650.622 544.669 657.782 515.619 661.181 486.016C665.742 457.772 666.708 429.065 664.056 400.579C662.439 383.714 655.914 367.69 645.286 354.484ZM898.933 279.009C785.962 183.45 665.896 96.5817 539.768 19.1523V19.1523C519.436 6.63095 496.018 0 472.129 0C448.24 0 424.822 6.63095 404.49 19.1523C278.415 96.643 158.406 183.567 45.494 279.178V279.178C27.2268 294.652 13.6414 314.905 6.26344 337.663C-1.11453 360.42 -1.99298 384.78 3.72673 408.009V408.009C38.5605 551.605 84.3508 692.329 140.696 828.946V828.946C149.757 851.073 164.805 870.247 184.157 884.322C203.509 898.397 226.401 906.817 250.272 908.642V908.642C397.853 919.786 546.067 919.786 693.648 908.642C717.532 906.791 740.434 898.362 759.808 884.293C779.183 870.223 794.27 851.064 803.392 828.946C859.663 692.301 905.451 551.583 940.362 408.009V408.009C946.003 384.763 945.069 360.41 937.665 337.663C930.26 314.917 916.676 294.67 898.426 279.178L898.933 279.009ZM756.552 486.016C751.768 527.91 741.006 568.906 724.593 607.756C712.982 634.728 695.133 658.569 672.51 677.321C651.851 693.428 627.604 704.317 601.827 709.064C572.763 714.342 543.267 716.885 513.727 716.662C509.5 716.662 504.934 716.662 500.03 716.662C495.75 716.927 491.458 716.927 487.179 716.662L480.753 757.523H385.889L392.315 716.662H365.766C336.951 716.962 308.178 714.417 279.864 709.064C256.595 704.928 235.099 693.931 218.143 677.49C200.631 658.015 189.431 633.705 186.015 607.756C180.331 567.375 181.015 526.354 188.044 486.185C192.888 444.338 203.708 403.4 220.173 364.615C231.701 337.64 249.496 313.794 272.086 295.05C292.824 279.001 317.126 268.172 342.938 263.475C371.945 258.197 401.385 255.653 430.869 255.877H444.228C448.677 255.62 453.137 255.62 457.587 255.877L463.336 214.171H558.031L552.282 255.877C556.618 255.625 560.966 255.625 565.302 255.877H578.83C607.645 255.577 636.419 258.122 664.732 263.475C688.032 267.521 709.553 278.53 726.453 295.05C744.18 314.393 755.618 338.648 759.258 364.615C764.687 404.976 763.774 445.936 756.552 486.016V486.016Z" fill="#1D6BD0" fill-opacity="0.5"/>
</svg>
