<svg width="33" height="34" viewBox="0 0 33 34" fill="none" xmlns="http://www.w3.org/2000/svg">
<path d="M14.7193 12.3295C14.1809 12.327 13.6431 12.371 13.1114 12.461C12.6022 12.5512 12.1259 12.7871 11.7341 13.1434C11.2505 13.6165 10.8762 14.2013 10.6405 14.8525C10.2691 15.8696 10.0285 16.9351 9.92526 18.0202C9.74686 19.0777 9.70312 20.1558 9.79521 21.2256C9.84135 21.851 10.0615 22.4479 10.4277 22.9409C10.7357 23.3049 11.1537 23.544 11.61 23.6171C12.1303 23.7005 12.6561 23.7403 13.1824 23.736H13.5962C13.738 23.736 13.9035 23.736 14.0868 23.736L15.5942 12.3796C15.4426 12.3702 15.2906 12.3702 15.139 12.3796L14.7193 12.3295ZM22.5577 13.1434C22.2476 12.78 21.8312 12.5374 21.3754 12.4547C20.8557 12.3636 20.3297 12.3197 19.803 12.3232H19.3301C19.1923 12.3135 19.0541 12.3135 18.9163 12.3232L17.4089 23.711C17.5467 23.7207 17.6849 23.7207 17.8227 23.711H18.2602C18.7982 23.7143 19.3357 23.6746 19.868 23.592C20.3872 23.5191 20.8766 23.2935 21.2808 22.9409C21.7626 22.4649 22.1347 21.878 22.3685 21.2256C22.7442 20.1949 22.9945 19.1178 23.1133 18.0202C23.2727 16.973 23.3065 15.9086 23.2138 14.8525C23.1573 14.2271 22.9292 13.633 22.5577 13.1434ZM31.4246 10.3449C27.4754 6.80184 23.2781 3.581 18.869 0.710117V0.710117C18.1582 0.245858 17.3396 0 16.5045 0C15.6694 0 14.8508 0.245858 14.14 0.710117C9.73272 3.58327 5.53748 6.8062 1.59036 10.3512V10.3512C0.951783 10.925 0.476871 11.6759 0.218955 12.5197C-0.0389612 13.3634 -0.0696698 14.2667 0.130277 15.1279V15.1279C1.34798 20.4521 2.9487 25.6698 4.91841 30.7352V30.7352C5.23516 31.5556 5.76121 32.2665 6.4377 32.7884C7.11419 33.3102 7.91443 33.6225 8.74892 33.6901V33.6901C13.908 34.1033 19.0892 34.1033 24.2483 33.6901C25.0832 33.6215 25.8838 33.309 26.5611 32.7873C27.2384 32.2656 27.7658 31.5553 28.0847 30.7352C30.0518 25.6687 31.6524 20.4513 32.8728 15.1279V15.1279C33.07 14.266 33.0374 13.3631 32.7785 12.5197C32.5197 11.6763 32.0448 10.9256 31.4068 10.3512L31.4246 10.3449ZM26.4473 18.0202C26.28 19.5736 25.9038 21.0936 25.33 22.534C24.9242 23.5341 24.3002 24.418 23.5094 25.1133C22.7872 25.7105 21.9395 26.1143 21.0385 26.2903C20.0224 26.4859 18.9913 26.5803 17.9587 26.572C17.8109 26.572 17.6513 26.572 17.4799 26.572C17.3303 26.5818 17.1802 26.5818 17.0306 26.572L16.806 28.087H13.4898L13.7144 26.572H12.7863C11.779 26.5831 10.7732 26.4887 9.78339 26.2903C8.96995 26.1369 8.21849 25.7292 7.62577 25.1196C7.0136 24.3975 6.62206 23.4962 6.50263 22.534C6.30394 21.0368 6.32787 19.5159 6.57357 18.0265C6.74292 16.4749 7.12114 14.957 7.69671 13.519C8.09971 12.5188 8.72179 11.6347 9.51147 10.9397C10.2364 10.3446 11.086 9.94311 11.9883 9.76897C13.0023 9.57329 14.0315 9.47897 15.0622 9.48725H15.5291C15.6847 9.47773 15.8406 9.47773 15.9961 9.48725L16.1971 7.94093H19.5074L19.3065 9.48725C19.458 9.47793 19.61 9.47793 19.7616 9.48725H20.2345C21.2418 9.47614 22.2477 9.57051 23.2375 9.76897C24.0519 9.91897 24.8043 10.3272 25.3951 10.9397C26.0148 11.6569 26.4146 12.5562 26.5419 13.519C26.7316 15.0155 26.6997 16.5342 26.4473 18.0202V18.0202Z" fill="#BEBEBE"/>
</svg>
