<svg width="290" height="719" viewBox="0 0 290 719" fill="none" xmlns="http://www.w3.org/2000/svg">
<g opacity="0.1" clip-path="url(#clip0_528_14292)">
<path d="M289.884 633.405L289.135 636.529C283.601 635.163 277.796 635.372 272.375 637.133C266.954 638.894 262.134 642.136 258.46 646.494C234.561 674.61 212.84 704.508 193.486 735.926C190.47 740.768 188.872 746.357 188.872 752.061C188.872 757.764 190.47 763.354 193.486 768.195C212.842 799.602 234.563 829.489 258.46 857.597C262.139 861.948 266.959 865.186 272.378 866.946C277.798 868.707 283.601 868.92 289.135 867.561L289.884 870.685C283.777 872.168 277.376 871.916 271.405 869.957C265.433 867.998 260.127 864.409 256.085 859.596C232.093 831.347 210.268 801.325 190.799 769.788C187.465 764.436 185.698 758.257 185.698 751.951C185.698 745.646 187.465 739.467 190.799 734.115C210.266 702.605 232.09 672.615 256.085 644.401C260.138 639.604 265.448 636.033 271.419 634.091C277.391 632.148 283.786 631.911 289.884 633.405Z" fill="#1D6BD0"/>
<path d="M289.884 465.472L289.135 468.596C283.601 467.238 277.798 467.451 272.378 469.211C266.959 470.971 262.139 474.21 258.459 478.561C234.56 506.688 212.839 536.596 193.486 568.025C190.47 572.866 188.872 578.456 188.872 584.159C188.872 589.863 190.47 595.452 193.486 600.293C212.832 631.717 234.553 661.615 258.46 689.726C262.135 694.083 266.954 697.327 272.373 699.093C277.793 700.859 283.598 701.077 289.135 699.722L289.884 702.846C283.76 704.312 277.347 704.032 271.373 702.039C265.399 700.046 260.103 696.419 256.085 691.569C232.085 663.315 210.261 633.283 190.799 601.73C187.49 596.392 185.737 590.237 185.737 583.956C185.737 577.676 187.49 571.52 190.799 566.182C210.261 534.64 232.085 504.618 256.085 476.374C260.146 471.591 265.461 468.037 271.433 466.111C277.404 464.185 283.794 463.964 289.884 465.472V465.472Z" fill="#1D6BD0"/>
<path d="M242.685 583.956C242.682 590.236 240.93 596.391 237.624 601.73C218.184 633.289 196.37 663.323 172.369 691.569C168.317 696.366 163.007 699.937 157.035 701.879C151.064 703.822 144.669 704.059 138.57 702.565L139.289 699.441C144.83 700.795 150.64 700.577 156.064 698.811C161.488 697.045 166.313 693.802 169.995 689.445C193.878 661.349 215.598 631.483 234.969 600.106C237.971 595.26 239.561 589.672 239.561 583.972C239.561 578.271 237.971 572.684 234.969 567.838C215.594 536.423 193.875 506.517 169.995 478.374C166.311 474.02 161.486 470.78 156.061 469.02C150.636 467.259 144.827 467.048 139.289 468.409L138.57 465.285C144.669 463.791 151.064 464.028 157.035 465.971C163.007 467.914 168.317 471.484 172.369 476.281C196.373 504.547 218.188 534.601 237.624 566.182C240.922 571.525 242.674 577.678 242.685 583.956V583.956Z" fill="#1D6BD0"/>
<path d="M242.685 752.013C242.674 758.292 240.922 764.445 237.624 769.788C218.176 801.331 196.362 831.354 172.369 859.595C168.317 864.392 163.007 867.962 157.035 869.905C151.064 871.848 144.669 872.085 138.57 870.591L139.289 867.467C144.827 868.828 150.636 868.617 156.061 866.856C161.486 865.096 166.311 861.856 169.995 857.502C193.895 829.375 215.615 799.467 234.969 768.038C237.971 763.192 239.561 757.604 239.561 751.904C239.561 746.204 237.971 740.616 234.969 735.77C215.615 704.351 193.894 674.454 169.995 646.337C166.316 641.977 161.49 638.734 156.064 636.973C150.638 635.212 144.827 635.004 139.289 636.372L138.57 633.248C144.684 631.772 151.088 632.034 157.06 634.005C163.032 635.975 168.335 639.576 172.369 644.4C196.364 672.607 218.179 702.598 237.624 734.114C240.952 739.49 242.705 745.691 242.685 752.013V752.013Z" fill="#1D6BD0"/>
<path d="M289.884 296.259L289.135 299.382C283.607 298.017 277.807 298.22 272.388 299.969C266.969 301.719 262.146 304.945 258.459 309.285C234.56 337.412 212.839 367.32 193.486 398.749C190.47 403.59 188.872 409.18 188.872 414.883C188.872 420.587 190.47 426.176 193.486 431.017C212.847 462.431 234.568 492.328 258.46 520.45C262.139 524.801 266.959 528.04 272.378 529.8C277.798 531.561 283.601 531.773 289.135 530.415L289.884 533.539C283.789 535.048 277.393 534.82 271.419 532.883C265.446 530.945 260.135 527.374 256.085 522.574C232.092 494.315 210.268 464.283 190.799 432.735C187.49 427.397 185.737 421.242 185.737 414.961C185.737 408.681 187.49 402.525 190.799 397.187C210.276 365.645 232.1 335.614 256.085 307.348C260.125 302.532 265.43 298.941 271.403 296.982C277.375 295.022 283.777 294.772 289.884 296.259V296.259Z" fill="#1D6BD0"/>
<path d="M289.885 128.108L289.135 131.231C283.601 129.873 277.798 130.086 272.379 131.846C266.959 133.607 262.139 136.845 258.46 141.196C234.553 169.318 212.832 199.227 193.486 230.66C190.47 235.496 188.871 241.08 188.871 246.779C188.871 252.478 190.47 258.062 193.486 262.897C212.832 294.331 234.553 324.24 258.46 352.362C262.132 356.724 266.949 359.974 272.369 361.746C277.789 363.517 283.596 363.74 289.135 362.389L289.885 365.513C283.789 367.014 277.395 366.783 271.423 364.846C265.451 362.909 260.139 359.342 256.086 354.548C232.093 326.288 210.269 296.257 190.799 264.709C187.491 259.371 185.738 253.215 185.738 246.935C185.738 240.655 187.491 234.499 190.799 229.161C210.261 197.608 232.086 167.576 256.086 139.322C260.111 134.483 265.41 130.869 271.383 128.887C277.357 126.905 283.766 126.635 289.885 128.108V128.108Z" fill="#1D6BD0"/>
<path d="M242.685 246.81C242.677 253.09 240.925 259.243 237.624 264.585C218.177 296.138 196.362 326.171 172.369 354.424C168.33 359.24 163.025 362.83 157.052 364.79C151.079 366.75 144.678 367 138.57 365.513L139.289 362.389C144.827 363.75 150.636 363.539 156.061 361.778C161.486 360.018 166.311 356.778 169.995 352.424C193.882 324.287 215.602 294.38 234.969 262.96C237.971 258.12 239.562 252.537 239.562 246.842C239.562 241.146 237.971 235.563 234.969 230.723C215.602 199.303 193.882 169.396 169.995 141.259C166.319 136.894 161.496 133.642 156.071 131.871C150.645 130.099 144.833 129.878 139.289 131.232L138.57 128.108C144.666 126.606 151.06 126.837 157.032 128.775C163.004 130.712 168.316 134.278 172.369 139.072C196.37 167.319 218.184 197.352 237.624 228.911C240.952 234.287 242.705 240.488 242.685 246.81V246.81Z" fill="#1D6BD0"/>
<path d="M242.685 414.836C242.682 421.116 240.93 427.27 237.624 432.61C218.177 464.164 196.362 494.196 172.369 522.449C168.32 527.249 163.009 530.82 157.036 532.757C151.062 534.695 144.666 534.922 138.57 533.413L139.289 530.289C144.827 531.651 150.636 531.439 156.061 529.679C161.486 527.918 166.311 524.679 169.995 520.325C193.878 492.272 215.598 462.449 234.969 431.11C237.971 426.264 239.561 420.677 239.561 414.976C239.561 409.276 237.971 403.688 234.969 398.842C215.619 367.381 193.898 337.442 169.995 309.284C166.311 304.93 161.486 301.691 156.061 299.931C150.636 298.17 144.827 297.958 139.289 299.32L138.57 296.196C144.666 294.694 151.06 294.925 157.032 296.862C163.004 298.8 168.316 302.366 172.369 307.16C196.358 335.438 218.172 365.491 237.624 397.062C240.925 402.403 242.677 408.557 242.685 414.836V414.836Z" fill="#1D6BD0"/>
<path d="M152.815 633.405L152.096 636.529C146.563 635.159 140.756 635.367 135.335 637.128C129.913 638.889 125.093 642.134 121.421 646.494C97.5247 674.598 75.7939 704.473 56.4158 735.864C53.4145 740.71 51.8245 746.298 51.8245 751.998C51.8245 757.699 53.4145 763.286 56.4158 768.132C75.791 799.554 97.5217 829.462 121.421 857.597C125.098 861.951 129.918 865.191 135.338 866.952C140.758 868.712 146.563 868.923 152.096 867.561L152.815 870.685C146.707 872.168 140.307 871.916 134.335 869.957C128.363 867.998 123.057 864.409 119.016 859.596C95.0231 831.354 73.2087 801.332 53.7606 769.788C50.4518 764.45 48.6987 758.294 48.6987 752.014C48.6987 745.733 50.4518 739.578 53.7606 734.24C73.2085 702.686 95.0228 672.653 119.016 644.401C123.068 639.604 128.379 636.033 134.35 634.091C140.321 632.148 146.716 631.911 152.815 633.405V633.405Z" fill="#1D6BD0"/>
<path d="M152.814 465.472L152.096 468.595C146.562 467.233 140.758 467.444 135.338 469.205C129.918 470.966 125.097 474.206 121.421 478.56C97.5291 506.635 75.7985 536.479 56.4155 567.837C53.4142 572.683 51.8242 578.271 51.8242 583.971C51.8242 589.671 53.4142 595.259 56.4155 600.105C75.7832 631.522 97.5144 661.42 121.421 689.538C125.096 693.895 129.915 697.139 135.335 698.905C140.754 700.671 146.559 700.889 152.096 699.534L152.814 702.658C146.716 704.152 140.321 703.915 134.349 701.972C128.378 700.029 123.068 696.459 119.015 691.662C95.0114 663.385 73.1965 633.321 53.7603 601.73C50.4514 596.391 48.6984 590.236 48.6984 583.955C48.6984 577.675 50.4514 571.519 53.7603 566.181C73.2083 534.637 95.0227 504.615 119.015 476.373C123.078 471.593 128.394 468.041 134.364 466.115C140.335 464.189 146.724 463.966 152.814 465.472V465.472Z" fill="#1D6BD0"/>
<path d="M105.646 583.956C105.643 590.236 103.891 596.391 100.586 601.73C81.1317 633.288 59.3067 663.321 35.2992 691.569C31.2492 696.369 25.9388 699.941 19.9669 701.884C13.9949 703.827 7.59899 704.063 1.50024 702.565L2.24994 699.441C7.78665 700.796 13.5917 700.578 19.0113 698.812C24.4308 697.046 29.2497 693.802 32.9252 689.445C56.8075 661.348 78.5276 631.483 97.8991 600.106C100.914 595.264 102.513 589.675 102.513 583.972C102.513 578.268 100.914 572.679 97.8991 567.837C78.5452 536.409 56.8243 506.501 32.9252 478.373C29.2461 474.022 24.4257 470.784 19.0063 469.023C13.5869 467.263 7.78376 467.05 2.24993 468.409L1.50023 465.472C7.59898 463.974 13.9949 464.21 19.9669 466.153C25.9388 468.096 31.2492 471.668 35.2992 476.468C59.2992 504.711 81.1238 534.733 100.586 566.276C103.867 571.591 105.618 577.709 105.646 583.956V583.956Z" fill="#1D6BD0"/>
<path d="M105.646 752.014C105.635 758.292 103.883 764.445 100.586 769.788C81.1238 801.33 59.2992 831.352 35.2992 859.596C31.2492 864.395 25.9388 867.968 19.9669 869.911C13.9949 871.853 7.59899 872.089 1.50024 870.591L2.24994 867.467C7.78377 868.826 13.5869 868.613 19.0063 866.852C24.4257 865.092 29.2461 861.854 32.9252 857.503C56.8243 829.375 78.5452 799.467 97.8991 768.038C100.907 763.195 102.501 757.606 102.501 751.904C102.501 746.202 100.907 740.614 97.8991 735.77C78.545 704.352 56.8241 674.454 32.9251 646.337C29.2399 641.997 24.415 638.772 18.9948 637.028C13.5747 635.284 7.7749 635.089 2.24993 636.466L1.50023 633.342C7.59898 631.844 13.9949 632.08 19.9668 634.023C25.9388 635.966 31.2492 639.538 35.2992 644.338C59.2968 672.572 81.1214 702.584 100.586 734.115C103.913 739.49 105.666 745.691 105.646 752.014Z" fill="#1D6BD0"/>
<path d="M152.814 296.259L152.096 299.382C146.568 298.013 140.767 298.214 135.348 299.964C129.928 301.714 125.105 304.942 121.421 309.285C97.5214 337.42 75.7906 367.327 56.4155 398.749C53.4142 403.595 51.8242 409.183 51.8242 414.883C51.8242 420.583 53.4142 426.171 56.4155 431.017C75.7985 462.424 97.5289 492.32 121.421 520.45C125.097 524.804 129.918 528.045 135.338 529.805C140.758 531.566 146.562 531.777 152.096 530.415L152.814 533.539C146.719 535.048 140.322 534.82 134.349 532.883C128.376 530.945 123.064 527.374 119.015 522.574C95.0225 494.322 73.2081 464.289 53.7603 432.735C50.4514 427.397 48.6984 421.242 48.6984 414.961C48.6984 408.681 50.4514 402.525 53.7603 397.187C73.2158 365.638 95.0297 335.606 119.015 307.348C123.055 302.532 128.36 298.941 134.333 296.982C140.305 295.022 146.707 294.772 152.814 296.259V296.259Z" fill="#1D6BD0"/>
<path d="M152.814 128.108L152.096 131.231C146.562 129.869 140.758 130.08 135.338 131.841C129.918 133.602 125.097 136.842 121.421 141.196C97.5142 169.325 75.783 199.233 56.4155 230.66C53.4134 235.501 51.8228 241.083 51.8228 246.779C51.8228 252.475 53.4134 258.057 56.4155 262.897C75.7817 294.335 97.5129 324.254 121.421 352.393C125.094 356.753 129.913 359.999 135.333 361.765C140.753 363.531 146.559 363.747 152.096 362.389L152.814 365.513C146.718 367.014 140.324 366.783 134.353 364.846C128.381 362.909 123.069 359.342 119.015 354.548C95.0225 326.296 73.2081 296.263 53.7603 264.709C50.4514 259.371 48.6984 253.215 48.6984 246.935C48.6984 240.655 50.4514 234.499 53.7603 229.161C73.2081 197.607 95.0224 167.574 119.015 139.322C123.04 134.483 128.34 130.869 134.313 128.887C140.286 126.905 146.695 126.635 152.814 128.108V128.108Z" fill="#1D6BD0"/>
<path d="M105.646 246.81C105.638 253.09 103.886 259.243 100.586 264.585C81.124 296.137 59.2994 326.169 35.2992 354.424C31.2599 359.24 25.9543 362.83 19.9817 364.79C14.0092 366.75 7.60762 367 1.50024 365.513L2.24994 362.389C7.78377 363.748 13.5869 363.535 19.0063 361.774C24.4257 360.014 29.2461 356.776 32.9252 352.424C56.8189 324.293 78.5395 294.385 97.8991 262.96C100.915 258.125 102.514 252.54 102.514 246.842C102.514 241.143 100.915 235.558 97.8991 230.723C78.5529 199.289 56.8316 169.381 32.9251 141.259C29.2533 136.897 24.436 133.646 19.0162 131.875C13.5964 130.103 7.78951 129.88 2.24993 131.232L1.50023 128.108C7.5961 126.606 13.9902 126.837 19.9619 128.775C25.9336 130.712 31.2456 134.278 35.2992 139.072C59.2994 167.327 81.124 197.359 100.586 228.911C103.913 234.287 105.666 240.488 105.646 246.81V246.81Z" fill="#1D6BD0"/>
<path d="M105.646 414.836C105.643 421.115 103.891 427.27 100.586 432.61C81.124 464.162 59.2994 494.195 35.2992 522.449C31.2501 527.249 25.9385 530.82 19.9653 532.757C13.9921 534.695 7.59587 534.922 1.50024 533.413L2.24994 530.289C7.78377 531.648 13.5869 531.435 19.0063 529.675C24.4257 527.914 29.2461 524.676 32.9252 520.325C56.815 492.278 78.5357 462.454 97.8991 431.11C100.907 426.267 102.501 420.678 102.501 414.976C102.501 409.274 100.907 403.686 97.8991 398.842C78.5492 367.381 56.8282 337.442 32.9252 309.284C29.2497 304.927 24.4308 301.683 19.0112 299.917C13.5917 298.151 7.78664 297.933 2.24993 299.288L1.50023 296.165C7.5961 294.663 13.9902 294.894 19.9619 296.831C25.9336 298.768 31.2456 302.335 35.2992 307.129C59.285 335.394 81.1088 365.426 100.586 396.968C103.903 402.337 105.656 408.525 105.646 414.836Z" fill="#1D6BD0"/>
<path d="M289.885 -46.8226L289.135 -43.6988C283.601 -45.0573 277.798 -44.8443 272.379 -43.0839C266.96 -41.3234 262.139 -38.0854 258.46 -33.7341C234.561 -5.60651 212.84 24.3014 193.486 55.73C190.47 60.5653 188.871 66.1498 188.871 71.8486C188.871 77.5474 190.47 83.1319 193.486 87.9672C212.832 119.401 234.554 149.309 258.46 177.431C262.132 181.794 266.949 185.044 272.369 186.815C277.789 188.587 283.596 188.81 289.135 187.459L289.885 190.582C283.789 192.084 277.395 191.853 271.423 189.916C265.452 187.979 260.14 184.412 256.086 179.618C232.086 151.364 210.261 121.331 190.8 89.7789C187.491 84.4409 185.738 78.2852 185.738 72.0048C185.738 65.7244 187.491 59.5688 190.8 54.2307C210.269 22.6833 232.093 -7.34852 256.086 -35.6083C260.111 -40.4468 265.41 -44.0616 271.384 -46.0436C277.357 -48.0255 283.766 -48.2954 289.885 -46.8226V-46.8226Z" fill="#1D6BD0"/>
<path d="M289.885 -214.819L289.135 -211.695C283.601 -213.061 277.796 -212.851 272.375 -211.091C266.954 -209.33 262.134 -206.087 258.46 -201.73C234.566 -173.653 212.845 -143.798 193.486 -112.422C190.471 -107.581 188.872 -101.991 188.872 -96.288C188.872 -90.5845 190.471 -84.9952 193.486 -80.1539C212.836 -48.693 234.557 -18.7535 258.46 9.40409C262.139 13.7554 266.959 16.9934 272.379 18.7539C277.798 20.5144 283.601 20.7274 289.135 19.3689L289.885 22.4926C283.789 23.9868 277.397 23.7523 271.427 21.8156C265.456 19.8788 260.144 16.3164 256.086 11.5282C232.093 -16.7316 210.269 -46.7633 190.799 -78.3108C187.491 -83.6488 185.738 -89.8045 185.738 -96.0849C185.738 -102.365 187.491 -108.521 190.799 -113.859C210.261 -145.412 232.086 -175.444 256.086 -203.698C260.124 -208.517 265.428 -212.112 271.4 -214.077C277.372 -216.041 283.774 -216.298 289.885 -214.819V-214.819Z" fill="#1D6BD0"/>
<path d="M242.685 -96.2094C242.677 -89.9303 240.925 -83.7768 237.624 -78.4353C218.177 -46.8813 196.362 -16.8487 172.369 11.4038C168.311 16.192 162.999 19.7543 157.029 21.6911C151.058 23.6278 144.667 23.8623 138.57 22.3681L139.289 19.2443C144.816 20.6199 150.617 20.4278 156.041 18.6897C161.465 16.9516 166.297 13.7363 169.995 9.40455C193.875 -18.7386 215.594 -48.6451 234.969 -80.0597C237.971 -84.906 239.561 -90.4934 239.561 -96.1938C239.561 -101.894 237.971 -107.482 234.969 -112.328C215.594 -143.732 193.874 -173.628 169.995 -201.761C166.316 -206.121 161.49 -209.364 156.064 -211.125C150.638 -212.886 144.827 -213.094 139.289 -211.726L138.57 -214.849C144.669 -216.344 151.064 -216.106 157.035 -214.164C163.007 -212.221 168.317 -208.65 172.369 -203.854C196.371 -175.597 218.186 -145.553 237.624 -113.984C240.93 -108.644 242.682 -102.489 242.685 -96.2094V-96.2094Z" fill="#1D6BD0"/>
<path d="M242.685 71.8798C242.677 78.1589 240.925 84.3124 237.624 89.6539C218.174 121.186 196.36 151.198 172.369 179.43C168.316 184.224 163.004 187.791 157.032 189.728C151.06 191.666 144.666 191.896 138.57 190.395L139.289 187.271C144.827 188.632 150.636 188.421 156.061 186.66C161.486 184.9 166.311 181.66 169.995 177.306C193.895 149.179 215.615 119.271 234.969 87.8421C237.971 83.0018 239.562 77.4193 239.562 71.7236C239.562 66.0279 237.971 60.4454 234.969 55.6051C215.615 24.1765 193.895 -5.73155 169.995 -33.8591C166.297 -38.1909 161.465 -41.4062 156.041 -43.1443C150.617 -44.8824 144.816 -45.0744 139.289 -43.6989L138.57 -46.8227C144.666 -48.3242 151.06 -48.0933 157.032 -46.1561C163.004 -44.2189 168.316 -40.6523 172.369 -35.8583C196.362 -7.60573 218.177 22.4268 237.624 53.9807C240.948 59.3583 242.7 65.5582 242.685 71.8798Z" fill="#1D6BD0"/>
<path d="M152.814 -46.8226L152.096 -43.6988C146.562 -45.061 140.758 -44.8498 135.338 -43.0891C129.918 -41.3284 125.097 -38.0883 121.421 -33.7341C97.5214 -5.59924 75.7906 24.3079 56.4155 55.73C53.4134 60.5704 51.8228 66.1529 51.8228 71.8486C51.8228 77.5443 53.4134 83.1268 56.4155 87.9672C75.783 119.394 97.5142 149.302 121.421 177.431C125.09 181.797 129.907 185.049 135.328 186.821C140.748 188.593 146.556 188.814 152.096 187.459L152.814 190.582C146.718 192.084 140.324 191.853 134.353 189.916C128.381 187.979 123.069 184.412 119.015 179.618C95.0153 151.371 73.2005 121.338 53.7603 89.7789C50.4514 84.4409 48.6984 78.2852 48.6984 72.0048C48.6984 65.7244 50.4514 59.5688 53.7603 54.2307C73.2081 22.6768 95.0224 -7.3558 119.015 -35.6083C123.04 -40.4468 128.34 -44.0616 134.313 -46.0436C140.286 -48.0255 146.695 -48.2954 152.814 -46.8226V-46.8226Z" fill="#1D6BD0"/>
<path d="M152.814 -214.819L152.096 -211.695C146.562 -213.064 140.756 -212.857 135.334 -211.096C129.913 -209.335 125.093 -206.09 121.421 -201.73C97.5269 -173.646 75.7962 -143.791 56.4155 -112.422C53.4142 -107.576 51.8242 -101.988 51.8242 -96.288C51.8242 -90.5875 53.4142 -85.0002 56.4155 -80.1539C75.7866 -48.6994 97.5175 -18.7608 121.421 9.40409C125.097 13.7583 129.918 16.9984 135.338 18.7591C140.758 20.5198 146.562 20.731 152.096 19.3689L152.814 22.4926C146.718 23.9868 140.326 23.7523 134.356 21.8156C128.386 19.8788 123.074 16.3164 119.015 11.5282C95.0225 -16.7243 73.2081 -46.7568 53.7603 -78.3108C50.4514 -83.6488 48.6984 -89.8045 48.6984 -96.0849C48.6984 -102.365 50.4514 -108.521 53.7603 -113.859C73.2005 -145.418 95.0152 -175.451 119.015 -203.698C123.053 -208.517 128.358 -212.112 134.33 -214.077C140.302 -216.041 146.704 -216.298 152.814 -214.819V-214.819Z" fill="#1D6BD0"/>
<path d="M105.646 -96.2094C105.638 -89.9303 103.886 -83.7768 100.586 -78.4352C81.124 -46.8828 59.2994 -16.8504 35.2992 11.4038C31.2411 16.192 25.9288 19.7543 19.9585 21.6911C13.9882 23.6278 7.59635 23.8623 1.50024 22.3681L2.24994 19.2443C7.7723 20.6173 13.568 20.4239 18.9866 18.6858C24.4051 16.9477 29.2319 13.7337 32.9252 9.40456C56.8117 -18.7329 78.5319 -48.64 97.8991 -80.0597C100.914 -84.901 102.513 -90.4903 102.513 -96.1938C102.513 -101.897 100.914 -107.487 97.8991 -112.328C78.545 -143.747 56.8241 -173.644 32.9252 -201.761C29.2542 -206.124 24.4357 -209.372 19.0147 -211.138C13.5936 -212.905 7.78641 -213.119 2.24993 -211.757L1.50023 -214.881C7.59898 -216.378 13.9949 -216.143 19.9669 -214.2C25.9388 -212.257 31.2492 -208.685 35.2992 -203.885C59.2994 -175.631 81.124 -145.598 100.586 -114.046C103.902 -108.688 105.655 -102.51 105.646 -96.2094V-96.2094Z" fill="#1D6BD0"/>
<path d="M105.646 71.8797C105.638 78.1588 103.886 84.3123 100.586 89.6539C81.124 121.206 59.2994 151.239 35.2992 179.493C31.2385 184.276 25.9233 187.83 19.952 189.756C13.9807 191.682 7.59037 191.904 1.50024 190.395L2.24994 187.271C7.78377 188.63 13.5869 188.417 19.0063 186.656C24.4257 184.896 29.2461 181.658 32.9252 177.306C56.8316 149.184 78.5529 119.276 97.8991 87.8421C100.915 83.0068 102.514 77.4224 102.514 71.7236C102.514 66.0248 100.915 60.4403 97.8991 55.605C78.5452 24.1764 56.8243 -5.73163 32.9251 -33.8592C29.2319 -38.1883 24.4051 -41.4023 18.9865 -43.1405C13.568 -44.8786 7.77228 -45.072 2.24993 -43.699L1.50023 -46.8227C7.5961 -48.3243 13.9902 -48.0934 19.9619 -46.1562C25.9336 -44.219 31.2456 -40.6524 35.2992 -35.8583C59.2923 -7.59853 81.1165 22.4332 100.586 53.9806C103.909 59.3583 105.661 65.5582 105.646 71.8797Z" fill="#1D6BD0"/>
</g>
<defs>
<clipPath id="clip0_528_14292">
<rect width="719" height="290" fill="white" transform="translate(0 719) rotate(-90)"/>
</clipPath>
</defs>
</svg>
