<svg width="255" height="159" viewBox="0 0 255 159" fill="none" xmlns="http://www.w3.org/2000/svg">
<path fill-rule="evenodd" clip-rule="evenodd" d="M255 84.9297V78.5898C254.97 78.6128 254.941 78.6362 254.911 78.6592C239.541 66.6382 223.858 55.0259 207.877 43.8335C223.889 32.6401 239.603 21.0229 255 8.99463V2.8457C253.801 1.89941 252.604 0.951172 251.41 0H243.765C246.227 1.97656 248.698 3.94238 251.176 5.89746C235.663 17.9917 219.832 29.6704 203.699 40.9214C187.425 29.6348 170.847 18.7817 153.981 8.37549C145.906 3.37012 136.593 0.717773 127.092 0.717773C117.591 0.717773 108.279 3.37012 100.203 8.37549C83.3369 18.7783 66.7581 29.6279 50.4834 40.9106C34.6528 29.8555 19.114 18.3867 3.88306 6.51611C6.62109 4.35693 9.34888 2.18506 12.0667 0H4.61719C3.11768 1.19141 1.61523 2.37842 0.109619 3.56201C0.072998 3.5332 0.0366211 3.50439 0 3.47559V9.57324C15.1404 21.3872 30.5854 32.8042 46.3196 43.8115C30.5869 54.8262 15.1418 66.2476 0 78.064V84.1738C10.9932 92.8174 21.8232 101.672 32.4841 110.734C39.0757 116.292 43.9807 123.584 46.6448 131.785C49.3086 139.986 49.6255 148.769 47.5591 157.14L52.2847 158.274C54.5452 149.047 54.1858 139.373 51.2471 130.34C48.3083 121.307 42.9067 113.272 35.6504 107.142C25.1504 98.2124 14.4878 89.4814 3.66821 80.9531C18.9065 69.0864 34.4551 57.6255 50.2981 46.582C66.6311 57.9023 83.272 68.7837 100.203 79.2134C108.281 84.2134 117.592 86.8647 127.092 86.8691C136.591 86.8521 145.898 84.2021 153.981 79.2134C170.813 68.8545 187.358 58.0488 203.598 46.8096C219.694 58.0347 235.487 69.6899 250.959 81.7617C240.475 90.0332 230.138 98.4946 219.952 107.142C212.691 113.268 207.289 121.303 204.358 130.339C201.426 139.376 201.083 149.052 203.365 158.274L208.091 157.14C206.036 148.768 206.358 139.989 209.021 131.79C211.685 123.592 216.583 116.299 223.166 110.733C233.569 101.896 244.133 93.2534 254.851 84.8125C254.901 84.8516 254.95 84.8906 255 84.9297ZM54.4751 43.6851C70.2554 54.6021 86.3223 65.1099 102.66 75.1963C109.992 79.7368 118.445 82.1421 127.069 82.1421C135.692 82.1421 144.145 79.7368 151.477 75.1963C167.725 65.1753 183.707 54.7397 199.406 43.9004C183.618 32.998 167.541 22.5068 151.193 12.4395C143.869 7.87793 135.413 5.46045 126.785 5.46045C118.156 5.46045 109.701 7.87793 102.377 12.4395C86.1348 22.4395 70.1624 32.8584 54.4751 43.6851Z" fill="white" fill-opacity="0.2"/>
</svg>
