<svg width="107" height="103" viewBox="0 0 107 103" fill="none" xmlns="http://www.w3.org/2000/svg">
<path d="M101.056 31.17C88.4504 20.4944 75.0536 10.7898 60.9805 2.13963C58.7118 0.740789 56.0988 0 53.4334 0C50.7679 0 48.155 0.740789 45.8863 2.13963C31.819 10.7967 18.4286 20.5076 5.83006 31.1889C3.79183 32.9177 2.276 35.1803 1.45277 37.7226C0.629549 40.265 0.531533 42.9865 1.16973 45.5815C5.05643 61.6236 10.1656 77.3448 16.4526 92.6073C17.4636 95.0793 19.1427 97.2213 21.3019 98.7937C23.4611 100.366 26.0154 101.307 28.6789 101.511C45.1458 102.756 61.6832 102.756 78.1501 101.511C80.8151 101.304 83.3705 100.362 85.5323 98.7905C87.694 97.2187 89.3774 95.0783 90.3953 92.6073C96.6739 77.3418 101.783 61.6212 105.678 45.5815C106.308 42.9846 106.203 40.2639 105.377 37.7227C104.551 35.1815 103.035 32.9196 100.999 31.1889L101.056 31.17Z" fill="url(#paint0_linear_517_46272)"/>
<path fill-rule="evenodd" clip-rule="evenodd" d="M44.0394 25.9722C43.2458 26.7658 42.5965 28.1762 42.5965 29.1068C42.5965 31.4934 40.4091 33.1866 37.3257 33.1866C35.2977 33.1866 34.4161 33.6108 33.4826 35.0349C32.3535 36.7584 32.3528 37.0528 33.466 39.3881C35.1426 42.9036 34.9723 44.1611 32.4964 46.5332C29.1474 49.7414 29.9814 53.0615 34.481 54.4322C41.5143 56.5748 38.358 61.9049 33.7134 69.8985C31.8535 73.0995 30.332 75.8879 30.332 76.0956C30.332 76.3034 32.5238 76.4737 35.2017 76.4744L40.0715 76.4766L42.2358 81.2243L44.4001 85.9721L48.7143 78.6979C51.0871 74.6968 53.2038 71.4229 53.4181 71.4229C53.6324 71.4229 55.7491 74.6867 58.1219 78.6762L62.4361 85.9303L64.5232 81.2013L66.6104 76.4729H71.5573C74.2778 76.4729 76.5042 76.32 76.5042 76.1331C76.5042 75.9463 75.0043 73.2676 73.1711 70.1813C67.8469 59.5191 68.1535 55.7128 72.3552 54.4322C76.8548 53.0615 77.6888 49.7414 74.3399 46.5332C71.8639 44.1611 71.6936 42.9036 73.3702 39.3881C74.4834 37.0528 74.4827 36.7584 73.3537 35.0349C72.4035 33.5848 71.5479 33.1866 69.385 33.1866C66.3016 33.1866 64.2397 31.5013 64.2397 28.9813C64.2397 27.0608 61.8337 24.5293 60.0085 24.5293C59.2683 24.5293 57.8376 25.1786 56.8284 25.9722C54.5003 27.8032 52.3359 27.8032 50.0079 25.9722C48.9986 25.1786 47.568 24.5293 46.8278 24.5293C46.0876 24.5293 44.833 25.1786 44.0394 25.9722ZM58.4978 48.6578L51.9933 55.1631L47.6639 50.8792L43.3345 46.5945L45.2702 44.5745L47.2058 42.5545L49.6067 44.8811L52.0077 47.2078L56.477 42.7384L60.9471 38.2684L62.975 40.2105L65.0023 42.1533L58.4978 48.6578ZM47.964 65.3505C49.0051 66.3916 48.9344 66.797 47.1567 69.9598L45.2074 73.427L42.9998 71.886C41.7863 71.0391 40.6645 70.27 40.5072 70.1777C40.3499 70.0853 41.0851 68.7045 42.1406 67.1087C44.1931 64.0065 46.0573 63.4437 47.964 65.3505ZM64.6957 67.1087C65.7511 68.7045 66.4863 70.0853 66.329 70.1777C66.1717 70.27 65.047 71.0412 63.8285 71.8918L61.6144 73.4379L59.6802 70.2368C57.4026 66.4659 57.3377 65.9609 59.0093 64.9876C61.3179 63.6429 62.7579 64.1803 64.6957 67.1087Z" fill="white"/>
<defs>
<linearGradient id="paint0_linear_517_46272" x1="53.419" y1="0" x2="53.419" y2="102.444" gradientUnits="userSpaceOnUse">
<stop stop-color="#4299FF"/>
<stop offset="1" stop-color="#1D6BD0"/>
</linearGradient>
</defs>
</svg>
