<svg width="106" height="103" viewBox="0 0 106 103" fill="none" xmlns="http://www.w3.org/2000/svg">
<path d="M100.392 31.17C87.7863 20.4944 74.3896 10.7898 60.3164 2.13963C58.0478 0.740789 55.4348 0 52.7693 0C50.1039 0 47.4909 0.740789 45.2222 2.13963C31.155 10.7967 17.7645 20.5076 5.166 31.1889C3.12777 32.9177 1.61193 35.1803 0.78871 37.7226C-0.0345139 40.265 -0.13253 42.9865 0.505667 45.5815C4.39237 61.6236 9.50158 77.3448 15.7885 92.6073C16.7996 95.0793 18.4786 97.2213 20.6378 98.7937C22.7971 100.366 25.3513 101.307 28.0148 101.511C44.4818 102.756 61.0192 102.756 77.4861 101.511C80.1511 101.304 82.7065 100.362 84.8682 98.7905C87.0299 97.2187 88.7133 95.0783 89.7312 92.6073C96.0098 77.3418 101.119 61.6212 105.014 45.5815C105.644 42.9846 105.539 40.2639 104.713 37.7227C103.887 35.1815 102.371 32.9196 100.335 31.1889L100.392 31.17Z" fill="url(#paint0_linear_517_46277)"/>
<path fill-rule="evenodd" clip-rule="evenodd" d="M26.7832 30.3003V33.1861H29.9143C32.9277 33.1861 33.0814 33.295 33.9976 36.0718L34.9499 38.9576H44.1771H53.4044L45.8653 51.0042C41.7185 57.6299 38.3263 63.6207 38.3263 64.3169C38.3263 66.5151 39.8637 69.0698 41.686 69.9001C42.8216 70.4174 49.6933 70.7009 61.0855 70.7009H78.7269V67.8152V64.9294H61.3907H44.0545L45.6994 62.0494L47.3443 59.1687L58.9876 59.1637C69.0307 59.1586 70.8329 58.984 72.1012 57.8954C73.7764 56.4561 84.4984 37.4534 84.4984 35.9232C84.4984 33.3397 83.1753 33.1861 60.9016 33.1861H39.0362L37.8811 30.3003L36.7268 27.4146H31.7547H26.7832V30.3003ZM21.0117 47.6149V50.5006L30.2101 50.492L39.4084 50.4826L41.0317 47.977C41.9241 46.5984 42.6549 45.3041 42.6549 45.0999C42.6549 44.8958 37.7852 44.7291 31.8333 44.7291H21.0117V47.6149ZM21.0117 59.1579V62.0437H26.6505H32.2893L33.9111 59.1579L35.5329 56.2721H28.2723H21.0117V59.1579ZM40.0974 75.3578C36.5183 78.9362 39.0542 85.1297 44.0978 85.1297C47.0636 85.1297 49.8693 82.324 49.8693 79.3582C49.8693 76.3924 47.0636 73.5867 44.0978 73.5867C42.6924 73.5867 41.2135 74.241 40.0974 75.3578ZM68.955 75.3578C67.8382 76.4739 67.1839 77.9528 67.1839 79.3582C67.1839 80.7636 67.8382 82.2425 68.955 83.3586C70.0711 84.4754 71.55 85.1297 72.9554 85.1297C74.3607 85.1297 75.8397 84.4754 76.9558 83.3586C78.0725 82.2425 78.7269 80.7636 78.7269 79.3582C78.7269 77.9528 78.0725 76.4739 76.9558 75.3578C75.8397 74.241 74.3607 73.5867 72.9554 73.5867C71.55 73.5867 70.0711 74.241 68.955 75.3578Z" fill="white"/>
<defs>
<linearGradient id="paint0_linear_517_46277" x1="52.7549" y1="0" x2="52.7549" y2="102.444" gradientUnits="userSpaceOnUse">
<stop stop-color="#4299FF"/>
<stop offset="1" stop-color="#1D6BD0"/>
</linearGradient>
</defs>
</svg>
