<svg width="106" height="103" viewBox="0 0 106 103" fill="none" xmlns="http://www.w3.org/2000/svg">
<path d="M100.661 31.17C88.0559 20.4944 74.6591 10.7898 60.586 2.13963C58.3173 0.740789 55.7043 0 53.0389 0C50.3734 0 47.7604 0.740789 45.4918 2.13963C31.4245 10.7967 18.034 20.5076 5.43553 31.1889C3.3973 32.9177 1.88146 35.1803 1.05824 37.7226C0.235017 40.265 0.137001 42.9865 0.775198 45.5815C4.6619 61.6236 9.77111 77.3448 16.0581 92.6073C17.0691 95.0793 18.7481 97.2213 20.9074 98.7937C23.0666 100.366 25.6209 101.307 28.2844 101.511C44.7513 102.756 61.2887 102.756 77.7556 101.511C80.4206 101.304 82.976 100.362 85.1377 98.7905C87.2995 97.2187 88.9829 95.0783 90.0008 92.6073C96.2793 77.3417 101.388 61.6212 105.284 45.5815C105.913 42.9846 105.809 40.2639 104.983 37.7227C104.156 35.1815 102.641 32.9196 100.604 31.1889L100.661 31.17Z" fill="url(#paint0_linear_517_46282)"/>
<path fill-rule="evenodd" clip-rule="evenodd" d="M50.5926 25.4324C50.1165 25.9085 49.7269 27.052 49.7269 27.9733C49.7269 28.8945 48.4283 32.2312 46.8411 35.3882C43.2159 42.5983 43.1733 44.0174 46.528 45.8246C50.1085 47.7523 57.0538 55.3714 59.1035 59.6192C62.3196 66.2868 60.8263 74.2969 55.2474 80.2978L53.4026 82.2818H65.1282C73.2855 82.2818 77.1164 82.0185 77.7188 81.4161C78.35 80.7848 78.5845 75.2081 78.5845 60.8392V41.128L75.6987 35.3882C74.1116 32.2312 72.813 28.8945 72.813 27.9733C72.813 27.052 72.4234 25.9085 71.9472 25.4324C70.7432 24.2283 51.7967 24.2283 50.5926 25.4324ZM71.5973 40.1021C72.6304 42.2686 72.813 45.1955 72.813 59.581V76.5103H69.9272H67.0415V59.581C67.0415 45.1955 67.224 42.2686 68.2571 40.1021C68.9258 38.6996 69.6776 37.5525 69.9272 37.5525C70.1768 37.5525 70.9286 38.6996 71.5973 40.1021ZM31.3569 49.136C24.6951 52.4597 21.2849 57.8178 21.2813 64.9673C21.2776 71.8613 24.4339 77.0622 30.6087 80.3375C34.6171 82.4629 41.7629 82.4521 45.8275 80.3137C50.8184 77.6877 55.5266 71.1291 55.4825 66.8632C55.432 62.0014 47.9579 52.6645 41.5667 49.4794C37.1969 47.3021 35.1704 47.2343 31.3569 49.136ZM40.4016 55.4673C44.0153 57.7586 47.1838 61.2389 48.8619 64.7573C50.1525 67.4634 49.7724 68.2022 47.3967 67.6056C43.7231 66.6836 35.2981 57.7377 35.2981 54.7589C35.2981 52.9012 36.6515 53.0888 40.4016 55.4673Z" fill="white"/>
<defs>
<linearGradient id="paint0_linear_517_46282" x1="53.0245" y1="0" x2="53.0245" y2="102.444" gradientUnits="userSpaceOnUse">
<stop stop-color="#4299FF"/>
<stop offset="1" stop-color="#1D6BD0"/>
</linearGradient>
</defs>
</svg>
