<?xml version="1.0" encoding="utf-8"?>
<!-- Generator: Adobe Illustrator 26.0.3, SVG Export Plug-In . SVG Version: 6.00 Build 0)  -->
<svg version="1.1" id="Layer_1" xmlns="http://www.w3.org/2000/svg" xmlns:xlink="http://www.w3.org/1999/xlink" x="0px" y="0px"
	 viewBox="0 0 242 55" style="enable-background:new 0 0 242 55;" xml:space="preserve">
<style type="text/css">
	.st0{fill:#1D1E1C;}
	.st1{fill:#1D6BD0;}
	.st2{fill:#FFFFFF;}
</style>
<path class="st0" d="M93.5,19.9c-1.9-1.6-4.7-2.6-8.4-2.8v-2.2h-5.6v2.2c-3.7,0.3-6.5,1.2-8.4,2.9c-1,0.8-1.7,1.9-2.2,3
	c-0.5,1.2-0.7,2.4-0.7,3.7c-0.1,1.3,0.2,2.5,0.7,3.7c0.5,1.2,1.3,2.2,2.2,3c1.9,1.6,4.7,2.6,8.4,2.8v2.4h5.6v-2.4
	c3.7-0.2,6.5-1.2,8.4-2.8c1-0.8,1.7-1.9,2.2-3c0.5-1.2,0.7-2.4,0.7-3.7c0.1-1.3-0.2-2.5-0.7-3.7C95.3,21.8,94.5,20.8,93.5,19.9z
	 M79.5,31.4c-1.4-0.1-2.8-0.6-4-1.5c-0.5-0.4-0.8-0.9-1-1.5c-0.2-0.6-0.3-1.2-0.3-1.8c0-0.6,0.1-1.2,0.3-1.8c0.2-0.6,0.6-1.1,1-1.5
	c1.2-0.9,2.6-1.4,4.1-1.5L79.5,31.4z M89.2,30c-1.1,0.9-2.5,1.4-4,1.5v-9.6c1.4,0.1,2.8,0.6,4,1.5c0.5,0.4,0.8,0.9,1,1.5
	c0.2,0.6,0.3,1.2,0.3,1.8c0,0.6-0.1,1.2-0.3,1.8C90,29,89.6,29.6,89.2,30z M107.4,21.3c1-0.5,2.1-0.8,3.2-0.8c1,0,2,0.2,2.9,0.7
	c0.9,0.4,1.7,1.1,2.3,1.9l3.9-3.5c-1.1-1.3-2.4-2.4-4-3.1c-1.7-0.7-3.5-1-5.4-1c-2.1,0-4.2,0.5-6.1,1.4c-1.8,0.9-3.2,2.3-4.3,4
	c-1.1,1.8-1.6,3.8-1.6,5.8c0,2.1,0.5,4.1,1.6,5.8c1,1.7,2.5,3.1,4.3,4c1.9,1,4,1.5,6.1,1.5c1.9,0,3.7-0.3,5.4-1.1
	c1.6-0.7,2.9-1.7,4-3l-3.9-3.6c-0.9,1.2-2.3,2.1-3.8,2.4c-1.5,0.3-3.1,0.1-4.5-0.6c-0.9-0.5-1.7-1.3-2.1-2.2c-0.5-1-0.8-2.1-0.8-3.2
	c0-1.1,0.2-2.2,0.8-3.2C105.8,22.6,106.5,21.8,107.4,21.3L107.4,21.3z M128.4,28.7V15.9h-6v21.8h5.8l8.9-12.7v12.7h6.1V15.9h-5.8
	L128.4,28.7z M162.4,15.9V24H154v-8.1h-6.1v21.8h6.1v-8.5h8.4v8.5h6.1V15.9L162.4,15.9z"/>
<path class="st1" d="M188.3,26.3c0.9-0.4,1.6-1.1,2.2-1.9c0.5-0.8,0.8-1.8,0.8-2.7c0-1.3-0.4-2.5-1.3-3.4c-1-1-2.3-1.8-3.6-2.2
	c-1.6-0.5-3.3-0.8-5-0.8c-2.6,0-5.3,0.5-7.6,1.7l1.8,4.7c0.9-0.5,1.9-0.8,2.9-1.1c0.9-0.2,1.9-0.4,2.9-0.4c0.9,0,1.9,0.2,2.7,0.6
	c0.3,0.1,0.6,0.4,0.8,0.7c0.2,0.3,0.3,0.6,0.3,1c0,0.3,0,0.5-0.2,0.8c-0.1,0.2-0.3,0.4-0.5,0.6c-0.6,0.4-1.2,0.5-1.9,0.5h-5.1v4.5
	h5.6c0.8,0,1.5,0.1,2.2,0.5c0.3,0.1,0.5,0.3,0.6,0.6c0.1,0.3,0.2,0.5,0.2,0.8c0,0.4-0.1,0.8-0.4,1.1c-0.2,0.3-0.6,0.6-0.9,0.7
	c-1.1,0.5-2.2,0.7-3.4,0.7c-1.1,0-2.2-0.1-3.2-0.4c-1.1-0.2-2.1-0.6-3.1-1.1l-1.9,4.3c1.4,0.7,2.9,1.2,4.4,1.6
	c1.5,0.3,3,0.5,4.5,0.5c1.7,0,3.5-0.2,5.1-0.8c1.4-0.4,2.7-1.2,3.7-2.3c0.8-0.9,1.3-2.1,1.4-3.3s-0.3-2.4-1-3.4
	C190.4,27.4,189.4,26.7,188.3,26.3z M202.9,15.9l-9.6,21.8h6.3l1.7-4.2h9.2l1.7,4.2h6.4L209,15.9H202.9z M203.1,28.9l2.8-7l2.8,7
	H203.1z M234.9,26.4l6.8-10.5h-6.5l-5.2,8.5h-3v-8.5H221v21.8h6.1v-8.3h2.8l4.9,8.3h6.9L234.9,26.4z"/>
<path class="st2" d="M69,44.9c0.2-0.1,0.4-0.2,0.6-0.1c0.2,0,0.4,0,0.5,0.1c0.2,0.1,0.3,0.2,0.4,0.3l0.5-0.5
	c-0.2-0.2-0.4-0.4-0.7-0.5c-0.3-0.1-0.6-0.2-0.9-0.2c-0.3,0-0.7,0.1-1,0.2c-0.3,0.2-0.6,0.4-0.7,0.7c-0.2,0.3-0.3,0.6-0.3,1
	c0,0.3,0.1,0.7,0.3,1c0.2,0.3,0.4,0.5,0.7,0.7c0.3,0.2,0.7,0.2,1,0.2c0.3,0,0.6-0.1,0.9-0.2c0.3-0.1,0.5-0.3,0.7-0.5l-0.6-0.5
	c-0.1,0.1-0.3,0.2-0.4,0.3c-0.2,0.1-0.3,0.1-0.5,0.1c-0.2,0-0.4-0.1-0.6-0.2c-0.2-0.1-0.3-0.2-0.4-0.4c-0.1-0.2-0.2-0.4-0.2-0.6
	c0-0.2,0-0.4,0.2-0.6C68.7,45.2,68.8,45,69,44.9z M72.5,46.3h1.7v-0.7h-1.8v-0.8h2v-0.7h-2.8v3.7h2.9v-0.7h-2L72.5,46.3z M77.7,44.3
	c-0.3-0.1-0.6-0.2-0.9-0.2h-1.6v3.7h0.9v-1h0.8c0.3,0,0.6,0,0.9-0.2c0.2-0.1,0.4-0.3,0.6-0.5c0.1-0.2,0.2-0.5,0.2-0.7
	c0-0.3-0.1-0.5-0.2-0.7C78.2,44.6,78,44.4,77.7,44.3L77.7,44.3z M77.4,45.9c-0.2,0.1-0.4,0.2-0.6,0.2h-0.7v-1.3h0.7
	c0.2,0,0.4,0,0.6,0.2c0.1,0.1,0.1,0.1,0.2,0.2c0,0.1,0,0.2,0,0.3c0,0.1,0,0.2-0.1,0.3C77.5,45.8,77.5,45.9,77.4,45.9L77.4,45.9z
	 M81.7,45.9c0.2-0.1,0.3-0.2,0.4-0.3c0.1-0.1,0.1-0.3,0.1-0.5c0-0.1,0-0.3-0.1-0.4c-0.1-0.1-0.2-0.2-0.3-0.3c-0.3-0.2-0.6-0.3-1-0.2
	h-1.8v3.7h1.8c0.4,0,0.8-0.1,1.1-0.3c0.1-0.1,0.2-0.2,0.3-0.3c0.1-0.1,0.1-0.3,0.1-0.4c0-0.2-0.1-0.4-0.2-0.6
	C82.1,46,81.9,45.9,81.7,45.9L81.7,45.9z M79.9,44.8h0.8c0.1,0,0.3,0,0.4,0.1c0,0,0.1,0.1,0.1,0.1c0,0.1,0,0.1,0,0.2
	c0,0.1,0,0.1,0,0.2c0,0.1-0.1,0.1-0.1,0.2c-0.1,0.1-0.3,0.1-0.4,0.1h-0.8V44.8z M80.9,47.2h-1v-0.9h1c0.4,0,0.6,0.2,0.6,0.5
	C81.5,47.1,81.3,47.2,80.9,47.2L80.9,47.2z M83.9,46.6v-2.5H83v3.7h0.8l1.8-2.4v2.4h0.8v-3.7h-0.8L83.9,46.6z M88.6,45
	c0.2-0.1,0.4-0.2,0.6-0.1c0.2,0,0.4,0,0.5,0.1c0.2,0.1,0.3,0.2,0.4,0.3l0.6-0.5c-0.2-0.2-0.4-0.4-0.7-0.5c-0.3-0.1-0.6-0.2-0.9-0.2
	c-0.3,0-0.7,0.1-1,0.2c-0.3,0.2-0.5,0.4-0.7,0.7c-0.2,0.3-0.3,0.6-0.3,1c0,0.4,0.1,0.7,0.3,1c0.2,0.3,0.4,0.5,0.7,0.7
	c0.3,0.2,0.7,0.2,1,0.2c0.3,0,0.6,0,0.9-0.2c0.3-0.1,0.5-0.3,0.7-0.5l-0.5-0.5c-0.1,0.1-0.3,0.3-0.4,0.3c-0.2,0.1-0.3,0.1-0.5,0.1
	c-0.2,0-0.4,0-0.6-0.1c-0.2-0.1-0.3-0.2-0.4-0.4C88.1,46.4,88,46.2,88,46c0-0.2,0-0.4,0.2-0.6C88.3,45.2,88.4,45,88.6,45L88.6,45z
	 M95.3,44.1l-1,2l-1-2h-0.9l1.5,2.7c-0.1,0.1-0.1,0.2-0.2,0.2c-0.1,0-0.2,0.1-0.3,0.1c-0.1,0-0.3,0-0.4-0.1l-0.2,0.7
	c0.2,0.1,0.4,0.1,0.6,0.1c0.3,0,0.5-0.1,0.7-0.2c0.2-0.2,0.4-0.4,0.6-0.7l1.6-2.9L95.3,44.1z M99.9,44.1H97v1.2
	c0,0.5-0.1,0.9-0.2,1.4c-0.1,0.3-0.2,0.5-0.5,0.5h-0.1v1.4H97v-0.8h2.6v0.8h0.8v-1.5h-0.5L99.9,44.1z M99,47.1h-1.7
	c0.1-0.2,0.2-0.4,0.3-0.7c0.1-0.4,0.1-0.7,0.1-1.1v-0.5H99L99,47.1z M102.2,44.1l-1.7,3.7h0.9l0.3-0.8h1.7l0.3,0.8h0.9l-1.7-3.7
	H102.2z M102,46.4l0.6-1.4l0.6,1.4H102z M105.6,45.6c0,0.4-0.1,0.8-0.2,1.1c0,0.1-0.1,0.2-0.2,0.3c-0.1,0.1-0.2,0.1-0.3,0.1
	c0,0-0.1,0-0.2,0v0.7c0.1,0,0.3,0.1,0.4,0.1c0.1,0,0.2,0,0.4-0.1c0.1,0,0.2-0.1,0.3-0.2c0.2-0.2,0.3-0.5,0.3-0.8
	c0.1-0.4,0.1-0.9,0.1-1.3v-0.8h1.3v3h0.8v-3.7h-2.9L105.6,45.6z M110.3,46.3h1.7v-0.7h-1.7v-0.8h2v-0.7h-2.8v3.7h2.9v-0.7h-2
	L110.3,46.3z M115.6,45.6H114v-1.5h-0.9v3.7h0.9v-1.5h1.7v1.5h0.9v-3.7h-0.9L115.6,45.6z M120,45.6h-1.7v-1.5h-0.9v3.7h0.9v-1.5h1.7
	v1.5h0.9v-3.7H120L120,45.6z M124.6,44.3c-0.3-0.2-0.7-0.2-1-0.2s-0.7,0.1-1,0.2c-0.3,0.2-0.6,0.4-0.7,0.7c-0.2,0.3-0.3,0.6-0.3,1
	s0.1,0.7,0.3,1c0.2,0.3,0.4,0.5,0.7,0.7c0.3,0.2,0.7,0.2,1,0.2s0.7-0.1,1-0.2c0.3-0.2,0.6-0.4,0.7-0.7c0.2-0.3,0.3-0.6,0.3-1
	s-0.1-0.7-0.3-1C125.2,44.7,124.9,44.4,124.6,44.3L124.6,44.3z M124.6,46.6c-0.1,0.2-0.2,0.3-0.4,0.4c-0.2,0.1-0.4,0.2-0.6,0.2
	c-0.2,0-0.4-0.1-0.6-0.2c-0.2-0.1-0.3-0.2-0.4-0.4c-0.1-0.2-0.2-0.4-0.2-0.6c0-0.2,0-0.4,0.2-0.6c0.1-0.2,0.2-0.3,0.4-0.4
	c0.2-0.1,0.4-0.2,0.6-0.2c0.2,0,0.4,0,0.6,0.2c0.2,0.1,0.3,0.3,0.4,0.4c0.1,0.2,0.2,0.4,0.2,0.6C124.8,46.2,124.7,46.4,124.6,46.6z
	 M128.9,44.8v-0.7h-2.6v3.7h0.9v-3L128.9,44.8z M131.9,44.3c-0.3-0.2-0.7-0.2-1-0.2c-0.4,0-0.7,0.1-1.1,0.2
	c-0.3,0.2-0.6,0.4-0.7,0.7c-0.2,0.3-0.3,0.6-0.3,1s0.1,0.7,0.3,1c0.2,0.3,0.4,0.5,0.7,0.7c0.3,0.2,0.7,0.3,1.1,0.2
	c0.3,0,0.7-0.1,1-0.2c0.3-0.2,0.6-0.4,0.7-0.7c0.2-0.3,0.3-0.6,0.3-1s-0.1-0.7-0.3-1C132.5,44.7,132.2,44.4,131.9,44.3L131.9,44.3z
	 M131.9,46.6c-0.1,0.2-0.2,0.3-0.4,0.4c-0.2,0.1-0.4,0.2-0.6,0.2c-0.2,0-0.4,0-0.6-0.2c-0.2-0.1-0.3-0.2-0.4-0.4
	c-0.1-0.2-0.2-0.4-0.2-0.6c0-0.2,0.1-0.4,0.2-0.6c0.1-0.2,0.2-0.3,0.4-0.4c0.2-0.1,0.4-0.2,0.6-0.2c0.2,0,0.4,0,0.6,0.1
	c0.2,0.1,0.3,0.3,0.4,0.4c0.1,0.2,0.1,0.4,0.1,0.7C132,46.2,132,46.4,131.9,46.6L131.9,46.6z M137.9,44.3c-0.3-0.2-0.7-0.2-1-0.2
	c-0.4,0-0.7,0.1-1,0.2c-0.3,0.2-0.6,0.4-0.7,0.7c-0.2,0.3-0.3,0.6-0.3,1s0.1,0.7,0.3,1c0.2,0.3,0.4,0.5,0.7,0.7
	c0.3,0.2,0.7,0.2,1,0.2c0.4,0,0.7-0.1,1-0.2c0.3-0.2,0.6-0.4,0.7-0.7c0.2-0.3,0.3-0.6,0.3-1s-0.1-0.7-0.3-1
	C138.5,44.7,138.2,44.4,137.9,44.3L137.9,44.3z M137.9,46.6c-0.1,0.2-0.2,0.3-0.4,0.4c-0.2,0.1-0.4,0.2-0.6,0.2
	c-0.2,0-0.4,0-0.6-0.2c-0.2-0.1-0.3-0.2-0.4-0.4c-0.1-0.2-0.2-0.4-0.2-0.6c0-0.2,0-0.4,0.2-0.6c0.1-0.2,0.2-0.3,0.4-0.4
	c0.2-0.1,0.4-0.2,0.6-0.1c0.2,0,0.4,0,0.6,0.2c0.2,0.1,0.3,0.3,0.4,0.4c0.1,0.2,0.1,0.4,0.1,0.7C138,46.2,137.9,46.4,137.9,46.6
	L137.9,46.6z M142,44.3v-0.4h-0.8v0.4c-0.5,0-1,0.2-1.5,0.5c-0.2,0.1-0.3,0.3-0.4,0.5c-0.1,0.2-0.1,0.4-0.1,0.6c0,0.2,0,0.4,0.1,0.6
	c0.1,0.2,0.2,0.4,0.4,0.5c0.4,0.3,0.9,0.5,1.5,0.5V48h0.8v-0.4c0.5,0,1-0.2,1.4-0.5c0.2-0.1,0.3-0.3,0.4-0.5
	c0.1-0.2,0.1-0.4,0.1-0.6s0-0.4-0.1-0.6c-0.1-0.2-0.2-0.4-0.4-0.5C143,44.5,142.5,44.3,142,44.3z M141.2,46.9
	c-0.8-0.1-1.1-0.4-1.1-1c0-0.1,0-0.3,0.1-0.4c0-0.1,0.1-0.2,0.2-0.3c0.2-0.2,0.5-0.3,0.9-0.3V46.9z M142.8,46.6
	c-0.2,0.2-0.5,0.3-0.8,0.3V45c0.8,0.1,1.1,0.4,1.1,1c0,0.1,0,0.2-0.1,0.3C143,46.4,142.9,46.5,142.8,46.6L142.8,46.6z M147.4,44.3
	c-0.3-0.2-0.7-0.2-1-0.2s-0.7,0.1-1,0.2c-0.3,0.2-0.6,0.4-0.7,0.7c-0.2,0.3-0.3,0.6-0.3,1s0.1,0.7,0.3,1c0.2,0.3,0.4,0.5,0.7,0.7
	c0.3,0.2,0.7,0.2,1,0.2s0.7-0.1,1-0.2c0.3-0.2,0.6-0.4,0.7-0.7c0.2-0.3,0.3-0.6,0.3-1s-0.1-0.7-0.3-1
	C148,44.7,147.7,44.4,147.4,44.3L147.4,44.3z M147.4,46.6c-0.1,0.2-0.2,0.3-0.4,0.4c-0.2,0.1-0.4,0.2-0.6,0.1c-0.2,0-0.4,0-0.6-0.1
	c-0.2-0.1-0.3-0.2-0.4-0.4c-0.1-0.2-0.2-0.4-0.1-0.6c0-0.2,0-0.4,0.1-0.6c0.1-0.2,0.2-0.3,0.4-0.4c0.2-0.1,0.4-0.2,0.6-0.2
	c0.2,0,0.4,0,0.6,0.2c0.2,0.1,0.3,0.3,0.4,0.4c0.1,0.2,0.2,0.4,0.2,0.6C147.6,46.2,147.5,46.4,147.4,46.6L147.4,46.6z M151.6,44.3
	c-0.3-0.1-0.6-0.2-0.9-0.2h-1.6v3.7h0.9v-1h0.8c0.3,0,0.6,0,0.9-0.2c0.2-0.1,0.4-0.3,0.6-0.5c0.1-0.2,0.2-0.5,0.2-0.7
	c0-0.3-0.1-0.5-0.2-0.7C152,44.5,151.8,44.4,151.6,44.3L151.6,44.3z M151.3,45.9c-0.2,0.1-0.4,0.2-0.6,0.2H150v-1.3h0.7
	c0.2,0,0.4,0,0.6,0.2c0.1,0.1,0.1,0.1,0.2,0.2c0,0.1,0.1,0.2,0,0.3c0,0.1,0,0.2-0.1,0.3C151.4,45.8,151.3,45.9,151.3,45.9
	L151.3,45.9z M156.4,44.1l-1.4,2.3l-1.4-2.3h-0.7v3.7h0.8v-2.2l1.1,1.8h0.4l1.1-1.8v2.2h0.8v-3.7H156.4z M158.4,45.6
	c0,0.4-0.1,0.8-0.2,1.1c0,0.1-0.1,0.2-0.2,0.3c-0.1,0.1-0.2,0.1-0.3,0.1c-0.1,0-0.1,0-0.2,0v0.7c0.1,0,0.3,0.1,0.4,0.1
	c0.1,0,0.2,0,0.4-0.1s0.2-0.1,0.3-0.2c0.2-0.2,0.3-0.5,0.3-0.8c0.1-0.4,0.1-0.9,0.1-1.3v-0.8h1.3v3h0.9v-3.7h-2.9L158.4,45.6z
	 M163.1,46.3h1.7v-0.7h-1.7v-0.8h2v-0.7h-2.8v3.7h2.9v-0.7h-2L163.1,46.3z M168.4,45.6h-1.7v-1.5h-0.9v3.7h0.9v-1.5h1.7v1.5h0.9
	v-3.7h-0.9V45.6z M171,46.6v-2.5h-0.8v3.7h0.8l1.8-2.4v2.4h0.9v-3.7h-0.8L171,46.6z M175,44.3c-0.2,0.1-0.4,0.3-0.6,0.5
	c-0.1,0.2-0.2,0.5-0.2,0.7c0,0.3,0.1,0.5,0.2,0.8c0.1,0.2,0.3,0.4,0.6,0.5l-0.8,1.1h0.9l0.7-1h0.8v1h0.9v-3.8h-1.6
	C175.6,44.1,175.3,44.2,175,44.3L175,44.3z M176.6,44.8v1.4h-0.8c-0.2,0-0.4-0.1-0.6-0.2c-0.1-0.1-0.2-0.3-0.2-0.5s0.1-0.4,0.2-0.5
	c0.2-0.1,0.4-0.2,0.6-0.2L176.6,44.8z M182.1,45.9c0.2-0.1,0.3-0.2,0.4-0.3c0.1-0.1,0.1-0.3,0.1-0.5c0-0.2-0.1-0.4-0.2-0.6
	c-0.2-0.2-0.4-0.3-0.6-0.4c-0.2-0.1-0.5-0.2-0.8-0.2c-0.4,0-0.9,0.1-1.3,0.3L180,45c0.2-0.1,0.3-0.2,0.5-0.2c0.2,0,0.3-0.1,0.5-0.1
	c0.2,0,0.4,0,0.5,0.1c0.1,0,0.1,0.1,0.2,0.1c0,0.1,0.1,0.1,0.1,0.2c0,0.1,0,0.1,0,0.2s-0.1,0.1-0.1,0.1c-0.1,0.1-0.3,0.1-0.4,0.1
	h-0.8v0.6h0.9c0.2,0,0.3,0,0.5,0.1c0.1,0,0.1,0.1,0.1,0.1c0,0.1,0,0.1,0,0.2c0,0.1,0,0.2-0.1,0.2c0,0.1-0.1,0.1-0.2,0.2
	c-0.2,0.1-0.4,0.2-0.6,0.1c-0.2,0-0.4,0-0.6-0.1c-0.2,0-0.4-0.1-0.5-0.2l-0.3,0.6c0.2,0.1,0.5,0.2,0.7,0.3c0.2,0.1,0.5,0.1,0.8,0.1
	c0.3,0,0.6,0,0.8-0.1c0.2-0.1,0.4-0.2,0.6-0.4c0.1-0.2,0.2-0.4,0.2-0.6c0-0.2-0.1-0.4-0.2-0.6C182.4,46.1,182.3,46,182.1,45.9
	L182.1,45.9z M184.7,44.1l-1.7,3.7h1l0.3-0.8h1.7l0.3,0.8h0.9l-1.7-3.7H184.7z M184.5,46.4l0.6-1.4l0.6,1.4H184.5z M192.7,44.1
	l-1.6,3.7l-1.2-1.9l1.2-1.8h-0.9l-1,1.5h-0.6v-1.5h-0.9v3.7h0.9v-1.5h0.6l1,1.5h1.8l0.3-0.8h1.8l0.3,0.8h0.9l-1.7-3.7L192.7,44.1z
	 M192.5,46.4l0.6-1.4l0.6,1.4H192.5z M197.8,45.9c0.2-0.1,0.3-0.2,0.4-0.3c0.1-0.1,0.1-0.3,0.1-0.5c0-0.2-0.1-0.4-0.2-0.6
	c-0.2-0.2-0.4-0.3-0.6-0.4c-0.3-0.1-0.5-0.1-0.8-0.1c-0.4,0-0.9,0.1-1.3,0.3l0.3,0.7c0.2-0.1,0.3-0.2,0.5-0.2c0.2,0,0.3-0.1,0.5-0.1
	c0.2,0,0.4,0,0.5,0.1c0.1,0,0.1,0.1,0.2,0.1c0,0.1,0.1,0.1,0.1,0.2c0,0.1,0,0.1,0,0.2s-0.1,0.1-0.1,0.1c-0.1,0.1-0.3,0.1-0.4,0.1
	h-0.9v0.7h0.9c0.2,0,0.3,0,0.5,0.1c0.1,0,0.1,0.1,0.1,0.1c0,0.1,0,0.1,0,0.2c0,0.1,0,0.2-0.1,0.2c0,0.1-0.1,0.1-0.2,0.2
	c-0.2,0.1-0.4,0.2-0.6,0.1c-0.2,0-0.4,0-0.6-0.1c-0.2,0-0.4-0.1-0.5-0.2l-0.3,0.6c0.2,0.1,0.5,0.2,0.7,0.3c0.3,0.1,0.5,0.1,0.8,0.1
	c0.3,0,0.6,0,0.8-0.1c0.2-0.1,0.4-0.2,0.6-0.4c0.1-0.2,0.2-0.4,0.2-0.6c0-0.2-0.1-0.4-0.2-0.5C198.2,46.1,198,46,197.8,45.9
	L197.8,45.9z M201.3,44.1h-0.8l-1.7,3.7h0.9L200,47h1.7l0.3,0.8h0.9L201.3,44.1z M200.3,46.4l0.6-1.4l0.6,1.4H200.3z"/>
<path class="st1" d="M24.9,19.7c-0.9,0-1.8,0.1-2.7,0.2c-0.9,0.1-1.7,0.5-2.3,1.1c-0.8,0.8-1.5,1.7-1.9,2.7c-0.6,1.6-1,3.3-1.2,5.1
	c-0.3,1.7-0.4,3.4-0.2,5.1c0.1,1,0.5,2,1.1,2.7c0.5,0.6,1.2,1,2,1.1c0.9,0.1,1.8,0.2,2.7,0.2H23c0.2,0,0.5,0,0.8,0l2.5-18.1
	c-0.3,0-0.5,0-0.8,0L24.9,19.7z M38.2,21c-0.5-0.6-1.2-1-2-1.1c-0.9-0.1-1.8-0.2-2.7-0.2h-0.8c-0.2,0-0.5,0-0.7,0l-2.6,18.2
	c0.2,0,0.5,0,0.7,0h0.7c0.9,0,1.8-0.1,2.7-0.2c0.9-0.1,1.7-0.5,2.4-1c0.8-0.8,1.4-1.7,1.8-2.7c0.6-1.6,1.1-3.4,1.3-5.1
	c0.3-1.7,0.3-3.4,0.2-5.1C39.2,22.7,38.8,21.8,38.2,21z M53.2,16.5C46.5,10.9,39.4,5.7,31.9,1.1c-1.2-0.7-2.6-1.1-4-1.1
	c-1.4,0-2.8,0.4-4,1.1C16.5,5.7,9.4,10.9,2.7,16.5c-1.1,0.9-1.9,2.1-2.3,3.5c-0.4,1.3-0.5,2.8-0.2,4.2C2.3,32.7,5,41,8.3,49.1
	c0.5,1.3,1.4,2.4,2.6,3.3c1.1,0.8,2.5,1.3,3.9,1.4c8.7,0.7,17.5,0.7,26.2,0c1.4-0.1,2.8-0.6,3.9-1.4c1.1-0.8,2-2,2.6-3.3
	c3.3-8.1,6-16.4,8.1-24.9c0.3-1.4,0.3-2.8-0.2-4.2C55,18.7,54.2,17.5,53.2,16.5L53.2,16.5z M44.7,28.8c-0.3,2.5-0.9,4.9-1.9,7.2
	c-0.7,1.6-1.7,3-3.1,4.1c-1.2,1-2.7,1.6-4.2,1.9c-1.7,0.3-3.5,0.5-5.2,0.5c-0.2,0-0.5,0-0.8,0c-0.3,0-0.5,0-0.8,0l-0.4,2.4h-5.6
	l0.4-2.4h-1.6c-1.7,0-3.4-0.1-5.1-0.5c-1.4-0.2-2.6-0.9-3.6-1.9c-1-1.2-1.7-2.6-1.9-4.1c-0.3-2.4-0.3-4.8,0.1-7.2
	c0.3-2.5,0.9-4.9,1.9-7.2c0.7-1.6,1.7-3,3.1-4.1c1.2-1,2.7-1.6,4.2-1.9c1.7-0.3,3.5-0.5,5.2-0.4h0.8c0.3,0,0.5,0,0.8,0l0.3-2.5H33
	l-0.3,2.5c0.3,0,0.5,0,0.8,0h0.8c1.7,0,3.4,0.1,5.1,0.4c1.4,0.2,2.7,0.9,3.7,1.9c1,1.1,1.7,2.6,1.9,4.1C45.2,24,45.2,26.4,44.7,28.8
	z"/>
</svg>
