<svg width="242" height="55" viewBox="0 0 242 55" fill="none" xmlns="http://www.w3.org/2000/svg">
<path d="M93.5403 19.9242C91.607 18.2776 88.807 17.3276 85.1403 17.0742V14.8442H79.5203V17.0742C75.8403 17.3476 73.0303 18.3209 71.0903 19.9942C70.1317 20.825 69.3737 21.8621 68.8732 23.0277C68.3727 24.1932 68.1426 25.457 68.2003 26.7242C68.143 27.9904 68.3753 29.2529 68.8795 30.4157C69.3838 31.5785 70.1468 32.6109 71.1104 33.4342C73.0504 34.9942 75.8503 35.9942 79.5203 36.2542V38.6442H85.1403V36.2542C88.8137 36.0409 91.6137 35.1009 93.5403 33.4342C94.503 32.6014 95.2648 31.5616 95.7688 30.3927C96.2727 29.2237 96.5057 27.956 96.4503 26.6842C96.511 25.4104 96.2804 24.1395 95.7761 22.9681C95.2719 21.7968 94.5073 20.7558 93.5403 19.9242ZM79.5404 31.4342C78.0918 31.331 76.7034 30.8138 75.5404 29.9442C75.0881 29.5351 74.733 29.0301 74.5012 28.466C74.2693 27.9019 74.1665 27.2932 74.2003 26.6842C74.159 26.0704 74.2511 25.4549 74.4704 24.88C74.6896 24.3052 75.0308 23.7847 75.4704 23.3542C76.6491 22.4619 78.0731 21.9523 79.5504 21.8942L79.5404 31.4342ZM89.1904 29.9942C88.0417 30.89 86.6451 31.4103 85.1904 31.4842V21.8942C86.6389 21.9738 88.0312 22.4819 89.1904 23.3542C89.6408 23.7702 89.993 24.2813 90.2213 24.8504C90.4496 25.4195 90.5484 26.0323 90.5104 26.6442C90.5462 27.2649 90.4467 27.886 90.2188 28.4644C89.9909 29.0429 89.64 29.5649 89.1904 29.9942ZM107.4 21.3242C108.368 20.7932 109.457 20.5244 110.56 20.5442C111.553 20.5438 112.532 20.774 113.421 21.2165C114.309 21.659 115.083 22.3018 115.68 23.0942L119.6 19.5542C118.538 18.2247 117.164 17.1772 115.6 16.5042C113.9 15.7999 112.071 15.4592 110.23 15.5042C108.096 15.4693 105.986 15.964 104.09 16.9442C102.325 17.8576 100.847 19.2421 99.8203 20.9442C98.7652 22.707 98.2248 24.7301 98.2604 26.7842C98.2285 28.8379 98.7686 30.86 99.8203 32.6242C100.846 34.327 102.324 35.7118 104.09 36.6242C105.984 37.6123 108.095 38.1108 110.23 38.0742C112.083 38.1026 113.921 37.7343 115.62 36.9942C117.179 36.3365 118.553 35.3064 119.62 33.9942L115.7 30.4442C114.753 31.6715 113.402 32.5236 111.886 32.8494C110.37 33.1753 108.788 32.9538 107.42 32.2242C106.509 31.7133 105.766 30.9491 105.28 30.0242C104.758 29.0256 104.496 27.9111 104.52 26.7842C104.496 25.6542 104.758 24.5364 105.28 23.5342C105.758 22.6024 106.494 21.8281 107.4 21.3042V21.3242ZM128.4 28.6542V15.8642H122.4V37.6142H128.21L137.16 24.8742V37.6142H143.21V15.8642H137.4L128.4 28.6542ZM162.4 15.8842V23.9942H154V15.8642H147.85V37.6142H154V29.1342H162.39V37.6142H168.54V15.8642L162.4 15.8842Z" fill="white"/>
<path d="M188.33 26.3043C189.218 25.8892 189.976 25.2391 190.52 24.4243C191.047 23.6159 191.322 22.6692 191.31 21.7043C191.338 20.4488 190.867 19.2335 190 18.3243C188.991 17.2994 187.739 16.5461 186.36 16.1343C184.747 15.6054 183.058 15.3453 181.36 15.3643C178.719 15.3354 176.106 15.91 173.72 17.0443L175.52 21.7043C176.439 21.2305 177.409 20.8615 178.41 20.6043C179.354 20.3543 180.325 20.2233 181.3 20.2143C182.248 20.1746 183.19 20.3741 184.04 20.7943C184.354 20.9354 184.62 21.1645 184.807 21.4538C184.993 21.7431 185.092 22.0802 185.09 22.4243C185.099 22.6855 185.041 22.9446 184.922 23.1773C184.803 23.41 184.627 23.6085 184.41 23.7543C183.837 24.1229 183.161 24.2981 182.48 24.2543H177.42V28.7643H183C183.754 28.7276 184.505 28.8861 185.18 29.2243C185.434 29.3641 185.643 29.5722 185.785 29.825C185.926 30.0777 185.994 30.365 185.98 30.6543C185.982 31.063 185.858 31.4622 185.625 31.7983C185.393 32.1344 185.063 32.3913 184.68 32.5343C183.629 33.021 182.478 33.2507 181.32 33.2043C180.239 33.1987 179.162 33.0679 178.11 32.8143C177.032 32.5644 175.988 32.185 175 31.6843L173.13 35.9943C174.518 36.6961 175.985 37.2267 177.5 37.5743C178.972 37.9207 180.478 38.0985 181.99 38.1043C183.729 38.1252 185.459 37.8583 187.11 37.3143C188.519 36.8796 189.793 36.0912 190.81 35.0243C191.629 34.127 192.11 32.9733 192.172 31.7603C192.234 30.5473 191.873 29.3504 191.15 28.3743C190.43 27.4267 189.45 26.7078 188.33 26.3043ZM202.93 15.8643L193.33 37.6143H199.6L201.31 33.3943H210.51L212.22 37.6143H218.62L209 15.8643H202.93ZM203.12 28.8643L205.91 21.8643L208.71 28.8643H203.12ZM234.9 26.3743L241.71 15.8743H235.25L230.06 24.3243H227.06V15.8643H221V37.6143H227.12V29.2943H229.92L234.86 37.6143H241.79L234.9 26.3743Z" fill="white"/>
<path d="M69.0004 44.9146C69.1907 44.8122 69.4042 44.7606 69.6204 44.7646C69.7998 44.7643 69.977 44.8036 70.1395 44.8796C70.302 44.9557 70.4457 45.0666 70.5604 45.2046L71.1104 44.6946C70.9343 44.4791 70.7075 44.3107 70.4504 44.2046C70.1767 44.0835 69.8794 44.0254 69.5804 44.0346C69.2315 44.034 68.8879 44.1198 68.5804 44.2846C68.2799 44.4372 68.0299 44.6733 67.8604 44.9646C67.6795 45.2665 67.586 45.6127 67.5904 45.9646C67.5891 46.3089 67.6816 46.6472 67.8577 46.9431C68.0338 47.239 68.2871 47.4815 68.5904 47.6446C68.9 47.8025 69.2427 47.8847 69.5904 47.8846C69.8925 47.8922 70.1928 47.8342 70.4704 47.7146C70.7275 47.6084 70.9543 47.44 71.1304 47.2246L70.5804 46.7146C70.4657 46.8525 70.322 46.9635 70.1595 47.0395C69.997 47.1156 69.8198 47.1549 69.6404 47.1546C69.4166 47.159 69.1957 47.1038 69.0004 46.9946C68.8196 46.8977 68.673 46.7476 68.5804 46.5646C68.4784 46.3776 68.4267 46.1675 68.4304 45.9546C68.4264 45.7385 68.478 45.525 68.5804 45.3346C68.6812 45.1602 68.826 45.0154 69.0004 44.9146ZM72.5304 46.2746H74.2704V45.5946H72.5204V44.7846H74.5204V44.0946H71.6704V47.8246H74.5504V47.1346H72.5504L72.5304 46.2746ZM77.7404 44.2746C77.4689 44.1577 77.1758 44.0998 76.8804 44.1046H75.2504V47.8346H76.1104V46.8346H76.8704C77.1651 46.8422 77.4581 46.7877 77.7304 46.6746C77.96 46.5777 78.1552 46.414 78.2904 46.2046C78.421 45.9889 78.49 45.7417 78.49 45.4896C78.49 45.2375 78.421 44.9902 78.2904 44.7746C78.1615 44.5503 77.9657 44.372 77.7304 44.2646L77.7404 44.2746ZM77.4204 45.9346C77.249 46.0571 77.0407 46.1171 76.8304 46.1046H76.1204V44.7946H76.8304C77.0407 44.782 77.249 44.842 77.4204 44.9646C77.4878 45.0264 77.5407 45.1024 77.5753 45.1872C77.6099 45.2719 77.6252 45.3632 77.6204 45.4546C77.6231 45.5437 77.6057 45.6323 77.5693 45.7137C77.5329 45.7951 77.4786 45.8672 77.4104 45.9246L77.4204 45.9346ZM81.6504 45.9346C81.8079 45.8574 81.9424 45.7402 82.0404 45.5946C82.133 45.4517 82.1817 45.2848 82.1804 45.1146C82.1864 44.9739 82.1565 44.834 82.0935 44.708C82.0305 44.5821 81.9365 44.4742 81.8204 44.3946C81.5192 44.2139 81.1711 44.1269 80.8204 44.1446H79.0604V47.8746H80.8904C81.287 47.8929 81.6782 47.7766 82.0004 47.5446C82.1217 47.4576 82.2191 47.3414 82.2838 47.2069C82.3484 47.0723 82.3782 46.9236 82.3704 46.7746C82.3772 46.5727 82.3136 46.3747 82.1904 46.2146C82.0532 46.0415 81.8577 45.9242 81.6404 45.8846L81.6504 45.9346ZM79.9204 44.7846H80.7304C80.8799 44.7757 81.028 44.8181 81.1504 44.9046C81.1996 44.9439 81.2388 44.9943 81.2649 45.0516C81.291 45.109 81.3031 45.1716 81.3004 45.2346C81.3056 45.2993 81.2946 45.3642 81.2685 45.4236C81.2423 45.483 81.2017 45.5349 81.1504 45.5746C81.0296 45.6642 80.8803 45.7068 80.7304 45.6946H79.9204V44.7846ZM80.9204 47.2346H79.9204V46.2946H80.9204C81.3304 46.2946 81.5304 46.4446 81.5304 46.7546C81.5304 47.0646 81.2704 47.1846 80.8604 47.1846L80.9204 47.2346ZM83.9204 46.5746V44.0946H83.0004V47.8246H83.8104L85.5904 45.4046V47.8246H86.4404V44.0946H85.6304L83.9204 46.5746ZM88.6304 44.9646C88.8212 44.8635 89.0344 44.8119 89.2504 44.8146C89.43 44.8129 89.6077 44.8515 89.7704 44.9277C89.9331 45.0038 90.0766 45.1155 90.1904 45.2546L90.7404 44.7446C90.5702 44.5273 90.3461 44.3583 90.0904 44.2546C89.8128 44.1349 89.5125 44.0769 89.2104 44.0846C88.8616 44.0848 88.5182 44.1706 88.2104 44.3346C87.9118 44.4899 87.6625 44.7254 87.4904 45.0146C87.3095 45.3165 87.216 45.6627 87.2204 46.0146C87.2127 46.3669 87.3065 46.714 87.4904 47.0146C87.665 47.3043 87.9135 47.5424 88.2104 47.7046C88.5201 47.8625 88.8627 47.9447 89.2104 47.9446C89.5126 47.9532 89.8131 47.8951 90.0904 47.7746C90.3504 47.6736 90.5785 47.5043 90.7504 47.2846L90.2004 46.7746C90.0866 46.9136 89.9431 47.0253 89.7804 47.1015C89.6177 47.1776 89.44 47.2163 89.2604 47.2146C89.0444 47.2173 88.8312 47.1657 88.6404 47.0646C88.4596 46.9677 88.313 46.8176 88.2204 46.6346C88.0886 46.446 88.0124 46.2243 88.0004 45.9946C87.9964 45.7785 88.048 45.565 88.1504 45.3746C88.2508 45.1829 88.4033 45.0234 88.5904 44.9146L88.6304 44.9646ZM95.3404 44.1446L94.3404 46.1446L93.3404 44.1446H92.4204L93.8904 46.8846C93.8291 46.9841 93.7473 47.0693 93.6504 47.1346C93.5653 47.1834 93.4684 47.2076 93.3704 47.2046C93.2408 47.2014 93.1125 47.1778 92.9904 47.1346L92.7904 47.7946C92.9809 47.8737 93.1842 47.9178 93.3904 47.9246C93.6405 47.9235 93.8846 47.8468 94.0904 47.7046C94.3264 47.5359 94.5185 47.313 94.6504 47.0546L96.2304 44.1046L95.3404 44.1446ZM99.8604 44.1446H97.0004V45.3146C96.9959 45.7762 96.9389 46.2358 96.8304 46.6846C96.7404 47.0046 96.5804 47.1646 96.3604 47.1746H96.2104V48.5946H97.0104V47.8246H99.6404V48.5946H100.44V47.1246H99.9204L99.8604 44.1446ZM99.0104 47.1446H97.3004C97.4397 46.9454 97.5289 46.7156 97.5604 46.4746C97.6289 46.1084 97.6657 45.737 97.6704 45.3646V44.8146H99.0004L99.0104 47.1446ZM102.24 44.1446L100.57 47.8746H101.46L101.79 47.0746H103.52L103.85 47.8746H104.76L103.09 44.1446H102.24ZM102 46.3746L102.59 44.9446L103.18 46.3746H102ZM105.62 45.6046C105.619 45.9927 105.568 46.379 105.47 46.7546C105.448 46.8552 105.392 46.9454 105.313 47.0107C105.233 47.076 105.133 47.1125 105.03 47.1146C104.981 47.1251 104.93 47.1251 104.88 47.1146V47.8446C105.017 47.8814 105.158 47.9016 105.3 47.9046C105.424 47.9115 105.548 47.8918 105.663 47.847C105.779 47.8021 105.884 47.7331 105.97 47.6446C106.144 47.4241 106.258 47.1622 106.3 46.8846C106.379 46.4588 106.422 46.0274 106.43 45.5946V44.8146H107.71V47.8146H108.56V44.0946H105.7L105.62 45.6046ZM110.33 46.2746H112.06V45.5946H110.33V44.7846H112.33V44.0946H109.5V47.8246H112.39V47.1346H110.39L110.33 46.2746ZM115.62 45.5646H114V44.0946H113.14V47.8246H114V46.2946H115.7V47.8246H116.56V44.0946H115.7L115.62 45.5646ZM119.97 45.5646H118.27V44.0946H117.41V47.8246H118.27V46.2946H120V47.8246H120.86V44.0946H120L119.97 45.5646ZM124.59 44.2846C124.267 44.1203 123.908 44.0347 123.545 44.0347C123.182 44.0347 122.824 44.1203 122.5 44.2846C122.196 44.4406 121.943 44.68 121.77 44.9746C121.588 45.2761 121.491 45.622 121.491 45.9746C121.491 46.3272 121.588 46.673 121.77 46.9746C121.941 47.2713 122.194 47.5113 122.5 47.6646C122.824 47.8288 123.182 47.9145 123.545 47.9145C123.908 47.9145 124.267 47.8288 124.59 47.6646C124.894 47.5085 125.147 47.2692 125.32 46.9746C125.503 46.673 125.6 46.3272 125.6 45.9746C125.6 45.622 125.503 45.2761 125.32 44.9746C125.153 44.686 124.911 44.4476 124.62 44.2846H124.59ZM124.59 46.5746C124.498 46.7576 124.351 46.9077 124.17 47.0046C123.987 47.1057 123.78 47.1574 123.57 47.1546C123.37 47.1505 123.174 47.0955 123 46.9946C122.82 46.8977 122.673 46.7476 122.58 46.5646C122.478 46.3776 122.427 46.1675 122.43 45.9546C122.426 45.7385 122.478 45.525 122.58 45.3346C122.68 45.1565 122.825 45.0081 123 44.9046C123.181 44.8038 123.384 44.7521 123.59 44.7546C123.8 44.7517 124.007 44.8034 124.19 44.9046C124.366 45.0081 124.511 45.1565 124.61 45.3346C124.713 45.525 124.764 45.7385 124.76 45.9546C124.76 46.1727 124.701 46.3866 124.59 46.5746ZM128.91 44.7946V44.0946H126.28V47.8246H127.14V44.8246L128.91 44.7946ZM131.91 44.2846C131.602 44.121 131.259 44.0352 130.91 44.0346C130.545 44.0281 130.184 44.1141 129.86 44.2846C129.558 44.4433 129.306 44.682 129.13 44.9746C128.955 45.2786 128.862 45.6235 128.862 45.9746C128.862 46.3256 128.955 46.6705 129.13 46.9746C129.303 47.2692 129.556 47.5085 129.86 47.6646C130.184 47.835 130.545 47.921 130.91 47.9146C131.259 47.914 131.602 47.8281 131.91 47.6646C132.214 47.5085 132.467 47.2692 132.64 46.9746C132.816 46.6705 132.908 46.3256 132.908 45.9746C132.908 45.6235 132.816 45.2786 132.64 44.9746C132.459 44.6792 132.2 44.4403 131.89 44.2846H131.91ZM131.91 46.5746C131.818 46.7576 131.671 46.9077 131.49 47.0046C131.307 47.1057 131.1 47.1574 130.89 47.1546C130.684 47.1585 130.48 47.1067 130.3 47.0046C130.12 46.9077 129.973 46.7576 129.88 46.5746C129.775 46.3886 129.72 46.1784 129.72 45.9646C129.72 45.7476 129.775 45.5342 129.88 45.3446C129.979 45.1661 130.124 45.0178 130.3 44.9156C130.476 44.8134 130.677 44.7612 130.88 44.7646C131.09 44.7618 131.297 44.8134 131.48 44.9146C131.656 45.0181 131.801 45.1665 131.9 45.3446C131.991 45.5486 132.025 45.7729 132 45.9946C132.002 46.1965 131.954 46.3957 131.86 46.5746H131.91ZM137.91 44.2846C137.587 44.1203 137.228 44.0347 136.865 44.0347C136.502 44.0347 136.144 44.1203 135.82 44.2846C135.518 44.4433 135.266 44.682 135.09 44.9746C134.915 45.2786 134.822 45.6235 134.822 45.9746C134.822 46.3256 134.915 46.6705 135.09 46.9746C135.263 47.2692 135.516 47.5085 135.82 47.6646C136.144 47.8288 136.502 47.9145 136.865 47.9145C137.228 47.9145 137.587 47.8288 137.91 47.6646C138.214 47.5085 138.467 47.2692 138.64 46.9746C138.823 46.673 138.92 46.3272 138.92 45.9746C138.92 45.622 138.823 45.2761 138.64 44.9746C138.457 44.6778 138.193 44.4387 137.88 44.2846H137.91ZM137.91 46.5746C137.818 46.7576 137.671 46.9077 137.49 47.0046C137.311 47.1067 137.107 47.1585 136.9 47.1546C136.691 47.1574 136.484 47.1057 136.3 47.0046C136.12 46.9077 135.973 46.7576 135.88 46.5746C135.778 46.3877 135.727 46.1775 135.73 45.9646C135.726 45.7485 135.778 45.5349 135.88 45.3446C135.98 45.1665 136.125 45.0181 136.3 44.9146C136.484 44.8134 136.691 44.7618 136.9 44.7646C137.104 44.7612 137.305 44.8134 137.481 44.9156C137.657 45.0178 137.802 45.1661 137.9 45.3446C137.991 45.5486 138.025 45.7729 138 45.9946C137.999 46.1973 137.947 46.3966 137.85 46.5746H137.91ZM142 44.3146V43.9346H141.21V44.3246C140.686 44.3188 140.173 44.4837 139.75 44.7946C139.592 44.9424 139.466 45.1212 139.379 45.3199C139.293 45.5186 139.248 45.7329 139.248 45.9496C139.248 46.1662 139.293 46.3805 139.379 46.5792C139.466 46.7779 139.592 46.9567 139.75 47.1046C140.174 47.4151 140.685 47.5832 141.21 47.5846V47.9946H142V47.5846C142.522 47.5889 143.031 47.424 143.45 47.1146C143.608 46.9651 143.733 46.7852 143.819 46.5858C143.904 46.3863 143.948 46.1716 143.948 45.9546C143.948 45.7376 143.904 45.5228 143.819 45.3234C143.733 45.124 143.608 44.944 143.45 44.7946C143.032 44.4816 142.523 44.3131 142 44.3146ZM141.21 46.9146C140.46 46.8346 140.09 46.5146 140.09 45.9146C140.081 45.7897 140.101 45.6644 140.148 45.5482C140.194 45.4321 140.267 45.3282 140.36 45.2446C140.608 45.0645 140.904 44.9634 141.21 44.9546V46.9146ZM142.84 46.6146C142.598 46.7986 142.305 46.9033 142 46.9146V44.9946C142.75 45.0646 143.12 45.3746 143.12 45.9946C143.123 46.1113 143.1 46.2271 143.053 46.3341C143.007 46.4411 142.937 46.5368 142.85 46.6146H142.84ZM147.42 44.2846C147.097 44.1203 146.738 44.0347 146.375 44.0347C146.012 44.0347 145.654 44.1203 145.33 44.2846C145.026 44.4406 144.773 44.68 144.6 44.9746C144.418 45.2761 144.321 45.622 144.321 45.9746C144.321 46.3272 144.418 46.673 144.6 46.9746C144.771 47.2713 145.024 47.5113 145.33 47.6646C145.654 47.8288 146.012 47.9145 146.375 47.9145C146.738 47.9145 147.097 47.8288 147.42 47.6646C147.724 47.5085 147.977 47.2692 148.15 46.9746C148.333 46.673 148.43 46.3272 148.43 45.9746C148.43 45.622 148.333 45.2761 148.15 44.9746C147.978 44.6833 147.729 44.4447 147.43 44.2846H147.42ZM147.42 46.5746C147.326 46.7539 147.18 46.9003 147 46.9946C146.817 47.0957 146.61 47.1474 146.4 47.1446C146.194 47.147 145.991 47.0953 145.81 46.9946C145.63 46.8977 145.483 46.7476 145.39 46.5646C145.288 46.3776 145.237 46.1675 145.24 45.9546C145.236 45.7385 145.288 45.525 145.39 45.3346C145.49 45.1565 145.635 45.0081 145.81 44.9046C145.991 44.8038 146.194 44.7521 146.4 44.7546C146.61 44.7517 146.817 44.8034 147 44.9046C147.176 45.0081 147.321 45.1565 147.42 45.3346C147.523 45.525 147.574 45.7385 147.57 45.9546C147.57 46.1727 147.511 46.3866 147.4 46.5746H147.42ZM151.59 44.2646C151.319 44.1477 151.026 44.0898 150.73 44.0946H149.11V47.8246H150V46.8246H150.76C151.055 46.8322 151.348 46.7777 151.62 46.6646C151.85 46.5677 152.045 46.404 152.18 46.1946C152.311 45.979 152.38 45.7317 152.38 45.4796C152.38 45.2275 152.311 44.9802 152.18 44.7646C152.037 44.536 151.823 44.3604 151.57 44.2646H151.59ZM151.27 45.9246C151.099 46.0471 150.891 46.1071 150.68 46.0946H150V44.7946H150.71C150.921 44.782 151.129 44.842 151.3 44.9646C151.368 45.0264 151.421 45.1024 151.455 45.1872C151.49 45.2719 151.505 45.3632 151.5 45.4546C151.498 45.547 151.475 45.6377 151.431 45.7194C151.388 45.801 151.326 45.8713 151.25 45.9246H151.27ZM156.4 44.0946L155 46.4146L153.6 44.0946H152.89V47.8246H153.7V45.6346L154.79 47.4346H155.18L156.27 45.5946V47.8246H157.08V44.0946H156.4ZM158.4 45.6046C158.391 45.9928 158.338 46.3787 158.24 46.7546C158.222 46.8552 158.169 46.9462 158.09 47.012C158.012 47.0777 157.913 47.114 157.81 47.1146C157.758 47.1251 157.703 47.1251 157.65 47.1146V47.8446C157.791 47.8808 157.935 47.901 158.08 47.9046C158.202 47.91 158.324 47.8897 158.438 47.8449C158.552 47.8001 158.655 47.7318 158.74 47.6446C158.918 47.4249 159.035 47.1631 159.08 46.8846C159.159 46.4588 159.202 46.0274 159.21 45.5946V44.8146H160.49V47.8146H161.35V44.0946H158.48L158.4 45.6046ZM163.11 46.2746H164.84V45.5946H163.11V44.7846H165.11V44.0946H162.29V47.8246H165.18V47.1346H163.18L163.11 46.2746ZM168.39 45.5646H166.7V44.0946H165.83V47.8246H166.7V46.2946H168.39V47.8246H169.25V44.0946H168.39V45.5646ZM171.04 46.5646V44.0946H170.19V47.8246H171L172.78 45.4046V47.8246H173.63V44.0946H172.82L171.04 46.5646ZM175.04 44.3046C174.81 44.4051 174.615 44.5723 174.48 44.7846C174.344 45.007 174.275 45.2638 174.28 45.5246C174.275 45.7884 174.344 46.0484 174.48 46.2746C174.623 46.485 174.825 46.6485 175.06 46.7446L174.29 47.8646H175.2L175.86 46.8646H176.65V47.8646H177.5V44.0946H175.89C175.615 44.0955 175.342 44.1534 175.09 44.2646L175.04 44.3046ZM176.65 44.8346V46.1946H175.89C175.691 46.2073 175.494 46.1429 175.34 46.0146C175.223 45.8743 175.159 45.6973 175.159 45.5146C175.159 45.3318 175.223 45.1548 175.34 45.0146C175.501 44.8934 175.699 44.8332 175.9 44.8446L176.65 44.8346ZM182.06 45.9246C182.219 45.8544 182.357 45.7442 182.46 45.6046C182.553 45.4617 182.602 45.2948 182.6 45.1246C182.602 44.9135 182.524 44.7097 182.38 44.5546C182.221 44.3799 182.017 44.252 181.79 44.1846C181.541 44.0744 181.273 44.0101 181 43.9946C180.555 43.9902 180.115 44.0968 179.72 44.3046L180 44.9946C180.156 44.9033 180.325 44.8359 180.5 44.7946C180.663 44.7475 180.831 44.7239 181 44.7246C181.188 44.717 181.374 44.7584 181.54 44.8446C181.605 44.8757 181.659 44.9238 181.698 44.9838C181.737 45.0437 181.758 45.1132 181.76 45.1846C181.763 45.2433 181.751 45.3018 181.725 45.3544C181.699 45.4069 181.659 45.4518 181.61 45.4846C181.487 45.5599 181.344 45.5949 181.2 45.5846H180.35V46.2346H181.27C181.434 46.2292 181.596 46.2672 181.74 46.3446C181.793 46.3773 181.836 46.423 181.866 46.4773C181.896 46.5316 181.911 46.5926 181.91 46.6546C181.912 46.7369 181.888 46.8178 181.844 46.8872C181.8 46.9565 181.736 47.0112 181.66 47.0446C181.463 47.1478 181.242 47.1961 181.02 47.1846C180.824 47.1865 180.629 47.1595 180.44 47.1046C180.25 47.0601 180.068 46.9858 179.9 46.8846L179.63 47.5046C179.858 47.636 180.104 47.7337 180.36 47.7946C180.609 47.854 180.864 47.8842 181.12 47.8846C181.402 47.8894 181.683 47.8454 181.95 47.7546C182.183 47.6836 182.394 47.5525 182.56 47.3746C182.69 47.213 182.761 47.0119 182.761 46.8046C182.761 46.5973 182.69 46.3962 182.56 46.2346C182.447 46.0767 182.291 45.9551 182.11 45.8846L182.06 45.9246ZM184.68 44.1346L183.01 47.8646H184L184.33 47.0646H186L186.33 47.8646H187.24L185.57 44.1346H184.68ZM184.51 46.4146L185.1 44.9846L185.69 46.4146H184.51ZM192.66 44.1346L191.03 47.7846L189.83 45.9346L191.05 44.1346H190.14L189.14 45.6446H188.52V44.0946H187.66V47.8246H188.52V46.3246H189.12L190.12 47.8246H191.89L192.22 47.0246H194L194.33 47.8246H195.24L193.57 44.0946L192.66 44.1346ZM192.49 46.4146L193.08 44.9846L193.67 46.4146H192.49ZM197.8 45.9246C197.956 45.853 198.09 45.7428 198.19 45.6046C198.287 45.4636 198.336 45.2954 198.33 45.1246C198.332 44.9135 198.254 44.7097 198.11 44.5546C197.953 44.3821 197.753 44.2545 197.53 44.1846C197.27 44.0937 196.996 44.0497 196.72 44.0546C196.278 44.0502 195.841 44.1568 195.45 44.3646L195.71 45.0346C195.863 44.9433 196.028 44.8759 196.2 44.8346C196.366 44.7881 196.538 44.7645 196.71 44.7646C196.898 44.757 197.084 44.7984 197.25 44.8846C197.313 44.9161 197.367 44.9647 197.404 45.0247C197.441 45.0848 197.46 45.154 197.46 45.2246C197.463 45.2833 197.451 45.3418 197.425 45.3944C197.399 45.4469 197.359 45.4918 197.31 45.5246C197.191 45.5998 197.051 45.6348 196.91 45.6246H196.06V46.2746H197C197.164 46.2667 197.327 46.3048 197.47 46.3846C197.524 46.4157 197.569 46.4611 197.599 46.5157C197.629 46.5704 197.643 46.6323 197.64 46.6946C197.642 46.7769 197.618 46.8578 197.574 46.9272C197.53 46.9965 197.466 47.0512 197.39 47.0846C197.193 47.1878 196.972 47.2361 196.75 47.2246C196.557 47.2269 196.365 47.1999 196.18 47.1446C195.99 47.1001 195.808 47.0258 195.64 46.9246L195.37 47.5446C195.596 47.6743 195.838 47.7719 196.09 47.8346C196.343 47.8941 196.601 47.9243 196.86 47.9246C197.142 47.9294 197.423 47.8854 197.69 47.7946C197.92 47.7212 198.126 47.5904 198.29 47.4146C198.438 47.2533 198.52 47.043 198.52 46.8246C198.526 46.6242 198.459 46.4285 198.33 46.2746C198.216 46.0971 198.048 45.9606 197.85 45.8846L197.8 45.9246ZM201.26 44.1346H200.41L198.75 47.8646H199.63L200 46.9946H201.74L202.07 47.7946H202.97L201.26 44.1346ZM200.26 46.4146L200.85 44.9846L201.44 46.4146H200.26Z" fill="white"/>
<path d="M24.9004 19.6943C23.9895 19.6903 23.0798 19.7605 22.1804 19.9043C21.3189 20.0484 20.5131 20.4253 19.8504 20.9943C19.0322 21.7501 18.3992 22.6843 18.0004 23.7243C17.372 25.3491 16.9651 27.051 16.7904 28.7843C16.4886 30.4735 16.4146 32.1955 16.5704 33.9043C16.6484 34.9033 17.0208 35.8568 17.6404 36.6443C18.1613 37.2257 18.8685 37.6076 19.6404 37.7243C20.5207 37.8576 21.4101 37.9212 22.3004 37.9143H23.0004C23.2404 37.9143 23.5204 37.9143 23.8304 37.9143L26.3804 19.7743C26.1239 19.7594 25.8668 19.7594 25.6104 19.7743L24.9004 19.6943ZM38.1604 20.9943C37.6359 20.4138 36.9315 20.0264 36.1604 19.8943C35.2813 19.7488 34.3914 19.6786 33.5004 19.6843H32.7004C32.4673 19.6688 32.2335 19.6688 32.0004 19.6843L29.4504 37.8743C29.6835 37.8898 29.9173 37.8898 30.1504 37.8743H30.8904C31.8005 37.8796 32.7098 37.8161 33.6104 37.6843C34.4886 37.5678 35.3166 37.2075 36.0004 36.6443C36.8154 35.8839 37.4449 34.9464 37.8404 33.9043C38.476 32.258 38.8994 30.5375 39.1004 28.7843C39.3701 27.1115 39.4272 25.4114 39.2704 23.7243C39.1748 22.7255 38.7889 21.7764 38.1604 20.9943ZM53.1604 16.5243C46.4796 10.8648 39.3792 5.72005 31.9204 1.13429C30.718 0.392717 29.3331 0 27.9204 0C26.5077 0 25.1228 0.392717 23.9204 1.13429C16.4647 5.72368 9.36766 10.8718 2.69039 16.5343C1.61011 17.4508 0.806715 18.6503 0.370403 19.9981C-0.06591 21.3459 -0.117859 22.7886 0.220388 24.1643C2.28036 32.6688 4.98827 41.0031 8.32039 49.0943C8.85623 50.4048 9.74613 51.5403 10.8905 52.3739C12.0349 53.2075 13.3887 53.7062 14.8004 53.8143C23.5279 54.4743 32.2928 54.4743 41.0204 53.8143C42.4328 53.7047 43.7872 53.2055 44.9329 52.3722C46.0787 51.5389 46.9709 50.4042 47.5104 49.0943C50.8381 41.0015 53.5459 32.6675 55.6104 24.1643C55.944 22.7876 55.8887 21.3453 55.4509 19.9981C55.013 18.6509 54.2097 17.4518 53.1304 16.5343L53.1604 16.5243ZM44.7404 28.7843C44.4575 31.2655 43.821 33.6934 42.8504 35.9943C42.1638 37.5918 41.1082 39.0037 39.7704 40.1143C38.5487 41.0682 37.1147 41.7132 35.5904 41.9943C33.8716 42.3068 32.1273 42.4575 30.3804 42.4443C30.1304 42.4443 29.8604 42.4443 29.5704 42.4443C29.3173 42.46 29.0635 42.46 28.8104 42.4443L28.4304 44.8643H22.8204L23.2004 42.4443H21.6304C19.9264 42.462 18.2248 42.3113 16.5504 41.9943C15.1743 41.7493 13.9031 41.098 12.9004 40.1243C11.8648 38.9709 11.2024 37.5312 11.0004 35.9943C10.6643 33.6027 10.7048 31.1733 11.1204 28.7943C11.4069 26.3159 12.0467 23.8913 13.0204 21.5943C13.7021 19.9967 14.7545 18.5844 16.0904 17.4743C17.3168 16.5238 18.7539 15.8824 20.2804 15.6043C21.9958 15.2917 23.7368 15.1411 25.4804 15.1543H26.2704C26.5335 15.1391 26.7973 15.1391 27.0604 15.1543L27.4004 12.6843H33.0004L32.6604 15.1543C32.9168 15.1394 33.1739 15.1394 33.4304 15.1543H34.2304C35.9344 15.1365 37.636 15.2873 39.3104 15.6043C40.6883 15.8439 41.961 16.496 42.9604 17.4743C44.0087 18.6199 44.6851 20.0564 44.9004 21.5943C45.2214 23.9847 45.1675 26.4105 44.7404 28.7843Z" fill="white"/>
</svg>
