<svg width="242" height="55" viewBox="0 0 242 55" fill="none" xmlns="http://www.w3.org/2000/svg">
<path d="M93.5403 19.9243C91.607 18.2776 88.807 17.3276 85.1403 17.0743V14.8443H79.5203V17.0743C75.8403 17.3476 73.0303 18.321 71.0903 19.9943C70.1317 20.8251 69.3737 21.8621 68.8732 23.0277C68.3727 24.1933 68.1426 25.4571 68.2003 26.7243C68.143 27.9904 68.3753 29.253 68.8795 30.4158C69.3838 31.5785 70.1468 32.6109 71.1104 33.4343C73.0504 34.9943 75.8503 35.9943 79.5203 36.2543V38.6443H85.1403V36.2543C88.8137 36.041 91.6137 35.101 93.5403 33.4343C94.503 32.6015 95.2648 31.5617 95.7688 30.3927C96.2727 29.2238 96.5057 27.956 96.4503 26.6843C96.511 25.4105 96.2804 24.1396 95.7761 22.9682C95.2719 21.7968 94.5073 20.7558 93.5403 19.9243ZM79.5404 31.4343C78.0918 31.3311 76.7034 30.8139 75.5404 29.9443C75.0881 29.5352 74.733 29.0301 74.5012 28.4661C74.2693 27.902 74.1665 27.2932 74.2003 26.6843C74.159 26.0705 74.2511 25.4549 74.4704 24.8801C74.6896 24.3053 75.0308 23.7847 75.4704 23.3543C76.6491 22.4619 78.0731 21.9524 79.5504 21.8943L79.5404 31.4343ZM89.1904 29.9943C88.0417 30.8901 86.6451 31.4103 85.1904 31.4843V21.8943C86.6389 21.9738 88.0312 22.482 89.1904 23.3543C89.6408 23.7703 89.993 24.2814 90.2213 24.8505C90.4496 25.4195 90.5484 26.0323 90.5104 26.6443C90.5462 27.265 90.4467 27.8861 90.2188 28.4645C89.9909 29.0429 89.64 29.5649 89.1904 29.9943ZM107.4 21.3243C108.368 20.7933 109.457 20.5244 110.56 20.5443C111.553 20.5439 112.532 20.774 113.421 21.2165C114.309 21.6591 115.083 22.3019 115.68 23.0943L119.6 19.5543C118.538 18.2248 117.164 17.1773 115.6 16.5043C113.9 15.7999 112.071 15.4593 110.23 15.5043C108.096 15.4693 105.986 15.9641 104.09 16.9443C102.325 17.8576 100.847 19.2422 99.8203 20.9443C98.7652 22.7071 98.2248 24.7302 98.2604 26.7843C98.2285 28.838 98.7686 30.8601 99.8203 32.6243C100.846 34.3271 102.324 35.7118 104.09 36.6243C105.984 37.6123 108.095 38.1108 110.23 38.0743C112.083 38.1026 113.921 37.7344 115.62 36.9943C117.179 36.3366 118.553 35.3065 119.62 33.9943L115.7 30.4443C114.753 31.6716 113.402 32.5237 111.886 32.8495C110.37 33.1753 108.788 32.9538 107.42 32.2243C106.509 31.7134 105.766 30.9492 105.28 30.0243C104.758 29.0257 104.496 27.9111 104.52 26.7843C104.496 25.6543 104.758 24.5365 105.28 23.5343C105.758 22.6024 106.494 21.8281 107.4 21.3043V21.3243ZM128.4 28.6543V15.8643H122.4V37.6143H128.21L137.16 24.8743V37.6143H143.21V15.8643H137.4L128.4 28.6543ZM162.4 15.8843V23.9943H154V15.8643H147.85V37.6143H154V29.1343H162.39V37.6143H168.54V15.8643L162.4 15.8843Z" fill="#1D1E1C"/>
<path d="M188.33 26.3043C189.218 25.8892 189.976 25.2391 190.52 24.4243C191.047 23.6159 191.322 22.6692 191.31 21.7043C191.338 20.4487 190.867 19.2335 190 18.3243C188.991 17.2994 187.739 16.546 186.36 16.1343C184.747 15.6054 183.058 15.3452 181.36 15.3643C178.719 15.3354 176.106 15.91 173.72 17.0443L175.52 21.7043C176.439 21.2304 177.409 20.8614 178.41 20.6043C179.354 20.3543 180.325 20.2233 181.3 20.2143C182.248 20.1746 183.19 20.3741 184.04 20.7943C184.354 20.9354 184.62 21.1645 184.807 21.4538C184.993 21.7431 185.092 22.0802 185.09 22.4243C185.099 22.6855 185.041 22.9446 184.922 23.1773C184.803 23.4099 184.627 23.6085 184.41 23.7543C183.837 24.1229 183.161 24.2981 182.48 24.2543H177.42V28.7643H183C183.754 28.7276 184.505 28.886 185.18 29.2243C185.434 29.3641 185.643 29.5722 185.785 29.8249C185.926 30.0777 185.994 30.365 185.98 30.6543C185.982 31.0629 185.858 31.4622 185.625 31.7983C185.393 32.1344 185.063 32.3913 184.68 32.5343C183.629 33.021 182.478 33.2507 181.32 33.2043C180.239 33.1987 179.162 33.0678 178.11 32.8143C177.032 32.5644 175.988 32.185 175 31.6843L173.13 35.9943C174.518 36.6961 175.985 37.2267 177.5 37.5743C178.972 37.9207 180.478 38.0985 181.99 38.1043C183.729 38.1252 185.459 37.8582 187.11 37.3143C188.519 36.8795 189.793 36.0911 190.81 35.0243C191.629 34.127 192.11 32.9732 192.172 31.7602C192.234 30.5472 191.873 29.3504 191.15 28.3743C190.43 27.4267 189.45 26.7078 188.33 26.3043ZM202.93 15.8643L193.33 37.6143H199.6L201.31 33.3943H210.51L212.22 37.6143H218.62L209 15.8643H202.93ZM203.12 28.8643L205.91 21.8643L208.71 28.8643H203.12ZM234.9 26.3743L241.71 15.8743H235.25L230.06 24.3243H227.06V15.8643H221V37.6143H227.12V29.2943H229.92L234.86 37.6143H241.79L234.9 26.3743Z" fill="#1D6BD0"/>
<path d="M69.0004 44.9143C69.1907 44.8119 69.4042 44.7603 69.6204 44.7643C69.7998 44.764 69.977 44.8033 70.1395 44.8794C70.302 44.9554 70.4457 45.0664 70.5604 45.2043L71.1104 44.6943C70.9343 44.4788 70.7075 44.3105 70.4504 44.2043C70.1767 44.0833 69.8794 44.0252 69.5804 44.0343C69.2315 44.0337 68.8879 44.1196 68.5804 44.2843C68.2799 44.4369 68.0299 44.673 67.8604 44.9643C67.6795 45.2662 67.586 45.6124 67.5904 45.9643C67.5891 46.3087 67.6816 46.6469 67.8577 46.9428C68.0338 47.2387 68.2871 47.4812 68.5904 47.6443C68.9 47.8022 69.2427 47.8844 69.5904 47.8843C69.8925 47.8919 70.1928 47.8339 70.4704 47.7143C70.7275 47.6081 70.9543 47.4398 71.1304 47.2243L70.5804 46.7143C70.4657 46.8522 70.322 46.9632 70.1595 47.0392C69.997 47.1153 69.8198 47.1546 69.6404 47.1543C69.4166 47.1587 69.1957 47.1035 69.0004 46.9943C68.8196 46.8974 68.673 46.7473 68.5804 46.5643C68.4784 46.3774 68.4267 46.1672 68.4304 45.9543C68.4264 45.7382 68.478 45.5247 68.5804 45.3343C68.6812 45.1599 68.826 45.0151 69.0004 44.9143ZM72.5304 46.2743H74.2704V45.5943H72.5204V44.7843H74.5204V44.0943H71.6704V47.8243H74.5504V47.1343H72.5504L72.5304 46.2743ZM77.7404 44.2743C77.4689 44.1575 77.1758 44.0995 76.8804 44.1043H75.2504V47.8343H76.1104V46.8343H76.8704C77.1651 46.8419 77.4581 46.7874 77.7304 46.6743C77.96 46.5775 78.1552 46.4137 78.2904 46.2043C78.421 45.9887 78.49 45.7414 78.49 45.4893C78.49 45.2372 78.421 44.9899 78.2904 44.7743C78.1615 44.5501 77.9657 44.3717 77.7304 44.2643L77.7404 44.2743ZM77.4204 45.9343C77.249 46.0569 77.0407 46.1169 76.8304 46.1043H76.1204V44.7943H76.8304C77.0407 44.7817 77.249 44.8417 77.4204 44.9643C77.4878 45.0262 77.5407 45.1022 77.5753 45.1869C77.6099 45.2716 77.6252 45.3629 77.6204 45.4543C77.6231 45.5434 77.6057 45.632 77.5693 45.7134C77.5329 45.7948 77.4786 45.8669 77.4104 45.9243L77.4204 45.9343ZM81.6504 45.9343C81.8079 45.8571 81.9424 45.7399 82.0404 45.5943C82.133 45.4514 82.1817 45.2845 82.1804 45.1143C82.1864 44.9736 82.1565 44.8337 82.0935 44.7077C82.0305 44.5818 81.9365 44.4739 81.8204 44.3943C81.5192 44.2136 81.1711 44.1266 80.8204 44.1443H79.0604V47.8743H80.8904C81.287 47.8927 81.6782 47.7764 82.0004 47.5443C82.1217 47.4573 82.2191 47.3411 82.2838 47.2066C82.3484 47.072 82.3782 46.9234 82.3704 46.7743C82.3772 46.5724 82.3136 46.3744 82.1904 46.2143C82.0532 46.0412 81.8577 45.9239 81.6404 45.8843L81.6504 45.9343ZM79.9204 44.7843H80.7304C80.8799 44.7755 81.028 44.8178 81.1504 44.9043C81.1996 44.9436 81.2388 44.994 81.2649 45.0513C81.291 45.1087 81.3031 45.1714 81.3004 45.2343C81.3056 45.299 81.2946 45.3639 81.2685 45.4233C81.2423 45.4827 81.2017 45.5346 81.1504 45.5743C81.0296 45.6639 80.8803 45.7066 80.7304 45.6943H79.9204V44.7843ZM80.9204 47.2343H79.9204V46.2943H80.9204C81.3304 46.2943 81.5304 46.4443 81.5304 46.7543C81.5304 47.0643 81.2704 47.1843 80.8604 47.1843L80.9204 47.2343ZM83.9204 46.5743V44.0943H83.0004V47.8243H83.8104L85.5904 45.4043V47.8243H86.4404V44.0943H85.6304L83.9204 46.5743ZM88.6304 44.9643C88.8212 44.8632 89.0344 44.8116 89.2504 44.8143C89.43 44.8126 89.6077 44.8513 89.7704 44.9274C89.9331 45.0036 90.0766 45.1153 90.1904 45.2543L90.7404 44.7443C90.5702 44.527 90.3461 44.3581 90.0904 44.2543C89.8128 44.1347 89.5125 44.0767 89.2104 44.0843C88.8616 44.0845 88.5182 44.1703 88.2104 44.3343C87.9118 44.4896 87.6625 44.7251 87.4904 45.0143C87.3095 45.3162 87.216 45.6624 87.2204 46.0143C87.2127 46.3666 87.3065 46.7137 87.4904 47.0143C87.665 47.304 87.9135 47.5421 88.2104 47.7043C88.5201 47.8622 88.8627 47.9444 89.2104 47.9443C89.5126 47.9529 89.8131 47.8949 90.0904 47.7743C90.3504 47.6733 90.5785 47.5041 90.7504 47.2843L90.2004 46.7743C90.0866 46.9133 89.9431 47.025 89.7804 47.1012C89.6177 47.1773 89.44 47.216 89.2604 47.2143C89.0444 47.217 88.8312 47.1654 88.6404 47.0643C88.4596 46.9674 88.313 46.8173 88.2204 46.6343C88.0886 46.4457 88.0124 46.224 88.0004 45.9943C87.9964 45.7782 88.048 45.5647 88.1504 45.3743C88.2508 45.1826 88.4033 45.0232 88.5904 44.9143L88.6304 44.9643ZM95.3404 44.1443L94.3404 46.1443L93.3404 44.1443H92.4204L93.8904 46.8843C93.8291 46.9838 93.7473 47.069 93.6504 47.1343C93.5653 47.1831 93.4684 47.2073 93.3704 47.2043C93.2408 47.2011 93.1125 47.1775 92.9904 47.1343L92.7904 47.7943C92.9809 47.8735 93.1842 47.9175 93.3904 47.9243C93.6405 47.9233 93.8846 47.8466 94.0904 47.7043C94.3264 47.5356 94.5185 47.3127 94.6504 47.0543L96.2304 44.1043L95.3404 44.1443ZM99.8604 44.1443H97.0004V45.3143C96.9959 45.7759 96.9389 46.2356 96.8304 46.6843C96.7404 47.0043 96.5804 47.1643 96.3604 47.1743H96.2104V48.5943H97.0104V47.8243H99.6404V48.5943H100.44V47.1243H99.9204L99.8604 44.1443ZM99.0104 47.1443H97.3004C97.4397 46.9451 97.5289 46.7153 97.5604 46.4743C97.6289 46.1081 97.6657 45.7368 97.6704 45.3643V44.8143H99.0004L99.0104 47.1443ZM102.24 44.1443L100.57 47.8743H101.46L101.79 47.0743H103.52L103.85 47.8743H104.76L103.09 44.1443H102.24ZM102 46.3743L102.59 44.9443L103.18 46.3743H102ZM105.62 45.6043C105.619 45.9924 105.568 46.3788 105.47 46.7543C105.448 46.8549 105.392 46.9451 105.313 47.0104C105.233 47.0757 105.133 47.1123 105.03 47.1143C104.981 47.1248 104.93 47.1248 104.88 47.1143V47.8443C105.017 47.8812 105.158 47.9013 105.3 47.9043C105.424 47.9112 105.548 47.8916 105.663 47.8467C105.779 47.8019 105.884 47.7329 105.97 47.6443C106.144 47.4239 106.258 47.162 106.3 46.8843C106.379 46.4586 106.422 46.0271 106.43 45.5943V44.8143H107.71V47.8143H108.56V44.0943H105.7L105.62 45.6043ZM110.33 46.2743H112.06V45.5943H110.33V44.7843H112.33V44.0943H109.5V47.8243H112.39V47.1343H110.39L110.33 46.2743ZM115.62 45.5643H114V44.0943H113.14V47.8243H114V46.2943H115.7V47.8243H116.56V44.0943H115.7L115.62 45.5643ZM119.97 45.5643H118.27V44.0943H117.41V47.8243H118.27V46.2943H120V47.8243H120.86V44.0943H120L119.97 45.5643ZM124.59 44.2843C124.267 44.12 123.908 44.0344 123.545 44.0344C123.182 44.0344 122.824 44.12 122.5 44.2843C122.196 44.4404 121.943 44.6797 121.77 44.9743C121.588 45.2759 121.491 45.6217 121.491 45.9743C121.491 46.3269 121.588 46.6727 121.77 46.9743C121.941 47.2711 122.194 47.5111 122.5 47.6643C122.824 47.8286 123.182 47.9142 123.545 47.9142C123.908 47.9142 124.267 47.8286 124.59 47.6643C124.894 47.5082 125.147 47.2689 125.32 46.9743C125.503 46.6727 125.6 46.3269 125.6 45.9743C125.6 45.6217 125.503 45.2759 125.32 44.9743C125.153 44.6857 124.911 44.4474 124.62 44.2843H124.59ZM124.59 46.5743C124.498 46.7573 124.351 46.9074 124.17 47.0043C123.987 47.1054 123.78 47.1571 123.57 47.1543C123.37 47.1503 123.174 47.0952 123 46.9943C122.82 46.8974 122.673 46.7473 122.58 46.5643C122.478 46.3774 122.427 46.1672 122.43 45.9543C122.426 45.7382 122.478 45.5247 122.58 45.3343C122.68 45.1563 122.825 45.0079 123 44.9043C123.181 44.8036 123.384 44.7518 123.59 44.7543C123.8 44.7515 124.007 44.8032 124.19 44.9043C124.366 45.0079 124.511 45.1563 124.61 45.3343C124.713 45.5247 124.764 45.7382 124.76 45.9543C124.76 46.1724 124.701 46.3864 124.59 46.5743ZM128.91 44.7943V44.0943H126.28V47.8243H127.14V44.8243L128.91 44.7943ZM131.91 44.2843C131.602 44.1207 131.259 44.0349 130.91 44.0343C130.545 44.0279 130.184 44.1139 129.86 44.2843C129.558 44.443 129.306 44.6817 129.13 44.9743C128.955 45.2783 128.862 45.6232 128.862 45.9743C128.862 46.3254 128.955 46.6703 129.13 46.9743C129.303 47.2689 129.556 47.5082 129.86 47.6643C130.184 47.8347 130.545 47.9207 130.91 47.9143C131.259 47.9137 131.602 47.8279 131.91 47.6643C132.214 47.5082 132.467 47.2689 132.64 46.9743C132.816 46.6703 132.908 46.3254 132.908 45.9743C132.908 45.6232 132.816 45.2783 132.64 44.9743C132.459 44.679 132.2 44.44 131.89 44.2843H131.91ZM131.91 46.5743C131.818 46.7573 131.671 46.9074 131.49 47.0043C131.307 47.1054 131.1 47.1571 130.89 47.1543C130.684 47.1582 130.48 47.1064 130.3 47.0043C130.12 46.9074 129.973 46.7573 129.88 46.5743C129.775 46.3883 129.72 46.1781 129.72 45.9643C129.72 45.7474 129.775 45.5339 129.88 45.3443C129.979 45.1658 130.124 45.0175 130.3 44.9153C130.476 44.8131 130.677 44.7609 130.88 44.7643C131.09 44.7615 131.297 44.8132 131.48 44.9143C131.656 45.0179 131.801 45.1663 131.9 45.3443C131.991 45.5483 132.025 45.7726 132 45.9943C132.002 46.1962 131.954 46.3954 131.86 46.5743H131.91ZM137.91 44.2843C137.587 44.12 137.228 44.0344 136.865 44.0344C136.502 44.0344 136.144 44.12 135.82 44.2843C135.518 44.443 135.266 44.6817 135.09 44.9743C134.915 45.2783 134.822 45.6232 134.822 45.9743C134.822 46.3254 134.915 46.6703 135.09 46.9743C135.263 47.2689 135.516 47.5082 135.82 47.6643C136.144 47.8286 136.502 47.9142 136.865 47.9142C137.228 47.9142 137.587 47.8286 137.91 47.6643C138.214 47.5082 138.467 47.2689 138.64 46.9743C138.823 46.6727 138.92 46.3269 138.92 45.9743C138.92 45.6217 138.823 45.2759 138.64 44.9743C138.457 44.6776 138.193 44.4385 137.88 44.2843H137.91ZM137.91 46.5743C137.818 46.7573 137.671 46.9074 137.49 47.0043C137.311 47.1064 137.107 47.1582 136.9 47.1543C136.691 47.1571 136.484 47.1054 136.3 47.0043C136.12 46.9074 135.973 46.7573 135.88 46.5743C135.778 46.3874 135.727 46.1772 135.73 45.9643C135.726 45.7482 135.778 45.5347 135.88 45.3443C135.98 45.1663 136.125 45.0179 136.3 44.9143C136.484 44.8132 136.691 44.7615 136.9 44.7643C137.104 44.7609 137.305 44.8131 137.481 44.9153C137.657 45.0175 137.802 45.1658 137.9 45.3443C137.991 45.5483 138.025 45.7726 138 45.9943C137.999 46.197 137.947 46.3963 137.85 46.5743H137.91ZM142 44.3143V43.9343H141.21V44.3243C140.686 44.3185 140.173 44.4835 139.75 44.7943C139.592 44.9421 139.466 45.1209 139.379 45.3196C139.293 45.5183 139.248 45.7327 139.248 45.9493C139.248 46.1659 139.293 46.3803 139.379 46.579C139.466 46.7777 139.592 46.9565 139.75 47.1043C140.174 47.4149 140.685 47.5829 141.21 47.5843V47.9943H142V47.5843C142.522 47.5886 143.031 47.4237 143.45 47.1143C143.608 46.9648 143.733 46.7849 143.819 46.5855C143.904 46.3861 143.948 46.1713 143.948 45.9543C143.948 45.7373 143.904 45.5225 143.819 45.3231C143.733 45.1237 143.608 44.9438 143.45 44.7943C143.032 44.4813 142.523 44.3129 142 44.3143ZM141.21 46.9143C140.46 46.8343 140.09 46.5143 140.09 45.9143C140.081 45.7894 140.101 45.6641 140.148 45.548C140.194 45.4318 140.267 45.3279 140.36 45.2443C140.608 45.0642 140.904 44.9631 141.21 44.9543V46.9143ZM142.84 46.6143C142.598 46.7983 142.305 46.9031 142 46.9143V44.9943C142.75 45.0643 143.12 45.3743 143.12 45.9943C143.123 46.111 143.1 46.2268 143.053 46.3338C143.007 46.4408 142.937 46.5365 142.85 46.6143H142.84ZM147.42 44.2843C147.097 44.12 146.738 44.0344 146.375 44.0344C146.012 44.0344 145.654 44.12 145.33 44.2843C145.026 44.4404 144.773 44.6797 144.6 44.9743C144.418 45.2759 144.321 45.6217 144.321 45.9743C144.321 46.3269 144.418 46.6727 144.6 46.9743C144.771 47.2711 145.024 47.5111 145.33 47.6643C145.654 47.8286 146.012 47.9142 146.375 47.9142C146.738 47.9142 147.097 47.8286 147.42 47.6643C147.724 47.5082 147.977 47.2689 148.15 46.9743C148.333 46.6727 148.43 46.3269 148.43 45.9743C148.43 45.6217 148.333 45.2759 148.15 44.9743C147.978 44.683 147.729 44.4445 147.43 44.2843H147.42ZM147.42 46.5743C147.326 46.7536 147.18 46.9001 147 46.9943C146.817 47.0954 146.61 47.1471 146.4 47.1443C146.194 47.1468 145.991 47.095 145.81 46.9943C145.63 46.8974 145.483 46.7473 145.39 46.5643C145.288 46.3774 145.237 46.1672 145.24 45.9543C145.236 45.7382 145.288 45.5247 145.39 45.3343C145.49 45.1563 145.635 45.0079 145.81 44.9043C145.991 44.8036 146.194 44.7518 146.4 44.7543C146.61 44.7515 146.817 44.8032 147 44.9043C147.176 45.0079 147.321 45.1563 147.42 45.3343C147.523 45.5247 147.574 45.7382 147.57 45.9543C147.57 46.1724 147.511 46.3864 147.4 46.5743H147.42ZM151.59 44.2643C151.319 44.1475 151.026 44.0895 150.73 44.0943H149.11V47.8243H150V46.8243H150.76C151.055 46.8319 151.348 46.7774 151.62 46.6643C151.85 46.5675 152.045 46.4037 152.18 46.1943C152.311 45.9787 152.38 45.7314 152.38 45.4793C152.38 45.2272 152.311 44.9799 152.18 44.7643C152.037 44.5357 151.823 44.3601 151.57 44.2643H151.59ZM151.27 45.9243C151.099 46.0469 150.891 46.1069 150.68 46.0943H150V44.7943H150.71C150.921 44.7817 151.129 44.8417 151.3 44.9643C151.368 45.0262 151.421 45.1022 151.455 45.1869C151.49 45.2716 151.505 45.3629 151.5 45.4543C151.498 45.5467 151.475 45.6375 151.431 45.7191C151.388 45.8007 151.326 45.871 151.25 45.9243H151.27ZM156.4 44.0943L155 46.4143L153.6 44.0943H152.89V47.8243H153.7V45.6343L154.79 47.4343H155.18L156.27 45.5943V47.8243H157.08V44.0943H156.4ZM158.4 45.6043C158.391 45.9925 158.338 46.3784 158.24 46.7543C158.222 46.855 158.169 46.946 158.09 47.0117C158.012 47.0774 157.913 47.1137 157.81 47.1143C157.758 47.1248 157.703 47.1248 157.65 47.1143V47.8443C157.791 47.8806 157.935 47.9007 158.08 47.9043C158.202 47.9098 158.324 47.8894 158.438 47.8446C158.552 47.7998 158.655 47.7316 158.74 47.6443C158.918 47.4247 159.035 47.1628 159.08 46.8843C159.159 46.4586 159.202 46.0271 159.21 45.5943V44.8143H160.49V47.8143H161.35V44.0943H158.48L158.4 45.6043ZM163.11 46.2743H164.84V45.5943H163.11V44.7843H165.11V44.0943H162.29V47.8243H165.18V47.1343H163.18L163.11 46.2743ZM168.39 45.5643H166.7V44.0943H165.83V47.8243H166.7V46.2943H168.39V47.8243H169.25V44.0943H168.39V45.5643ZM171.04 46.5643V44.0943H170.19V47.8243H171L172.78 45.4043V47.8243H173.63V44.0943H172.82L171.04 46.5643ZM175.04 44.3043C174.81 44.4049 174.615 44.572 174.48 44.7843C174.344 45.0067 174.275 45.2636 174.28 45.5243C174.275 45.7881 174.344 46.0481 174.48 46.2743C174.623 46.4847 174.825 46.6482 175.06 46.7443L174.29 47.8643H175.2L175.86 46.8643H176.65V47.8643H177.5V44.0943H175.89C175.615 44.0953 175.342 44.1531 175.09 44.2643L175.04 44.3043ZM176.65 44.8343V46.1943H175.89C175.691 46.207 175.494 46.1426 175.34 46.0143C175.223 45.874 175.159 45.6971 175.159 45.5143C175.159 45.3315 175.223 45.1546 175.34 45.0143C175.501 44.8931 175.699 44.8329 175.9 44.8443L176.65 44.8343ZM182.06 45.9243C182.219 45.8542 182.357 45.7439 182.46 45.6043C182.553 45.4614 182.602 45.2946 182.6 45.1243C182.602 44.9132 182.524 44.7094 182.38 44.5543C182.221 44.3796 182.017 44.2517 181.79 44.1843C181.541 44.0742 181.273 44.0098 181 43.9943C180.555 43.99 180.115 44.0965 179.72 44.3043L180 44.9943C180.156 44.9031 180.325 44.8357 180.5 44.7943C180.663 44.7472 180.831 44.7236 181 44.7243C181.188 44.7167 181.374 44.7581 181.54 44.8443C181.605 44.8754 181.659 44.9236 181.698 44.9835C181.737 45.0435 181.758 45.1129 181.76 45.1843C181.763 45.243 181.751 45.3015 181.725 45.3541C181.699 45.4067 181.659 45.4515 181.61 45.4843C181.487 45.5596 181.344 45.5946 181.2 45.5843H180.35V46.2343H181.27C181.434 46.229 181.596 46.2669 181.74 46.3443C181.793 46.377 181.836 46.4227 181.866 46.477C181.896 46.5313 181.911 46.5924 181.91 46.6543C181.912 46.7367 181.888 46.8175 181.844 46.8869C181.8 46.9562 181.736 47.011 181.66 47.0443C181.463 47.1475 181.242 47.1958 181.02 47.1843C180.824 47.1862 180.629 47.1593 180.44 47.1043C180.25 47.0598 180.068 46.9856 179.9 46.8843L179.63 47.5043C179.858 47.6358 180.104 47.7335 180.36 47.7943C180.609 47.8538 180.864 47.884 181.12 47.8843C181.402 47.8891 181.683 47.8451 181.95 47.7543C182.183 47.6833 182.394 47.5522 182.56 47.3743C182.69 47.2127 182.761 47.0116 182.761 46.8043C182.761 46.597 182.69 46.3959 182.56 46.2343C182.447 46.0764 182.291 45.9548 182.11 45.8843L182.06 45.9243ZM184.68 44.1343L183.01 47.8643H184L184.33 47.0643H186L186.33 47.8643H187.24L185.57 44.1343H184.68ZM184.51 46.4143L185.1 44.9843L185.69 46.4143H184.51ZM192.66 44.1343L191.03 47.7843L189.83 45.9343L191.05 44.1343H190.14L189.14 45.6443H188.52V44.0943H187.66V47.8243H188.52V46.3243H189.12L190.12 47.8243H191.89L192.22 47.0243H194L194.33 47.8243H195.24L193.57 44.0943L192.66 44.1343ZM192.49 46.4143L193.08 44.9843L193.67 46.4143H192.49ZM197.8 45.9243C197.956 45.8527 198.09 45.7425 198.19 45.6043C198.287 45.4634 198.336 45.2951 198.33 45.1243C198.332 44.9132 198.254 44.7094 198.11 44.5543C197.953 44.3819 197.753 44.2542 197.53 44.1843C197.27 44.0934 196.996 44.0494 196.72 44.0543C196.278 44.05 195.841 44.1565 195.45 44.3643L195.71 45.0343C195.863 44.943 196.028 44.8756 196.2 44.8343C196.366 44.7878 196.538 44.7643 196.71 44.7643C196.898 44.7567 197.084 44.7981 197.25 44.8843C197.313 44.9159 197.367 44.9644 197.404 45.0245C197.441 45.0845 197.46 45.1537 197.46 45.2243C197.463 45.283 197.451 45.3415 197.425 45.3941C197.399 45.4467 197.359 45.4915 197.31 45.5243C197.191 45.5995 197.051 45.6345 196.91 45.6243H196.06V46.2743H197C197.164 46.2664 197.327 46.3045 197.47 46.3843C197.524 46.4154 197.569 46.4608 197.599 46.5155C197.629 46.5701 197.643 46.632 197.64 46.6943C197.642 46.7767 197.618 46.8575 197.574 46.9269C197.53 46.9962 197.466 47.051 197.39 47.0843C197.193 47.1875 196.972 47.2358 196.75 47.2243C196.557 47.2266 196.365 47.1996 196.18 47.1443C195.99 47.0998 195.808 47.0256 195.64 46.9243L195.37 47.5443C195.596 47.674 195.838 47.7717 196.09 47.8343C196.343 47.8938 196.601 47.924 196.86 47.9243C197.142 47.9291 197.423 47.8851 197.69 47.7943C197.92 47.7209 198.126 47.5901 198.29 47.4143C198.438 47.253 198.52 47.0427 198.52 46.8243C198.526 46.6239 198.459 46.4282 198.33 46.2743C198.216 46.0968 198.048 45.9603 197.85 45.8843L197.8 45.9243ZM201.26 44.1343H200.41L198.75 47.8643H199.63L200 46.9943H201.74L202.07 47.7943H202.97L201.26 44.1343ZM200.26 46.4143L200.85 44.9843L201.44 46.4143H200.26Z" fill="#848585"/>
<path d="M24.9004 19.6943C23.9895 19.6903 23.0798 19.7605 22.1804 19.9043C21.3189 20.0484 20.5131 20.4253 19.8504 20.9943C19.0322 21.7501 18.3992 22.6843 18.0004 23.7243C17.372 25.3491 16.9651 27.051 16.7904 28.7843C16.4886 30.4735 16.4146 32.1955 16.5704 33.9043C16.6484 34.9033 17.0208 35.8568 17.6404 36.6443C18.1613 37.2257 18.8685 37.6076 19.6404 37.7243C20.5207 37.8576 21.4101 37.9212 22.3004 37.9143H23.0004C23.2404 37.9143 23.5204 37.9143 23.8304 37.9143L26.3804 19.7743C26.1239 19.7594 25.8668 19.7594 25.6104 19.7743L24.9004 19.6943ZM38.1604 20.9943C37.6359 20.4138 36.9315 20.0264 36.1604 19.8943C35.2813 19.7488 34.3914 19.6786 33.5004 19.6843H32.7004C32.4673 19.6688 32.2335 19.6688 32.0004 19.6843L29.4504 37.8743C29.6835 37.8898 29.9173 37.8898 30.1504 37.8743H30.8904C31.8005 37.8796 32.7098 37.8161 33.6104 37.6843C34.4886 37.5678 35.3166 37.2075 36.0004 36.6443C36.8154 35.8839 37.4449 34.9464 37.8404 33.9043C38.476 32.258 38.8994 30.5375 39.1004 28.7843C39.3701 27.1115 39.4272 25.4114 39.2704 23.7243C39.1748 22.7255 38.7889 21.7764 38.1604 20.9943ZM53.1604 16.5243C46.4796 10.8648 39.3792 5.72005 31.9204 1.13429C30.718 0.392717 29.3331 0 27.9204 0C26.5077 0 25.1228 0.392717 23.9204 1.13429C16.4647 5.72368 9.36766 10.8718 2.69039 16.5343C1.61011 17.4508 0.806715 18.6503 0.370403 19.9981C-0.06591 21.3459 -0.117859 22.7886 0.220388 24.1643C2.28036 32.6688 4.98827 41.0031 8.32039 49.0943C8.85623 50.4048 9.74613 51.5403 10.8905 52.3739C12.0349 53.2075 13.3887 53.7062 14.8004 53.8143C23.5279 54.4743 32.2928 54.4743 41.0204 53.8143C42.4328 53.7047 43.7872 53.2055 44.9329 52.3722C46.0787 51.5389 46.9709 50.4042 47.5104 49.0943C50.8381 41.0015 53.5459 32.6675 55.6104 24.1643C55.944 22.7876 55.8887 21.3453 55.4509 19.9981C55.013 18.6509 54.2097 17.4518 53.1304 16.5343L53.1604 16.5243ZM44.7404 28.7843C44.4575 31.2655 43.821 33.6934 42.8504 35.9943C42.1638 37.5918 41.1082 39.0037 39.7704 40.1143C38.5487 41.0682 37.1147 41.7132 35.5904 41.9943C33.8716 42.3068 32.1273 42.4575 30.3804 42.4443C30.1304 42.4443 29.8604 42.4443 29.5704 42.4443C29.3173 42.46 29.0635 42.46 28.8104 42.4443L28.4304 44.8643H22.8204L23.2004 42.4443H21.6304C19.9264 42.462 18.2248 42.3113 16.5504 41.9943C15.1743 41.7493 13.9031 41.098 12.9004 40.1243C11.8648 38.9709 11.2024 37.5312 11.0004 35.9943C10.6643 33.6027 10.7048 31.1733 11.1204 28.7943C11.4069 26.3159 12.0467 23.8913 13.0204 21.5943C13.7021 19.9967 14.7545 18.5844 16.0904 17.4743C17.3168 16.5238 18.7539 15.8824 20.2804 15.6043C21.9958 15.2917 23.7368 15.1411 25.4804 15.1543H26.2704C26.5335 15.1391 26.7973 15.1391 27.0604 15.1543L27.4004 12.6843H33.0004L32.6604 15.1543C32.9168 15.1394 33.1739 15.1394 33.4304 15.1543H34.2304C35.9344 15.1365 37.636 15.2873 39.3104 15.6043C40.6883 15.8439 41.961 16.496 42.9604 17.4743C44.0087 18.6199 44.6851 20.0564 44.9004 21.5943C45.2214 23.9847 45.1675 26.4105 44.7404 28.7843Z" fill="#1D6BD0"/>
</svg>
