<svg width="324" height="57" viewBox="0 0 324 57" fill="none" xmlns="http://www.w3.org/2000/svg">
<path d="M58.2307 50.6045H33.4414V6.05851H58.2307V50.6045Z" fill="#F26521"/>
<path d="M35.0159 28.3305C35.0159 19.2938 39.2474 11.244 45.8366 6.05712C41.018 2.26317 34.9372 -0.000129223 28.3283 -0.000129223C12.6835 -0.000129223 0 12.6841 0 28.3305C0 43.9769 12.6835 56.6611 28.3283 56.6611C34.9372 56.6611 41.018 54.3978 45.8366 50.6039C39.2474 45.4162 35.0159 37.3672 35.0159 28.3305Z" fill="#E51B24"/>
<path d="M90.7882 45.8857V44.7864H90.5018L90.1712 45.5418L89.8407 44.7864H89.5535V45.8857H89.7557V45.0563L90.0658 45.7708H90.2767L90.5852 45.0539V45.8857H90.7882ZM88.9696 45.8857V44.9737H89.3379V44.7879H88.4014V44.9737H88.7697V45.8857H88.9696Z" fill="#231F20"/>
<path d="M91.6735 28.3305C91.6735 43.9769 78.9908 56.6611 63.3452 56.6611C56.7355 56.6611 50.6563 54.3978 45.8369 50.6039C52.4261 45.4162 56.6576 37.3672 56.6576 28.3305C56.6576 19.2938 52.4261 11.244 45.8369 6.05712C50.6563 2.26317 56.7355 -0.000129223 63.3452 -0.000129223C78.9908 -0.000129223 91.6735 12.6841 91.6735 28.3305Z" fill="#F99F1B"/>
<path d="M148.254 28.4525C148.254 25.1417 150.423 22.4228 153.97 22.4228C157.359 22.4228 159.646 25.0237 159.646 28.4525C159.646 31.8813 157.359 34.483 153.97 34.483C150.423 34.483 148.254 31.764 148.254 28.4525ZM163.509 28.4525V19.0317H159.409V21.3187C158.108 19.6235 156.137 18.5596 153.456 18.5596C148.175 18.5596 144.037 22.6982 144.037 28.4525C144.037 34.2075 148.175 38.3462 153.456 38.3462C156.137 38.3462 158.108 37.2822 159.409 35.5871V37.874H163.509V28.4525ZM301.939 28.4525C301.939 25.1417 304.107 22.4228 307.654 22.4228C311.044 22.4228 313.33 25.0237 313.33 28.4525C313.33 31.8813 311.044 34.483 307.654 34.483C304.107 34.483 301.939 31.764 301.939 28.4525ZM321.779 36.9792V37.2751H322.052C322.114 37.2751 322.164 37.2625 322.201 37.2381C322.238 37.2137 322.256 37.1759 322.256 37.1256C322.256 37.0768 322.238 37.0398 322.201 37.0154C322.164 36.991 322.114 36.9792 322.052 36.9792H321.779ZM322.054 36.7707C322.197 36.7707 322.307 36.8021 322.385 36.8659C322.461 36.9288 322.5 37.0162 322.5 37.1256C322.5 37.2176 322.469 37.2924 322.408 37.353C322.346 37.412 322.258 37.449 322.146 37.4624L322.509 37.8811H322.224L321.887 37.4648H321.779V37.8811H321.541V36.7707H322.054ZM321.984 38.2627C322.113 38.2627 322.233 38.2383 322.345 38.1895C322.456 38.1408 322.553 38.0739 322.637 37.9897C322.722 37.9062 322.787 37.8071 322.836 37.6938C322.883 37.5812 322.907 37.4592 322.907 37.3302C322.907 37.2011 322.883 37.0807 322.836 36.9666C322.787 36.8541 322.722 36.7557 322.637 36.6707C322.553 36.5873 322.456 36.5212 322.345 36.4732C322.233 36.4252 322.113 36.4016 321.984 36.4016C321.853 36.4016 321.731 36.4252 321.616 36.4732C321.502 36.5212 321.403 36.5873 321.318 36.6707C321.235 36.7557 321.169 36.8541 321.121 36.9666C321.074 37.0807 321.049 37.2011 321.049 37.3302C321.049 37.4592 321.074 37.5812 321.121 37.6938C321.169 37.8071 321.235 37.9062 321.318 37.9897C321.403 38.0739 321.502 38.1408 321.616 38.1895C321.731 38.2383 321.853 38.2627 321.984 38.2627ZM321.984 36.1348C322.153 36.1348 322.31 36.1663 322.457 36.2284C322.605 36.2914 322.734 36.3764 322.844 36.485C322.955 36.5936 323.042 36.7203 323.105 36.8659C323.169 37.0115 323.201 37.1657 323.201 37.3302C323.201 37.4947 323.169 37.6497 323.105 37.7937C323.042 37.9385 322.955 38.0644 322.844 38.173C322.734 38.2816 322.605 38.3674 322.457 38.4311C322.31 38.4949 322.153 38.5264 321.984 38.5264C321.812 38.5264 321.651 38.4949 321.502 38.4311C321.352 38.3674 321.223 38.2816 321.113 38.173C321.004 38.0644 320.917 37.9385 320.854 37.7937C320.79 37.6497 320.759 37.4947 320.759 37.3302C320.759 37.1657 320.79 37.0115 320.854 36.8659C320.917 36.7203 321.004 36.5936 321.113 36.485C321.223 36.3764 321.352 36.2914 321.502 36.2284C321.651 36.1663 321.812 36.1348 321.984 36.1348ZM317.193 28.4525V11.4643H313.094V21.3187C311.793 19.6235 309.822 18.5596 307.142 18.5596C301.86 18.5596 297.721 22.6982 297.721 28.4525C297.721 34.2075 301.86 38.3462 307.142 38.3462C309.822 38.3462 311.793 37.2822 313.094 35.5871V37.874H317.193V28.4525ZM214.355 22.2252C216.997 22.2252 218.691 23.8802 219.125 26.7967H209.349C209.784 24.0777 211.439 22.2252 214.355 22.2252ZM214.435 18.5596C208.916 18.5596 205.053 22.5794 205.053 28.4525C205.053 34.4444 209.073 38.3462 214.71 38.3462C217.549 38.3462 220.15 37.6371 222.436 35.7059L220.426 32.6698C218.849 33.9321 216.839 34.6411 214.946 34.6411C212.306 34.6411 209.901 33.4198 209.31 30.0295H223.303C223.342 29.5172 223.382 29.0049 223.382 28.4525C223.342 22.5794 219.717 18.5596 214.435 18.5596ZM263.902 28.4525C263.902 25.1417 266.07 22.4228 269.617 22.4228C273.007 22.4228 275.294 25.0237 275.294 28.4525C275.294 31.8813 273.007 34.483 269.617 34.483C266.07 34.483 263.902 31.764 263.902 28.4525ZM279.156 28.4525V19.0317H275.057V21.3187C273.757 19.6235 271.785 18.5596 269.104 18.5596C263.824 18.5596 259.685 22.6982 259.685 28.4525C259.685 34.2075 263.824 38.3462 269.104 38.3462C271.785 38.3462 273.757 37.2822 275.057 35.5871V37.874H279.156V28.4525ZM240.764 28.4525C240.764 34.169 244.745 38.3462 250.816 38.3462C253.654 38.3462 255.546 37.7158 257.595 36.0994L255.625 32.7886C254.087 33.8927 252.472 34.483 250.697 34.483C247.427 34.4444 245.022 32.0788 245.022 28.4525C245.022 24.8269 247.427 22.4621 250.697 22.4228C252.472 22.4228 254.087 23.0138 255.625 24.1171L257.595 20.8063C255.546 19.1899 253.654 18.5596 250.816 18.5596C244.745 18.5596 240.764 22.7375 240.764 28.4525M293.583 18.5596C291.217 18.5596 289.68 19.6629 288.616 21.3187V19.0317H284.556V37.874H288.656V27.3098C288.656 24.1958 289.996 22.4621 292.676 22.4621C293.504 22.4621 294.371 22.5794 295.238 22.9343L296.499 19.0719C295.593 18.717 294.411 18.5596 293.583 18.5596ZM183.768 20.5309C181.797 19.2293 179.077 18.5596 176.082 18.5596C171.312 18.5596 168.239 20.8457 168.239 24.5901C168.239 27.6647 170.525 29.5566 174.741 30.1476L176.673 30.4238C178.92 30.7386 179.984 31.3296 179.984 32.3944C179.984 33.8526 178.486 34.6805 175.688 34.6805C172.85 34.6805 170.8 33.7739 169.421 32.7099L167.489 35.9026C169.736 37.5576 172.574 38.3462 175.649 38.3462C181.088 38.3462 184.241 35.7838 184.241 32.1976C184.241 28.8861 181.758 27.1524 177.659 26.5606L175.727 26.2844C173.953 26.0483 172.535 25.6934 172.535 24.4327C172.535 23.0531 173.875 22.2252 176.122 22.2252C178.526 22.2252 180.851 23.1318 181.995 23.8417L183.768 20.5309ZM236.626 18.5596C234.261 18.5596 232.724 19.6629 231.659 21.3187V19.0317H227.599V37.874H231.698V27.3098C231.698 24.1958 233.039 22.4621 235.72 22.4621C236.547 22.4621 237.414 22.5794 238.281 22.9343L239.543 19.0719C238.636 18.717 237.453 18.5596 236.626 18.5596ZM201.663 19.0317H194.963V13.3176H190.824V19.0317H187.001V22.7769H190.824V31.3697C190.824 35.7452 192.519 38.3462 197.367 38.3462C199.141 38.3462 201.19 37.7945 202.491 36.8879L201.309 33.3804C200.086 34.0895 198.746 34.4444 197.683 34.4444C195.633 34.4444 194.963 33.1829 194.963 31.2903V22.7769H201.663V19.0317ZM140.41 37.874V26.0483C140.41 21.5941 137.572 18.5989 133 18.5596C130.596 18.5202 128.112 19.2686 126.378 21.9105C125.078 19.8203 123.028 18.5596 120.15 18.5596C118.14 18.5596 116.169 19.1506 114.632 21.358V19.0317H110.532V37.874H114.671V27.4278C114.671 24.1564 116.485 22.4228 119.283 22.4228C122.003 22.4228 123.383 24.1958 123.383 27.3885V37.874H127.521V27.4278C127.521 24.1564 129.414 22.4228 132.133 22.4228C134.931 22.4228 136.271 24.1958 136.271 27.3885V37.874H140.41Z" fill="#231F20"/>
</svg>
