<svg width="196" height="57" viewBox="0 0 196 57" fill="none" xmlns="http://www.w3.org/2000/svg">
<path fill-rule="evenodd" clip-rule="evenodd" d="M175.584 0H138.154C140.167 12.5464 152.241 24.2834 165.522 24.2834H195.305C195.707 23.0692 195.707 21.4503 195.707 20.2362C195.707 8.90391 186.853 0 175.584 0Z" fill="url(#paint0_linear_609_14604)"/>
<path fill-rule="evenodd" clip-rule="evenodd" d="M141.374 26.3076V56.6619H159.485V40.4729H175.584C184.438 40.4729 192.085 34.4021 194.5 26.3076H141.374Z" fill="#4DB45F"/>
<path fill-rule="evenodd" clip-rule="evenodd" d="M76.9785 0V56.6613H93.0772C93.0772 56.6613 97.1019 56.6613 99.1143 52.614C109.981 30.759 113.201 24.2834 113.201 24.2834H115.213V56.6613H133.324V0H117.225C117.225 0 113.201 0.404723 111.188 4.04723C101.932 22.6645 97.1019 32.3779 97.1019 32.3779H95.0896V0H76.9785Z" fill="#4DB45F"/>
<path fill-rule="evenodd" clip-rule="evenodd" d="M0.509766 56.6613V0H18.6208C18.6208 0 23.8529 0 26.6702 8.09447C33.9146 29.5448 34.7196 32.3779 34.7196 32.3779C34.7196 32.3779 36.3294 27.1165 42.7689 8.09447C45.5862 0 50.8183 0 50.8183 0H68.9294V56.6613H50.8183V26.307H48.806L38.7442 56.6613H30.6949L20.6332 26.307H18.6208V56.6613H0.509766Z" fill="#4DB45F"/>
<defs>
<linearGradient id="paint0_linear_609_14604" x1="138.05" y1="12.1417" x2="195.707" y2="12.1417" gradientUnits="userSpaceOnUse">
<stop stop-color="#00B4E6"/>
<stop offset="1" stop-color="#088CCB"/>
</linearGradient>
</defs>
</svg>
