<svg width="1103" height="542" viewBox="0 0 1103 542" fill="none" xmlns="http://www.w3.org/2000/svg">
<rect width="1103" height="542" fill="url(#paint0_linear_107_2406)"/>
<g style="mix-blend-mode:multiply">
<path d="M900 230.35L732.814 0H0V542H647.72L900 230.35Z" fill="#D8E7FD"/>
</g>
<path d="M239.02 205.602C230.862 205.566 222.714 206.196 214.658 207.485C206.942 208.777 199.726 212.157 193.79 217.259C186.461 224.037 180.792 232.413 177.22 241.74C171.592 256.309 167.947 271.571 166.383 287.113C163.68 302.26 163.017 317.702 164.412 333.025C165.111 341.983 168.446 350.533 173.996 357.595C178.662 362.809 184.995 366.233 191.909 367.28C199.793 368.475 207.759 369.045 215.733 368.984H222.002C224.152 368.984 226.66 368.984 229.436 368.984L252.275 206.319C249.978 206.185 247.676 206.185 245.379 206.319L239.02 205.602ZM357.783 217.259C353.085 212.054 346.776 208.58 339.87 207.395C331.996 206.091 324.026 205.461 316.045 205.512H308.88C306.793 205.373 304.698 205.373 302.611 205.512L279.772 368.625C281.859 368.764 283.954 368.764 286.041 368.625H292.669C300.821 368.673 308.965 368.103 317.031 366.921C324.896 365.876 332.312 362.646 338.437 357.595C345.736 350.776 351.374 342.37 354.917 333.025C360.609 318.263 364.401 302.835 366.202 287.113C368.617 272.113 369.129 256.868 367.724 241.74C366.868 232.783 363.412 224.273 357.783 217.259ZM492.13 177.176C432.293 126.426 368.699 80.2926 301.894 39.1714V39.1714C291.125 32.5216 278.721 29 266.068 29C253.416 29 241.012 32.5216 230.242 39.1714C163.465 80.3251 99.9012 126.489 40.0964 177.266V177.266C30.421 185.484 23.2253 196.24 19.3175 208.326C15.4097 220.412 14.9444 233.349 17.9739 245.685V245.685C36.424 321.946 60.6773 396.682 90.5214 469.236V469.236C95.3206 480.988 103.291 491.17 113.541 498.645C123.791 506.12 135.916 510.592 148.559 511.561V511.561C226.727 517.48 305.23 517.48 383.398 511.561C396.049 510.578 408.179 506.102 418.441 498.63C428.703 491.158 436.694 480.983 441.526 469.236C471.33 396.667 495.582 321.935 514.073 245.685V245.685C517.061 233.34 516.566 220.407 512.644 208.326C508.723 196.246 501.528 185.493 491.861 177.266L492.13 177.176ZM416.716 287.113C414.182 309.362 408.482 331.134 399.789 351.767C393.639 366.091 384.185 378.752 372.203 388.711C361.26 397.265 348.417 403.049 334.765 405.57C319.37 408.372 303.747 409.723 288.101 409.605C285.862 409.605 283.444 409.605 280.847 409.605C278.58 409.745 276.306 409.745 274.04 409.605L270.636 431.305H220.39L223.794 409.605H209.732C194.47 409.764 179.23 408.412 164.233 405.57C151.908 403.373 140.523 397.533 131.542 388.801C122.267 378.458 116.334 365.548 114.525 351.767C111.514 330.321 111.877 308.536 115.6 287.203C118.165 264.979 123.896 243.237 132.617 222.639C138.723 208.314 148.148 195.65 160.113 185.695C171.098 177.172 183.969 171.42 197.641 168.926C213.005 166.123 228.598 164.772 244.215 164.891H251.29C253.647 164.754 256.009 164.754 258.366 164.891L261.411 142.742H311.567L308.522 164.891C310.819 164.757 313.122 164.757 315.419 164.891H322.584C337.846 164.732 353.086 166.083 368.083 168.926C380.423 171.075 391.823 176.922 400.774 185.695C410.163 195.968 416.221 208.849 418.149 222.639C421.025 244.075 420.541 265.828 416.716 287.113V287.113Z" fill="#1D6BD0"/>
<defs>
<linearGradient id="paint0_linear_107_2406" x1="551.5" y1="0" x2="551.5" y2="542" gradientUnits="userSpaceOnUse">
<stop stop-color="#4299FF"/>
<stop offset="1" stop-color="#1D6BD0"/>
</linearGradient>
</defs>
</svg>
