<svg width="255" height="229" viewBox="0 0 255 229" fill="none" xmlns="http://www.w3.org/2000/svg">
<path fill-rule="evenodd" clip-rule="evenodd" d="M255 80.21C239.945 91.959 224.589 103.317 208.949 114.274H208.506C224.269 125.331 239.743 136.796 254.911 148.659L255 148.59V154.93L254.851 154.812C244.133 163.253 233.569 171.896 223.166 180.733C216.583 186.299 211.685 193.592 209.021 201.79C206.358 209.989 206.036 218.768 208.091 227.14L203.365 228.274C201.083 219.052 201.426 209.376 204.358 200.339C207.289 191.303 212.691 183.268 219.952 177.142C230.138 168.495 240.475 160.033 250.959 151.762C235.487 139.69 219.694 128.035 203.598 116.81C187.358 128.049 170.813 138.854 153.981 149.213C145.898 154.202 136.591 156.852 127.092 156.869C117.592 156.865 108.281 154.213 100.203 149.213C83.272 138.784 66.6311 127.902 50.2981 116.582C34.4551 127.625 18.9065 139.086 3.66821 150.953C14.4878 159.481 25.1504 168.212 35.6504 177.142C42.9067 183.272 48.3083 191.307 51.2471 200.34C54.1858 209.373 54.5452 219.047 52.2847 228.274L47.5591 227.14C49.6255 218.769 49.3086 209.986 46.6448 201.785C43.9807 193.584 39.0757 186.292 32.4841 180.734C21.8232 171.672 10.9932 162.817 0 154.174V148.064C15.0554 136.315 30.4109 124.957 46.0505 114H46.4944C30.7312 102.943 15.2573 91.478 0.0888672 79.6147L0 79.6841V73.3442L0.148682 73.4614C10.8672 65.0205 21.4309 56.3784 31.8342 47.5405C38.417 41.9746 43.3154 34.6821 45.9788 26.4839C48.6421 18.2852 48.9644 9.50586 46.9092 1.13428L51.6348 0C53.9175 9.22168 53.5737 18.8979 50.6423 27.9346C47.7109 36.9707 42.3091 45.0063 35.0479 51.1318C24.8623 59.7793 14.5249 68.2407 4.04053 76.5122C19.5134 88.584 35.3062 100.239 51.4016 111.464C67.6423 100.225 84.1873 89.4194 101.019 79.0605C109.102 74.0718 118.409 71.4219 127.908 71.4048C137.408 71.4092 146.719 74.0605 154.797 79.0605C171.728 89.4902 188.369 100.372 204.702 111.692C220.545 100.648 236.094 89.1875 251.332 77.3208C240.512 68.7925 229.85 60.0615 219.35 51.1318C212.093 45.0015 206.692 36.9673 203.753 27.9341C200.814 18.9009 200.455 9.22656 202.715 0L207.441 1.13428C205.375 9.50537 205.691 18.2881 208.355 26.4888C211.019 34.6895 215.924 41.9814 222.516 47.54C233.177 56.6021 244.007 65.4565 255 74.1001V80.21ZM55.3271 114.274C70.8337 124.98 86.6162 135.292 102.66 145.196C109.992 149.737 118.445 152.142 127.069 152.142C135.692 152.142 144.145 149.737 151.477 145.196C167.675 135.206 183.609 124.804 199.262 114H199.673C184.166 103.294 168.384 92.9824 152.34 83.0776C145.008 78.5371 136.555 76.1318 127.931 76.1318C119.308 76.1318 110.855 78.5371 103.523 83.0776C87.3247 93.0679 71.3914 103.47 55.738 114.274H55.3271Z" fill="white" fill-opacity="0.2"/>
</svg>
