<svg width="24" height="25" viewBox="0 0 24 25" fill="none" xmlns="http://www.w3.org/2000/svg">
<path d="M12 0.166016C13.5913 0.166016 15.1174 0.815716 16.2426 1.97219C17.3679 3.12866 18 4.69718 18 6.33268C18 7.96818 17.3679 9.5367 16.2426 10.6932C15.1174 11.8496 13.5913 12.4993 12 12.4993C10.4087 12.4993 8.88258 11.8496 7.75736 10.6932C6.63214 9.5367 6 7.96818 6 6.33268C6 4.69718 6.63214 3.12866 7.75736 1.97219C8.88258 0.815716 10.4087 0.166016 12 0.166016V0.166016ZM12 15.5827C18.63 15.5827 24 18.3423 24 21.7493V24.8327H0V21.7493C0 18.3423 5.37 15.5827 12 15.5827Z" fill="url(#paint0_linear_519_12797)"/>
<defs>
<linearGradient id="paint0_linear_519_12797" x1="12" y1="0.166016" x2="12" y2="24.8327" gradientUnits="userSpaceOnUse">
<stop stop-color="#FF9635"/>
<stop offset="1" stop-color="#FF6B35"/>
</linearGradient>
</defs>
</svg>
