<svg width="437" height="425" viewBox="0 0 437 425" fill="none" xmlns="http://www.w3.org/2000/svg">
<path d="M414.328 130.095C362.51 86.2228 307.437 46.3412 249.584 10.7929C240.258 5.04431 229.517 2 218.559 2C207.602 2 196.86 5.04431 187.534 10.7929C129.705 46.3693 74.6585 86.2768 22.8675 130.172C14.4885 137.277 8.25713 146.575 4.87296 157.023C1.48878 167.471 1.08585 178.655 3.7094 189.319C19.6872 255.245 40.6905 319.852 66.5355 382.574C70.6917 392.733 77.594 401.535 86.4704 407.997C95.3467 414.459 105.847 418.325 116.796 419.163C184.49 424.279 252.473 424.279 320.167 419.163C331.122 418.313 341.627 414.443 350.514 407.984C359.401 401.524 366.321 392.729 370.505 382.574C396.316 319.839 417.318 255.235 433.331 189.319C435.919 178.647 435.49 167.466 432.094 157.023C428.698 146.58 422.467 137.284 414.096 130.172L414.328 130.095Z" fill="url(#paint0_linear_609_14623)" stroke="url(#paint1_linear_609_14623)" stroke-width="4"/>
<path d="M314.018 201.599C311.332 201.607 308.688 200.941 306.327 199.662C303.966 198.383 301.964 196.532 300.504 194.279C299.04 196.53 297.038 198.38 294.678 199.661C292.318 200.942 289.675 201.613 286.99 201.613C284.305 201.613 281.662 200.942 279.302 199.661C276.942 198.38 274.939 196.53 273.476 194.279C272.012 196.53 270.01 198.38 267.65 199.661C265.29 200.942 262.647 201.613 259.962 201.613C257.277 201.613 254.634 200.942 252.274 199.661C249.914 198.38 247.912 196.53 246.448 194.279C244.985 196.53 242.982 198.38 240.622 199.661C238.262 200.942 235.619 201.613 232.934 201.613C230.249 201.613 227.607 200.942 225.247 199.661C222.887 198.38 220.884 196.53 219.42 194.279C217.957 196.53 215.954 198.38 213.594 199.661C211.234 200.942 208.592 201.613 205.907 201.613C203.221 201.613 200.579 200.942 198.219 199.661C195.859 198.38 193.856 196.53 192.393 194.279C190.929 196.53 188.927 198.38 186.567 199.661C184.206 200.942 181.564 201.613 178.879 201.613C176.194 201.613 173.551 200.942 171.191 199.661C168.831 198.38 166.828 196.53 165.365 194.279C163.901 196.53 161.899 198.38 159.539 199.661C157.179 200.942 154.536 201.613 151.851 201.613C149.166 201.613 146.523 200.942 144.163 199.661C141.803 198.38 139.801 196.53 138.337 194.279C136.432 197.188 133.64 199.405 130.375 200.599C127.11 201.794 123.546 201.904 120.214 200.912C116.881 199.92 113.958 197.879 111.878 195.092C109.798 192.306 108.673 188.923 108.67 185.446V174.677C108.679 173.376 109.202 172.132 110.125 171.216C111.048 170.299 112.296 169.785 113.597 169.785H325.279C326.58 169.785 327.828 170.299 328.751 171.216C329.674 172.132 330.197 173.376 330.206 174.677V185.446C330.197 189.733 328.487 193.842 325.452 196.87C322.417 199.898 318.305 201.599 314.018 201.599V201.599ZM303.143 185.446C303.143 188.33 304.289 191.096 306.328 193.135C308.368 195.175 311.133 196.32 314.018 196.32C316.902 196.32 319.668 195.175 321.707 193.135C323.746 191.096 324.892 188.33 324.892 185.446V175.064H113.984V185.446C113.984 188.33 115.13 191.096 117.169 193.135C119.208 195.175 121.974 196.32 124.858 196.32C127.743 196.32 130.508 195.175 132.548 193.135C134.587 191.096 135.733 188.33 135.733 185.446C135.733 184.746 136.011 184.074 136.506 183.579C137.001 183.084 137.672 182.806 138.372 182.806C139.072 182.806 139.744 183.084 140.239 183.579C140.734 184.074 141.012 184.746 141.012 185.446C141.012 188.33 142.157 191.096 144.197 193.135C146.236 195.175 149.002 196.32 151.886 196.32C154.77 196.32 157.536 195.175 159.576 193.135C161.615 191.096 162.761 188.33 162.761 185.446C162.761 184.746 163.039 184.074 163.534 183.579C164.029 183.084 164.7 182.806 165.4 182.806C166.1 182.806 166.771 183.084 167.266 183.579C167.761 184.074 168.039 184.746 168.039 185.446C168.039 188.33 169.185 191.096 171.225 193.135C173.264 195.175 176.03 196.32 178.914 196.32C181.798 196.32 184.564 195.175 186.603 193.135C188.643 191.096 189.788 188.33 189.788 185.446C189.788 184.746 190.066 184.074 190.561 183.579C191.056 183.084 191.728 182.806 192.428 182.806C193.128 182.806 193.799 183.084 194.294 183.579C194.789 184.074 195.067 184.746 195.067 185.446C195.067 188.33 196.213 191.096 198.252 193.135C200.292 195.175 203.058 196.32 205.942 196.32C208.826 196.32 211.592 195.175 213.631 193.135C215.67 191.096 216.816 188.33 216.816 185.446C216.816 184.746 217.094 184.074 217.589 183.579C218.084 183.084 218.756 182.806 219.456 182.806C220.156 182.806 220.827 183.084 221.322 183.579C221.817 184.074 222.095 184.746 222.095 185.446C222.095 188.33 223.241 191.096 225.28 193.135C227.319 195.175 230.085 196.32 232.969 196.32C235.854 196.32 238.62 195.175 240.659 193.135C242.698 191.096 243.844 188.33 243.844 185.446C243.844 184.746 244.122 184.074 244.617 183.579C245.112 183.084 245.783 182.806 246.483 182.806C247.183 182.806 247.855 183.084 248.35 183.579C248.845 184.074 249.123 184.746 249.123 185.446C249.123 188.33 250.268 191.096 252.308 193.135C254.347 195.175 257.113 196.32 259.997 196.32C262.881 196.32 265.647 195.175 267.687 193.135C269.726 191.096 270.872 188.33 270.872 185.446C270.872 184.746 271.15 184.074 271.645 183.579C272.14 183.084 272.811 182.806 273.511 182.806C274.211 182.806 274.882 183.084 275.377 183.579C275.872 184.074 276.151 184.746 276.151 185.446C276.151 188.33 277.296 191.096 279.336 193.135C281.375 195.175 284.141 196.32 287.025 196.32C289.909 196.32 292.675 195.175 294.714 193.135C296.754 191.096 297.899 188.33 297.899 185.446C297.899 184.746 298.178 184.074 298.673 183.579C299.167 183.084 299.839 182.806 300.539 182.806C301.239 182.806 301.91 183.084 302.405 183.579C302.9 184.074 303.178 184.746 303.178 185.446H303.143Z" fill="#1D6BD0"/>
<path d="M122.642 197.588H117.363V320.761H122.642V197.588Z" fill="#1D6BD0"/>
<path d="M321.373 197.588H316.094V320.761H321.373V197.588Z" fill="#1D6BD0"/>
<path d="M302.301 307.176H136.897C136.549 307.181 136.203 307.116 135.881 306.985C135.558 306.854 135.266 306.66 135.02 306.414C134.774 306.168 134.579 305.875 134.448 305.553C134.317 305.23 134.252 304.885 134.257 304.537V213.354C134.252 213.006 134.317 212.66 134.448 212.338C134.579 212.016 134.774 211.723 135.02 211.477C135.266 211.231 135.558 211.036 135.881 210.905C136.203 210.774 136.549 210.709 136.897 210.714H302.301C303.001 210.714 303.672 210.992 304.167 211.487C304.662 211.982 304.94 212.654 304.94 213.354V304.537C304.94 305.237 304.662 305.908 304.167 306.403C303.672 306.898 303.001 307.176 302.301 307.176V307.176ZM139.395 301.898H299.661V215.993H139.395V301.898Z" fill="#1D6BD0"/>
<path d="M289.104 294.367H149.953C149.256 294.358 148.59 294.077 148.097 293.584C147.604 293.091 147.323 292.424 147.313 291.727V226.164C147.323 225.467 147.604 224.801 148.097 224.308C148.59 223.815 149.256 223.534 149.953 223.524H289.104C289.801 223.534 290.467 223.815 290.96 224.308C291.453 224.801 291.734 225.467 291.743 226.164V291.727C291.734 292.424 291.453 293.091 290.96 293.584C290.467 294.077 289.801 294.358 289.104 294.367V294.367ZM152.592 289.088H286.323V228.909H152.592V289.088Z" fill="#1D6BD0"/>
<path d="M250.532 226.164H245.253V291.727H250.532V226.164Z" fill="#1D6BD0"/>
<path d="M193.662 226.164H188.383V291.727H193.662V226.164Z" fill="#1D6BD0"/>
<path d="M297.161 161.586H140.696C139.376 161.586 138.069 161.324 136.852 160.815C135.634 160.305 134.53 159.559 133.603 158.619C132.676 157.68 131.946 156.565 131.454 155.34C130.962 154.116 130.718 152.806 130.736 151.486V121.959C130.736 119.318 131.786 116.785 133.653 114.917C135.521 113.049 138.054 112 140.696 112H297.161C299.806 112 302.343 113.048 304.216 114.915C306.089 116.782 307.147 119.315 307.156 121.959V151.486C307.17 152.807 306.922 154.118 306.426 155.343C305.93 156.568 305.196 157.682 304.266 158.621C303.337 159.561 302.23 160.306 301.011 160.815C299.791 161.324 298.483 161.586 297.161 161.586V161.586ZM140.696 117.279C139.457 117.288 138.272 117.784 137.396 118.66C136.521 119.536 136.024 120.721 136.015 121.959V151.486C136.024 152.724 136.521 153.91 137.396 154.785C138.272 155.661 139.457 156.157 140.696 156.166H297.161C298.406 156.166 299.6 155.674 300.483 154.798C301.367 153.921 301.868 152.73 301.877 151.486V121.959C301.868 120.715 301.367 119.524 300.483 118.648C299.6 117.771 298.406 117.279 297.161 117.279H140.696Z" fill="#1D6BD0"/>
<path d="M171.312 126.851V144.13C171.351 144.433 171.325 144.74 171.236 145.032C171.147 145.324 170.996 145.593 170.795 145.822C170.593 146.051 170.345 146.235 170.068 146.361C169.79 146.486 169.488 146.551 169.183 146.551C168.878 146.551 168.576 146.486 168.298 146.361C168.02 146.235 167.772 146.051 167.571 145.822C167.369 145.593 167.219 145.324 167.13 145.032C167.041 144.74 167.015 144.433 167.054 144.13V133.889L163.112 140.048C162.938 140.447 162.653 140.789 162.292 141.032C161.93 141.275 161.507 141.41 161.071 141.421C160.643 141.399 160.228 141.26 159.874 141.018C159.52 140.775 159.24 140.44 159.065 140.048L155.124 133.889V144.271C155.163 144.574 155.137 144.881 155.047 145.173C154.958 145.465 154.808 145.734 154.606 145.963C154.405 146.192 154.157 146.376 153.879 146.501C153.601 146.627 153.299 146.692 152.994 146.692C152.689 146.692 152.388 146.627 152.11 146.501C151.832 146.376 151.584 146.192 151.382 145.963C151.181 145.734 151.031 145.465 150.941 145.173C150.852 144.881 150.826 144.574 150.865 144.271V126.851C150.846 126.567 150.885 126.281 150.981 126.013C151.077 125.745 151.227 125.499 151.421 125.291C151.616 125.083 151.852 124.917 152.113 124.804C152.375 124.691 152.657 124.633 152.942 124.634C153.857 124.634 154.455 125.091 155.194 126.288L161.071 135.649L166.983 126.288C167.758 125.091 168.321 124.634 169.236 124.634C169.521 124.633 169.803 124.691 170.064 124.804C170.326 124.917 170.561 125.083 170.756 125.291C170.951 125.499 171.101 125.745 171.196 126.013C171.292 126.281 171.331 126.567 171.312 126.851V126.851Z" fill="#1D6BD0"/>
<path d="M169.202 146.982C168.839 146.982 168.479 146.909 168.143 146.769C167.808 146.629 167.504 146.424 167.249 146.165C166.993 145.907 166.792 145.6 166.656 145.263C166.52 144.926 166.452 144.565 166.457 144.201V135.861L163.607 140.365C163.374 140.842 163.014 141.245 162.567 141.531C162.12 141.816 161.603 141.973 161.073 141.984C160.547 141.971 160.036 141.813 159.595 141.527C159.154 141.241 158.801 140.839 158.574 140.365L155.653 135.826V144.201C155.697 144.586 155.659 144.975 155.542 145.343C155.425 145.712 155.231 146.051 154.973 146.34C154.716 146.628 154.4 146.859 154.048 147.017C153.695 147.175 153.312 147.257 152.926 147.257C152.539 147.257 152.157 147.175 151.804 147.017C151.451 146.859 151.135 146.628 150.878 146.34C150.62 146.051 150.427 145.712 150.31 145.343C150.192 144.975 150.155 144.586 150.198 144.201V126.851C150.184 126.491 150.243 126.132 150.371 125.796C150.499 125.459 150.694 125.151 150.943 124.892C151.193 124.632 151.493 124.425 151.824 124.284C152.156 124.144 152.513 124.071 152.873 124.071C153.467 124.1 154.041 124.297 154.527 124.64C155.013 124.983 155.391 125.457 155.618 126.007L161.002 134.559L166.422 125.972C166.66 125.433 167.043 124.971 167.527 124.635C168.012 124.3 168.579 124.105 169.167 124.071C169.527 124.071 169.884 124.144 170.215 124.284C170.547 124.425 170.847 124.632 171.097 124.892C171.346 125.151 171.541 125.459 171.669 125.796C171.797 126.132 171.856 126.491 171.842 126.851V144.131C171.861 144.493 171.807 144.854 171.683 145.195C171.56 145.536 171.37 145.848 171.124 146.114C170.878 146.379 170.581 146.593 170.251 146.742C169.921 146.891 169.564 146.973 169.202 146.982V146.982ZM167.619 131.884V144.201C167.585 144.427 167.6 144.657 167.663 144.876C167.726 145.095 167.836 145.297 167.984 145.47C168.133 145.643 168.317 145.781 168.524 145.876C168.731 145.971 168.957 146.02 169.185 146.02C169.412 146.02 169.638 145.971 169.845 145.876C170.052 145.781 170.236 145.643 170.385 145.47C170.533 145.297 170.643 145.095 170.706 144.876C170.769 144.657 170.784 144.427 170.751 144.201V126.851C170.765 126.644 170.737 126.436 170.667 126.24C170.598 126.044 170.489 125.864 170.347 125.713C170.205 125.561 170.033 125.44 169.842 125.357C169.651 125.274 169.445 125.232 169.237 125.233C168.639 125.233 168.217 125.444 167.478 126.605L161.073 136.741L154.703 126.851C153.999 125.69 153.542 125.479 152.943 125.479C152.735 125.478 152.53 125.521 152.339 125.603C152.148 125.686 151.976 125.807 151.834 125.959C151.692 126.111 151.583 126.29 151.513 126.486C151.444 126.682 151.415 126.89 151.43 127.098V144.377C151.396 144.603 151.411 144.833 151.474 145.052C151.538 145.271 151.647 145.473 151.796 145.646C151.945 145.819 152.129 145.957 152.336 146.052C152.543 146.147 152.768 146.196 152.996 146.196C153.224 146.196 153.449 146.147 153.656 146.052C153.863 145.957 154.048 145.819 154.196 145.646C154.345 145.473 154.455 145.271 154.518 145.052C154.581 144.833 154.596 144.603 154.562 144.377V131.814L159.559 139.732C160.123 140.647 160.58 140.823 161.073 140.823C161.565 140.823 162.058 140.823 162.621 139.732L167.619 131.884Z" fill="#1D6BD0"/>
<path d="M193.589 144.447C193.589 144.718 193.535 144.987 193.43 145.237C193.325 145.487 193.172 145.713 192.978 145.903C192.785 146.093 192.556 146.243 192.304 146.343C192.053 146.444 191.783 146.493 191.512 146.489C191.057 146.481 190.615 146.331 190.249 146.06C189.883 145.788 189.611 145.409 189.471 144.975L188.591 142.829H179.758L178.878 144.975C178.747 145.47 178.441 145.9 178.017 146.186C177.592 146.472 177.078 146.594 176.571 146.529C176.063 146.465 175.596 146.218 175.257 145.835C174.917 145.452 174.729 144.959 174.726 144.447C174.753 144.047 174.848 143.654 175.007 143.286L182.046 126.288C182.187 125.858 182.46 125.484 182.826 125.218C183.193 124.953 183.634 124.81 184.087 124.81C184.537 124.8 184.979 124.94 185.341 125.207C185.704 125.475 185.969 125.855 186.093 126.288L193.131 143.286C193.357 143.64 193.512 144.035 193.589 144.447V144.447ZM181.131 139.309H187.324L184.368 131.145L181.131 139.309Z" fill="#1D6BD0"/>
<path d="M191.515 146.981C190.941 146.978 190.382 146.792 189.92 146.45C189.459 146.108 189.117 145.629 188.946 145.081L188.207 143.286H180.289L179.55 145.081C179.466 145.795 179.101 146.446 178.537 146.892C177.973 147.337 177.255 147.54 176.541 147.456C175.827 147.372 175.175 147.008 174.73 146.444C174.284 145.88 174.081 145.161 174.165 144.447C174.171 143.988 174.266 143.533 174.447 143.11L181.485 126.042C181.665 125.507 182.012 125.045 182.474 124.722C182.937 124.399 183.49 124.232 184.054 124.247C184.621 124.24 185.175 124.414 185.637 124.743C186.099 125.072 186.444 125.539 186.623 126.077L193.662 143.075C193.856 143.506 193.952 143.975 193.943 144.447C193.927 145.096 193.669 145.716 193.22 146.185C192.771 146.654 192.163 146.938 191.515 146.981V146.981ZM179.374 142.125H188.981L190.002 144.659C190.098 144.987 190.297 145.277 190.569 145.486C190.841 145.695 191.172 145.811 191.515 145.82C191.712 145.825 191.908 145.79 192.091 145.718C192.275 145.645 192.442 145.537 192.583 145.4C192.724 145.262 192.836 145.097 192.912 144.916C192.989 144.734 193.028 144.539 193.028 144.342C193.022 144.026 192.95 143.714 192.817 143.427L185.779 126.394C185.691 126.072 185.498 125.789 185.23 125.591C184.961 125.393 184.634 125.291 184.3 125.303C183.964 125.295 183.634 125.398 183.361 125.595C183.088 125.792 182.887 126.072 182.787 126.394L175.749 143.427C175.63 143.719 175.559 144.028 175.538 144.342C175.539 144.714 175.679 145.073 175.928 145.349C176.178 145.625 176.521 145.8 176.891 145.839C177.262 145.878 177.634 145.78 177.936 145.562C178.238 145.344 178.449 145.022 178.529 144.659L179.374 142.125ZM187.996 139.767H180.289L184.16 129.209L187.996 139.767ZM181.978 138.641H186.342L184.16 132.693L181.978 138.641Z" fill="#1D6BD0"/>
<path d="M210.763 127.027C210.768 127.285 210.72 127.542 210.623 127.782C210.525 128.021 210.379 128.238 210.195 128.419C210.01 128.6 209.791 128.742 209.55 128.835C209.309 128.929 209.051 128.972 208.793 128.962H201.402V144.201C201.402 144.77 201.176 145.316 200.773 145.719C200.371 146.121 199.825 146.347 199.255 146.347C198.686 146.347 198.14 146.121 197.737 145.719C197.335 145.316 197.109 144.77 197.109 144.201V127.273C197.099 126.984 197.149 126.696 197.255 126.427C197.361 126.157 197.521 125.913 197.726 125.708C197.93 125.504 198.175 125.343 198.444 125.237C198.713 125.131 199.001 125.081 199.291 125.091H208.793C209.051 125.082 209.309 125.125 209.55 125.218C209.791 125.312 210.01 125.453 210.195 125.634C210.379 125.816 210.525 126.033 210.623 126.272C210.72 126.511 210.768 126.768 210.763 127.027V127.027Z" fill="#1D6BD0"/>
<path d="M199.185 146.981C198.826 146.977 198.472 146.901 198.143 146.758C197.813 146.615 197.516 146.409 197.267 146.15C197.018 145.892 196.823 145.586 196.693 145.251C196.563 144.917 196.501 144.56 196.511 144.201V127.273C196.501 126.91 196.565 126.549 196.7 126.212C196.834 125.874 197.036 125.568 197.293 125.311C197.55 125.054 197.856 124.852 198.194 124.718C198.531 124.583 198.893 124.519 199.256 124.528H208.793C209.125 124.519 209.456 124.577 209.765 124.698C210.075 124.82 210.356 125.003 210.593 125.237C210.83 125.47 211.017 125.749 211.143 126.057C211.269 126.365 211.332 126.695 211.327 127.027C211.331 127.361 211.269 127.693 211.143 128.002C211.018 128.312 210.831 128.593 210.595 128.829C210.359 129.066 210.078 129.252 209.768 129.378C209.459 129.503 209.127 129.566 208.793 129.561H201.754V144.201C201.769 144.552 201.713 144.903 201.592 145.233C201.47 145.563 201.285 145.865 201.046 146.124C200.808 146.382 200.52 146.591 200.201 146.738C199.882 146.885 199.537 146.968 199.185 146.981V146.981ZM199.185 125.866C198.972 125.85 198.758 125.881 198.557 125.954C198.356 126.028 198.173 126.144 198.02 126.293C197.867 126.443 197.747 126.623 197.669 126.823C197.591 127.022 197.556 127.236 197.566 127.449V144.377C197.533 144.602 197.548 144.832 197.611 145.051C197.674 145.27 197.784 145.473 197.932 145.646C198.081 145.818 198.265 145.957 198.472 146.052C198.679 146.147 198.905 146.196 199.133 146.196C199.36 146.196 199.586 146.147 199.793 146.052C200 145.957 200.184 145.818 200.333 145.646C200.481 145.473 200.591 145.27 200.654 145.051C200.717 144.832 200.732 144.602 200.699 144.377V128.4H208.793C208.976 128.404 209.158 128.372 209.329 128.305C209.5 128.238 209.655 128.138 209.786 128.01C209.917 127.882 210.022 127.729 210.093 127.561C210.164 127.392 210.201 127.21 210.201 127.027C210.201 126.845 210.164 126.665 210.092 126.498C210.021 126.331 209.916 126.181 209.784 126.056C209.653 125.93 209.497 125.833 209.326 125.771C209.156 125.708 208.974 125.68 208.793 125.69L199.185 125.866Z" fill="#1D6BD0"/>
<path d="M228.042 144.447C228.037 144.72 227.979 144.989 227.87 145.239C227.762 145.49 227.605 145.716 227.409 145.905C227.213 146.095 226.981 146.244 226.728 146.344C226.474 146.444 226.203 146.493 225.93 146.489C225.478 146.484 225.039 146.335 224.678 146.063C224.317 145.79 224.052 145.409 223.924 144.975L223.009 142.829H214.176L213.296 144.975C213.168 145.409 212.904 145.79 212.543 146.063C212.182 146.335 211.743 146.484 211.29 146.489C211.018 146.493 210.747 146.444 210.493 146.344C210.239 146.244 210.008 146.095 209.812 145.905C209.616 145.716 209.459 145.49 209.35 145.239C209.242 144.989 209.183 144.72 209.179 144.447C209.207 144.051 209.29 143.66 209.425 143.286L216.464 126.288C216.588 125.855 216.852 125.475 217.215 125.207C217.578 124.94 218.019 124.8 218.47 124.81C218.922 124.81 219.363 124.953 219.73 125.218C220.096 125.484 220.37 125.858 220.511 126.288L227.549 143.286C227.801 143.63 227.97 144.027 228.042 144.447V144.447ZM215.478 139.204H221.496L218.505 131.039L215.478 139.204Z" fill="#1D6BD0"/>
<path d="M226.037 146.982C225.466 146.968 224.912 146.778 224.453 146.438C223.993 146.098 223.649 145.624 223.468 145.082L222.518 143.287H214.565L213.826 145.082C213.633 145.67 213.242 146.173 212.719 146.505C212.197 146.837 211.576 146.978 210.961 146.903C210.347 146.828 209.777 146.543 209.35 146.095C208.923 145.647 208.664 145.065 208.617 144.448C208.623 143.988 208.718 143.534 208.899 143.111L215.937 126.042C216.127 125.514 216.476 125.058 216.936 124.736C217.396 124.415 217.945 124.244 218.506 124.248C219.074 124.235 219.631 124.407 220.094 124.737C220.557 125.066 220.901 125.537 221.075 126.078L228.114 143.076C228.291 143.512 228.387 143.977 228.395 144.448C228.373 145.084 228.123 145.69 227.69 146.155C227.256 146.621 226.67 146.915 226.037 146.982V146.982ZM213.896 142.125H223.504L224.559 144.659C224.649 144.985 224.841 145.274 225.107 145.483C225.373 145.692 225.699 145.81 226.037 145.821C226.402 145.812 226.75 145.666 227.011 145.411C227.272 145.157 227.427 144.812 227.445 144.448C227.439 144.132 227.367 143.82 227.234 143.533L220.195 126.5C220.096 126.178 219.895 125.898 219.622 125.701C219.349 125.504 219.019 125.402 218.682 125.409C218.349 125.397 218.021 125.499 217.753 125.697C217.485 125.895 217.291 126.178 217.204 126.5L210.166 143.533C210.047 143.825 209.976 144.134 209.955 144.448C209.959 144.647 210.003 144.843 210.083 145.025C210.163 145.206 210.279 145.371 210.422 145.508C210.566 145.645 210.736 145.753 210.921 145.825C211.107 145.896 211.304 145.931 211.503 145.926C211.841 145.916 212.167 145.798 212.433 145.589C212.699 145.38 212.891 145.091 212.981 144.765L213.896 142.125ZM222.518 139.768H214.741L218.612 129.21L222.518 139.768ZM216.5 138.641H220.759L218.612 132.694L216.5 138.641Z" fill="#1D6BD0"/>
<path d="M246.203 139.836C246.144 140.801 245.887 141.743 245.447 142.604C245.008 143.465 244.397 144.226 243.65 144.84C242.904 145.454 242.04 145.908 241.11 146.173C240.181 146.439 239.207 146.51 238.249 146.382C236.86 146.422 235.48 146.142 234.216 145.562C232.953 144.982 231.84 144.119 230.965 143.039C230.683 142.689 230.522 142.257 230.507 141.807C230.502 141.547 230.55 141.289 230.647 141.047C230.745 140.806 230.89 140.587 231.074 140.403C231.258 140.219 231.477 140.074 231.718 139.977C231.959 139.879 232.218 139.832 232.478 139.836C232.743 139.832 233.006 139.891 233.244 140.007C233.482 140.123 233.69 140.294 233.85 140.505C234.398 141.12 235.07 141.611 235.823 141.945C236.576 142.279 237.391 142.448 238.214 142.441C240.431 142.441 241.98 141.279 241.98 139.625C241.973 139.258 241.889 138.895 241.732 138.563C241.576 138.23 241.35 137.934 241.071 137.694C240.792 137.455 240.465 137.278 240.112 137.174C239.759 137.07 239.388 137.042 239.024 137.091H236.595C236.358 137.096 236.123 137.053 235.903 136.965C235.683 136.876 235.483 136.744 235.316 136.576C235.148 136.409 235.016 136.209 234.928 135.989C234.839 135.769 234.796 135.534 234.801 135.297C234.795 135.063 234.839 134.83 234.928 134.614C235.017 134.398 235.15 134.202 235.319 134.04C235.488 133.878 235.688 133.753 235.908 133.672C236.128 133.592 236.362 133.558 236.595 133.572H238.285C238.625 133.613 238.97 133.58 239.296 133.475C239.622 133.371 239.922 133.198 240.175 132.968C240.429 132.737 240.63 132.456 240.765 132.141C240.901 131.826 240.967 131.486 240.959 131.144C240.948 130.784 240.861 130.43 240.704 130.106C240.547 129.781 240.323 129.494 240.048 129.261C239.772 129.029 239.451 128.857 239.105 128.757C238.759 128.657 238.395 128.631 238.038 128.681C237.37 128.703 236.714 128.861 236.109 129.146C235.504 129.43 234.963 129.835 234.519 130.335C234.257 130.613 233.918 130.807 233.545 130.893C233.172 130.979 232.782 130.953 232.425 130.817C232.067 130.681 231.757 130.443 231.535 130.132C231.313 129.82 231.188 129.45 231.176 129.068C231.16 128.592 231.323 128.127 231.633 127.766C232.427 126.799 233.426 126.022 234.559 125.492C235.692 124.963 236.929 124.693 238.179 124.704C239.048 124.647 239.92 124.761 240.745 125.042C241.57 125.323 242.331 125.763 242.985 126.339C243.639 126.914 244.173 127.613 244.556 128.396C244.939 129.178 245.164 130.028 245.218 130.898C245.233 131.676 245.066 132.448 244.729 133.151C244.393 133.853 243.898 134.468 243.282 134.945C244.189 135.392 244.947 136.091 245.465 136.959C245.983 137.827 246.239 138.826 246.203 139.836V139.836Z" fill="#1D6BD0"/>
<path d="M238.249 146.981C236.775 147.028 235.31 146.735 233.967 146.125C232.625 145.514 231.441 144.603 230.507 143.462C230.137 143.015 229.926 142.458 229.908 141.878C229.904 141.539 229.967 141.203 230.094 140.889C230.222 140.576 230.411 140.29 230.65 140.051C230.89 139.811 231.175 139.622 231.489 139.495C231.803 139.368 232.139 139.304 232.478 139.309C232.829 139.31 233.175 139.39 233.492 139.542C233.809 139.694 234.087 139.915 234.308 140.189C234.798 140.738 235.401 141.176 236.074 141.473C236.748 141.77 237.478 141.92 238.214 141.913C240.114 141.913 241.381 141.033 241.381 139.696C241.381 138.359 240.466 137.725 239.023 137.725H236.595C236.282 137.73 235.972 137.673 235.682 137.556C235.392 137.44 235.128 137.267 234.905 137.047C234.682 136.828 234.505 136.566 234.385 136.278C234.264 135.99 234.202 135.68 234.202 135.367C234.202 135.056 234.264 134.749 234.385 134.462C234.506 134.176 234.684 133.916 234.907 133.7C235.13 133.483 235.395 133.313 235.685 133.201C235.975 133.088 236.284 133.035 236.595 133.045H238.284C239.586 133.045 240.396 132.341 240.396 131.215C240.396 130.089 239.446 129.314 238.038 129.314C237.425 129.324 236.821 129.46 236.264 129.714C235.707 129.969 235.209 130.336 234.8 130.792C234.464 131.17 234.021 131.436 233.529 131.557C233.038 131.677 232.522 131.646 232.049 131.466C231.577 131.287 231.169 130.969 230.881 130.553C230.593 130.137 230.438 129.644 230.436 129.138C230.419 128.531 230.632 127.94 231.035 127.484C231.886 126.445 232.961 125.611 234.18 125.044C235.399 124.477 236.729 124.193 238.073 124.211C239.032 124.115 240 124.215 240.918 124.508C241.835 124.8 242.683 125.278 243.409 125.911C244.135 126.545 244.723 127.32 245.137 128.19C245.551 129.06 245.782 130.006 245.815 130.968C245.841 132.429 245.299 133.842 244.302 134.91C245.14 135.443 245.827 136.182 246.295 137.058C246.764 137.933 246.998 138.915 246.977 139.907C246.905 140.959 246.617 141.985 246.131 142.92C245.646 143.856 244.972 144.681 244.153 145.345C243.334 146.008 242.387 146.496 241.372 146.778C240.356 147.059 239.293 147.128 238.249 146.981ZM232.478 140.4C232.291 140.395 232.106 140.428 231.933 140.497C231.76 140.566 231.603 140.67 231.471 140.802C231.34 140.933 231.236 141.09 231.167 141.263C231.098 141.436 231.065 141.622 231.07 141.808C231.104 142.128 231.226 142.432 231.422 142.688C232.243 143.699 233.286 144.507 234.47 145.051C235.654 145.594 236.947 145.857 238.249 145.82C239.13 145.932 240.025 145.865 240.88 145.622C241.735 145.379 242.531 144.966 243.222 144.407C243.912 143.847 244.483 143.154 244.898 142.369C245.314 141.584 245.566 140.722 245.639 139.837C245.655 138.922 245.404 138.022 244.916 137.247C244.429 136.472 243.726 135.856 242.894 135.473L242.05 135.086L242.789 134.488C243.324 134.072 243.756 133.538 244.049 132.927C244.342 132.317 244.489 131.646 244.478 130.968C244.43 130.163 244.22 129.375 243.859 128.653C243.499 127.931 242.996 127.289 242.381 126.767C241.767 126.244 241.052 125.851 240.282 125.611C239.511 125.372 238.7 125.291 237.897 125.373C236.736 125.356 235.586 125.6 234.532 126.087C233.478 126.574 232.548 127.292 231.809 128.188C231.581 128.452 231.456 128.79 231.457 129.138C231.457 129.312 231.492 129.485 231.559 129.645C231.627 129.805 231.726 129.95 231.851 130.072C231.975 130.193 232.123 130.288 232.285 130.352C232.447 130.415 232.62 130.445 232.794 130.441C232.985 130.447 233.174 130.413 233.35 130.34C233.526 130.267 233.685 130.157 233.815 130.018C234.328 129.441 234.957 128.977 235.659 128.655C236.362 128.334 237.124 128.163 237.897 128.153C238.333 128.104 238.774 128.146 239.193 128.277C239.611 128.407 239.998 128.623 240.329 128.911C240.66 129.199 240.927 129.552 241.115 129.949C241.302 130.345 241.404 130.776 241.416 131.215C241.418 131.632 241.333 132.046 241.165 132.428C240.997 132.811 240.751 133.154 240.443 133.436C240.135 133.718 239.771 133.932 239.375 134.065C238.979 134.197 238.559 134.245 238.143 134.206H236.595C236.423 134.176 236.247 134.184 236.078 134.23C235.91 134.275 235.754 134.357 235.62 134.47C235.487 134.582 235.379 134.722 235.306 134.88C235.232 135.038 235.194 135.211 235.194 135.385C235.194 135.56 235.232 135.732 235.306 135.89C235.379 136.048 235.487 136.188 235.62 136.301C235.754 136.413 235.91 136.495 236.078 136.54C236.247 136.586 236.423 136.594 236.595 136.564H239.164C239.606 136.515 240.053 136.559 240.476 136.693C240.899 136.828 241.29 137.05 241.622 137.346C241.954 137.641 242.22 138.003 242.403 138.408C242.585 138.813 242.681 139.252 242.683 139.696C242.683 141.667 240.924 143.215 238.355 143.215C237.415 143.226 236.484 143.026 235.632 142.63C234.779 142.234 234.026 141.653 233.428 140.928C233.327 140.767 233.187 140.634 233.021 140.542C232.854 140.449 232.668 140.401 232.478 140.4Z" fill="#1D6BD0"/>
<path d="M267.954 126.851V144.165C267.963 144.451 267.915 144.737 267.811 145.003C267.707 145.27 267.549 145.513 267.349 145.717C267.148 145.921 266.908 146.082 266.643 146.19C266.378 146.299 266.093 146.352 265.807 146.347C265.522 146.347 265.24 146.291 264.977 146.181C264.715 146.07 264.476 145.909 264.277 145.706C264.077 145.503 263.919 145.262 263.814 144.998C263.708 144.733 263.656 144.45 263.66 144.165V132.622L253.736 145.467C253.533 145.753 253.263 145.985 252.951 146.144C252.638 146.304 252.292 146.385 251.941 146.382C251.661 146.382 251.384 146.327 251.125 146.218C250.867 146.11 250.632 145.951 250.436 145.752C250.239 145.552 250.084 145.315 249.98 145.055C249.876 144.794 249.825 144.516 249.83 144.236V126.851C249.815 126.565 249.859 126.279 249.959 126.01C250.059 125.742 250.212 125.496 250.41 125.289C250.607 125.081 250.845 124.916 251.108 124.804C251.371 124.691 251.655 124.633 251.941 124.634C252.238 124.619 252.535 124.666 252.812 124.771C253.09 124.877 253.342 125.039 253.554 125.248C253.766 125.456 253.932 125.706 254.042 125.982C254.152 126.258 254.204 126.554 254.194 126.851V138.499L263.836 125.9C264.046 125.53 264.347 125.219 264.71 124.997C265.073 124.776 265.487 124.65 265.913 124.634C266.193 124.643 266.469 124.707 266.724 124.824C266.979 124.941 267.208 125.107 267.398 125.314C267.589 125.52 267.736 125.762 267.831 126.026C267.926 126.29 267.968 126.57 267.954 126.851V126.851Z" fill="#1D6BD0"/>
<path d="M265.806 146.982C265.444 146.982 265.086 146.909 264.753 146.769C264.419 146.628 264.117 146.422 263.865 146.163C263.612 145.904 263.414 145.597 263.282 145.26C263.15 144.923 263.087 144.563 263.096 144.201V134.312L254.193 145.82C253.936 146.178 253.598 146.47 253.207 146.672C252.815 146.874 252.381 146.98 251.94 146.982C251.585 146.977 251.233 146.902 250.906 146.762C250.579 146.621 250.283 146.418 250.035 146.163C249.786 145.908 249.591 145.607 249.459 145.276C249.327 144.946 249.261 144.592 249.266 144.237V126.851C249.266 126.133 249.551 125.444 250.06 124.935C250.568 124.427 251.257 124.142 251.976 124.142C252.694 124.142 253.384 124.427 253.892 124.935C254.4 125.444 254.685 126.133 254.685 126.851V136.811L263.308 125.549C263.575 125.113 263.946 124.749 264.388 124.491C264.831 124.233 265.33 124.089 265.841 124.071C266.199 124.071 266.552 124.143 266.882 124.281C267.211 124.42 267.509 124.624 267.758 124.879C268.007 125.135 268.203 125.438 268.333 125.771C268.463 126.104 268.526 126.459 268.516 126.816V144.131C268.535 144.498 268.479 144.866 268.352 145.211C268.224 145.556 268.028 145.872 267.774 146.139C267.52 146.405 267.215 146.618 266.877 146.763C266.539 146.908 266.174 146.982 265.806 146.982V146.982ZM264.258 130.899V144.201C264.248 144.411 264.281 144.619 264.355 144.816C264.428 145.012 264.541 145.191 264.686 145.342C264.83 145.493 265.004 145.614 265.197 145.696C265.39 145.778 265.597 145.82 265.806 145.82C266.017 145.82 266.226 145.778 266.421 145.696C266.615 145.615 266.791 145.495 266.939 145.344C267.086 145.193 267.202 145.014 267.28 144.818C267.357 144.622 267.395 144.412 267.39 144.201V126.851C267.4 126.644 267.367 126.437 267.293 126.242C267.219 126.048 267.106 125.871 266.96 125.723C266.815 125.574 266.641 125.457 266.448 125.379C266.256 125.301 266.049 125.263 265.841 125.268C265.067 125.268 264.751 125.655 264.223 126.324L253.665 140.225V126.851C253.699 126.626 253.684 126.396 253.62 126.177C253.557 125.958 253.448 125.756 253.299 125.583C253.15 125.41 252.966 125.272 252.759 125.177C252.552 125.082 252.327 125.032 252.099 125.032C251.871 125.032 251.646 125.082 251.439 125.177C251.232 125.272 251.047 125.41 250.899 125.583C250.75 125.756 250.64 125.958 250.577 126.177C250.514 126.396 250.499 126.626 250.533 126.851V144.166C250.533 144.58 250.695 144.978 250.984 145.274C251.274 145.57 251.667 145.741 252.081 145.75C252.345 145.75 252.604 145.686 252.837 145.564C253.07 145.441 253.27 145.263 253.419 145.046L264.258 130.899Z" fill="#1D6BD0"/>
<path d="M272.667 144.166V126.851C272.667 126.282 272.893 125.736 273.296 125.333C273.698 124.931 274.244 124.704 274.814 124.704C275.383 124.704 275.929 124.931 276.332 125.333C276.734 125.736 276.96 126.282 276.96 126.851V133.045H286.181V126.851C286.171 126.56 286.221 126.271 286.327 126C286.433 125.729 286.592 125.482 286.796 125.275C287 125.067 287.245 124.904 287.514 124.794C287.783 124.683 288.072 124.629 288.363 124.634C288.649 124.634 288.933 124.692 289.196 124.804C289.459 124.917 289.697 125.082 289.894 125.289C290.092 125.497 290.245 125.742 290.345 126.011C290.445 126.279 290.489 126.565 290.474 126.851V144.095C290.474 144.665 290.248 145.211 289.846 145.613C289.443 146.016 288.897 146.242 288.328 146.242C287.758 146.242 287.212 146.016 286.81 145.613C286.407 145.211 286.181 144.665 286.181 144.095V137.057H276.96V144.095C276.96 144.665 276.734 145.211 276.332 145.613C275.929 146.016 275.383 146.242 274.814 146.242C274.244 146.242 273.698 146.016 273.296 145.613C272.893 145.211 272.667 144.665 272.667 144.095V144.166Z" fill="#1D6BD0"/>
<path d="M288.363 146.981C287.996 146.986 287.63 146.916 287.291 146.775C286.951 146.635 286.643 146.426 286.386 146.163C286.129 145.899 285.929 145.586 285.797 145.243C285.665 144.9 285.604 144.533 285.618 144.165V137.408H277.524V144.024C277.524 144.743 277.239 145.432 276.73 145.941C276.222 146.449 275.533 146.734 274.814 146.734C274.096 146.734 273.406 146.449 272.898 145.941C272.39 145.432 272.104 144.743 272.104 144.024V126.851C272.104 126.132 272.39 125.443 272.898 124.934C273.406 124.426 274.096 124.141 274.814 124.141C275.533 124.141 276.222 124.426 276.73 124.934C277.239 125.443 277.524 126.132 277.524 126.851V132.481H285.618V126.851C285.604 126.484 285.665 126.119 285.797 125.778C285.929 125.436 286.13 125.125 286.388 124.865C286.645 124.604 286.953 124.399 287.293 124.262C287.633 124.126 287.997 124.06 288.363 124.07C288.725 124.065 289.084 124.134 289.418 124.273C289.752 124.412 290.054 124.619 290.304 124.88C290.555 125.14 290.75 125.45 290.876 125.789C291.002 126.128 291.057 126.489 291.038 126.851V144.095C291.067 144.463 291.02 144.834 290.898 145.183C290.777 145.533 290.585 145.853 290.333 146.124C290.082 146.395 289.777 146.611 289.438 146.759C289.099 146.906 288.733 146.982 288.363 146.981V146.981ZM276.363 136.423H286.921V144.165C286.911 144.379 286.945 144.593 287.02 144.793C287.096 144.993 287.211 145.176 287.359 145.331C287.507 145.485 287.685 145.608 287.881 145.692C288.078 145.776 288.29 145.819 288.504 145.819C288.714 145.815 288.92 145.768 289.111 145.682C289.302 145.595 289.474 145.471 289.615 145.316C289.757 145.162 289.865 144.98 289.934 144.782C290.004 144.584 290.032 144.374 290.017 144.165V126.851C290.017 126.647 289.977 126.446 289.9 126.258C289.822 126.07 289.708 125.899 289.564 125.756C289.42 125.612 289.249 125.498 289.062 125.42C288.874 125.342 288.672 125.302 288.469 125.302C288.266 125.302 288.064 125.342 287.876 125.42C287.689 125.498 287.518 125.612 287.374 125.756C287.23 125.899 287.116 126.07 287.038 126.258C286.961 126.446 286.921 126.647 286.921 126.851V133.607H276.363V126.851C276.378 126.64 276.348 126.429 276.277 126.231C276.205 126.032 276.093 125.851 275.947 125.698C275.801 125.546 275.625 125.426 275.43 125.345C275.235 125.265 275.025 125.226 274.814 125.232C274.602 125.227 274.391 125.265 274.194 125.345C273.997 125.425 273.819 125.545 273.671 125.697C273.522 125.849 273.406 126.029 273.331 126.228C273.255 126.426 273.221 126.638 273.231 126.851V144.095C273.221 144.309 273.255 144.522 273.33 144.722C273.406 144.923 273.521 145.106 273.669 145.26C273.817 145.415 273.995 145.538 274.192 145.622C274.388 145.706 274.6 145.749 274.814 145.749C275.027 145.749 275.237 145.706 275.432 145.622C275.627 145.537 275.803 145.414 275.948 145.259C276.094 145.103 276.205 144.92 276.277 144.72C276.348 144.52 276.377 144.307 276.363 144.095V136.423Z" fill="#1D6BD0"/>
<path d="M332.742 340.011H103.639C102.939 340.011 102.268 339.732 101.773 339.237C101.278 338.742 101 338.071 101 337.371V330.966C101.009 327.382 102.435 323.946 104.966 321.408C107.498 318.87 110.929 317.436 114.514 317.417H321.867C325.455 317.426 328.892 318.858 331.425 321.398C333.959 323.938 335.381 327.379 335.381 330.966V337.547C335.337 338.216 335.039 338.843 334.549 339.301C334.058 339.758 333.412 340.012 332.742 340.011V340.011ZM106.384 334.732H330.208V330.966C330.208 328.779 329.342 326.681 327.798 325.131C326.255 323.581 324.16 322.705 321.973 322.696H114.514C112.345 322.733 110.277 323.62 108.757 325.167C107.236 326.714 106.384 328.797 106.384 330.966V334.732Z" fill="#1D6BD0"/>
<path d="M190.951 158.946H185.672V172.425H190.951V158.946Z" fill="#1D6BD0"/>
<path d="M252.467 158.946H247.188V172.425H252.467V158.946Z" fill="#1D6BD0"/>
<defs>
<linearGradient id="paint0_linear_609_14623" x1="218.5" y1="2" x2="218.5" y2="423" gradientUnits="userSpaceOnUse">
<stop stop-color="white"/>
<stop offset="1" stop-color="#F2F2F2"/>
</linearGradient>
<linearGradient id="paint1_linear_609_14623" x1="218.5" y1="2" x2="218.5" y2="423" gradientUnits="userSpaceOnUse">
<stop stop-color="#4299FF"/>
<stop offset="1" stop-color="#1D6BD0"/>
</linearGradient>
</defs>
</svg>
