<svg width="159" height="146" viewBox="0 0 159 146" fill="none" xmlns="http://www.w3.org/2000/svg">
<path d="M151.389 44.214C133.509 29.0709 114.506 15.3051 94.5434 3.03502C91.3253 1.05079 87.6189 0 83.838 0C80.0571 0 76.3507 1.05079 73.1326 3.03502C53.1785 15.3148 34.1844 29.0896 16.3137 44.2408C13.4225 46.693 11.2723 49.9025 10.1046 53.5088C8.93688 57.1151 8.79785 60.9754 9.70312 64.6564C15.2163 87.4118 22.4636 109.712 31.3815 131.362C32.8157 134.868 35.1973 137.906 38.2602 140.137C41.323 142.367 44.9462 143.702 48.7243 143.991C72.0823 145.757 95.5402 145.757 118.898 143.991C122.678 143.697 126.303 142.362 129.37 140.132C132.436 137.903 134.824 134.867 136.268 131.362C145.174 109.708 152.421 87.4084 157.946 64.6564C158.839 60.9727 158.691 57.1135 157.519 53.5089C156.347 49.9042 154.197 46.6957 151.309 44.2408L151.389 44.214Z" fill="white"/>
<path fill-rule="evenodd" clip-rule="evenodd" d="M80.5309 40.2451C75.4837 41.2022 70.7438 44.455 67.9224 48.898L67.1038 50.1873L66.2933 49.2792C64.5709 47.3489 62.1786 45.7913 59.5618 44.896C58.2217 44.4376 57.8795 44.3961 55.3569 44.3862C52.2789 44.3741 51.1498 44.5955 48.9737 45.6375C41.045 49.4342 37.74 59.182 41.6361 67.2786C44.5974 73.4325 51.11 76.9343 57.5191 75.8187C60.8251 75.2432 63.1735 74.0204 65.6036 71.6096C66.4391 70.7807 67.1462 70.1341 67.1748 70.1725C67.2035 70.2111 67.607 70.8443 68.0712 71.5799C70.2487 75.0291 73.9164 77.8956 77.9688 79.3158L79.1273 79.7218V92.5413C79.1273 99.5921 79.0731 105.361 79.007 105.361C78.9408 105.361 77.2223 103.631 75.1883 101.518C71.7674 97.9632 71.4199 97.6531 70.5576 97.3862C68.7426 96.8245 67.0598 97.1841 65.7955 98.404C64.5922 99.5648 64.2856 100.321 64.2856 102.127C64.2856 103.351 64.3594 103.797 64.6565 104.373C64.8644 104.775 68.0337 108.218 71.8628 112.2C78.1005 118.688 78.7957 119.355 79.8138 119.835L80.9294 120.36L92.5143 120.415C105.509 120.476 105.336 120.49 107.246 119.198C108.451 118.382 109.174 117.5 109.9 115.959L110.449 114.792L110.501 107.546C110.562 99.0997 110.558 99.0744 109.092 97.5392C107.742 96.1264 105.829 95.6468 104.106 96.2892C103.732 96.4286 103.417 96.5261 103.405 96.5058C103.394 96.4855 103.291 96.0145 103.177 95.4591C102.676 93.0296 100.766 91.3626 98.4729 91.3534C97.9271 91.3512 97.2008 91.4718 96.8589 91.6212C96.5172 91.7707 96.2189 91.8718 96.196 91.8458C96.1734 91.8197 96.0725 91.2393 95.9719 90.5558C95.4651 87.1121 92.2601 85.1253 89.2963 86.4174L88.7385 86.6607V83.174V79.6871L89.4585 79.4841C90.8092 79.1035 93.168 77.9328 94.6152 76.9251C96.7708 75.4239 99.1731 72.8228 100.331 70.7366C100.509 70.4154 100.697 70.1527 100.749 70.1527C100.801 70.1527 101.306 70.6471 101.871 71.2514C105.149 74.7584 109.921 76.531 114.414 75.9107C117.965 75.4201 120.749 74.0026 123.253 71.4102C126.51 68.0381 128.064 63.9049 127.812 59.2849C127.442 52.5311 123.294 46.9857 117.057 44.9095C115.259 44.3109 112.056 44.104 110.139 44.4627C106.854 45.0771 103.78 46.8055 101.572 49.2792L100.762 50.1873L99.9444 48.898C97.0973 44.4099 92.3512 41.1813 87.2142 40.2385C85.4676 39.9178 82.24 39.921 80.5309 40.2451ZM88.3043 43.0199C94.0969 44.6847 98.6522 49.4567 100.282 55.5669C100.592 56.7325 100.652 57.4433 100.659 60.0933C100.666 62.86 100.619 63.4088 100.27 64.6707C99.7647 66.4978 98.7495 68.7672 97.8109 70.1677L97.0775 71.2618L96.8776 70.6572C95.8442 67.5332 93.1994 65.0835 90.146 64.4219C88.9329 64.1591 78.9329 64.1591 77.7198 64.4219C74.6664 65.0835 72.0216 67.5332 70.9882 70.6572L70.7883 71.2618L70.0549 70.1677C69.1163 68.7672 68.1011 66.4978 67.5958 64.6707C67.2467 63.4088 67.2002 62.86 67.2073 60.0933C67.2169 56.3673 67.4714 55.1381 68.8252 52.2793C71.2458 47.1673 75.6652 43.7557 81.3585 42.6042C81.5945 42.5564 82.946 42.5421 84.362 42.5721C86.3571 42.6145 87.2441 42.7152 88.3043 43.0199ZM59.2633 47.4651C60.0904 47.7683 61.2 48.2885 61.7291 48.621C62.8742 49.3405 64.8031 51.1627 65.4436 52.1302L65.9017 52.8217L65.5509 53.9876C64.3943 57.8323 64.4072 62.6376 65.5842 66.3393C65.8758 67.2562 65.9032 67.5222 65.7295 67.7414C65.5469 67.9715 65.4414 67.8705 65.0197 67.0614C63.9815 65.07 62.009 63.5552 59.9246 63.148C58.6846 62.9058 51.8179 62.9173 50.54 63.1638C48.3572 63.5848 46.4896 64.9804 45.4946 66.9343L44.9267 68.0494L44.6108 67.619C44.0696 66.8822 43.1224 64.7273 42.8028 63.5063C42.3255 61.6821 42.3667 58.2434 42.8869 56.5006C44.3034 51.7554 47.5724 48.4148 52.0294 47.1577C53.0591 46.8673 53.7166 46.8109 55.5285 46.857C57.4959 46.9072 57.9375 46.979 59.2633 47.4651ZM82.0043 47.0724C80.4976 47.6516 79.2904 48.8648 78.5623 50.5309C78.2429 51.2618 78.1902 51.7087 78.1871 53.7163C78.1837 55.8685 78.2189 56.1308 78.6356 57.0611C79.8142 59.6918 82.322 61.1082 84.9198 60.6105C86.8693 60.237 88.3557 59.013 89.2302 57.0611C89.6464 56.132 89.6823 55.8656 89.6811 53.7163C89.6799 51.5577 89.6448 51.3028 89.2171 50.3446C88.6039 48.9711 87.2966 47.6523 86.0738 47.1734C84.9573 46.7361 83.0047 46.6876 82.0043 47.0724ZM116.759 47.4651C118.869 48.239 120.004 48.9934 121.703 50.7529C122.939 52.0317 123.309 52.5577 123.978 53.9863C124.418 54.9245 124.898 56.1773 125.043 56.7701C125.614 59.0904 125.538 62.0134 124.849 64.1773C124.512 65.2351 123.674 67.0429 123.253 67.619L122.939 68.0494L122.371 66.9343C121.376 64.9804 119.509 63.5848 117.326 63.1638C116.048 62.9173 109.181 62.9058 107.941 63.148C105.857 63.5552 103.884 65.07 102.846 67.0614C102.424 67.8705 102.319 67.9715 102.136 67.7414C101.963 67.5222 101.99 67.2562 102.282 66.3393C103.458 62.6385 103.472 57.8321 102.316 53.9897C101.905 52.6242 101.914 52.5992 103.486 50.8655C105.135 49.0471 107.102 47.847 109.591 47.141C110.55 46.8689 111.243 46.8116 113.024 46.857C114.991 46.9072 115.433 46.979 116.759 47.4651ZM85.4745 49.673C86.2832 50.1048 86.9227 50.9493 87.176 51.92C87.4147 52.8345 87.4175 54.7704 87.1815 55.6601C86.8971 56.7322 85.9406 57.7115 84.8556 58.0417C84.0189 58.2962 83.8469 58.2962 83.0102 58.0417C81.9252 57.7115 80.9687 56.7322 80.6843 55.6601C80.4439 54.7537 80.4502 52.5791 80.6957 51.812C80.9821 50.9167 81.6333 50.0805 82.3546 49.6819C83.2074 49.2104 84.6009 49.2065 85.4745 49.673ZM53.897 49.6627C53.1098 49.9135 52.4457 50.3565 51.8145 51.052C50.6902 52.2909 50.5513 52.742 50.5513 55.1534C50.5513 57.2116 50.5746 57.3532 51.0662 58.286C51.5933 59.2864 52.5849 60.1784 53.609 60.5736C53.9095 60.6897 54.6616 60.7906 55.2803 60.7982C56.6652 60.8151 57.8968 60.2379 58.7797 59.1583C59.6275 58.1218 59.905 57.1076 59.905 55.0472C59.905 53.4244 59.8649 53.2178 59.3472 52.1763C58.4905 50.4524 56.9357 49.477 55.0994 49.5115C54.6747 49.5194 54.1335 49.5875 53.897 49.6627ZM111.284 49.6798C110.132 50.0523 109.108 50.9717 108.522 52.1602C107.991 53.238 107.961 53.4005 107.962 55.2139C107.964 57.4926 108.317 58.5025 109.498 59.6167C110.517 60.5785 111.263 60.874 112.681 60.8769C113.646 60.8787 114.055 60.7858 114.764 60.4035C115.833 59.8269 116.774 58.7198 117.134 57.6153C117.526 56.4083 117.488 53.8857 117.059 52.6843C116.687 51.6444 115.654 50.4628 114.656 49.9365C113.961 49.5702 112.069 49.4261 111.284 49.6798ZM56.4211 52.3619C57.31 52.929 57.5438 53.6105 57.4756 55.4352C57.4207 56.9016 57.3797 57.0566 56.9098 57.5698C55.7352 58.8524 53.8853 58.577 53.1082 57.004C52.7931 56.3664 52.7976 54.1514 53.1154 53.3553C53.6054 52.1275 55.2702 51.6272 56.4211 52.3619ZM113.935 52.3737C114.673 52.8447 114.998 53.6928 114.998 55.1534C114.998 55.8019 114.886 56.6111 114.75 56.9515C114.083 58.6237 111.625 58.7536 110.7 57.1655C110.269 56.4255 110.226 54.0661 110.629 53.2504C111.206 52.0826 112.812 51.6568 113.935 52.3737ZM59.7324 65.6784C61.3031 66.0311 62.9727 67.7555 63.3178 69.3823C63.5003 70.2413 63.4996 70.2435 62.8613 70.8253C62.5096 71.1458 61.6041 71.7247 60.849 72.1118C56.4831 74.3502 51.6054 73.8848 47.5049 70.8382C46.9234 70.4062 46.8879 69.6976 47.3898 68.536C47.9918 67.1423 49.2916 66.0172 50.7229 65.6508C51.5505 65.439 58.7642 65.4611 59.7324 65.6784ZM118.173 66.0501C119.243 66.6463 120.024 67.4886 120.476 68.536C120.978 69.6976 120.942 70.4062 120.361 70.8382C117.569 72.9126 114.274 73.8406 111.216 73.4143C108.721 73.0668 106.384 72.0653 104.862 70.6916C104.381 70.2578 104.371 70.2133 104.547 69.3823C104.875 67.8418 106.423 66.1624 107.912 65.7309C108.512 65.557 109.888 65.5037 113.024 65.5326C117.307 65.5721 117.316 65.573 118.173 66.0501ZM90.8404 67.2468C92.8522 68.0963 94.6111 70.4393 94.8549 72.5947C94.9574 73.5004 94.9531 73.5108 94.2082 74.146C92.898 75.2633 89.7408 76.9788 88.9949 76.9788C88.8545 76.9788 88.7563 76.5418 88.7024 75.6765C88.6087 74.1749 88.2251 73.2615 87.2707 72.2665C86.2969 71.2512 85.2618 70.7966 83.9344 70.8012C81.9739 70.8082 80.5372 71.7477 79.6522 73.6017C79.2324 74.4808 79.1273 74.929 79.1273 75.8399C79.1273 76.4663 79.0518 76.9788 78.9596 76.9788C78.6126 76.9788 76.4678 76.056 75.582 75.5256C75.0755 75.2223 74.2663 74.6475 73.7835 74.248L72.9058 73.5219L73.0066 72.6319C73.1435 71.4217 73.8005 69.9875 74.6705 68.9997C75.5535 67.9971 76.2829 67.5114 77.5545 67.0798C78.429 66.783 79.0961 66.7539 84.1903 66.7902C89.6692 66.829 89.8863 66.8439 90.8404 67.2468ZM84.9565 73.6107C86.3654 74.3668 86.3357 74.1598 86.3357 83.23C86.3357 92.3051 86.3259 92.2383 87.656 92.2449C88.2528 92.2478 88.7356 91.7322 88.7423 91.0848C88.7443 90.8846 88.8965 90.3737 89.0804 89.9496C89.6802 88.5664 91.4644 88.1112 92.6051 89.0503C93.4905 89.7795 93.6088 90.2916 93.7086 93.8343C93.7929 96.8236 93.8322 97.1511 94.1346 97.3821C94.933 97.9921 95.8552 97.4848 96.0376 96.3353C96.2074 95.2665 96.559 94.6251 97.1996 94.2164C98.3735 93.4671 99.9876 93.9804 100.623 95.305C100.87 95.8193 100.924 96.4216 100.924 98.7029C100.924 101.302 100.947 101.502 101.297 101.891C102.078 102.761 103.089 102.209 103.345 100.775C103.782 98.3275 106.569 97.7386 107.79 99.8355C108.114 100.392 108.131 100.752 108.132 107.08C108.133 114.829 108.119 114.919 106.681 116.424C105.16 118.016 105.762 117.953 92.6703 117.895L81.2727 117.845L80.5003 117.421C79.9968 117.145 77.4769 114.644 73.2604 110.236C66.2867 102.945 66.3893 103.081 66.6718 101.506C66.8158 100.702 67.6477 99.8384 68.4238 99.686C69.8081 99.4141 70.1176 99.6539 75.1926 104.931C78.5378 108.409 80.0368 109.852 80.3062 109.852C80.516 109.852 80.8771 109.653 81.1088 109.411L81.5301 108.97V92.0128V75.056L81.9197 74.4456C82.3289 73.8045 83.2613 73.2072 83.8536 73.2069C84.046 73.2067 84.5423 73.3883 84.9565 73.6107Z" fill="#1D6BD0"/>
<path d="M49 25.5C49 39.031 38.031 50 24.5 50C10.969 50 0 39.031 0 25.5C0 11.969 10.969 1 24.5 1C38.031 1 49 11.969 49 25.5Z" fill="#FF8535"/>
<path d="M19.4688 17.2002V20.3202H22.8287V34.0002H26.7168V17.2002H19.4688Z" fill="white"/>
</svg>
