<svg width="160" height="150" viewBox="0 0 160 150" fill="none" xmlns="http://www.w3.org/2000/svg">
<path d="M152.081 48.2145C134.201 33.0714 115.198 19.3056 95.2353 7.03551C92.0172 5.05128 88.3108 4.00049 84.5299 4.00049C80.749 4.00049 77.0426 5.05128 73.8245 7.03551C53.8704 19.3153 34.8763 33.0901 17.0056 48.2413C14.1144 50.6935 11.9642 53.903 10.7965 57.5093C9.62878 61.1156 9.48974 64.9759 10.395 68.6568C15.9082 91.4123 23.1555 113.712 32.0734 135.362C33.5075 138.868 35.8892 141.907 38.9521 144.137C42.0149 146.368 45.6381 147.702 49.4162 147.991C72.7742 149.757 96.2321 149.757 119.59 147.991C123.37 147.698 126.995 146.362 130.061 144.133C133.128 141.903 135.516 138.867 136.96 135.362C145.866 113.708 153.113 91.4088 158.638 68.6568C159.531 64.9732 159.383 61.114 158.211 57.5094C157.039 53.9047 154.889 50.6962 152.001 48.2413L152.081 48.2145Z" fill="white"/>
<path fill-rule="evenodd" clip-rule="evenodd" d="M70.3523 44.2188C69.3203 44.5092 68.4517 45.2571 67.8886 46.3401C67.5159 47.057 67.4141 47.5177 67.3291 48.8704C67.2721 49.78 67.1812 50.4982 67.1272 50.4666C65.6923 49.6236 63.893 49.4833 62.7334 50.1238C61.8551 50.6089 60.8095 51.8587 60.5639 52.7168C60.0147 54.6353 60.5065 56.4437 61.9949 57.9781L62.8079 58.8161L62.1254 59.3609C61.7501 59.6607 61.281 60.1571 61.0832 60.4645L60.7235 61.0232L59.9583 59.5538C59.5375 58.7456 59.1276 58.0845 59.0475 58.0845C58.9676 58.0845 58.4144 58.3651 57.8181 58.7081C56.998 59.1799 56.7589 59.3998 56.8362 59.6115C56.8924 59.7653 57.6735 61.3087 58.5722 63.0412C59.4709 64.7736 60.2061 66.2592 60.2061 66.3421C60.2061 66.4251 60.056 66.543 59.8725 66.6039C59.6072 66.6921 59.1115 66.3005 57.4475 64.6878C56.2971 63.5729 55.0971 62.411 54.7806 62.1056L54.2052 61.5505L53.2643 62.637L52.3235 63.7235L55.0098 66.317L57.6962 68.9107L57.2413 69.8546C56.5903 71.2056 56.3369 72.9682 56.5732 74.5038C56.8221 76.1222 57.4713 77.4498 58.9681 79.4015L60.2061 81.0157V93.2968V105.578H61.6846H63.163L63.2054 94.5739L63.2477 83.5697L64.3844 84.3353C65.0095 84.7562 65.6869 85.1007 65.8894 85.1007C66.0921 85.1007 67.0547 84.5511 68.0287 83.8791C69.0025 83.2073 69.8908 82.6211 70.0026 82.5761C70.1142 82.5312 71.0441 83.0809 72.0689 83.7976C73.0937 84.5143 74.0656 85.1007 74.2291 85.1007C74.6363 85.1007 75.328 84.7092 77.0107 83.5264C77.7984 82.9726 78.4841 82.5195 78.5346 82.5195C78.5851 82.5195 79.4568 83.1003 80.4717 83.8101C81.5461 84.5616 82.4896 85.1007 82.7302 85.1007C82.9707 85.1007 83.9143 84.5616 84.9887 83.8101C86.0036 83.1003 86.8922 82.5195 86.9634 82.5195C87.0346 82.5195 87.3876 82.7324 87.7476 82.9926C89.4443 84.2185 90.8857 85.1007 91.1917 85.1007C91.3768 85.1007 92.3667 84.5143 93.3915 83.7976C94.4162 83.0809 95.3588 82.5364 95.486 82.5875C95.6133 82.6386 96.2726 83.0724 96.9511 83.5517L98.1847 84.4229V106.788V129.153H82.7302H67.2757V130.615V132.078H87.2991C108.823 132.078 108.202 132.102 109.87 131.211C111.508 130.336 112.957 128.351 113.381 126.4C113.608 125.355 113.639 122.555 113.639 102.931C113.639 88.7032 113.581 80.4878 113.477 80.2029C113.338 79.8203 113.912 78.0896 117.496 68.0824C120.017 61.0461 121.755 55.9445 121.872 55.241C122.683 50.3656 119.537 45.3734 114.937 44.2385C111.97 43.5065 108.727 44.4884 106.535 46.7831C105.253 48.1244 104.769 49.0736 103.357 53.0082C102.747 54.7117 102.218 56.1402 102.184 56.1825C102.149 56.2246 101.531 55.6458 100.81 54.8959L99.4999 53.5325V50.6651C99.4999 48.0988 99.4669 47.7553 99.1857 47.3917L98.8716 46.9854L90.634 46.9378C84.8425 46.9042 82.2953 46.9467 82.0561 47.0806C81.5509 47.3637 81.2505 48.2939 81.2505 49.5754C81.2505 50.2016 81.1949 50.6841 81.1272 50.6476C79.1513 49.5878 77.911 49.4668 76.5025 50.1964L75.6606 50.6325L75.6589 49.0671C75.6576 47.7901 75.5868 47.3432 75.2737 46.6413C74.7688 45.5088 73.7633 44.5782 72.6812 44.2418C71.6669 43.9266 71.3997 43.924 70.3523 44.2188ZM72.2223 47.12C72.7966 47.5815 72.8656 48.0465 72.8656 51.456C72.8656 54.8095 72.8681 54.8332 73.2692 55.2529C73.5512 55.5482 73.8547 55.6754 74.2767 55.6754C74.8119 55.6754 75.0427 55.5105 76.2983 54.2328C77.0778 53.4394 77.8877 52.7354 78.0978 52.6685C78.6433 52.4947 79.4149 52.8844 79.711 53.4834C80.0056 54.08 79.9005 55.0044 79.4981 55.3539C79.3529 55.4801 78.1341 56.7996 76.7896 58.2863L74.3453 60.9891V67.7644V74.5396L73.8552 75.0309L73.3653 75.5223L73.1114 74.8867C72.972 74.5372 72.2708 72.9804 71.5535 71.4274C70.4768 69.0961 70.0925 68.4396 69.3512 67.6635C68.3005 66.5638 66.7971 65.7338 65.3432 65.4508C64.412 65.2696 64.2606 65.1777 63.7402 64.4787C63.0632 63.5691 62.9748 62.6865 63.4917 61.9987C63.9267 61.42 64.5097 61.2901 65.2393 61.6091C66.1092 61.9896 66.7323 61.9383 67.2009 61.4477C67.7374 60.8864 67.7237 60.1583 67.1631 59.4313C66.9204 59.1164 65.9216 57.9996 64.9436 56.9494C63.2801 55.1629 63.1655 54.9953 63.1655 54.3483C63.1655 53.057 64.2481 52.2593 65.2497 52.8125C65.505 52.9536 66.2669 53.6553 66.9428 54.3722C68.0211 55.5157 68.2442 55.6754 68.7638 55.6754C69.1873 55.6754 69.4691 55.5492 69.7543 55.2318C70.146 54.7957 70.1539 54.7252 70.2058 51.1905L70.2587 47.5932L70.6801 47.2463C71.1513 46.8584 71.8277 46.803 72.2223 47.12ZM115.364 47.479C117.861 48.6754 119.5 51.7181 119.155 54.5187C119.091 55.0395 117.163 60.6608 114.569 67.8905L110.094 80.3637L109.066 81.114L108.039 81.8643L106.135 80.5572C104.918 79.7221 104.066 79.2501 103.775 79.2501C103.483 79.2501 102.633 79.7205 101.423 80.5513L99.5274 81.8526L98.1268 80.877L96.7262 79.9015L97.1918 78.5863C101.417 66.6484 107.18 50.7751 107.495 50.2083C108.289 48.7783 109.77 47.5856 111.326 47.1236C112.442 46.7922 114.266 46.9527 115.364 47.479ZM96.705 51.2874V52.75H90.4574H84.2099V51.2874V49.8247H90.4574H96.705V51.2874ZM92.6769 57.9124L90.5444 60.1494H84.7901H79.0357L81.1683 57.9124L83.3008 55.6754H89.0552H94.8095L92.6769 57.9124ZM99.6487 57.8098C100.792 59.0125 101.007 59.3239 100.926 59.6597C100.872 59.8816 99.2084 64.582 97.2291 70.1048C93.8926 79.4142 93.5925 80.1714 93.1125 80.4894L92.5947 80.8325V71.4823V62.1319L95.3468 59.2479C96.8603 57.6615 98.1383 56.3637 98.1865 56.3637C98.2346 56.3637 98.8926 57.0145 99.6487 57.8098ZM109.323 57.1676C108.623 57.3937 108.049 57.6608 108.049 57.7615C108.049 58.0667 110.55 66.0744 110.699 66.2465C110.876 66.4505 113.315 65.6664 113.298 65.4105C113.292 65.3088 112.682 63.3201 111.942 60.9912L110.598 56.7567L109.323 57.1676ZM89.785 71.7216C89.7702 80.3027 89.7679 80.36 89.4803 79.2501C89.1048 77.801 88.7798 77.0149 88.1823 76.1115C86.0846 72.9389 82.3034 71.3016 78.8666 72.0775C78.2336 72.2203 77.5863 72.391 77.428 72.4566C77.1582 72.5684 77.1403 72.2804 77.1403 67.8253V63.0747H83.47H89.7998L89.785 71.7216ZM105.131 67.4906C104.475 67.7277 103.94 68.012 103.941 68.1223C103.944 68.39 106.496 76.4768 106.618 76.6045C106.719 76.711 108.864 76.0227 109.085 75.8125C109.219 75.6851 106.578 67.0212 106.413 67.0461C106.363 67.0535 105.787 67.2536 105.131 67.4906ZM66.0048 68.718C67.3878 69.3583 67.875 70.0969 69.9039 74.6294C71.1768 77.4725 71.7667 78.9802 71.7416 79.3256C71.6916 80.012 71.645 80.0323 71.0823 79.613C70.2691 79.0069 69.8224 79.1346 67.7943 80.5532L65.931 81.8563L64.3885 80.7917C63.54 80.2063 62.7668 79.6274 62.6701 79.5054C62.535 79.3351 62.8962 78.9579 64.2274 77.8789C65.1805 77.1063 65.9604 76.402 65.9604 76.3137C65.9604 76.1561 64.483 74.0877 64.3706 74.0877C64.339 74.0877 63.5185 74.7409 62.5473 75.5392L60.7815 76.9907L60.3967 76.5286C58.9188 74.7543 58.9398 71.8602 60.444 69.9974C60.9591 69.3597 62.117 68.6001 62.8912 68.3921C63.6885 68.1779 65.1739 68.3334 66.0048 68.718ZM82.9387 75.2921C84.0711 75.7355 85.3788 76.9304 86.0279 78.1149C86.2923 78.5972 86.5091 79.0367 86.5101 79.0914C86.5109 79.1461 85.6683 79.7912 84.6377 80.525L82.7636 81.8591L80.8983 80.5546C79.6056 79.6505 78.881 79.2501 78.5377 79.2501C78.1941 79.2501 77.4683 79.6515 76.1699 80.5596L74.2973 81.8693L74.3831 80.7507C74.5922 78.0247 76.7192 75.5225 79.3157 74.9481C80.3224 74.7254 81.8656 74.8719 82.9387 75.2921ZM105.817 83.8791C106.79 84.5511 107.753 85.1007 107.956 85.1007C108.158 85.1007 108.836 84.754 109.461 84.33C110.086 83.9061 110.654 83.5577 110.724 83.5556C110.794 83.5537 110.831 93.0571 110.806 104.675L110.762 125.797L110.378 126.614C110.166 127.063 109.695 127.698 109.331 128.024C108.229 129.011 107.57 129.153 104.074 129.153H100.98V106.785V84.4184L102.336 83.4675C103.082 82.9444 103.772 82.5483 103.869 82.5872C103.966 82.6259 104.843 83.2073 105.817 83.8791ZM51.9327 102.765C51.8714 102.83 51.8212 103.486 51.8212 104.223V105.565L52.4715 105.748C53.2319 105.962 54.0348 106.621 54.3755 107.311C54.5078 107.579 54.6162 108.229 54.6162 108.756V109.715L53.9987 109.385C50.8925 107.727 46.739 108.871 44.7927 111.921C43.717 113.607 43.5154 114.427 43.5383 117.021C43.5699 120.606 44.3013 123.71 45.9791 127.378C47.0134 129.639 47.8747 130.65 49.4097 131.401C51.231 132.293 53.0612 132.252 55.1497 131.271L56.1126 130.819L57.0496 131.274C59.7463 132.586 62.3004 132.228 64.3129 130.258C66.2994 128.313 68.1694 123.107 68.5869 118.359C68.9137 114.64 68.289 112.595 66.2133 110.593C64.171 108.622 60.939 108.077 58.4295 109.28C57.9379 109.515 57.517 109.708 57.4942 109.708C57.4712 109.708 57.4189 109.069 57.3779 108.288C57.2747 106.319 56.5779 104.949 55.1037 103.813C54.2162 103.13 52.2161 102.469 51.9327 102.765ZM52.6433 111.957C53.0502 112.149 53.79 112.724 54.2874 113.235C55.8167 114.805 56.2537 114.812 57.8116 113.292C59.0926 112.042 60.0106 111.605 61.357 111.605C63.2215 111.604 64.7103 112.625 65.492 114.44C65.8026 115.161 65.8575 115.564 65.8319 116.93C65.7719 120.107 65.0198 123.219 63.5949 126.189C62.7699 127.908 62.0378 128.696 60.9908 128.991C59.9978 129.271 59.1585 129.099 57.5336 128.283L56.114 127.57L54.5841 128.318C52.31 129.431 50.8963 129.342 49.6213 128.008C47.6355 125.929 45.6633 117.862 46.4496 115.033C46.8636 113.545 47.9571 112.296 49.2729 111.81C50.124 111.496 51.8219 111.57 52.6433 111.957Z" fill="#1D6BD0"/>
<path d="M49 24.5C49 38.031 38.031 49 24.5 49C10.969 49 0 38.031 0 24.5C0 10.969 10.969 0 24.5 0C38.031 0 49 10.969 49 24.5Z" fill="#FF8535"/>
<path d="M23.6858 29.8321L27.5498 26.1841C29.9018 24.0001 30.3578 22.5121 30.3578 20.8801C30.3578 17.8321 27.8618 15.9121 24.1178 15.9121C21.0938 15.9121 18.7418 17.1361 17.4458 19.0321L20.2778 20.8561C21.0938 19.7281 22.3178 19.1761 23.7578 19.1761C25.5338 19.1761 26.4458 19.9441 26.4458 21.2641C26.4458 22.0801 26.1818 22.9441 24.6938 24.3601L18.2138 30.4801V33.0001H30.9098V29.8321H23.6858Z" fill="white"/>
</svg>
