<svg width="160" height="150" viewBox="0 0 160 150" fill="none" xmlns="http://www.w3.org/2000/svg">
<path d="M152.604 48.214C134.724 33.0709 115.721 19.3051 95.7583 7.03502C92.5402 5.05079 88.8337 4 85.0529 4C81.272 4 77.5655 5.05079 74.3475 7.03502C54.3933 19.3148 35.3993 33.0896 17.5285 48.2408C14.6374 50.693 12.4872 53.9025 11.3195 57.5088C10.1517 61.1151 10.0127 64.9754 10.918 68.6564C16.4312 91.4118 23.6785 113.712 32.5964 135.362C34.0305 138.868 36.4122 141.906 39.475 144.137C42.5378 146.367 46.161 147.702 49.9391 147.991C73.2971 149.757 96.7551 149.757 120.113 147.991C123.893 147.697 127.518 146.362 130.584 144.132C133.651 141.903 136.039 138.867 137.483 135.362C146.389 113.708 153.636 91.4084 159.161 68.6564C160.054 64.9727 159.906 61.1135 158.734 57.5089C157.562 53.9042 155.412 50.6957 152.524 48.2408L152.604 48.214Z" fill="white"/>
<path fill-rule="evenodd" clip-rule="evenodd" d="M77.082 32.2326C76.1223 32.7178 76.0794 33.1217 76.0794 41.6637C76.0794 47.051 76.1467 49.7441 76.2892 50.072C76.4997 50.5551 77.1728 50.9936 77.7041 50.9936C77.8599 50.9936 78.1961 50.775 78.4513 50.5078L78.9155 50.0222V42.4931V34.9641H84.7769H90.6382V48.9994V63.0349L91.1277 63.6437L91.6172 64.2526H95.3819C97.4525 64.2526 99.1466 64.3199 99.1466 64.402C99.1466 64.4841 95.9134 67.9344 91.9617 72.0694L84.7769 79.5874L77.592 72.0694C73.6403 67.9344 70.4071 64.4841 70.4071 64.402C70.4071 64.3199 72.1012 64.2526 74.1718 64.2526H77.9365L78.426 63.6437C78.9134 63.0373 78.9155 63.0199 78.9155 59.4235C78.9155 55.9044 78.9044 55.8011 78.478 55.3817C77.8973 54.811 77.1206 54.8334 76.5436 55.4374C76.0964 55.9052 76.0794 56.0213 76.0794 58.6037V61.2842H71.9479C69.4895 61.2842 67.5804 61.3702 67.2335 61.4969C66.4842 61.7702 66.0584 62.4606 66.0584 63.4022C66.0584 64.1236 66.3633 64.4681 74.9945 73.5018L83.9306 82.8547H84.7769H85.6232L94.5593 73.5018C103.19 64.4681 103.495 64.1236 103.495 63.4022C103.495 62.4606 103.07 61.7702 102.32 61.4969C101.973 61.3702 100.064 61.2842 97.6058 61.2842H93.4743V47.5109C93.4743 32.5055 93.49 32.7331 92.4165 32.2211C91.7834 31.9191 77.6807 31.9298 77.082 32.2326ZM40.8873 80.2195C40.1762 80.6814 39.7769 81.4979 39.7769 82.49C39.7769 83.273 40.0582 83.7921 42.894 88.2418L46.0109 93.1332L46.061 112.648L46.1109 132.163L46.7284 132.74L47.3459 133.318H84.7769H122.208L122.825 132.741L123.443 132.163L123.495 121.395C123.546 110.718 123.543 110.621 123.15 110.098C122.654 109.439 121.645 109.374 121.079 109.966C120.711 110.352 120.701 110.626 120.701 120.356V130.349H103.495H86.2895V112.341V94.3326H103.495H120.701V99.4779C120.701 104.359 120.721 104.644 121.079 105.019C121.642 105.608 122.654 105.547 123.145 104.893C123.521 104.394 123.537 104.138 123.537 98.7567V93.1417L126.657 88.2461C129.496 83.7923 129.777 83.273 129.777 82.49C129.777 81.4809 129.367 80.6626 128.635 80.21C128.16 79.9163 126.428 79.8863 110.018 79.8863C93.4615 79.8863 91.8802 79.9144 91.3913 80.2166C91.064 80.419 89.6983 82.3706 87.8643 85.2567C86.2182 87.8472 84.8289 89.9666 84.7769 89.9666C84.7249 89.9666 83.3355 87.8472 81.6894 85.2567C79.8554 82.3706 78.4897 80.419 78.1624 80.2166C77.6733 79.9142 76.0958 79.8867 59.5061 79.8916C43.0876 79.8964 41.3373 79.927 40.8873 80.2195ZM79.4256 87.06L82.0572 91.2652L69.4727 91.3677C62.5512 91.4239 56.8629 91.4908 56.8319 91.5162C56.8008 91.5413 56.663 91.8419 56.5256 92.1839C56.2143 92.9586 56.3268 93.4393 56.937 93.9416C57.3995 94.3223 57.7508 94.3326 70.3381 94.3326H83.2643V112.341V130.349H66.0584H48.8525V112.341V94.3326H50.1505C51.7705 94.3326 52.4449 93.8921 52.4449 92.8339C52.4449 91.6525 51.9633 91.3642 49.9892 91.3642H48.2896L45.6405 87.2117C44.1833 84.928 42.9911 83.0134 42.9911 82.957C42.9911 82.9008 50.5967 82.8547 59.8926 82.8547H76.7939L79.4256 87.06ZM126.563 82.957C126.563 83.0134 125.37 84.928 123.913 87.2117L121.264 91.3642H104.348H87.4307L89.5661 87.9505C90.7407 86.0729 91.9417 84.1582 92.2349 83.6957L92.7683 82.8547H109.665C118.959 82.8547 126.563 82.9008 126.563 82.957ZM67.1783 118.658L66.6256 119.237V122.704C66.6256 126.084 66.6371 126.186 67.0816 126.727L67.5379 127.282L73.4225 127.34L79.3073 127.397L79.8514 126.828C80.548 126.099 80.6843 125.166 80.5845 121.811L80.5073 119.221L79.8976 118.65L79.2876 118.08H73.5093H67.7309L67.1783 118.658ZM101.888 119.456C101.68 119.546 101.297 119.859 101.037 120.152C100.602 120.641 100.56 120.859 100.5 122.887C100.381 126.914 100.775 127.379 104.308 127.38C107.863 127.381 108.222 127.009 108.222 123.324C108.222 119.699 107.797 119.259 104.318 119.28C103.189 119.287 102.096 119.366 101.888 119.456ZM111.307 119.549C110.335 120.005 110.113 120.706 110.113 123.324C110.113 125.896 110.319 126.582 111.241 127.081C112.006 127.495 115.956 127.504 116.715 127.093C117.658 126.582 117.904 125.684 117.833 123.016L117.771 120.659L117.153 120.013L116.535 119.366L114.222 119.316C112.54 119.28 111.745 119.344 111.307 119.549ZM77.592 122.73V124.413H73.5269H69.4617V122.73V121.048H73.5269H77.592V122.73ZM105.386 123.324V124.413H104.346H103.306V123.324V122.236H104.346H105.386V123.324ZM115.029 123.324V124.413H113.989H112.949V123.324V122.236H113.989H115.029V123.324Z" fill="#1D6BD0"/>
<path d="M49 24.5C49 38.031 38.031 49 24.5 49C10.969 49 0 38.031 0 24.5C0 10.969 10.969 0 24.5 0C38.031 0 49 10.969 49 24.5Z" fill="#FF8535"/>
<path d="M25.1825 23.0402L28.9745 18.7202V16.2002H17.2145V19.3202H24.3665L20.9105 23.2322V25.8002H22.6865C24.8945 25.8002 25.8305 26.5922 25.8305 27.8642C25.8305 29.2322 24.6305 30.0242 22.6865 30.0242C20.9345 30.0242 19.1585 29.4722 17.8865 28.5122L16.3745 31.4882C18.0065 32.6402 20.4305 33.2882 22.7825 33.2882C27.5585 33.2882 29.7425 30.6962 29.7425 27.8642C29.7425 25.3922 28.2065 23.5202 25.1825 23.0402Z" fill="white"/>
</svg>
