<svg width="175" height="57" viewBox="0 0 175 57" fill="none" xmlns="http://www.w3.org/2000/svg">
<path d="M114.027 0C101.611 0 90.5142 6.43592 90.5142 18.3268C90.5142 31.9633 110.194 32.9052 110.194 39.7558C110.194 42.6403 106.888 45.2224 101.242 45.2224C93.2297 45.2224 87.2411 41.6145 87.2411 41.6145L84.6786 53.6136C84.6786 53.6136 91.5774 56.6613 100.737 56.6613C114.312 56.6613 124.995 49.9093 124.995 37.8152C124.995 23.4057 105.233 22.4918 105.233 16.1333C105.233 13.8737 107.947 11.3979 113.576 11.3979C119.928 11.3979 125.111 14.0218 125.111 14.0218L127.619 2.43264C127.619 2.43264 121.98 0 114.027 0V0ZM0.424686 0.874657L0.124023 2.62397C0.124023 2.62397 5.34784 3.58001 10.0527 5.4871C16.1107 7.67396 16.5422 8.94704 17.5625 12.9012L28.6801 55.7593H43.5835L66.5432 0.874657H51.674L36.921 38.191L30.901 6.55992C30.3489 2.93976 27.5523 0.874657 24.1292 0.874657H0.424686V0.874657ZM72.5222 0.874657L60.8579 55.7593H75.0369L86.6602 0.874657H72.5222V0.874657ZM151.603 0.874657C148.184 0.874657 146.373 2.70516 145.043 5.90392L124.27 55.7593H139.14L142.016 47.4501H160.131L161.881 55.7593H175L163.555 0.874657H151.603V0.874657ZM153.537 15.7028L157.945 36.2982H146.137L153.537 15.7028V15.7028Z" fill="#1434CB"/>
</svg>
