<svg width="236" height="225" viewBox="0 0 236 225" fill="none" xmlns="http://www.w3.org/2000/svg">
<path d="M5.80273 103.678V200.88L46.5051 224.462V126.342L5.80273 103.678Z" fill="#C5ADAE"/>
<path d="M46.5059 224.462L88.6433 200.024L130.781 175.586L172.933 151.132L215.071 126.694V97.6223V68.5504V39.4785V29.4922L184.552 29.6604L128.888 53.9303L82.2616 87.6819L46.5059 126.449V156.347V166.318V195.39V224.462Z" fill="#FFFAE7"/>
<path d="M203.879 36.7556V130.379L211.146 126.158V36.251C208.749 36.3427 206.322 36.511 203.879 36.7556Z" fill="#5A86EC"/>
<path d="M195.42 37.8878V135.304L202.702 131.083V36.8784C200.214 37.0925 197.786 37.4748 195.42 37.8878Z" fill="#5A86EC"/>
<path d="M186.809 39.5546V140.259L194.091 136.038V38.0864C191.679 38.5146 189.251 39.004 186.809 39.5546Z" fill="#5A86EC"/>
<path d="M178.275 41.6804V145.198L185.558 140.993V39.8452C183.146 40.4162 180.718 41.0279 178.275 41.6804Z" fill="#5A86EC"/>
<path d="M169.74 44.4176V150.153L177.099 145.932V42.1084C174.636 42.8425 172.183 43.6122 169.74 44.4176Z" fill="#5A86EC"/>
<path d="M168.488 44.8457V150.887L161.221 155.108V47.5526C162.396 47.0785 163.587 46.6197 164.763 46.1915C165.938 45.7633 167.251 45.2739 168.488 44.8457Z" fill="#5A86EC"/>
<path d="M159.954 48.0576V155.827L152.672 160.048V51.1315C155.104 50.0406 157.532 49.016 159.954 48.0576Z" fill="#5A86EC"/>
<path d="M151.437 51.7124V160.782L144.154 165.003V55.1686C146.567 53.9146 149.009 52.7982 151.437 51.7124Z" fill="#5A86EC"/>
<path d="M142.9 55.7959V165.722L136.9 169.208L135.617 169.958V59.6344C138.045 58.3039 140.457 56.9735 142.9 55.7959Z" fill="#5A86EC"/>
<path d="M134.353 60.3374V170.676L127.07 174.897V64.6194C129.513 63.1207 131.941 61.6934 134.353 60.3374Z" fill="#5A86EC"/>
<path d="M125.832 65.2925V175.631L118.564 179.852V69.8651C120.946 68.295 123.369 66.7708 125.832 65.2925Z" fill="#5A86EC"/>
<path d="M117.298 70.7363V180.616L110.031 184.837V75.6301C112.443 73.9377 114.866 72.3064 117.298 70.7363Z" fill="#5A86EC"/>
<path d="M108.763 76.5176V185.526L101.496 189.747V81.8242C103.908 80.0095 106.331 78.2406 108.763 76.5176Z" fill="#5A86EC"/>
<path d="M100.243 82.7876V190.465L92.9609 194.686V88.4919C95.3732 86.5344 97.8006 84.6329 100.243 82.7876Z" fill="#5A86EC"/>
<path d="M91.7102 89.5015V195.42L84.4277 199.641V95.6492C86.84 93.5082 89.2674 91.4895 91.7102 89.5015Z" fill="#5A86EC"/>
<path d="M83.1598 96.7349V200.421L75.8926 204.642V103.204C78.3048 100.991 80.7272 98.8351 83.1598 96.7349Z" fill="#5A86EC"/>
<path d="M74.6418 104.381V205.314L67.3594 209.535V111.309C67.3594 111.309 67.451 111.202 67.5121 111.156C69.8632 108.841 72.2398 106.583 74.6418 104.381Z" fill="#5A86EC"/>
<path d="M66.1067 112.548V210.27L58.8242 214.491V119.95C61.2364 117.431 63.6639 114.964 66.1067 112.548Z" fill="#5A86EC"/>
<path d="M57.5717 121.204V215.148L50.3809 219.446V129.217C52.732 126.505 55.129 123.834 57.5717 121.204Z" fill="#5A86EC"/>
<g style="mix-blend-mode:screen" opacity="0.5">
<path d="M50.3809 129.156C52.7829 126.485 55.2053 123.854 57.648 121.265V215.209L50.3809 219.445V129.156Z" fill="#8EACDE"/>
</g>
<g style="mix-blend-mode:screen" opacity="0.5">
<path d="M58.8242 119.95C61.2364 117.421 63.6639 114.954 66.1067 112.548V210.27L58.8242 214.491V119.95Z" fill="#8EACDE"/>
</g>
<g style="mix-blend-mode:screen" opacity="0.5">
<path d="M67.5121 111.156C69.8632 108.842 72.2398 106.579 74.6418 104.366V205.3L67.3594 209.521V111.309C67.3594 111.309 67.451 111.202 67.5121 111.156Z" fill="#8EACDE"/>
</g>
<g style="mix-blend-mode:screen" opacity="0.5">
<path d="M75.8926 103.204C78.3048 100.992 80.7272 98.8203 83.1598 96.6895V200.376L75.8926 204.596V103.204Z" fill="#8EACDE"/>
</g>
<g style="mix-blend-mode:screen" opacity="0.5">
<path d="M84.4277 95.603C86.84 93.5079 89.2674 91.4892 91.7102 89.4858V195.405L84.4277 199.626V95.603Z" fill="#8EACDE"/>
</g>
<g style="mix-blend-mode:screen" opacity="0.5">
<path d="M92.9609 88.4919C95.3732 86.5344 97.8006 84.6329 100.243 82.7876V190.465L92.9609 194.686V88.4919Z" fill="#8EACDE"/>
</g>
<g style="mix-blend-mode:screen" opacity="0.5">
<path d="M101.496 81.8242C103.908 80.0095 106.331 78.2406 108.763 76.5176V185.526L101.496 189.747V81.8242Z" fill="#8EACDE"/>
</g>
<g style="mix-blend-mode:screen" opacity="0.5">
<path d="M110.031 75.6305C112.443 73.9381 114.866 72.2916 117.298 70.6909V180.571L110.031 184.792V75.6305Z" fill="#8EACDE"/>
</g>
<g style="mix-blend-mode:screen" opacity="0.5">
<path d="M118.564 69.8652C120.977 68.285 123.399 66.7557 125.832 65.2773V175.616L118.564 179.837V69.8652Z" fill="#8EACDE"/>
</g>
<g style="mix-blend-mode:screen" opacity="0.5">
<path d="M127.086 64.6194C129.518 63.1207 131.941 61.6934 134.353 60.3374V170.676L127.07 174.897L127.086 64.6194Z" fill="#8EACDE"/>
</g>
<g style="mix-blend-mode:screen" opacity="0.5">
<path d="M135.617 59.6344C138.045 58.3039 140.472 57.0346 142.9 55.7959V142.736L136.9 169.208L135.617 169.958V59.6344Z" fill="#8EACDE"/>
</g>
<g style="mix-blend-mode:screen" opacity="0.5">
<path d="M144.154 55.1686C146.567 53.9146 149.009 52.7982 151.437 51.7124V105.07L144.154 137.185V55.1686Z" fill="#8EACDE"/>
</g>
<g style="mix-blend-mode:screen" opacity="0.5">
<path d="M152.672 51.1313C155.094 50.0404 157.517 49.0209 159.939 48.0728V67.403L152.672 99.5182V51.1313Z" fill="#8EACDE"/>
</g>
<g style="mix-blend-mode:screen" opacity="0.5">
<path d="M164.763 46.2681L161.221 61.8516V47.5527C162.396 47.0786 163.587 46.6198 164.763 46.2681Z" fill="#8EACDE"/>
</g>
<path d="M40.7023 127.978L0 104.396L2.58016 107.226L43.2825 130.807L40.7023 127.978Z" fill="#792444"/>
<path d="M0 104.381L2.58016 107.211C2.82443 106.905 3.08397 106.614 3.34352 106.324L40.7023 127.978C96.1528 62.6622 165.023 22.8241 220.412 23.9864L179.695 0.389351C124.321 -0.757621 55.4504 39.0805 0 104.381Z" fill="#FD394E"/>
<path d="M40.7012 127.978L43.2813 130.808C97.144 67.3571 164.03 28.6507 217.831 29.8741L220.411 24.0781C165.022 22.8241 96.1822 62.6622 40.7012 127.978Z" fill="#F46E6B"/>
<path d="M91.3263 222.81L232.059 141.482V81.4727L183.586 86.137L126.319 141.39L83.25 156.118L91.1279 167.694L91.3263 222.81Z" fill="#FFFAE7"/>
<path d="M101.086 167.771V214.796L93.8184 219.078V168.765C96.2589 168.584 98.686 168.252 101.086 167.771V167.771Z" fill="#5A86EC"/>
<path d="M109.604 165.553V209.903L102.291 214.078V167.511C104.763 166.994 107.204 166.341 109.604 165.553V165.553Z" fill="#5A86EC"/>
<path d="M118.105 162.204V204.948L110.838 209.153V165.11C113.281 164.274 115.703 163.305 118.105 162.204Z" fill="#5A86EC"/>
<path d="M126.626 157.907V200.069L119.344 204.275V161.638C121.756 160.507 124.199 159.253 126.626 157.907Z" fill="#5A86EC"/>
<path d="M135.588 152.401V194.962L128.244 199.198V157.005C130.748 155.598 133.175 154.053 135.588 152.401Z" fill="#5A86EC"/>
<path d="M143.648 146.223V190.19L136.381 194.395V151.698C138.824 149.985 141.251 148.15 143.648 146.223Z" fill="#5A86EC"/>
<path d="M152.152 138.821V185.281L144.885 189.486V145.213C147.343 143.195 149.77 141.084 152.152 138.821Z" fill="#5A86EC"/>
<path d="M160.673 130.242V180.357L153.391 184.562V137.659C155.884 135.283 158.312 132.811 160.673 130.242Z" fill="#5A86EC"/>
<path d="M169.175 120.607V175.448L161.908 179.638V128.85C163.023 127.612 164.137 126.342 165.236 125.042C166.336 123.742 167.847 122.06 169.175 120.607Z" fill="#5A86EC"/>
<path d="M177.695 112.028V170.508L170.428 174.729V119.277C172.794 116.738 175.222 114.337 177.695 112.028Z" fill="#5A86EC"/>
<path d="M186.259 104.764V165.553L182.014 168.015L178.961 169.759V110.911C181.343 108.74 183.775 106.691 186.259 104.764Z" fill="#5A86EC"/>
<path d="M194.718 98.6309V160.674L187.451 164.88V103.8C189.863 101.965 192.286 100.242 194.718 98.6309Z" fill="#5A86EC"/>
<path d="M203.238 93.6758V155.765L195.955 159.971V97.8355C196.703 97.3614 197.482 96.9026 198.184 96.4591C199.863 95.4498 201.528 94.4863 203.238 93.6758Z" fill="#5A86EC"/>
<path d="M204.475 92.9579V155.047L211.742 150.842V89.6699C209.345 90.6181 206.902 91.7192 204.475 92.9579Z" fill="#5A86EC"/>
<path d="M212.979 89.1803V150.123L220.261 145.917V86.8711C217.794 87.51 215.363 88.2809 212.979 89.1803V89.1803Z" fill="#5A86EC"/>
<path d="M221.496 86.5649V145.213L228.763 141.084V85.3721C226.316 85.599 223.888 85.9976 221.496 86.5649V86.5649Z" fill="#5A86EC"/>
<g style="mix-blend-mode:screen" opacity="0.5">
<path d="M93.8184 168.765C96.2589 168.584 98.686 168.252 101.086 167.771V214.796L93.8184 219.078V168.765Z" fill="#8EACDE"/>
</g>
<g style="mix-blend-mode:screen" opacity="0.5">
<path d="M102.291 167.511C104.753 166.983 107.184 166.319 109.573 165.522V209.872L102.291 214.078V167.511Z" fill="#8EACDE"/>
</g>
<g style="mix-blend-mode:screen" opacity="0.5">
<path d="M110.838 165.11C113.24 164.264 115.662 163.295 118.105 162.204V204.948L110.838 209.153V165.11Z" fill="#8EACDE"/>
</g>
<g style="mix-blend-mode:screen" opacity="0.5">
<path d="M119.344 161.639C121.756 160.507 124.199 159.253 126.626 157.876V200.039L119.344 204.245V161.639Z" fill="#8EACDE"/>
</g>
<g style="mix-blend-mode:screen" opacity="0.5">
<path d="M128.244 157.004C130.687 155.597 133.114 154.053 135.527 152.417V194.977L128.244 199.198V157.004Z" fill="#8EACDE"/>
</g>
<g style="mix-blend-mode:screen" opacity="0.5">
<path d="M136.381 151.698C138.824 149.985 141.251 148.15 143.648 146.223V190.19L136.381 194.395V151.698Z" fill="#8EACDE"/>
</g>
<g style="mix-blend-mode:screen" opacity="0.5">
<path d="M144.885 145.213C147.343 143.195 149.77 141.054 152.152 138.821V185.281L144.885 189.486V145.213Z" fill="#8EACDE"/>
</g>
<g style="mix-blend-mode:screen" opacity="0.5">
<path d="M160.673 130.242V180.357L153.391 184.562V137.659C155.884 135.283 158.312 132.811 160.673 130.242Z" fill="#8EACDE"/>
</g>
<g style="mix-blend-mode:screen" opacity="0.5">
<path d="M165.236 125.073C166.534 123.544 167.847 122.014 169.175 120.607V175.448L161.908 179.638V128.85C163.023 127.642 164.137 126.373 165.236 125.073Z" fill="#8EACDE"/>
</g>
<g style="mix-blend-mode:screen" opacity="0.5">
<path d="M177.695 112.028V170.508L170.428 174.729V119.277C172.794 116.738 175.222 114.337 177.695 112.028Z" fill="#8EACDE"/>
</g>
<g style="mix-blend-mode:screen" opacity="0.5">
<path d="M178.931 110.912C181.323 108.74 183.751 106.701 186.214 104.794V149.312L181.969 168.061L178.916 169.805L178.931 110.912Z" fill="#8EACDE"/>
</g>
<g style="mix-blend-mode:screen" opacity="0.5">
<path d="M187.451 103.8C189.863 101.965 192.286 100.242 194.718 98.6309V111.737L187.451 143.852V103.8Z" fill="#8EACDE"/>
</g>
<g style="mix-blend-mode:screen" opacity="0.5">
<path d="M198.184 96.4595L195.955 106.278V97.8358C196.703 97.3618 197.436 96.903 198.184 96.4595Z" fill="#8EACDE"/>
</g>
<path d="M230 85.2656L228.764 85.3727V141.085L230 140.366V85.2656Z" fill="#FFFAE7"/>
<path d="M220.26 86.8708V145.917L221.496 145.213V86.5649L220.26 86.8708Z" fill="#FFFAE7"/>
<path d="M211.74 89.6538V150.826L212.977 150.107V89.1797L211.74 89.6538Z" fill="#FFFAE7"/>
<path d="M203.236 93.6763V155.766L204.473 155.047V92.9575L203.236 93.6763Z" fill="#FFFAE7"/>
<path d="M194.719 98.6312V160.675L195.955 159.971V97.8359L194.719 98.6312Z" fill="#FFFAE7"/>
<path d="M186.262 104.763V165.553L187.498 164.834V103.8L186.262 104.763Z" fill="#FFFAE7"/>
<path d="M177.695 112.028V170.508L178.932 169.789V110.912L177.695 112.028Z" fill="#FFFAE7"/>
<path d="M169.176 120.607V175.448L170.428 174.729V119.277L169.176 120.607Z" fill="#FFFAE7"/>
<path d="M160.672 130.242V180.357L161.909 179.638V128.851L160.672 130.242Z" fill="#FFFAE7"/>
<path d="M152.154 138.821V185.281L153.391 184.562V137.659L152.154 138.821Z" fill="#FFFAE7"/>
<path d="M143.648 146.223V190.19L144.885 189.487V145.214L143.648 146.223Z" fill="#FFFAE7"/>
<path d="M135.131 152.554V195.114L136.383 194.396V151.698L135.131 152.554Z" fill="#FFFAE7"/>
<path d="M126.627 157.907V200.069L127.864 199.35V157.157L127.436 157.402C127.177 157.57 126.902 157.723 126.627 157.907Z" fill="#FFFAE7"/>
<path d="M118.107 162.204V204.948L119.344 204.244V161.638L118.107 162.204Z" fill="#FFFAE7"/>
<path d="M109.604 165.553V209.903L110.84 209.184V165.14L109.604 165.553Z" fill="#FFFAE7"/>
<path d="M101.084 167.771V214.797L102.321 214.078V167.511C101.908 167.618 101.496 167.694 101.084 167.771Z" fill="#FFFAE7"/>
<path d="M93.1309 168.796L93.3141 219.262L93.7568 219.018V168.765L93.1309 168.796Z" fill="#FFFAE7"/>
<path d="M70.3203 150.643V210.652L91.328 222.81V162.816L70.3203 150.643Z" fill="#C5ADAE"/>
<path d="M89.2207 166.807H90.5337C101.663 166.807 114.03 162.755 126.412 155.597C140.534 147.154 153.129 136.378 163.664 123.727C184.732 98.9217 210.686 83.5217 232.061 83.1088C232.656 83.1088 233.267 83.1088 233.862 83.1088L235.984 78.3833C227.412 78.3986 218.931 80.1517 211.053 83.537C194.259 90.3577 176.702 103.617 161.541 121.464C139.877 146.942 112.976 162.495 91.3276 162.051L89.8009 165.645L89.2207 166.807Z" fill="#F46E6B"/>
<path d="M68.2148 154.649L89.2225 166.822L91.3294 162.051L77.421 153.991L70.337 149.877L68.2148 154.649Z" fill="#792444"/>
<path d="M70.3359 149.878L77.4199 153.992L91.3283 162.051C112.977 162.51 139.878 146.942 161.557 121.418C184.458 94.3646 213.054 77.8482 236 78.3376L215.008 66.1032C192.107 65.6291 163.527 82.1302 140.565 109.183C119.191 134.34 92.7634 149.832 71.2825 149.832L70.3359 149.878Z" fill="#FD394E"/>
<path d="M156.992 174.439V209.139L191.588 189.12L226.198 169.086V134.417C215.511 134.188 203.572 137.919 191.588 144.847C178.475 152.689 166.778 162.694 156.992 174.439V174.439Z" fill="#FFFAE7"/>
<path d="M217.023 137.231V172.068L224.046 167.985V136.497C221.69 136.566 219.343 136.812 217.023 137.231V137.231Z" fill="#5A86EC"/>
<path d="M208.779 139.31V176.855L215.802 172.771V137.46C213.427 137.937 211.082 138.555 208.779 139.31V139.31Z" fill="#5A86EC"/>
<path d="M207.632 139.724V177.558L200.609 181.642V142.614C202.838 141.589 205.037 140.702 207.235 139.938L207.632 139.724Z" fill="#5A86EC"/>
<path d="M199.314 143.103V182.375L197.268 183.568L192.367 186.413V146.835L192.703 146.636C194.902 145.341 197.105 144.163 199.314 143.103Z" fill="#5A86EC"/>
<path d="M191.07 147.553V187.131L184.047 191.199V152.172C186.367 150.52 188.719 148.975 191.07 147.553Z" fill="#5A86EC"/>
<path d="M182.825 153.028V191.903L175.787 195.986V158.564C178.108 156.607 180.454 154.762 182.825 153.028Z" fill="#5A86EC"/>
<path d="M174.581 159.589V196.69L167.543 200.727V166.088C169.843 163.815 172.189 161.648 174.581 159.589Z" fill="#5A86EC"/>
<path d="M166.413 167.296V201.461L159.375 205.544V174.958C161.614 172.287 163.96 169.733 166.413 167.296Z" fill="#5A86EC"/>
<g style="mix-blend-mode:screen" opacity="0.5">
<path d="M159.297 174.913C161.587 172.272 163.933 169.723 166.335 167.266V201.431L159.297 205.514V174.913Z" fill="#8EACDE"/>
</g>
<g style="mix-blend-mode:screen" opacity="0.5">
<path d="M167.543 166.088C169.853 163.815 172.199 161.648 174.581 159.589V196.69L167.543 200.727V166.088Z" fill="#8EACDE"/>
</g>
<g style="mix-blend-mode:screen" opacity="0.5">
<path d="M175.787 158.564C178.108 156.607 180.454 154.762 182.825 153.028V191.903L175.787 195.986V158.564Z" fill="#8EACDE"/>
</g>
<g style="mix-blend-mode:screen" opacity="0.5">
<path d="M184.047 152.172C186.367 150.52 188.719 148.976 191.07 147.584V187.162L184.047 191.23V152.172Z" fill="#8EACDE"/>
</g>
<g style="mix-blend-mode:screen" opacity="0.5">
<path d="M192.627 146.636C194.866 145.341 197.095 144.163 199.314 143.103V174.438L197.268 183.614L192.367 186.413V146.835L192.627 146.636Z" fill="#8EACDE"/>
</g>
<g style="mix-blend-mode:screen" opacity="0.5">
<path d="M207.159 139.861L200.533 169.117V142.614C202.762 141.513 204.961 140.626 207.159 139.861Z" fill="#8EACDE"/>
</g>
<path d="M136 160.72V196.98L157.008 209.138V172.893L136 160.72Z" fill="#C5ADAE"/>
<path d="M154.199 173.384L156.321 175.708C177.986 150.184 204.886 134.616 226.55 135.075L228.673 130.38C205.726 129.814 177.207 146.33 154.199 173.384Z" fill="#F46E6B"/>
<path d="M154.227 173.383L133.082 161.378L135.189 163.688L156.349 175.708L154.227 173.383Z" fill="#792444"/>
<path d="M133.082 161.378L154.197 173.383C177.097 146.33 205.693 129.813 228.639 130.303L207.525 118.298C184.578 117.808 156.044 134.309 133.082 161.378Z" fill="#FD394E"/>
<path d="M75.2051 190.603V213.466L75.8768 213.864L76.1822 214.047L83.2814 218.161L83.602 218.329L84.2738 218.727V195.864L75.2051 190.603Z" fill="#792444"/>
<path d="M75.877 191.781V213.864L76.1823 214.047L83.2815 218.161L83.6021 218.329V196.262L75.877 191.781Z" fill="white"/>
<path d="M76.1836 192.316V214.047L83.2828 218.161V196.43L76.1836 192.316Z" fill="#792444"/>
<path d="M82.8411 196.69L76.6426 193.096V205.315L82.8411 208.909V196.69Z" fill="white"/>
<path d="M82.5351 196.873L76.9473 193.631V205.146L82.5351 208.373V196.873Z" fill="#486DBE"/>
<path d="M141.375 177.222V200.085L142.047 200.483L142.352 200.666L149.451 204.78L149.757 204.948L150.444 205.346V182.468L141.375 177.222Z" fill="#792444"/>
<path d="M142.047 178.399V200.482L142.352 200.665L149.451 204.779L149.757 204.947V182.864L142.047 178.399Z" fill="white"/>
<path d="M142.354 178.935V200.666L149.453 204.78V183.048L142.354 178.935Z" fill="#792444"/>
<path d="M149.009 183.308L142.811 179.714V191.933L149.009 195.527V183.308Z" fill="white"/>
<path d="M148.701 183.477L143.113 180.25V191.75L148.701 194.992V183.477Z" fill="#486DBE"/>
<path d="M191.922 166.073V188.936L191.25 189.334L190.945 189.502L183.846 193.616L183.541 193.799L182.854 194.197V171.319L191.922 166.073Z" fill="#F46E6B"/>
<path d="M191.251 167.251V189.334L190.946 189.502L183.846 193.616L183.541 193.8V171.717L191.251 167.251Z" fill="white"/>
<path d="M190.947 167.786V189.502L183.848 193.616V171.9L190.947 167.786Z" fill="#F46E6B"/>
<path d="M184.289 172.16L190.488 168.566V180.785L184.289 184.379V172.16Z" fill="white"/>
<path d="M184.596 172.328L190.183 169.101V180.601L184.596 183.843V172.328Z" fill="#5A86EC"/>
<g style="mix-blend-mode:screen" opacity="0.5">
<path d="M184.596 172.328L190.183 169.101V180.601L184.596 183.843V172.328Z" fill="#8EACDE"/>
</g>
<path d="M200.487 161.087V183.966L199.815 184.363L199.51 184.531L192.41 188.645L192.105 188.829L191.418 189.226V166.348L200.487 161.087Z" fill="#F46E6B"/>
<path d="M199.817 162.281V184.364L199.512 184.532L192.413 188.646L192.107 188.829V166.746L199.817 162.281Z" fill="white"/>
<path d="M199.511 162.8V184.532L192.412 188.645V166.929L199.511 162.8Z" fill="#F46E6B"/>
<path d="M192.855 167.19L199.054 163.596V175.815L192.855 179.409V167.19Z" fill="white"/>
<path d="M198.748 164.131V175.631L195.328 177.619L193.16 178.873V167.358L198.336 164.36L198.748 164.131Z" fill="#5A86EC"/>
<g style="mix-blend-mode:screen" opacity="0.5">
<path d="M198.748 164.131V175.631L195.328 177.619L193.16 178.873V167.358L198.336 164.36L198.748 164.131Z" fill="#8EACDE"/>
</g>
<path d="M9.29688 180.036V202.914L9.9839 203.296L10.2892 203.48L17.3885 207.594L17.6938 207.777L18.3656 208.159V185.296L9.29688 180.036Z" fill="#792444"/>
<path d="M9.98438 181.229V203.296L10.2897 203.48L17.389 207.594L17.6943 207.777V185.694L9.98438 181.229Z" fill="white"/>
<path d="M10.2891 181.748V203.479L17.3883 207.593V185.862L10.2891 181.748Z" fill="#792444"/>
<path d="M16.9309 186.122L10.7324 182.544V194.748L16.9309 198.342V186.122Z" fill="white"/>
<path d="M16.6249 186.306L11.0371 183.063V194.579L16.6249 197.821V186.306Z" fill="#486DBE"/>
<path d="M29.2988 191.627V214.506L29.9859 214.888L30.2912 215.072L37.3904 219.185L37.6958 219.369L38.3828 219.751V196.888L29.2988 191.627Z" fill="#792444"/>
<path d="M29.9863 192.821V214.889L30.2917 215.072L37.3909 219.186L37.6963 219.369V197.286L29.9863 192.821Z" fill="white"/>
<path d="M30.291 193.34V215.072L37.3903 219.185V197.454L30.291 193.34Z" fill="#792444"/>
<path d="M36.9309 197.714L30.7324 194.136V206.355L36.9309 209.933V197.714Z" fill="white"/>
<path d="M36.6253 197.897L31.0527 194.655V206.171L36.6253 209.413V197.897Z" fill="#486DBE"/>
<path d="M185.451 173.643L186.062 174.301C192.169 167.021 199.909 162.586 206.077 162.724L206.673 161.363C200.138 161.225 192.001 165.92 185.451 173.643Z" fill="#F46E6B"/>
<path d="M185.449 173.643L179.434 170.217L180.029 170.875L186.06 174.3L185.449 173.643Z" fill="#792444"/>
<path d="M179.434 170.218L185.449 173.643C191.998 165.92 200.136 161.225 206.67 161.409L200.563 157.983C194.105 157.8 185.968 162.495 179.434 170.218Z" fill="#FD394E"/>
<path d="M18.3667 137.98L9.34375 132.75V147.37L18.3667 152.6V137.98Z" fill="#792444"/>
<path d="M9.70898 147.171L17.9991 151.973V138.194L9.70898 133.377V147.171Z" fill="white"/>
<path d="M17.4804 138.5L10.2285 134.294V146.865L17.4804 151.056V138.5Z" fill="#486DBE"/>
<path d="M39.16 168.352L30.1523 163.137V177.757L39.16 182.972V168.352Z" fill="#792444"/>
<path d="M30.5039 177.543L38.8093 182.36V168.566L30.5039 163.749V177.543Z" fill="white"/>
<path d="M38.2738 168.871L31.0371 164.666V177.236L38.2738 181.442V168.871Z" fill="#486DBE"/>
</svg>
