<svg width="135" height="181" viewBox="0 0 135 181" fill="none" xmlns="http://www.w3.org/2000/svg">
<path fill-rule="evenodd" clip-rule="evenodd" d="M36.0449 181C36.127 180.898 36.209 180.796 36.291 180.694C32.0762 175.446 27.7871 170.255 23.4258 165.124C19.7578 160.755 14.9414 157.501 9.51953 155.729C6.43164 154.72 3.21875 154.214 0 154.217V151C3.53711 150.996 7.07031 151.548 10.4668 152.653C16.4395 154.596 21.748 158.169 25.7988 162.968C30.0469 167.969 34.2246 173.025 38.3359 178.136C47.8105 166.233 56.9082 154.035 65.6133 141.561C58.0859 130.714 50.8496 119.663 43.9141 108.418C40.6133 103.088 38.8613 96.9448 38.8535 90.6753C38.8398 84.3638 40.5918 78.1738 43.9141 72.8076C50.832 61.5918 58.0488 50.5684 65.5547 39.749C56.7031 27.0713 47.4492 14.6777 37.8066 2.58838C33.8672 7.4751 29.8633 12.312 25.7988 17.0981C21.7637 21.9199 16.459 25.5166 10.4863 27.4819C7.08594 28.6006 3.54688 29.165 0 29.1699V25.9795C3.2168 25.9849 6.42773 25.4824 9.51367 24.4766C14.9355 22.71 19.7539 19.4614 23.4258 15.0986C25.4551 12.7124 27.4688 10.313 29.4668 7.90137C31.6035 5.32031 33.7227 2.72461 35.8242 0.114746C35.793 0.0766602 35.7637 0.0380859 35.7324 0H39.8848C39.875 0.0112305 39.8672 0.0219727 39.8574 0.0332031C49.457 12.0508 58.6758 24.3652 67.5 36.959C76.3242 24.3652 85.543 12.0508 95.1426 0.0332031C95.1328 0.0219727 95.125 0.0112305 95.1152 0H99.2676C99.2363 0.0380859 99.207 0.0766602 99.1758 0.114746C103.24 5.16357 107.373 10.1587 111.574 15.0986C115.246 19.4614 120.064 22.71 125.486 24.4766C128.572 25.4824 131.783 25.9849 135 25.9795V29.1699C131.453 29.165 127.914 28.6006 124.514 27.4819C118.541 25.5166 113.236 21.9199 109.201 17.0981C105.137 12.312 101.133 7.4751 97.1934 2.58838C87.5508 14.6777 78.2969 27.0713 69.4453 39.749C76.9512 50.5684 84.168 61.5918 91.0859 72.8076C94.4082 78.1738 96.1602 84.3638 96.1465 90.6753C96.1387 96.9448 94.3867 103.088 91.0859 108.418C84.1504 119.663 76.9141 130.714 69.3867 141.561C78.0918 154.035 87.1895 166.233 96.6641 178.136C100.775 173.025 104.953 167.969 109.201 162.968C113.252 158.169 118.561 154.596 124.533 152.653C127.93 151.548 131.463 150.996 135 151V154.217C131.781 154.214 128.568 154.72 125.48 155.729C120.059 157.501 115.242 160.755 111.574 165.124C107.213 170.255 102.924 175.446 98.709 180.694C98.791 180.796 98.873 180.898 98.9551 181H94.3711C94.4746 180.871 94.5762 180.742 94.6797 180.613C85.2461 168.779 76.1816 156.658 67.5 144.267C58.8184 156.658 49.7539 168.779 40.3203 180.613C40.4238 180.742 40.5254 180.871 40.6289 181H36.0449ZM88.3984 106.825C81.7129 117.684 74.7441 128.36 67.5 138.844C60.2559 128.36 53.2871 117.684 46.6016 106.825C43.5859 101.984 41.9883 96.3945 41.9883 90.6909C41.9883 84.9873 43.5859 79.3979 46.6016 74.5566C53.2871 63.7021 60.2559 53.0293 67.5 42.5488C74.7441 53.0293 81.7129 63.7021 88.3984 74.5566C91.4141 79.3979 93.0117 84.9873 93.0117 90.6909C93.0117 96.3945 91.4141 101.984 88.3984 106.825Z" fill="#1D6BD0"/>
</svg>
