<svg width="119" height="144" viewBox="0 0 119 144" fill="none" xmlns="http://www.w3.org/2000/svg">
<path d="M77.0826 18.2627H47.6777C47.3225 18.2627 46.9818 18.403 46.7307 18.6528C46.4795 18.9026 46.3384 19.2414 46.3384 19.5947L46.3384 54.8769C46.3384 55.2301 46.4795 55.5689 46.7307 55.8187C46.9818 56.0685 47.3225 56.2088 47.6777 56.2088L77.0826 56.2088C80.6213 56.217 84.1109 55.3849 87.2612 53.7817H87.4993C88.1243 53.4265 88.7196 53.0713 89.285 52.6866L89.8208 52.3314C90.416 51.8874 91.0112 51.4434 91.5767 50.9402C92.1601 50.4048 92.707 49.8312 93.2136 49.2234L93.541 48.8387C93.9541 48.3354 94.3415 47.8118 94.7017 47.2699L94.9696 46.8851C95.7973 45.5602 96.4571 44.1385 96.9339 42.6524C96.9339 42.4748 96.9339 42.3268 96.9339 42.1788C97.1125 41.5869 97.2315 40.9653 97.3505 40.3733V39.7813C97.4567 39.016 97.5163 38.245 97.5291 37.4726C97.8863 26.7577 88.541 18.2627 77.0826 18.2627ZM95.0886 38.9821C95.0886 38.9821 95.0886 38.9821 95.0886 39.2189C95.0283 39.717 94.9388 40.2111 94.8208 40.6989C94.8079 40.7574 94.8079 40.818 94.8208 40.8765C94.7035 41.3787 94.5544 41.873 94.3743 42.3564V42.534C94.1958 43.0076 93.9874 43.4812 93.7791 43.9252V44.1324C93.541 44.5764 93.3029 45.0204 93.035 45.4348L92.8565 45.6715C92.5926 46.0734 92.3043 46.4589 91.9934 46.8259L91.785 47.0923C91.4874 47.4475 91.16 47.8027 90.8327 48.1283L90.535 48.3947C90.1993 48.7427 89.8414 49.069 89.4636 49.3714L89.285 49.5194C89.4873 48.4658 89.5869 47.3953 89.5827 46.3227C89.5827 35.8446 80.2671 27.3497 68.7492 27.3497H49.017V21.0154H77.0826C87.0826 21.0154 95.2077 28.3264 95.2077 37.3246C95.2081 37.8792 95.1683 38.4332 95.0886 38.9821ZM15.624 9.17576L21.5764 9.17576L21.5764 85.6008H15.624L15.624 9.17576ZM37.7074 144H15.624L15.624 118.219C15.624 118.044 15.5893 117.871 15.522 117.709C15.4547 117.548 15.3561 117.401 15.2317 117.277C15.1073 117.154 14.9597 117.055 14.7972 116.989C14.6347 116.922 14.4605 116.887 14.2847 116.887H0.445312L0.445312 97.3221H6.39772L6.39772 109.162C6.39764 109.51 6.53465 109.844 6.77941 110.093C7.02418 110.342 7.35723 110.486 7.70725 110.494H21.5764L21.5764 136.156C21.5764 136.509 21.7175 136.848 21.9686 137.098C22.2198 137.348 22.5605 137.488 22.9157 137.488H37.7967L37.7074 144ZM77.6778 116.976H49.017V110.464H77.7374L77.6778 116.976ZM71.7254 85.3936H49.017V78.8818H80.3267C81.798 78.8775 83.2682 78.7985 84.7314 78.645L86.3088 78.4082L89.0172 77.9346C89.6124 77.9346 90.2077 77.6387 90.8029 77.4907C91.3981 77.3427 92.4398 77.0467 93.2136 76.7803C93.9874 76.5139 94.3446 76.3659 94.9101 76.1587C95.4755 75.9515 96.5767 75.5075 97.3803 75.1523L98.1244 74.8267C91.0017 81.5574 81.5506 85.3086 71.7254 85.3048V85.3936ZM103.273 68.6405C102.618 69.1437 101.934 69.6173 101.249 70.0613L100.565 70.5052C99.5827 71.1268 98.541 71.6892 97.5887 72.222C96.6363 72.7548 96.2494 72.9028 95.5648 73.1988L94.4339 73.6428C93.6898 73.9092 92.9755 74.2051 92.2315 74.4419L91.0708 74.7675C90.3093 75.0099 89.5341 75.2076 88.7493 75.3595L87.5886 75.6259C86.7553 75.764 85.9219 75.8824 85.0886 75.9811L84.0172 76.1291C82.8205 76.2481 81.6186 76.3073 80.4159 76.3067H47.6777C47.3225 76.3067 46.9818 76.447 46.7307 76.6968C46.4795 76.9466 46.3384 77.2854 46.3384 77.6387V87.0216C46.3462 87.3697 46.4907 87.7009 46.741 87.9444C46.9914 88.1878 47.3276 88.324 47.6777 88.324H86.3684L86.3684 107.919H47.6777C47.3276 107.919 46.9914 108.055 46.741 108.298C46.4907 108.542 46.3462 108.873 46.3384 109.221V134.913H24.255L24.255 109.132C24.2472 108.784 24.1026 108.453 23.8523 108.209C23.602 107.966 23.2658 107.83 22.9157 107.83H9.01678L9.01678 88.2352H22.9157C23.2658 88.2352 23.602 88.099 23.8523 87.8556C24.1026 87.6121 24.2472 87.2809 24.255 86.9328L24.255 1.15869e-05L80.3267 1.15869e-05C88.3673 -0.00622608 96.2058 2.50615 102.73 7.18063C109.253 11.8551 114.131 18.4542 116.671 26.0415C119.211 33.6288 119.283 41.8189 116.878 49.4495C114.474 57.0801 109.713 63.7637 103.273 68.5517V68.6405Z" fill="url(#paint0_linear_590_14360)"/>
<defs>
<linearGradient id="paint0_linear_590_14360" x1="59.5379" y1="0" x2="59.5379" y2="144" gradientUnits="userSpaceOnUse">
<stop stop-color="#4299FF"/>
<stop offset="1" stop-color="#1D6BD0"/>
</linearGradient>
</defs>
</svg>
