<svg width="186" height="213" viewBox="0 0 186 213" fill="none" xmlns="http://www.w3.org/2000/svg">
<path d="M185.999 65.6084V161.266L101.789 210.245V114.588L185.999 65.6084Z" fill="#FFFAE7"/>
<path d="M101.79 114.587V210.245L0 151.314V55.6567L101.79 114.587Z" fill="#D1A296"/>
<path d="M186 58.9308L101.79 107.926L0 48.9793L84.3558 0L186 58.9308Z" fill="#5E536D"/>
<path d="M6.64648 48.9793L84.3554 3.85742L179.353 58.947L101.789 104.069L6.64648 48.9793Z" fill="#FFFAE7"/>
<path d="M84.3554 3.85742V8.70349L10.819 51.3942L6.64648 48.9793L84.3554 3.85742Z" fill="#514960"/>
<path d="M185.999 58.9307V65.6082L101.789 114.587V107.926L173.061 66.4672L185.999 58.9307Z" fill="#514960"/>
<path d="M101.79 107.926V114.588L0 55.657V48.9795L12.9542 56.4674L101.79 107.926Z" fill="#393156"/>
<path d="M185.999 157.343V164.005L101.789 213V206.323L173.061 164.864L185.999 157.343Z" fill="#514960"/>
<path d="M101.79 206.322V213L84.1132 202.757L82.787 201.995L72.8086 196.225L54.7439 185.755L53.4016 184.993L52.0755 184.215L0 154.053V147.392L12.9542 154.863L52.0755 177.521L53.4016 178.299L54.7439 179.077L82.787 195.317L84.1132 196.079L85.4393 196.857L101.79 206.322Z" fill="#393156"/>
<path d="M105.655 25.6567V45.0086L93.1699 52.2858V32.9339L105.655 25.6567Z" fill="white"/>
<path d="M94.4961 33.6954L104.313 27.9741V45.7863L94.4961 51.5075V33.6954Z" fill="#514960"/>
<path d="M93.17 32.9339V52.2858L72.2266 40.1787V27.5044L93.17 32.9339Z" fill="#D1A296"/>
<path d="M105.655 25.6566L93.17 32.9338L72.2266 27.5043L84.7764 20.2271L105.655 25.6566Z" fill="#5E536D"/>
<path d="M83.5317 119.839L67.0195 110.276V144.717L83.5317 154.296V119.839Z" fill="#393156"/>
<path d="M67.6816 144.345L82.8838 153.162V120.228L67.6816 111.411V144.345Z" fill="white"/>
<path d="M81.9138 120.795L68.6523 113.097V143.778L81.9138 151.476V120.795Z" fill="#5A86EC"/>
<path d="M56.9267 104.182L40.3984 94.6035V129.061L56.9267 138.623V104.182Z" fill="#393156"/>
<path d="M41.0625 128.672L56.2647 137.489V104.555L41.0625 95.7544V128.672Z" fill="white"/>
<path d="M55.2947 105.122L42.0332 97.4238V128.121L55.2947 135.803V105.122Z" fill="#5A86EC"/>
<path d="M30.3071 88.5259L13.7949 78.9473V113.388L30.3071 122.967V88.5259Z" fill="#393156"/>
<path d="M14.4414 113.015L29.6436 121.832V88.8985L14.4414 80.0815V113.015Z" fill="white"/>
<path d="M28.6736 89.4657L15.4121 81.7671V112.448L28.6736 120.147V89.4657Z" fill="#5A86EC"/>
<path d="M85.4401 169.402V203.519L84.1139 202.757L82.7878 201.979L72.8093 196.225L54.7446 185.771L53.4023 184.993L52.0762 184.232V149.969L85.4401 169.402Z" fill="#393156"/>
<path d="M84.1139 170.164V202.757L82.7878 201.995L72.8094 196.225L54.7447 185.771L53.4023 184.994V152.287L84.1139 170.164Z" fill="white"/>
<path d="M82.7873 170.941V201.995L72.8088 196.225L54.7441 185.771V154.604L82.7873 170.941Z" fill="#393156"/>
<path d="M82.7873 172.092V173.097L54.7441 156.873V155.868L82.7873 172.092Z" fill="#514960"/>
<path d="M82.7873 175.188V176.193L54.7441 159.969V158.964L82.7873 175.188Z" fill="#514960"/>
<path d="M82.7873 178.283V179.304L54.7441 163.081V162.06L82.7873 178.283Z" fill="#514960"/>
<path d="M82.7873 181.379V182.4L54.7441 166.176V165.155L82.7873 181.379Z" fill="#514960"/>
<path d="M82.7873 184.491V185.496L54.7441 169.272V168.251L82.7873 184.491Z" fill="#514960"/>
<path d="M82.7873 187.587V188.591L54.7441 172.368V171.363L82.7873 187.587Z" fill="#514960"/>
<path d="M82.7873 190.682V191.687L54.7441 175.48V174.458L82.7873 190.682Z" fill="#514960"/>
<path d="M82.7873 193.778V194.799L54.7441 178.575V177.554L82.7873 193.778Z" fill="#514960"/>
<path d="M82.7873 196.89V197.895L54.7441 181.671V180.666L82.7873 196.89Z" fill="#514960"/>
<path d="M82.7873 199.986V200.99L54.7441 184.767V183.762L82.7873 199.986Z" fill="#514960"/>
<path d="M179.353 58.947L175.196 61.3781L84.3555 8.70349V3.85742L179.353 58.947Z" fill="#393156"/>
<path d="M41.483 143.956V178.073L40.1407 177.295L38.8146 176.533L28.8523 170.763L10.7714 160.309L9.44529 159.548L8.11914 158.786V124.523L41.483 143.956Z" fill="#393156"/>
<path d="M40.1407 144.717V177.311L38.8146 176.533L28.8523 170.763L10.7715 160.309L9.44531 159.547V126.84L40.1407 144.717Z" fill="white"/>
<path d="M38.8146 145.479V176.533L28.8523 170.763L10.7715 160.309V129.158L38.8146 145.479Z" fill="#393156"/>
<path d="M38.8141 146.646V147.651L10.7871 131.427V130.406L38.8141 146.646Z" fill="#514960"/>
<path d="M38.8141 149.742V150.747L10.7871 134.523V133.518L38.8141 149.742Z" fill="#514960"/>
<path d="M38.8141 152.838V153.842L10.7871 137.619V136.614L38.8141 152.838Z" fill="#514960"/>
<path d="M38.8141 155.933V156.938L10.7871 140.731V139.709L38.8141 155.933Z" fill="#514960"/>
<path d="M38.8141 159.029V160.05L10.7871 143.826V142.805L38.8141 159.029Z" fill="#514960"/>
<path d="M38.8141 162.14V163.145L10.7871 146.921V145.9L38.8141 162.14Z" fill="#514960"/>
<path d="M38.8141 165.236V166.241L10.7871 150.018V149.013L38.8141 165.236Z" fill="#514960"/>
<path d="M38.8141 168.332V169.337L10.7871 153.113V152.108L38.8141 168.332Z" fill="#514960"/>
<path d="M38.8141 171.427V172.432L10.7871 156.225V155.204L38.8141 171.427Z" fill="#514960"/>
<path d="M38.8141 174.539V175.544L10.7871 159.32V158.299L38.8141 174.539Z" fill="#514960"/>
<path d="M110.199 119.839L126.711 110.276V137.051L110.199 146.63V119.839Z" fill="#514960"/>
<path d="M126.065 136.679L110.863 145.496V120.228L126.065 111.411V136.679Z" fill="white"/>
<path d="M125.093 113.097V136.111L118.463 139.969L111.832 143.81V120.779L123.12 114.231L125.093 113.097Z" fill="#5A86EC"/>
<path d="M136.82 104.182L153.332 94.6035V121.395L136.82 130.973V104.182Z" fill="#514960"/>
<path d="M152.685 121.022L137.482 129.823V104.555L152.685 95.7544V121.022Z" fill="white"/>
<path d="M138.453 105.122L151.715 97.4238V120.455L138.453 128.137V105.122Z" fill="#5A86EC"/>
<path d="M163.439 88.5259L179.952 78.9473V105.722L163.439 115.301V88.5259Z" fill="#514960"/>
<path d="M179.304 105.349L164.102 114.166V88.8985L179.304 80.0815V105.349Z" fill="white"/>
<path d="M165.072 89.4657L178.334 81.7671V104.782L165.072 112.48V89.4657Z" fill="#5A86EC"/>
<path d="M136.82 141.508L153.332 131.93V166.371L136.82 175.949V141.508Z" fill="#514960"/>
<path d="M152.685 165.998L137.482 174.815V141.881L152.685 133.064V165.998Z" fill="white"/>
<path d="M151.715 134.75V165.431L143.45 170.228L138.453 173.13V142.449L149.661 135.933L151.715 134.75Z" fill="#5A86EC"/>
<path d="M163.439 125.836L179.952 116.257V150.714L163.439 160.277V125.836Z" fill="#514960"/>
<path d="M179.304 150.325L164.102 159.142V126.225L179.304 117.408V150.325Z" fill="white"/>
<path d="M165.072 126.776L178.334 119.077V149.774L165.072 157.457V126.776Z" fill="#5A86EC"/>
<g style="mix-blend-mode:screen" opacity="0.5">
<path d="M123.12 114.231L118.463 139.969L111.832 143.81V120.779L123.12 114.231Z" fill="#8EACDE"/>
</g>
<g style="mix-blend-mode:screen" opacity="0.5">
<path d="M149.742 98.5747L145.068 124.296L138.453 128.154V105.123L149.742 98.5747Z" fill="#8EACDE"/>
</g>
<g style="mix-blend-mode:screen" opacity="0.5">
<path d="M176.378 82.8691L171.704 108.607L165.09 112.448V89.417L176.378 82.8691Z" fill="#8EACDE"/>
</g>
<g style="mix-blend-mode:screen" opacity="0.5">
<path d="M149.661 135.933L143.45 170.228L138.453 173.129V142.449L149.661 135.933Z" fill="#8EACDE"/>
</g>
<g style="mix-blend-mode:screen" opacity="0.5">
<path d="M176.409 120.228L170.199 154.523L165.186 157.424V126.743L176.409 120.228Z" fill="#8EACDE"/>
</g>
<path d="M110.199 155.382L127.002 145.641V198.364L110.199 208.105V155.382Z" fill="white"/>
<path d="M126.34 198.753L110.879 207.716V155.771L126.34 146.808V198.753Z" fill="#514960"/>
<path d="M111.865 156.339L125.353 148.51V179.515L111.865 187.344V156.339Z" fill="white"/>
<path d="M124.689 149.661V179.126L117.46 183.324L112.527 186.193V156.727L123.428 150.406L124.689 149.661Z" fill="#5A86EC"/>
<g style="mix-blend-mode:screen" opacity="0.5">
<path d="M123.428 150.406L117.46 183.324L112.527 186.193V156.727L123.428 150.406Z" fill="#8EACDE"/>
</g>
</svg>
