<svg width="284" height="269" viewBox="0 0 284 269" fill="none" xmlns="http://www.w3.org/2000/svg">
<path d="M183.551 64.9014V159.528L100.449 207.979V113.353L183.551 64.9014Z" fill="#E3D3CB"/>
<path d="M100.449 113.353V207.979L0 149.683V55.0571L100.449 113.353Z" fill="#D1A296"/>
<path d="M183.551 58.2956L100.449 106.763L0 48.4514L83.245 0L183.551 58.2956Z" fill="#9BB9E8"/>
<path d="M6.55859 48.4515L83.2442 3.81592L176.991 58.3117L100.449 102.947L6.55859 48.4515Z" fill="#FFFAE7"/>
<path d="M83.2442 3.81592V8.60975L10.6762 50.8404L6.55859 48.4515L83.2442 3.81592Z" fill="#5A86EC"/>
<path d="M183.551 58.2954V64.901L100.449 113.352V106.763L170.783 65.7507L183.551 58.2954Z" fill="#5A86EC"/>
<path d="M100.449 106.763V113.353L0 55.0572V48.4517L12.7836 55.8589L100.449 106.763Z" fill="#4771D1"/>
<path d="M183.551 155.647V162.237L100.449 210.704V204.099L170.783 163.087L183.551 155.647Z" fill="#5A86EC"/>
<path d="M100.449 204.099V210.704L83.0056 200.572L81.6969 199.818L71.8498 194.11L54.023 183.753L52.6984 183L51.3897 182.23L0 152.393V145.803L12.7836 153.194L51.3897 175.608L52.6984 176.378L54.023 177.148L81.6969 193.213L83.0056 193.966L84.3142 194.736L100.449 204.099Z" fill="#4771D1"/>
<path d="M176.99 58.3117L172.889 60.7167L83.2441 8.60975V3.81592L176.99 58.3117Z" fill="#4771D1"/>
<path d="M284 156.77V172.033V187.296V202.559V217.823L263.22 229.944L242.441 242.065L221.678 254.169L200.898 266.29V251.027V235.764V220.5V205.237L221.678 193.116L242.441 180.995L263.22 168.89L284 156.77Z" fill="#E3D3CB"/>
<path d="M200.899 205.237V220.5V235.764V251.027V266.29L175.794 251.716L150.674 237.142L125.554 222.552L100.449 207.979V192.715V177.452V162.189V146.925L125.554 161.499L150.674 176.073L175.794 190.663L200.899 205.237Z" fill="#D1A296"/>
<path d="M284 150.18V151.816V153.467V155.118V156.77L263.22 168.891L242.441 180.995L221.678 193.116L200.898 205.237V203.586V201.934V200.283V198.632L218.486 188.387L236.057 178.126L253.645 167.864L271.232 157.619L274.424 155.76L277.616 153.9L280.808 152.04L284 150.18Z" fill="#5A86EC"/>
<path d="M200.899 198.631V200.283V201.934V203.586V205.237L175.794 190.663L150.674 176.073L125.554 161.499L100.449 146.925V145.274V143.623V141.971V140.32L103.641 142.18L106.849 144.023L110.041 145.883L113.233 147.727L135.161 160.457L157.074 173.187L178.986 185.901L200.899 198.631Z" fill="#4771D1"/>
<path d="M284 213.943V215.594V217.246V218.897V220.548L263.22 232.669L242.441 244.774L221.678 256.895L200.898 269V267.364V265.713V264.062V262.41L218.486 252.149L236.057 241.904L253.645 231.643L271.232 221.398L274.424 219.538L277.616 217.662L280.808 215.803L284 213.943Z" fill="#5A86EC"/>
<path d="M200.899 262.41V264.062V265.713V267.364V269L196.542 266.483L192.169 263.949L187.812 261.416L183.455 258.883L183.12 258.691L182.8 258.498L182.465 258.306L182.146 258.113L179.672 256.687L177.215 255.26L174.757 253.833L172.299 252.406L167.846 249.824L163.394 247.227L158.925 244.646L154.472 242.049L154.137 241.872L153.818 241.68L153.483 241.487L153.148 241.295L152.828 241.103L152.493 240.91L152.174 240.718L151.839 240.525L138.991 233.07L126.144 225.615L113.297 218.159L100.449 210.704V209.053V207.401V205.75V204.099L103.641 205.958L106.849 207.802L110.041 209.662L113.233 211.506L122.888 217.101L132.544 222.713L142.183 228.324L151.839 233.92L152.174 234.112L152.493 234.305L152.828 234.497L153.148 234.689L153.483 234.882L153.818 235.074L154.137 235.267L154.472 235.443L161.383 239.467L168.309 243.475L175.22 247.5L182.146 251.508L182.465 251.7L182.8 251.893L183.12 252.085L183.455 252.278L183.774 252.47L184.109 252.662L184.444 252.855L184.763 253.031L188.801 255.372L192.839 257.729L196.861 260.069L200.899 262.41Z" fill="#4771D1"/>
<path d="M125.219 177.26V225.086L124.565 224.717L123.256 223.947L122.602 223.579L117.687 220.725L112.755 217.871L108.829 215.594L108.398 215.338L103.85 212.692L94.9282 207.53L94.2739 207.145L93.6196 206.776L92.9493 206.391L92.2949 206.007V158.052L108.398 167.448L108.765 167.656L125.219 177.26Z" fill="#5A86EC"/>
<path d="M123.91 177.965V224.268L123.256 223.9L122.602 223.515L117.686 220.661L112.755 217.807L108.829 215.53L108.398 215.274L103.849 212.628L94.9278 207.466L94.2735 207.081L93.6191 206.712V160.329L108.398 168.971L108.765 169.179L123.91 177.965Z" fill="white"/>
<path d="M122.602 178.783V223.579L117.686 220.725L112.755 217.871L108.828 215.594L108.398 215.338L103.849 212.692L94.9277 207.53V162.638L108.398 170.51L108.765 170.718L122.602 178.783Z" fill="#9BB9E8"/>
<path d="M97.1133 183.128V175.576V168.009L100.768 170.141L104.407 172.258V179.825V187.393L100.768 185.26L97.1133 183.128Z" fill="white"/>
<path d="M103.864 186.431L100.768 184.619L97.6719 182.807V175.897V168.971L100.768 170.782L103.864 172.578V179.504V186.431Z" fill="#5A86EC"/>
<path d="M113.074 192.475V184.907V177.34L116.713 179.472L120.368 181.605V189.172V196.74L116.713 194.607L113.074 192.475Z" fill="white"/>
<path d="M119.808 195.778L116.711 193.966L113.615 192.154V185.228V178.318L116.711 180.114L119.808 181.925V188.851V195.778Z" fill="#5A86EC"/>
<path d="M108.827 170.719V215.595L108.396 215.338V170.478L108.764 170.686L108.827 170.719Z" fill="#5A86EC"/>
<path d="M170.05 203.249V251.075L169.395 250.69L168.071 249.937L167.416 249.552L162.501 246.698L157.585 243.86L153.643 241.567L153.212 241.311L148.664 238.682L139.742 233.503L139.088 233.134L138.434 232.749L137.779 232.381L137.125 231.996V184.025L153.212 193.421L153.579 193.645L170.05 203.249Z" fill="#5A86EC"/>
<path d="M168.725 204.003V250.322L168.07 249.937L167.416 249.568L162.501 246.714L157.585 243.861L153.643 241.568L153.212 241.311L148.664 238.682L139.742 233.503L139.088 233.135L138.434 232.75V186.254L153.212 194.944L153.579 195.169L168.725 204.003Z" fill="white"/>
<path d="M167.416 204.756V249.649L162.5 246.795L157.585 243.941L153.643 241.648L153.212 241.392L148.664 238.762L139.742 233.584V188.691L153.212 196.548L153.579 196.772L167.416 204.756Z" fill="#9BB9E8"/>
<path d="M141.943 209.117V201.549V193.982L145.582 196.114L149.237 198.247V205.814V213.382L145.582 211.249L141.943 209.117Z" fill="white"/>
<path d="M148.679 212.42L145.582 210.608L142.486 208.796V201.87V194.944L145.582 196.756L148.679 198.567V205.493V212.42Z" fill="#5A86EC"/>
<path d="M157.889 218.464V210.897V203.329L161.543 205.461L165.182 207.594V215.161V222.729L161.543 220.597L157.889 218.464Z" fill="white"/>
<path d="M164.64 221.751L161.543 219.955L158.447 218.143V211.217V204.291L161.543 206.103L164.64 207.914V214.841V221.751Z" fill="#5A86EC"/>
<path d="M153.642 196.708V241.568L153.211 241.311V196.451L153.578 196.676L153.642 196.708Z" fill="#5A86EC"/>
<path d="M138.32 122.09L138.304 126.884L129.239 132.175L111.125 142.709L110.088 142.115L109.067 141.522L108.029 140.913L107.008 140.32L126.143 129.177L138.32 122.09Z" fill="#9BB9E8"/>
<path d="M277.856 150.934L258.72 162.093L239.585 173.252L220.449 184.426L201.314 195.569L177.837 181.957L154.361 168.329L130.884 154.701L107.424 141.073L107.855 140.817L108.03 140.913L109.068 141.522L110.089 142.116L111.126 142.709L129.241 132.175L138.306 126.884L138.321 123.101L145.695 118.804L164.83 107.645L183.966 96.5181L207.442 110.114L230.919 123.726L254.379 137.338L277.856 150.934Z" fill="#9BB9E8"/>
<path d="M277.856 150.934L258.72 162.093L239.585 173.252L220.449 184.426L201.314 195.569L177.837 181.957L154.361 168.329L130.884 154.701L107.424 141.073L107.855 140.817L126.559 129.947L138.321 123.101L145.695 118.804L164.83 107.645L183.966 96.5181L207.442 110.114L230.919 123.726L254.379 137.338L277.856 150.934Z" fill="#FFFAE7"/>
<path d="M196.206 165.139C189.472 165.267 182.815 163.673 176.863 160.505C171.469 157.299 168.484 153.114 168.484 148.545C168.484 143.975 171.469 139.743 176.863 136.6C187.524 130.428 204.872 130.428 215.533 136.6C220.943 139.807 223.912 143.975 223.912 148.545C223.912 153.114 220.943 157.363 215.533 160.505C209.587 163.673 202.936 165.268 196.206 165.139V165.139ZM196.206 134.468C189.911 134.345 183.688 135.835 178.124 138.797C173.544 141.458 171.006 144.921 171.006 148.545C171.006 152.168 173.544 155.647 178.124 158.309C188.099 164.081 204.314 164.081 214.272 158.309C218.869 155.647 221.39 152.184 221.39 148.545C221.39 144.905 218.869 141.458 214.272 138.797C208.711 135.849 202.493 134.376 196.206 134.516V134.468Z" fill="#5A86EC"/>
<path d="M214.832 147.006L193.462 159.399L190.701 157.796L200.724 151.992L190.382 145.995L180.343 151.815L177.566 150.212L198.952 137.883L201.729 139.486L192.792 144.665L203.134 150.661L212.071 145.466L214.832 147.006Z" fill="#5A86EC"/>
<path d="M158.062 111.573V106.779L161.35 108.687V113.481L158.062 111.573Z" fill="#5A86EC"/>
<path d="M157.999 83.4834V111.589L157.185 112.054H157.089L156.276 112.535L146.955 117.938L146.668 118.114L137.092 123.646L136.901 123.758L136.182 124.175L135.975 124.287L135.305 124.688V96.6624L146.652 90.0409L146.939 89.8645L157.999 83.4834Z" fill="#5A86EC"/>
<path d="M157.153 85.0547V112.102L156.339 112.583L147.019 117.986L146.732 118.163L137.156 123.694L136.964 123.806L136.246 124.223V97.2878L146.684 91.1953L146.971 91.0189L157.153 85.0547Z" fill="white"/>
<path d="M156.26 86.5776V112.631L146.939 118.034L146.652 118.211L137.076 123.742V97.8007L146.652 92.2533L146.939 92.0769L156.26 86.5776Z" fill="#9BB9E8"/>
<path d="M143.715 107.276V102.049V96.8066L141.193 98.2817L138.672 99.7567V104.983V110.226L141.193 108.751L143.715 107.276Z" fill="white"/>
<path d="M143.332 97.48V107.052L141.193 108.302L140.092 108.943L139.055 109.553V99.9811L141.193 98.7306L141.704 98.442L143.332 97.48Z" fill="#5A86EC"/>
<g style="mix-blend-mode:screen" opacity="0.25">
<path d="M141.704 98.4419L140.092 108.943L139.055 109.553V99.9811L141.193 98.7305L141.704 98.4419Z" fill="#8EACDE"/>
</g>
<path d="M154.744 100.815V95.5881V90.3613L152.223 91.8203L149.701 93.2953V98.5221V103.765L152.223 102.29L154.744 100.815Z" fill="white"/>
<path d="M154.361 91.0186V100.59L152.223 101.841L151.121 102.482L150.084 103.091V93.5197L152.223 92.2691L152.733 91.9805L154.361 91.0186Z" fill="#5A86EC"/>
<g style="mix-blend-mode:screen" opacity="0.25">
<path d="M152.733 91.981L151.121 102.483L150.084 103.092V93.5201L152.223 92.2695L152.733 91.981Z" fill="#8EACDE"/>
</g>
<path d="M146.94 92.061V118.034L146.652 118.211V92.2374L146.94 92.061Z" fill="#5A86EC"/>
<path d="M137.779 122.299L137.747 127.093L128.682 132.367L110.584 142.917L109.547 142.324L108.526 141.715L107.488 141.121L106.467 140.528L125.602 129.385L137.779 122.299Z" fill="#5A86EC"/>
<path d="M284 150.18L263.221 162.285L242.441 174.406L221.678 186.511L200.899 198.632L175.794 184.058L150.674 169.484L125.554 154.91L100.449 140.32L121.229 128.231L135.034 120.199L138.321 122.091L126.144 129.177L107.009 140.32L107.854 140.817L200.755 194.848L277.313 150.212L254.379 137.338L230.918 123.726L207.442 110.114L183.965 96.518L164.83 107.645L161.335 108.703L158.063 106.779L162.787 104.037L183.551 91.9326L208.671 106.507L233.775 121.064L258.896 135.606L284 150.18Z" fill="#9BB9E8"/>
<path d="M183.567 95.7485V100.542L165.453 111.092L161.352 113.481V108.687L164.432 106.891L183.567 95.7485Z" fill="#5A86EC"/>
<path d="M277.44 150.18L276.419 150.774L275.382 151.383L274.36 151.976L273.339 152.585L250.884 139.567L228.445 126.564L206.006 113.561L183.566 100.542V99.356V98.1536V96.9511V95.7646L207.027 109.361L230.503 122.972L253.98 136.568L277.44 150.18Z" fill="#4771D1"/>
<path d="M66.9668 22.0771V41.2204L79.2876 48.4192V29.2759L66.9668 22.0771Z" fill="#D1A296"/>
<path d="M77.9788 30.0458L68.2754 24.3701V41.9903L77.9788 47.6499V30.0458Z" fill="#5A86EC"/>
<path d="M79.2871 29.2763V48.4196L99.9547 36.459V23.9053L79.2871 29.2763Z" fill="#E3D3CB"/>
<path d="M66.9668 22.0771L79.2876 29.2758L99.9552 23.9048L87.5706 16.7061L66.9668 22.0771Z" fill="#9BB9E8"/>
<path d="M270.929 199.145V228.26L270.067 228.757L269.668 228.982L260.651 234.225L260.268 234.449L259.406 234.946V205.83L270.929 199.145Z" fill="#5A86EC"/>
<path d="M270.067 200.652V228.758L269.668 228.982L260.651 234.225L260.268 234.449V206.344L270.067 200.652Z" fill="white"/>
<path d="M269.668 201.325V228.982L260.65 234.225V206.568L269.668 201.325Z" fill="#9BB9E8"/>
<path d="M261.242 206.889L269.094 202.319V217.871L261.242 222.457V206.889Z" fill="white"/>
<path d="M268.711 202.993V217.647L263.955 220.42L261.625 221.767V207.113L266.429 204.323L268.711 202.993Z" fill="#5A86EC"/>
<g style="mix-blend-mode:screen" opacity="0.5">
<path d="M266.429 204.323L263.955 220.42L261.625 221.767V207.113L266.429 204.323Z" fill="#8EACDE"/>
</g>
<path d="M206.564 209.47L236.169 192.299V209.037L206.564 226.224V209.47Z" fill="#5A86EC"/>
<path d="M235.531 208.668L207.203 225.102V209.839L235.531 193.421V208.668Z" fill="white"/>
<path d="M234.573 195.088V208.107L219.555 216.813L208.16 223.435V210.4L221.758 202.512L234.573 195.088Z" fill="#5A86EC"/>
<g style="mix-blend-mode:screen" opacity="0.5">
<path d="M221.758 202.512L219.555 216.813L208.16 223.435V210.4L221.758 202.512Z" fill="#8EACDE"/>
</g>
<path d="M217.306 204.74H216.332V218.897H217.306V204.74Z" fill="white"/>
<path d="M226.419 199.417H225.445V213.574H226.419V199.417Z" fill="white"/>
<path d="M245.633 186.799L275.238 169.628V186.366L245.633 203.554V186.799Z" fill="#5A86EC"/>
<path d="M274.6 185.998L246.271 202.415V187.168L274.6 170.75V185.998Z" fill="white"/>
<path d="M247.229 187.729L273.642 172.402V185.437L247.229 200.764V187.729Z" fill="#5A86EC"/>
<g style="mix-blend-mode:screen" opacity="0.5">
<path d="M260.826 179.841L258.624 194.142L247.229 200.764V187.729L260.826 179.841Z" fill="#8EACDE"/>
</g>
<path d="M256.358 182.07H255.385V196.227H256.358V182.07Z" fill="white"/>
<path d="M265.487 176.747H264.514V190.904H265.487V176.747Z" fill="white"/>
<path d="M38.8299 79.7957L9.20898 62.6084V89.1108L38.8299 106.282V79.7957Z" fill="#5A86EC"/>
<path d="M9.86328 88.7262L38.1755 105.16V80.1647L9.86328 63.731V88.7262Z" fill="white"/>
<path d="M37.2174 80.7099L10.8203 65.3984V88.1812L37.2174 103.493V80.7099Z" fill="#5A86EC"/>
<path d="M29.0614 75.4028H28.0879V99.3079H29.0614V75.4028Z" fill="white"/>
<path d="M19.9325 70.0796H18.959V93.9846H19.9325V70.0796Z" fill="white"/>
<path d="M85.8299 106.33L56.209 89.1431V115.645L85.8299 132.817V106.33Z" fill="#5A86EC"/>
<path d="M56.8633 115.26L85.1755 131.694V106.699L56.8633 90.2651V115.26Z" fill="white"/>
<path d="M84.2193 107.26L57.8223 91.9326V114.715L84.2193 130.027V107.26Z" fill="#5A86EC"/>
<path d="M76.0634 101.937H75.0898V125.842H76.0634V101.937Z" fill="white"/>
<path d="M66.9345 96.6143H65.9609V120.519H66.9345V96.6143Z" fill="white"/>
<path d="M38.8299 110.114L9.20898 92.9268V119.413L38.8299 136.6V110.114Z" fill="#5A86EC"/>
<path d="M9.86328 119.044L38.1755 135.478V110.483L9.86328 94.0488V119.044Z" fill="white"/>
<path d="M37.2174 111.028L10.8203 95.7163V118.499L37.2174 133.81V111.028Z" fill="#5A86EC"/>
<path d="M29.0614 105.721H28.0879V129.626H29.0614V105.721Z" fill="white"/>
<path d="M19.9325 100.398H18.959V124.303H19.9325V100.398Z" fill="white"/>
<path d="M85.8299 136.648L56.209 119.461V145.963L85.8299 163.135V136.648Z" fill="#5A86EC"/>
<path d="M56.8633 145.579L85.1755 162.013V137.017L56.8633 120.6V145.579Z" fill="white"/>
<path d="M84.2193 137.578L57.8223 122.251V145.034L84.2193 160.345V137.578Z" fill="#5A86EC"/>
<path d="M76.0634 132.255H75.0898V156.16H76.0634V132.255Z" fill="white"/>
<path d="M66.9345 126.933H65.9609V150.838H66.9345V126.933Z" fill="white"/>
<path d="M38.8299 140.416L9.20898 123.245V149.731L38.8299 166.919V140.416Z" fill="#5A86EC"/>
<path d="M9.86328 149.362L38.1755 165.796V140.801L9.86328 124.367V149.362Z" fill="white"/>
<path d="M37.2174 141.362L10.8203 126.035V148.817L37.2174 164.129V141.362Z" fill="#5A86EC"/>
<path d="M29.0614 136.039H28.0879V159.944H29.0614V136.039Z" fill="white"/>
<path d="M19.9325 130.716H18.959V154.621H19.9325V130.716Z" fill="white"/>
<path d="M85.8299 166.967L56.209 149.779V176.282L85.8299 193.453V166.967Z" fill="#5A86EC"/>
<path d="M56.8633 175.897L85.1755 192.331V167.336L56.8633 150.902V175.897Z" fill="white"/>
<path d="M84.2193 167.896L57.8223 152.569V175.352L84.2193 190.663V167.896Z" fill="#5A86EC"/>
<path d="M76.0634 162.574H75.0898V186.479H76.0634V162.574Z" fill="white"/>
<path d="M66.9345 157.25H65.9609V181.156H66.9345V157.25Z" fill="white"/>
<path d="M71.9766 152.441V156.048L153.737 204.532V200.924L71.9766 152.441Z" fill="#4771D1"/>
<path d="M153.736 200.924V204.532L172.09 193.79V190.198L153.736 200.924Z" fill="#5A86EC"/>
<path d="M71.9766 152.441L153.737 200.924L172.091 190.198L90.2981 141.699L71.9766 152.441Z" fill="#9BB9E8"/>
</svg>
