<svg width="301" height="242" viewBox="0 0 301 242" fill="none" xmlns="http://www.w3.org/2000/svg">
<path d="M301 140.308L244.111 173.256L228.614 182.171L187.1 206.065L154.981 224.604L126.397 241.052L0 168.505L29.4673 151.538L35.5861 148.083L36.7128 147.444L42.8143 143.988L43.6983 143.47L47.7717 141.12L48.7424 140.567L52.7638 138.218L53.7172 137.665L59.9227 134.106L61.032 133.449L64.8108 131.272L65.5908 130.84L65.9201 130.633L66.4748 130.322L70.5656 127.851L71.5363 127.281L76.095 124.655L78.4351 123.325L82.5258 120.94L84.3979 119.869L119.845 99.534L135.203 90.6708L174.551 67.813L186.459 74.7239L187.169 75.1213L188.782 76.0542L195.264 79.7861L196.235 80.339L199.528 82.2395L200.655 82.8787L212.997 89.8414L301 140.308Z" fill="#BCD971"/>
<g style="mix-blend-mode:color-burn" opacity="0.2">
<path d="M255.326 127.022C253.03 125.853 250.38 125.576 247.89 126.245C246.462 125.604 244.91 125.289 243.344 125.322C241.779 125.355 240.241 125.735 238.842 126.435V126.435C237.436 125.81 235.909 125.501 234.37 125.528C232.831 125.554 231.316 125.917 229.932 126.59C227.584 126.088 225.135 126.412 222.999 127.506C220.399 129.009 220.399 131.428 222.999 132.931C224.431 133.662 226.014 134.052 227.623 134.07C229.233 134.088 230.824 133.733 232.272 133.034C234.62 133.536 237.07 133.213 239.206 132.119H239.293C241.502 133.088 243.975 133.289 246.313 132.689C247.74 133.329 249.293 133.644 250.858 133.611C252.423 133.578 253.962 133.198 255.361 132.499C257.926 130.944 257.926 128.525 255.326 127.022Z" fill="#4C6FB6"/>
</g>
<path d="M251.062 131.203C250.884 131.36 250.678 131.483 250.455 131.566C249.931 131.728 249.365 131.697 248.861 131.48H248.705C247.98 131.7 247.2 131.657 246.503 131.359C246.244 131.255 245.968 131.197 245.689 131.186C245.394 131.186 245.203 131.307 244.874 131.186C244.52 130.989 244.212 130.718 243.973 130.391C243.973 130.668 243.661 130.858 243.383 130.84C243.106 130.823 242.361 130.149 241.789 130.253C241.675 130.284 241.569 130.337 241.477 130.409C241.54 130.048 241.723 129.719 241.997 129.476C242.313 129.2 242.67 128.973 243.054 128.802C243.415 128.57 243.839 128.456 244.267 128.474C244.679 128.58 245.052 128.802 245.342 129.113C245.642 129.393 245.996 129.611 246.382 129.752C246.575 129.819 246.782 129.838 246.984 129.808C247.186 129.778 247.378 129.699 247.543 129.579C247.583 129.728 247.656 129.865 247.759 129.98C247.861 130.096 247.989 130.185 248.132 130.242C248.275 130.3 248.43 130.322 248.583 130.309C248.737 130.296 248.885 130.247 249.017 130.167C249.159 130.571 249.448 130.908 249.826 131.112C250.204 131.317 250.644 131.374 251.062 131.272V131.203Z" fill="#A2BD6A"/>
<path d="M253.072 127.575C253.011 127.773 252.899 127.95 252.747 128.09C252.595 128.23 252.407 128.327 252.205 128.37C252.195 128.81 252.029 129.232 251.737 129.562C251.783 129.771 251.787 129.987 251.749 130.198C251.71 130.409 251.629 130.61 251.512 130.789C251.409 130.942 251.287 131.082 251.148 131.203C250.969 131.36 250.764 131.483 250.541 131.566C250.016 131.728 249.451 131.697 248.946 131.48H248.79C248.065 131.7 247.285 131.657 246.589 131.359C246.329 131.256 246.054 131.197 245.774 131.186C245.479 131.186 245.289 131.307 244.96 131.186C244.61 130.983 244.303 130.713 244.058 130.391C244.058 130.668 243.746 130.858 243.469 130.841C243.191 130.823 242.446 130.15 241.874 130.253C241.761 130.284 241.655 130.337 241.562 130.409C241.267 130.633 241.111 131.031 240.747 131.221C240.471 131.365 240.158 131.422 239.848 131.385C239.539 131.348 239.248 131.218 239.014 131.013C238.598 134.469 234.299 130.841 234.091 131.169C234.027 131.276 233.939 131.368 233.834 131.437C233.729 131.506 233.609 131.55 233.485 131.566C233.206 131.578 232.93 131.512 232.687 131.376C232.372 131.195 232.01 131.111 231.647 131.134C231.318 131.134 231.197 131.532 230.937 131.635C230.312 131.843 229.966 131.393 229.428 130.996C228.458 130.288 226.43 130.029 227.227 128.214C227.015 128.155 226.817 128.052 226.648 127.911C226.479 127.771 226.341 127.596 226.244 127.398C226.148 127.201 226.094 126.985 226.087 126.765C226.08 126.546 226.12 126.327 226.204 126.124C226.008 125.809 225.883 125.455 225.839 125.087C225.794 124.719 225.831 124.346 225.947 123.993C226.062 123.641 226.254 123.318 226.508 123.048C226.762 122.777 227.073 122.565 227.418 122.427C227.154 122.229 226.936 121.977 226.779 121.688C226.622 121.399 226.529 121.079 226.508 120.751C226.487 120.422 226.537 120.093 226.655 119.786C226.773 119.479 226.956 119.201 227.192 118.971C227.425 118.762 227.701 118.607 228.001 118.518C228.3 118.428 228.616 118.406 228.926 118.453C229.286 118.491 229.634 118.603 229.949 118.781C230.14 118.902 230.351 118.989 230.573 119.04C230.637 118.853 230.766 118.694 230.937 118.591C231.137 118.484 231.37 118.454 231.591 118.509C231.812 118.563 232.005 118.697 232.133 118.885C232.184 118.992 232.242 119.096 232.306 119.196C232.339 119.242 232.383 119.279 232.435 119.304C232.487 119.328 232.544 119.338 232.601 119.334C232.693 119.303 232.777 119.25 232.843 119.178C232.983 119.089 233.145 119.042 233.311 119.042C233.477 119.042 233.64 119.089 233.779 119.178C233.987 119.319 234.169 119.495 234.317 119.697L234.438 119.887C234.445 119.819 234.465 119.754 234.498 119.695C234.531 119.635 234.575 119.583 234.629 119.541C234.426 119.332 234.309 119.055 234.299 118.764C234.356 118.298 234.522 117.851 234.784 117.461C235.046 117.071 235.397 116.748 235.807 116.518C236.108 116.397 236.433 116.345 236.757 116.366C237.081 116.387 237.396 116.48 237.679 116.639C237.951 116.783 238.183 116.99 238.355 117.243C238.494 116.691 239.413 116.794 239.655 117.243V117.382H239.881C240.034 117.392 240.184 117.434 240.321 117.504C240.458 117.574 240.58 117.67 240.679 117.788C240.777 117.906 240.851 118.042 240.896 118.189C240.94 118.336 240.955 118.49 240.938 118.643C241.113 118.402 241.363 118.226 241.649 118.142C241.943 118.142 242.29 118.349 242.203 118.643C242.404 118.49 242.656 118.422 242.907 118.454C243.157 118.487 243.384 118.617 243.538 118.816C243.662 118.649 243.827 118.518 244.017 118.433C244.207 118.349 244.416 118.315 244.623 118.334C244.83 118.353 245.029 118.425 245.2 118.542C245.371 118.66 245.509 118.82 245.601 119.006C245.887 118.917 246.187 118.888 246.485 118.919C246.633 118.939 246.772 119.004 246.881 119.106C246.99 119.209 247.064 119.343 247.092 119.489C247.074 119.682 247.039 119.873 246.988 120.06V120.267C247.267 120.191 247.564 120.214 247.829 120.33C248.094 120.446 248.311 120.65 248.444 120.906C248.721 120.388 249.588 120.906 249.657 121.442V121.563C249.904 121.769 250.089 122.04 250.19 122.345C250.291 122.651 250.304 122.978 250.229 123.29C250.395 123.184 250.592 123.136 250.789 123.154C250.986 123.172 251.171 123.255 251.315 123.391C251.458 123.526 251.552 123.705 251.582 123.9C251.611 124.095 251.574 124.294 251.477 124.465C251.673 124.515 251.851 124.619 251.989 124.766C252.127 124.913 252.22 125.097 252.257 125.295C252.31 125.469 252.31 125.656 252.257 125.83C252.539 126.02 252.764 126.282 252.907 126.59C253.051 126.897 253.108 127.238 253.072 127.575V127.575Z" fill="#CDE082"/>
<path d="M248.86 131.48H248.704C247.978 131.7 247.199 131.657 246.502 131.359C246.242 131.255 245.967 131.197 245.688 131.186C245.393 131.186 245.185 131.307 244.873 131.186C244.516 131 244.207 130.734 243.971 130.408C243.971 130.685 243.659 130.875 243.382 130.858C243.105 130.84 242.359 130.167 241.787 130.27C241.215 130.374 241.129 130.996 240.661 131.238C240.385 131.384 240.071 131.443 239.761 131.406C239.451 131.369 239.16 131.238 238.927 131.03C238.511 134.486 234.213 130.858 234.005 131.186C233.94 131.294 233.852 131.385 233.747 131.454C233.642 131.523 233.523 131.567 233.398 131.583C233.119 131.596 232.843 131.531 232.601 131.393C232.288 131.206 231.924 131.121 231.561 131.151C231.231 131.151 231.11 131.549 230.85 131.652C230.226 131.86 229.879 131.411 229.342 131.013C228.371 130.305 226.343 130.046 227.14 128.232C226.934 128.163 226.743 128.053 226.582 127.907C226.421 127.761 226.292 127.583 226.203 127.384C226.115 127.186 226.07 126.971 226.07 126.754C226.07 126.537 226.116 126.322 226.204 126.124C226.008 125.809 225.883 125.455 225.839 125.087C225.794 124.719 225.831 124.346 225.947 123.993C226.062 123.641 226.254 123.318 226.508 123.047C226.762 122.777 227.073 122.565 227.418 122.426C227.154 122.229 226.936 121.977 226.779 121.688C226.622 121.398 226.529 121.079 226.508 120.75C226.487 120.422 226.537 120.093 226.655 119.786C226.773 119.479 226.956 119.201 227.192 118.971C227.425 118.762 227.701 118.607 228.001 118.518C228.3 118.428 228.616 118.406 228.926 118.453C228.872 118.708 228.871 118.972 228.925 119.228C228.979 119.484 229.085 119.726 229.238 119.938C228.752 119.766 228.423 120.595 228.787 120.975C228.996 121.129 229.241 121.228 229.499 121.261C229.757 121.294 230.019 121.261 230.26 121.165C230.746 120.978 231.273 120.925 231.786 121.01C231.983 121.08 232.147 121.223 232.243 121.409C232.34 121.595 232.362 121.81 232.306 122.012C232.475 121.855 232.681 121.742 232.905 121.685C233.129 121.628 233.364 121.627 233.589 121.683C233.851 121.77 234.079 121.937 234.241 122.161C234.402 122.384 234.49 122.652 234.49 122.927C234.609 122.713 234.796 122.544 235.022 122.447C235.248 122.35 235.5 122.331 235.738 122.392C235.974 122.465 236.178 122.616 236.316 122.82C236.455 123.024 236.52 123.269 236.501 123.515C236.687 123.708 236.831 123.937 236.925 124.188C237.018 124.439 237.059 124.707 237.044 124.974C237.03 125.241 236.96 125.503 236.84 125.742C236.719 125.982 236.551 126.194 236.345 126.366C236.47 126.404 236.585 126.469 236.682 126.557C236.779 126.645 236.855 126.753 236.904 126.873C236.954 126.994 236.976 127.124 236.969 127.255C236.963 127.385 236.927 127.512 236.865 127.627C236.93 127.555 237.011 127.499 237.101 127.464C237.191 127.428 237.288 127.413 237.385 127.419C237.489 127.834 237.575 128.249 237.662 128.681L239.17 128.093C239.162 128.408 239.25 128.717 239.424 128.98C239.598 129.242 239.848 129.445 240.141 129.562C240.443 129.678 240.776 129.693 241.088 129.606C241.4 129.519 241.676 129.334 241.874 129.078L244.734 129.752C245.187 130.375 245.864 130.798 246.624 130.934C247.384 131.069 248.166 130.906 248.808 130.478C248.764 130.812 248.782 131.151 248.86 131.48Z" fill="#A2BD6A"/>
<path d="M238.842 121.597C238.842 121.804 238.513 121.943 238.391 121.77C237.802 122.185 237.005 121.874 236.346 121.563C235.757 121.306 235.218 120.949 234.751 120.509C234.537 120.282 234.377 120.011 234.283 119.714C234.179 119.412 234.179 119.083 234.283 118.781C234.34 118.315 234.506 117.869 234.768 117.478C235.03 117.088 235.381 116.765 235.791 116.535C236.093 116.414 236.417 116.362 236.741 116.383C237.065 116.404 237.38 116.497 237.663 116.656C237.384 117.034 237.071 117.387 236.727 117.71C236.519 117.934 235.999 118.228 235.965 118.608C235.96 118.887 236.045 119.159 236.207 119.386C236.439 119.849 236.757 120.266 237.143 120.612C237.373 120.786 237.64 120.904 237.923 120.958C238.13 120.991 238.333 121.043 238.53 121.113C238.626 121.152 238.707 121.22 238.763 121.306C238.818 121.393 238.846 121.494 238.842 121.597V121.597Z" fill="#A2BD6A"/>
<path d="M251.425 130.789C251.323 130.942 251.2 131.082 251.061 131.203C250.883 131.36 250.677 131.483 250.455 131.566C249.93 131.728 249.364 131.697 248.86 131.48H248.704C247.979 131.7 247.199 131.657 246.502 131.359C246.243 131.256 245.967 131.197 245.688 131.186C245.393 131.186 245.202 131.307 244.873 131.186C244.544 131.065 244.648 130.754 244.544 130.547C244.284 129.915 243.921 129.331 243.469 128.819C242.81 128.284 241.926 128.422 241.58 127.368C241.46 126.985 241.46 126.574 241.581 126.191C241.702 125.808 241.937 125.471 242.256 125.225C242.375 124.864 242.519 124.512 242.689 124.172C242.769 124 242.888 123.849 243.035 123.73C243.182 123.61 243.354 123.525 243.538 123.48C243.727 123.445 243.922 123.485 244.081 123.592C244.24 123.698 244.35 123.863 244.388 124.051C244.388 124.638 243.642 124.932 243.469 125.485C243.407 125.849 243.481 126.224 243.677 126.539C243.803 126.827 243.973 127.095 244.18 127.333C244.89 128.042 246.208 127.886 246.814 128.681C246.873 128.598 246.948 128.528 247.034 128.474C247.121 128.421 247.217 128.386 247.318 128.372C247.419 128.357 247.521 128.363 247.62 128.39C247.718 128.416 247.809 128.462 247.889 128.525C248.101 128.411 248.347 128.376 248.582 128.426C248.817 128.477 249.027 128.61 249.172 128.802C249.447 129.202 249.615 129.666 249.657 130.149C249.981 130.05 250.33 130.058 250.649 130.174C250.968 130.289 251.24 130.505 251.425 130.789Z" fill="#A2BD6A"/>
<path d="M235.739 131.082C235.387 131.406 234.983 131.669 234.543 131.86C234.426 131.917 234.316 131.986 234.214 132.067C234.084 132.167 233.963 132.277 233.85 132.396C233.656 132.58 233.434 132.732 233.191 132.845C232.793 133 232.203 132.845 232.238 132.326C231.67 132.46 231.08 132.477 230.505 132.376C229.929 132.275 229.381 132.058 228.893 131.739C228.813 131.934 228.683 132.104 228.515 132.232C228.348 132.359 228.149 132.44 227.939 132.465C227.52 132.506 227.097 132.471 226.691 132.361L224.022 131.808L223.571 131.722C223.202 131.686 222.852 131.541 222.566 131.307C222.501 131.244 222.449 131.169 222.414 131.086C222.379 131.003 222.36 130.914 222.36 130.823C222.36 130.733 222.379 130.644 222.414 130.561C222.449 130.478 222.501 130.402 222.566 130.34C222.392 130.287 222.232 130.2 222.093 130.083C221.955 129.966 221.843 129.822 221.763 129.66C221.684 129.498 221.638 129.321 221.63 129.141C221.622 128.96 221.652 128.78 221.716 128.612C221.952 128.006 222.355 127.479 222.878 127.091L223.034 126.953C222.957 126.834 222.893 126.706 222.843 126.573C222.637 125.966 222.655 125.306 222.893 124.71C223.131 124.115 223.574 123.624 224.143 123.325C224.182 123.114 224.264 122.912 224.382 122.733C224.501 122.554 224.655 122.4 224.834 122.28C225.013 122.161 225.215 122.079 225.427 122.039C225.639 121.999 225.856 122.001 226.067 122.046C226.224 122.077 226.372 122.142 226.501 122.237C226.999 121.993 227.569 121.936 228.107 122.076C228.644 122.215 229.113 122.542 229.43 122.997C229.75 122.852 230.102 122.793 230.452 122.827C230.802 122.86 231.137 122.984 231.423 123.187C232.082 123.653 232.047 124.483 232.862 124.673C233.677 124.863 234.422 124.534 235.15 125.295C235.473 125.64 235.679 126.078 235.738 126.546C235.797 127.014 235.707 127.489 235.479 127.903C235.895 128.906 236.398 130.219 235.739 131.082Z" fill="#F1ED78"/>
<path d="M233.295 131.307C233.052 131.399 232.789 131.428 232.531 131.392C232.274 131.356 232.03 131.255 231.822 131.099C231.617 130.943 231.456 130.737 231.353 130.501C231.249 130.266 231.208 130.008 231.232 129.752C230.95 129.724 230.68 129.627 230.444 129.47C230.208 129.314 230.015 129.102 229.88 128.853C229.747 128.603 229.677 128.325 229.677 128.041C229.677 127.758 229.747 127.479 229.88 127.229C229.833 127.318 229.766 127.395 229.684 127.454C229.603 127.512 229.508 127.55 229.408 127.565C229.309 127.581 229.207 127.572 229.111 127.541C229.016 127.509 228.929 127.456 228.857 127.385C228.859 127.573 228.817 127.758 228.734 127.927C228.651 128.096 228.53 128.243 228.381 128.357C228.231 128.471 228.057 128.548 227.872 128.584C227.687 128.619 227.496 128.611 227.315 128.56C227.024 128.947 226.601 129.216 226.125 129.314C225.649 129.413 225.154 129.335 224.732 129.095C224.485 128.842 224.301 128.534 224.195 128.197C224.072 127.877 224.074 127.523 224.199 127.203C224.324 126.884 224.563 126.622 224.871 126.469C224.717 125.875 224.754 125.248 224.974 124.675C225.195 124.102 225.589 123.612 226.101 123.273C225.997 123.104 225.927 122.916 225.898 122.72C225.868 122.524 225.878 122.324 225.928 122.133C225.717 122.087 225.499 122.085 225.288 122.125C225.076 122.165 224.874 122.247 224.695 122.367C224.516 122.486 224.362 122.64 224.243 122.819C224.125 122.998 224.043 123.2 224.004 123.411C223.437 123.707 222.994 124.195 222.755 124.787C222.517 125.38 222.499 126.037 222.704 126.642C222.686 126.814 222.686 126.988 222.704 127.16C222.183 127.557 221.781 128.089 221.543 128.698C221.478 128.867 221.448 129.047 221.456 129.227C221.464 129.407 221.51 129.584 221.589 129.746C221.669 129.908 221.782 130.052 221.92 130.169C222.058 130.286 222.219 130.374 222.392 130.426C222.327 130.488 222.275 130.564 222.24 130.647C222.205 130.73 222.186 130.819 222.186 130.909C222.186 131 222.205 131.089 222.24 131.172C222.275 131.255 222.327 131.33 222.392 131.393C222.678 131.628 223.028 131.772 223.397 131.808L226.517 132.447C226.924 132.557 227.347 132.592 227.765 132.551C227.975 132.526 228.174 132.445 228.342 132.318C228.509 132.19 228.64 132.02 228.719 131.825C229.207 132.144 229.756 132.361 230.331 132.462C230.906 132.563 231.496 132.546 232.064 132.413C232.064 132.844 232.619 133.086 233.018 132.931C233.26 132.818 233.483 132.666 233.676 132.482C233.789 132.363 233.91 132.253 234.04 132.153C234.142 132.072 234.252 132.003 234.37 131.946C234.048 131.677 233.685 131.461 233.295 131.307V131.307Z" fill="#D3E169"/>
<g style="mix-blend-mode:color-burn" opacity="0.2">
<path d="M235.132 140.827C235.554 141.083 236.026 141.246 236.516 141.306C237.006 141.365 237.504 141.32 237.975 141.172C238.502 141.475 239.1 141.635 239.708 141.635C240.317 141.635 240.914 141.475 241.441 141.172C241.976 141.452 242.571 141.598 243.175 141.598C243.779 141.598 244.374 141.452 244.908 141.172C245.352 141.282 245.813 141.304 246.265 141.236C246.718 141.168 247.152 141.011 247.543 140.775C247.767 140.668 247.955 140.5 248.087 140.29C248.22 140.081 248.29 139.839 248.29 139.591C248.29 139.344 248.22 139.102 248.087 138.892C247.955 138.683 247.767 138.515 247.543 138.408C247.001 138.094 246.385 137.928 245.758 137.928C245.13 137.928 244.514 138.094 243.972 138.408C243.075 138.202 242.133 138.344 241.337 138.805C240.488 138.403 239.52 138.323 238.616 138.581C238.089 138.277 237.491 138.118 236.883 138.118C236.274 138.118 235.676 138.277 235.149 138.581C234.955 138.696 234.793 138.86 234.68 139.055C234.568 139.251 234.508 139.473 234.506 139.699C234.504 139.924 234.561 140.147 234.671 140.344C234.78 140.542 234.939 140.708 235.132 140.827Z" fill="#4C6FB6"/>
</g>
<g style="mix-blend-mode:color-burn" opacity="0.2">
<path d="M240.297 135.972C240.719 136.228 241.191 136.391 241.681 136.451C242.171 136.511 242.669 136.465 243.14 136.318C243.674 136.608 244.276 136.753 244.885 136.737C245.493 136.722 246.087 136.548 246.607 136.231C247.14 136.515 247.735 136.664 248.34 136.664C248.945 136.664 249.54 136.515 250.073 136.231C250.517 136.341 250.978 136.363 251.431 136.295C251.883 136.227 252.317 136.07 252.708 135.834C252.932 135.727 253.12 135.559 253.253 135.349C253.385 135.14 253.455 134.898 253.455 134.65C253.455 134.403 253.385 134.161 253.253 133.951C253.12 133.742 252.932 133.574 252.708 133.467C252.166 133.153 251.55 132.987 250.923 132.987C250.296 132.987 249.68 133.153 249.137 133.467C248.24 133.261 247.298 133.403 246.503 133.864C245.653 133.462 244.686 133.382 243.781 133.64C243.25 133.348 242.654 133.195 242.048 133.195C241.442 133.195 240.845 133.348 240.314 133.64C240.099 133.749 239.918 133.915 239.791 134.119C239.664 134.324 239.596 134.56 239.594 134.801C239.592 135.041 239.657 135.278 239.781 135.485C239.905 135.691 240.083 135.86 240.297 135.972V135.972Z" fill="#4C6FB6"/>
</g>
<path d="M252.483 133.173C252.249 133.47 251.968 133.727 251.651 133.933L251.425 134.123L251.183 134.434C251.07 134.607 250.922 134.754 250.749 134.866C250.455 135.039 249.969 134.866 249.935 134.59C249.514 134.773 249.059 134.868 248.6 134.868C248.14 134.868 247.686 134.773 247.265 134.59C247.229 134.751 247.151 134.9 247.038 135.022C246.926 135.143 246.783 135.233 246.624 135.281C246.298 135.35 245.961 135.35 245.636 135.281H243.486H243.14C242.851 135.288 242.565 135.222 242.308 135.091C242.186 135.016 242.098 134.896 242.062 134.758C242.027 134.619 242.046 134.472 242.117 134.348C241.562 134.348 241.181 133.691 241.25 133.138C241.346 132.637 241.587 132.174 241.944 131.808L242.048 131.687C241.974 131.602 241.91 131.509 241.857 131.411C241.617 130.97 241.543 130.457 241.647 129.967C241.752 129.476 242.029 129.038 242.429 128.733C242.433 128.563 242.472 128.396 242.541 128.242C242.611 128.087 242.711 127.948 242.835 127.832C242.959 127.717 243.105 127.627 243.265 127.568C243.424 127.509 243.594 127.482 243.764 127.489C243.884 127.465 244.008 127.465 244.128 127.489C244.476 127.221 244.913 127.096 245.351 127.137C245.789 127.179 246.194 127.385 246.485 127.713C246.715 127.558 246.981 127.465 247.258 127.444C247.534 127.423 247.812 127.474 248.062 127.592C248.634 127.869 248.721 128.525 249.363 128.56C250.004 128.594 250.559 128.266 251.235 128.75C251.528 128.974 251.742 129.287 251.845 129.641C251.948 129.995 251.935 130.373 251.807 130.72C252.379 131.463 252.933 132.413 252.483 133.173Z" fill="#F1ED78"/>
<path d="M250.662 133.587C250.485 133.686 250.285 133.737 250.082 133.737C249.878 133.737 249.679 133.686 249.501 133.587C249.32 133.49 249.166 133.349 249.054 133.177C248.942 133.004 248.875 132.807 248.86 132.603C248.638 132.621 248.415 132.583 248.212 132.493C248.009 132.402 247.832 132.261 247.698 132.084C247.56 131.912 247.468 131.707 247.432 131.489C247.396 131.272 247.416 131.048 247.49 130.84C247.464 130.915 247.421 130.983 247.364 131.038C247.308 131.094 247.239 131.136 247.164 131.161C247.089 131.186 247.009 131.193 246.93 131.183C246.851 131.172 246.776 131.144 246.71 131.1C246.736 131.244 246.727 131.392 246.685 131.532C246.642 131.672 246.568 131.8 246.466 131.906C246.365 132.012 246.24 132.093 246.102 132.142C245.964 132.191 245.816 132.207 245.67 132.188C245.498 132.531 245.204 132.799 244.846 132.939C244.487 133.079 244.089 133.083 243.729 132.948C243.515 132.778 243.338 132.567 243.209 132.326C243.077 132.093 243.036 131.82 243.093 131.559C243.151 131.297 243.303 131.066 243.521 130.91C243.321 130.473 243.264 129.984 243.357 129.513C243.451 129.042 243.69 128.612 244.041 128.283C243.937 128.167 243.858 128.029 243.811 127.881C243.763 127.732 243.747 127.575 243.763 127.42C243.594 127.413 243.424 127.439 243.265 127.498C243.105 127.557 242.959 127.647 242.835 127.763C242.711 127.879 242.611 128.018 242.541 128.173C242.471 128.327 242.433 128.494 242.429 128.663C242.029 128.969 241.752 129.406 241.647 129.897C241.542 130.388 241.617 130.9 241.857 131.341C241.875 131.476 241.904 131.609 241.943 131.739C241.587 132.105 241.346 132.568 241.25 133.069C241.25 133.622 241.562 134.279 242.117 134.279C242.046 134.403 242.026 134.55 242.062 134.688C242.097 134.827 242.185 134.946 242.307 135.022C242.564 135.153 242.85 135.218 243.139 135.212H245.635C245.961 135.281 246.298 135.281 246.623 135.212C246.782 135.163 246.925 135.074 247.038 134.953C247.151 134.831 247.229 134.682 247.265 134.52C247.686 134.704 248.14 134.799 248.6 134.799C249.059 134.799 249.513 134.704 249.934 134.52C249.934 134.866 250.454 134.97 250.749 134.797C250.922 134.685 251.07 134.538 251.182 134.365L251.425 134.054L251.65 133.864C251.341 133.712 251.006 133.618 250.662 133.587Z" fill="#D3E169"/>
<path d="M248.374 138.494C248.069 138.817 247.712 139.085 247.317 139.289L247.022 139.496C246.904 139.603 246.794 139.719 246.693 139.842C246.529 140.03 246.329 140.183 246.104 140.291C246.015 140.335 245.916 140.355 245.816 140.351C245.717 140.346 245.621 140.317 245.536 140.265C245.451 140.213 245.381 140.141 245.332 140.055C245.282 139.969 245.256 139.872 245.254 139.773C244.744 139.905 244.21 139.919 243.694 139.814C243.177 139.709 242.691 139.488 242.273 139.168C242.213 139.357 242.102 139.527 241.952 139.658C241.802 139.789 241.62 139.876 241.424 139.911C241.045 139.953 240.662 139.918 240.297 139.807L237.922 139.255L237.506 139.151C237.175 139.111 236.865 138.965 236.622 138.736C236.505 138.599 236.441 138.424 236.441 138.244C236.441 138.063 236.505 137.889 236.622 137.751C235.981 137.63 235.686 136.715 235.859 136.024C236.071 135.427 236.428 134.893 236.9 134.469L237.038 134.331C236.971 134.21 236.919 134.083 236.882 133.95C236.684 133.349 236.688 132.699 236.895 132.1C237.101 131.501 237.499 130.986 238.026 130.633C238.045 130.43 238.105 130.232 238.204 130.054C238.304 129.875 238.439 129.719 238.602 129.595C238.765 129.472 238.952 129.383 239.152 129.336C239.351 129.289 239.558 129.283 239.76 129.32C239.903 129.359 240.038 129.423 240.158 129.51C240.381 129.39 240.625 129.315 240.877 129.29C241.129 129.265 241.383 129.29 241.625 129.364C241.867 129.438 242.092 129.56 242.287 129.721C242.481 129.883 242.642 130.081 242.758 130.305C243.034 130.167 243.343 130.11 243.65 130.141C243.957 130.172 244.249 130.288 244.492 130.478C245.081 130.961 245.064 131.808 245.774 132.015C246.485 132.223 247.178 131.877 247.837 132.637C248.131 133.009 248.313 133.457 248.362 133.928C248.411 134.399 248.325 134.874 248.114 135.298C248.582 136.283 249.033 137.63 248.374 138.494Z" fill="#CDE082"/>
<path d="M246.26 138.632C246.044 138.727 245.805 138.759 245.571 138.722C245.337 138.685 245.119 138.582 244.943 138.425C244.759 138.247 244.617 138.031 244.527 137.792C244.437 137.553 244.402 137.297 244.423 137.043C244.159 137.006 243.909 136.903 243.697 136.742C243.484 136.582 243.316 136.37 243.209 136.127C243.079 135.858 243.011 135.562 243.011 135.263C243.011 134.964 243.079 134.669 243.209 134.399C243.179 134.489 243.125 134.569 243.053 134.631C242.981 134.693 242.894 134.735 242.801 134.752C242.707 134.77 242.611 134.763 242.521 134.731C242.432 134.699 242.352 134.644 242.291 134.572C242.291 135.35 241.563 136.041 240.921 135.764C240.811 135.956 240.663 136.124 240.485 136.257C240.307 136.39 240.104 136.485 239.888 136.536C239.673 136.588 239.448 136.596 239.229 136.558C239.011 136.52 238.802 136.438 238.616 136.317C238.399 136.047 238.24 135.735 238.148 135.401C238.041 135.087 238.043 134.746 238.153 134.433C238.263 134.12 238.475 133.853 238.755 133.674C238.605 133.086 238.626 132.469 238.816 131.893C239.007 131.318 239.358 130.809 239.829 130.426C239.657 130.059 239.602 129.649 239.673 129.251C239.472 129.214 239.265 129.219 239.066 129.267C238.866 129.314 238.679 129.402 238.516 129.526C238.353 129.649 238.217 129.806 238.118 129.984C238.019 130.163 237.958 130.36 237.94 130.564C237.416 130.916 237.021 131.428 236.815 132.023C236.608 132.618 236.602 133.264 236.796 133.864C236.778 134.042 236.778 134.221 236.796 134.399C236.325 134.823 235.967 135.358 235.756 135.954C235.583 136.663 235.877 137.578 236.519 137.682C236.401 137.819 236.337 137.994 236.337 138.174C236.337 138.355 236.401 138.529 236.519 138.667C236.761 138.896 237.071 139.041 237.403 139.081L240.193 139.738C240.558 139.848 240.941 139.884 241.32 139.842C241.516 139.807 241.699 139.719 241.849 139.588C241.998 139.457 242.109 139.288 242.169 139.099C242.588 139.419 243.073 139.64 243.59 139.744C244.107 139.849 244.64 139.835 245.151 139.703C245.152 139.802 245.179 139.9 245.228 139.986C245.277 140.072 245.348 140.144 245.432 140.196C245.517 140.247 245.614 140.277 245.713 140.281C245.812 140.286 245.911 140.265 246 140.222C246.225 140.113 246.426 139.961 246.59 139.773C246.69 139.649 246.8 139.534 246.919 139.427L247.214 139.22C246.93 138.974 246.608 138.775 246.26 138.632Z" fill="#A2BD6A"/>
<path d="M234.23 126.987L99.166 204.718V125.968L234.23 48.2378V126.987Z" fill="#E3D3CB"/>
<path d="M31.6172 165.862L99.1493 204.718V160.817V125.968L31.6172 87.0947V165.862Z" fill="#C6ADAE"/>
<path d="M234.23 126.988L99.166 204.718V196.321L234.23 118.591V126.988Z" fill="#F26F6B"/>
<path d="M31.6172 165.861L99.1493 204.718V201.539V196.321L31.6172 157.447V165.861Z" fill="#7A2645"/>
<path d="M240.886 38.8735V43.5557L166.698 63.6318L92.4922 128.94V124.258L166.698 58.9497L240.886 38.8735Z" fill="#F26F6B"/>
<path d="M240.886 43.5557V46.2509L92.4922 131.635V128.94L166.698 63.6318L240.886 43.5557Z" fill="#E3D3CB"/>
<path d="M240.903 46.2512L92.4746 131.67V128.992L240.903 43.5732V46.2512Z" fill="#FEF8E7"/>
<path d="M92.4745 124.258V131.652L24.873 92.7957V85.3838L92.4745 124.258Z" fill="#7A2645"/>
<path d="M92.4745 128.975V131.653L24.873 92.7961V90.1182L27.2131 91.4485L92.4745 128.975Z" fill="#E3D3CB"/>
<path d="M166.698 58.9499L158.152 66.4655L92.475 124.258L24.9082 85.3841L90.5683 27.5918L99.1139 20.0762L166.698 58.9499Z" fill="#EF4052"/>
<path d="M240.938 38.8737L181.449 54.9761L166.768 58.9326L99.166 20.0761L113.865 16.1024L173.337 0L240.938 38.8737Z" fill="#EF4052"/>
<path d="M238.01 112.889V150.882L223.657 159.14L222.739 159.676L209.409 167.347L208.178 168.055L192.699 176.97V138.978L238.01 112.889Z" fill="#E3D3CB"/>
<path d="M170.043 163.926L192.698 176.971V150.657V138.978L170.043 125.934V163.926Z" fill="#C6ADAE"/>
<path d="M240.245 109.745V111.317L215.354 118.055L190.463 139.98V138.408L215.354 116.483L240.245 109.745Z" fill="#F26F6B"/>
<path d="M240.245 111.317V112.216L190.463 140.879V139.98L215.354 118.056L240.245 111.317Z" fill="#E3D3CB"/>
<path d="M240.263 112.216L190.463 140.879V139.98L240.263 111.317V112.216Z" fill="#FEF8E7"/>
<path d="M190.464 138.408V140.878L167.791 127.834V125.363L190.464 138.408Z" fill="#7A2645"/>
<path d="M190.464 139.98V140.878L167.791 127.834V126.936L168.571 127.385L190.464 139.98Z" fill="#E3D3CB"/>
<path d="M215.355 116.483L214.644 117.105L190.464 138.408L167.791 125.363L191.972 104.078L192.7 103.438L215.355 116.483Z" fill="#EF4052"/>
<path d="M215.354 116.483L213.95 117.675L191.295 104.648L192.699 103.438L215.354 116.483Z" fill="#524A61"/>
<path d="M240.246 109.745L216.602 116.155L215.354 116.483L192.699 103.439L193.93 103.111L217.59 96.7007L240.246 109.745Z" fill="#EF4052"/>
<path d="M217.868 115.827L215.354 116.483L192.699 103.439L195.178 102.765L217.868 115.827Z" fill="#524A61"/>
<path d="M238.01 142.295V150.882L223.657 159.141L222.739 159.676L209.409 167.347L208.178 168.056L192.699 176.971V168.384L238.01 142.295Z" fill="#F26F6B"/>
<path d="M170.043 163.926L192.698 176.97V173.29V168.384L170.043 155.339V163.926Z" fill="#7A2645"/>
<path d="M141.27 133.035L115.824 147.686V125.951L141.27 111.3V133.035Z" fill="#FEF8E7"/>
<path d="M140.144 113.062V132.603L127.594 139.824L116.951 145.941V126.417L130.922 118.366L140.144 113.062Z" fill="#6481C0"/>
<g style="mix-blend-mode:screen" opacity="0.5">
<path d="M130.922 118.366L127.594 139.825L116.951 145.941V126.417L130.922 118.366Z" fill="#90ACDA"/>
</g>
<path d="M140.313 117.699L116.354 131.415L116.794 132.179L140.753 118.463L140.313 117.699Z" fill="#FEF8E7"/>
<path d="M125.114 141.863L124.23 141.76V127.264H125.114V141.863Z" fill="#FEF8E7"/>
<path d="M132.827 122.824H131.943V137.44H132.827V122.824Z" fill="#FEF8E7"/>
<path d="M66.9434 143.954L92.3719 158.588V136.87L66.9434 122.219V143.954Z" fill="#FEF8E7"/>
<path d="M91.2628 156.86V137.337L68.0703 123.981V143.505L91.2628 156.86Z" fill="#6481C0"/>
<path d="M67.909 128.611L67.4688 129.375L91.4283 143.091L91.8685 142.327L67.909 128.611Z" fill="#FEF8E7"/>
<path d="M83.0977 152.783L83.9817 152.662V138.166H83.0977V152.783Z" fill="#FEF8E7"/>
<path d="M76.2688 133.743H75.3848V148.36H76.2688V133.743Z" fill="#FEF8E7"/>
<path d="M37.7363 127.022L63.1649 141.673V119.939L37.7363 105.288V127.022Z" fill="#FEF8E7"/>
<path d="M62.0538 139.928V120.405L38.8613 107.05V126.59L62.0538 139.928Z" fill="#6481C0"/>
<path d="M38.702 111.681L38.2617 112.445L62.2212 126.161L62.6615 125.397L38.702 111.681Z" fill="#FEF8E7"/>
<path d="M53.8906 135.851L54.7746 135.747V121.234H53.8906V135.851Z" fill="#FEF8E7"/>
<path d="M47.0618 116.812H46.1777V131.428H47.0618V116.812Z" fill="#FEF8E7"/>
<path d="M66.9434 170.302L92.3719 184.935V163.201L66.9434 148.567V170.302Z" fill="#FEF8E7"/>
<path d="M91.2628 183.208V163.684L68.0703 150.329V169.852L91.2628 183.208Z" fill="#6481C0"/>
<path d="M67.8993 154.95L67.459 155.714L91.4185 169.43L91.8588 168.666L67.8993 154.95Z" fill="#FEF8E7"/>
<path d="M83.0977 179.13L83.9817 179.009V164.514H83.0977V179.13Z" fill="#FEF8E7"/>
<path d="M76.2688 160.091H75.3848V174.707H76.2688V160.091Z" fill="#FEF8E7"/>
<path d="M37.7363 153.37L63.1649 168.004V146.269L37.7363 131.635V153.37Z" fill="#FEF8E7"/>
<path d="M62.0538 166.276V146.753L38.8613 133.397V152.938L62.0538 166.276Z" fill="#6481C0"/>
<path d="M38.6922 138.038L38.252 138.802L62.2115 152.518L62.6517 151.753L38.6922 138.038Z" fill="#FEF8E7"/>
<path d="M53.8906 162.199L54.7746 162.078V147.582H53.8906V162.199Z" fill="#FEF8E7"/>
<path d="M47.0618 143.159H46.1777V157.776H47.0618V143.159Z" fill="#FEF8E7"/>
<path d="M181.606 109.676L156.16 124.309V102.575L181.606 87.9409V109.676Z" fill="#FEF8E7"/>
<path d="M157.287 122.565V103.041L180.48 89.686V109.227L157.287 122.565Z" fill="#6481C0"/>
<g style="mix-blend-mode:screen" opacity="0.5">
<path d="M171.258 94.9902L167.93 116.449L157.287 122.565V103.041L171.258 94.9902Z" fill="#90ACDA"/>
</g>
<path d="M180.649 94.3198L156.689 108.036L157.13 108.8L181.089 95.0839L180.649 94.3198Z" fill="#FEF8E7"/>
<path d="M165.45 118.487L164.566 118.383V103.888H165.45V118.487Z" fill="#FEF8E7"/>
<path d="M173.163 99.4478H172.279V114.064H173.163V99.4478Z" fill="#FEF8E7"/>
<path d="M221.94 86.3514L196.494 100.985V79.2505L221.94 64.6167V86.3514Z" fill="#FEF8E7"/>
<path d="M197.621 99.2575V79.7342L220.814 66.3789V85.9194L197.621 99.2575Z" fill="#6481C0"/>
<g style="mix-blend-mode:screen" opacity="0.5">
<path d="M211.609 71.6831L208.281 93.1414L197.621 99.2576V79.7343L211.609 71.6831Z" fill="#90ACDA"/>
</g>
<path d="M220.983 71.0086L197.021 84.7202L197.462 85.4844L221.424 71.7728L220.983 71.0086Z" fill="#FEF8E7"/>
<path d="M205.786 95.18L204.902 95.0591V80.5635H205.786V95.18Z" fill="#FEF8E7"/>
<path d="M213.499 76.1406H212.615V90.7572H213.499V76.1406Z" fill="#FEF8E7"/>
<path d="M164.758 152.955L156.16 157.948V137.907L164.758 132.896V152.955Z" fill="#FEF8E7"/>
<path d="M163.977 134.417V152.42L158.586 155.547L157.199 156.342V138.339L161.654 135.765L163.977 134.417Z" fill="#6481C0"/>
<g style="mix-blend-mode:screen" opacity="0.5">
<path d="M161.654 135.765L158.586 155.547L157.199 156.342V138.339L161.654 135.765Z" fill="#90ACDA"/>
</g>
<path d="M157.043 143.643L156.645 142.934L164.133 138.667L164.531 139.375L157.043 143.643Z" fill="#FEF8E7"/>
<path d="M164.758 152.955L156.16 157.948V137.907L164.758 132.896V152.955Z" fill="#FEF8E7"/>
<path d="M163.977 134.417V152.42L158.586 155.547L157.199 156.342V138.339L161.654 135.765L163.977 134.417Z" fill="#6481C0"/>
<g style="mix-blend-mode:screen" opacity="0.5">
<path d="M161.654 135.765L158.586 155.547L157.199 156.342V138.339L161.654 135.765Z" fill="#90ACDA"/>
</g>
<path d="M157.043 143.643L156.645 142.934L164.133 138.667L164.531 139.375L157.043 143.643Z" fill="#FEF8E7"/>
<path d="M223.657 126.642V159.141L222.738 159.676L209.408 167.347L208.178 168.056V135.644L223.657 126.642Z" fill="#FEF8E7"/>
<path d="M222.738 128.37V159.676L209.408 167.347V136.093L222.738 128.37Z" fill="#F26F6B"/>
<path d="M215.197 164.669L222.737 160.298L215.197 164.669Z" fill="#EF4052"/>
<path d="M176.283 154.32L184.863 159.313V139.271L176.283 134.278V154.32Z" fill="#FEF8E7"/>
<path d="M183.842 157.707V139.704L177.064 135.782V153.785L183.842 157.707Z" fill="#6481C0"/>
<path d="M183.981 145.008L184.397 144.316L176.908 140.032L176.51 140.74L183.981 145.008Z" fill="#FEF8E7"/>
<path d="M111.023 197.894V165.879L144.634 146.528V178.56L111.023 197.894Z" fill="#EF4052"/>
<path d="M143.887 178.992L111.768 197.461V166.19L143.887 147.72V178.992Z" fill="#FEF8E7"/>
<path d="M143.125 176.21V178.37L112.531 195.993V193.833L143.125 176.21Z" fill="#E3D3CB"/>
<path d="M143.125 173.515V175.675L112.531 193.28V191.121L143.125 173.515Z" fill="#E3D3CB"/>
<path d="M143.125 170.803V172.962L112.531 190.585V188.408L143.125 170.803Z" fill="#E3D3CB"/>
<path d="M143.125 168.09V170.267L112.531 187.873V185.713L143.125 168.09Z" fill="#E3D3CB"/>
<path d="M143.125 165.395V167.555L112.531 185.16V183.001L143.125 165.395Z" fill="#E3D3CB"/>
<path d="M143.125 162.7V164.859L112.531 182.465V180.305L143.125 162.7Z" fill="#E3D3CB"/>
<path d="M143.125 159.987V162.147L112.531 179.752V177.593L143.125 159.987Z" fill="#E3D3CB"/>
<path d="M143.125 157.274V159.451L112.531 177.057V174.88L143.125 157.274Z" fill="#E3D3CB"/>
<path d="M143.125 154.579V156.739L112.531 174.344V172.185L143.125 154.579Z" fill="#E3D3CB"/>
<path d="M143.125 151.867V154.026L112.531 171.649V169.472L143.125 151.867Z" fill="#E3D3CB"/>
<path d="M143.125 149.171V151.331L112.531 168.937V166.777L143.125 149.171Z" fill="#E3D3CB"/>
<path d="M109.203 163.166L146.453 141.742V146.286L109.203 167.71V163.166Z" fill="#FEF8E7"/>
<path d="M166.698 58.9499L162.416 62.6991L94.8496 23.8253L99.1137 20.0762L132.897 39.513L166.698 58.9499Z" fill="#524A61"/>
<path d="M174.064 56.9631L166.715 58.9327L132.914 39.4958L99.1133 20.0762L106.463 18.0894L174.064 56.9631Z" fill="#524A61"/>
<path d="M204.486 156.584L195.889 161.577V141.535L204.486 136.542V156.584Z" fill="#FEF8E7"/>
<path d="M203.688 138.045V156.048L198.314 159.175L196.91 159.97V141.967L201.365 139.375L203.688 138.045Z" fill="#6481C0"/>
<g style="mix-blend-mode:screen" opacity="0.5">
<path d="M201.365 139.375L198.314 159.175L196.91 159.97V141.967L201.365 139.375Z" fill="#90ACDA"/>
</g>
<path d="M196.771 147.271L196.355 146.563L203.844 142.295L204.242 143.004L196.771 147.271Z" fill="#FEF8E7"/>
<path d="M235.357 138.805L226.76 143.815V123.774L235.357 118.781V138.805Z" fill="#FEF8E7"/>
<path d="M234.561 120.284V138.287L229.187 141.397L227.783 142.209V124.206L232.255 121.615L234.561 120.284Z" fill="#6481C0"/>
<g style="mix-blend-mode:screen" opacity="0.5">
<path d="M232.255 121.614L229.187 141.397L227.783 142.209V124.206L232.255 121.614Z" fill="#90ACDA"/>
</g>
<path d="M227.645 129.51L227.229 128.802L234.717 124.534L235.115 125.243L227.645 129.51Z" fill="#FEF8E7"/>
<g style="mix-blend-mode:color-burn" opacity="0.2">
<path d="M190.272 172.15C187.975 170.981 185.325 170.704 182.836 171.373C181.411 170.733 179.861 170.418 178.299 170.451C176.736 170.483 175.201 170.863 173.805 171.563V171.563C172.4 170.932 170.871 170.62 169.331 170.65C167.79 170.68 166.275 171.05 164.895 171.735C162.549 171.228 160.1 171.546 157.962 172.634C155.362 174.137 155.362 176.556 157.962 178.059C159.411 178.774 161.007 179.147 162.625 179.147C164.242 179.147 165.838 178.774 167.287 178.059C169.635 178.561 172.085 178.237 174.221 177.143V177.143C176.437 178.112 178.915 178.313 181.258 177.713C182.683 178.353 184.233 178.668 185.795 178.635C187.358 178.602 188.893 178.222 190.289 177.523C192.872 176.072 192.872 173.653 190.272 172.15Z" fill="#4C6FB6"/>
</g>
<path d="M186.025 176.331C185.85 176.493 185.643 176.616 185.418 176.694C184.897 176.883 184.327 176.883 183.806 176.694H183.667C182.937 176.911 182.155 176.874 181.449 176.59C181.198 176.474 180.927 176.409 180.651 176.4C180.357 176.4 180.149 176.521 179.837 176.4C179.477 176.204 179.164 175.933 178.918 175.606C178.918 175.882 178.623 176.072 178.346 176.055C177.809 176.055 177.323 175.364 176.751 175.467C176.633 175.498 176.521 175.551 176.422 175.623C176.484 175.258 176.674 174.927 176.959 174.69C177.274 174.42 177.624 174.194 177.999 174.016C178.365 173.782 178.795 173.667 179.23 173.688C179.636 173.798 180.002 174.019 180.287 174.327C180.59 174.604 180.943 174.821 181.327 174.966C181.523 175.035 181.733 175.055 181.938 175.025C182.143 174.995 182.338 174.915 182.506 174.794C182.546 174.94 182.62 175.075 182.721 175.188C182.822 175.301 182.947 175.389 183.088 175.446C183.229 175.503 183.381 175.527 183.533 175.516C183.684 175.504 183.831 175.458 183.962 175.381C184.105 175.789 184.396 176.129 184.778 176.334C185.16 176.538 185.604 176.593 186.025 176.487V176.331Z" fill="#A2BD6A"/>
<path d="M187.933 172.772C187.878 172.972 187.767 173.153 187.614 173.294C187.461 173.434 187.271 173.529 187.066 173.567C187.074 174.007 186.912 174.434 186.615 174.759C186.662 174.968 186.666 175.185 186.627 175.395C186.588 175.606 186.508 175.807 186.39 175.986C186.287 176.139 186.165 176.279 186.026 176.401C185.851 176.562 185.644 176.685 185.419 176.763C184.899 176.952 184.328 176.952 183.807 176.763H183.668C182.938 176.98 182.156 176.944 181.45 176.66C181.2 176.543 180.928 176.479 180.652 176.47C180.358 176.47 180.15 176.591 179.838 176.47C179.479 176.271 179.166 176.001 178.919 175.675C178.919 175.951 178.624 176.141 178.347 176.124C177.81 176.124 177.324 175.433 176.752 175.537C176.634 175.567 176.522 175.62 176.423 175.692C176.128 175.917 175.972 176.314 175.626 176.504C175.349 176.646 175.036 176.702 174.727 176.665C174.418 176.628 174.128 176.5 173.892 176.297C173.476 179.752 169.195 176.124 168.987 176.452C168.921 176.558 168.832 176.649 168.727 176.717C168.623 176.786 168.504 176.831 168.38 176.85C168.102 176.865 167.824 176.799 167.583 176.66C167.268 176.478 166.905 176.399 166.543 176.435C166.213 176.435 166.075 176.815 165.815 176.919C165.208 177.126 164.861 176.677 164.324 176.28C163.353 175.571 161.325 175.312 162.105 173.498C161.871 173.436 161.654 173.319 161.473 173.157C161.293 172.996 161.153 172.794 161.065 172.569C160.977 172.343 160.944 172.1 160.968 171.859C160.992 171.618 161.073 171.387 161.204 171.183C161.007 170.869 160.882 170.516 160.836 170.149C160.79 169.782 160.825 169.409 160.939 169.057C161.053 168.705 161.243 168.382 161.495 168.11C161.748 167.839 162.056 167.626 162.4 167.485C162.141 167.285 161.927 167.031 161.774 166.742C161.62 166.453 161.53 166.135 161.508 165.808C161.487 165.482 161.535 165.154 161.65 164.848C161.765 164.541 161.944 164.263 162.175 164.03C162.409 163.824 162.685 163.671 162.984 163.582C163.284 163.492 163.599 163.468 163.908 163.512C164.262 163.552 164.604 163.664 164.913 163.84C165.107 163.958 165.317 164.045 165.537 164.099C165.609 163.91 165.744 163.752 165.919 163.65C166.117 163.544 166.347 163.515 166.565 163.569C166.783 163.623 166.973 163.757 167.097 163.944C167.097 164.047 167.201 164.151 167.271 164.255C167.308 164.301 167.355 164.338 167.41 164.362C167.464 164.387 167.523 164.397 167.583 164.393C167.583 164.393 167.739 164.289 167.825 164.237C167.962 164.15 168.122 164.103 168.285 164.103C168.448 164.103 168.607 164.15 168.744 164.237C168.952 164.378 169.133 164.554 169.282 164.756L169.42 164.946C169.423 164.877 169.442 164.811 169.475 164.751C169.508 164.691 169.555 164.64 169.611 164.6C169.41 164.388 169.287 164.114 169.264 163.823C169.327 163.359 169.496 162.915 169.757 162.526C170.019 162.136 170.366 161.812 170.772 161.577C171.076 161.454 171.404 161.402 171.731 161.422C172.058 161.443 172.376 161.537 172.662 161.698C172.942 161.874 173.174 162.118 173.338 162.406C173.476 161.853 174.395 161.957 174.655 162.406V162.544H174.88C175.033 162.557 175.182 162.6 175.318 162.671C175.454 162.741 175.574 162.838 175.673 162.955C175.771 163.073 175.845 163.208 175.89 163.354C175.936 163.5 175.952 163.653 175.938 163.805C176.109 163.561 176.36 163.384 176.648 163.304C176.943 163.304 177.272 163.512 177.186 163.805C177.284 163.727 177.397 163.67 177.518 163.636C177.639 163.603 177.765 163.594 177.89 163.61C178.014 163.626 178.134 163.667 178.243 163.73C178.351 163.793 178.445 163.878 178.52 163.978C178.647 163.812 178.813 163.681 179.004 163.597C179.196 163.513 179.405 163.479 179.613 163.498C179.821 163.517 180.021 163.588 180.194 163.706C180.367 163.823 180.507 163.982 180.6 164.168C180.892 164.109 181.193 164.109 181.484 164.168C181.631 164.188 181.767 164.254 181.873 164.357C181.979 164.46 182.049 164.593 182.074 164.738C182.091 164.928 182.091 165.119 182.074 165.309C182.056 165.377 182.056 165.448 182.074 165.516C182.353 165.444 182.649 165.467 182.913 165.583C183.177 165.699 183.395 165.901 183.53 166.155C183.807 165.637 184.657 166.155 184.726 166.691C184.726 166.691 184.726 166.691 184.726 166.812C184.973 167.018 185.157 167.289 185.258 167.594C185.36 167.9 185.373 168.227 185.298 168.539C185.464 168.433 185.661 168.385 185.858 168.403C186.055 168.421 186.24 168.504 186.384 168.64C186.527 168.775 186.621 168.954 186.651 169.149C186.68 169.344 186.643 169.543 186.546 169.714C186.74 169.767 186.915 169.873 187.053 170.019C187.191 170.166 187.285 170.347 187.326 170.544C187.369 170.719 187.369 170.903 187.326 171.079C187.563 171.287 187.744 171.551 187.85 171.847C187.956 172.144 187.984 172.462 187.933 172.772V172.772Z" fill="#CDE082"/>
<path d="M183.738 176.608H183.599C182.868 176.828 182.083 176.785 181.38 176.487C181.127 176.384 180.857 176.325 180.583 176.314C180.288 176.314 180.08 176.435 179.768 176.314C179.406 176.122 179.091 175.85 178.85 175.519C178.85 175.796 178.555 175.986 178.278 175.969C177.74 175.969 177.238 175.277 176.683 175.381C176.128 175.485 176.007 176.107 175.556 176.349C175.28 176.49 174.967 176.546 174.658 176.509C174.349 176.472 174.058 176.344 173.823 176.141C173.407 179.597 169.126 175.969 168.917 176.297C168.851 176.403 168.763 176.493 168.658 176.562C168.553 176.63 168.435 176.676 168.311 176.694C168.032 176.709 167.755 176.643 167.513 176.504C167.198 176.323 166.837 176.238 166.473 176.262C166.144 176.262 166.005 176.66 165.745 176.763C165.139 176.971 164.792 176.521 164.255 176.124C163.284 175.416 161.256 175.157 162.036 173.342C161.83 173.267 161.642 173.148 161.486 172.994C161.329 172.84 161.208 172.655 161.129 172.451C161.05 172.246 161.016 172.027 161.029 171.809C161.042 171.59 161.102 171.377 161.204 171.183C161.007 170.869 160.882 170.516 160.836 170.149C160.79 169.782 160.825 169.409 160.939 169.057C161.053 168.705 161.243 168.382 161.495 168.11C161.748 167.839 162.056 167.625 162.4 167.485C162.141 167.285 161.927 167.031 161.774 166.742C161.62 166.453 161.53 166.135 161.508 165.808C161.487 165.482 161.535 165.154 161.65 164.848C161.765 164.541 161.944 164.263 162.175 164.03C162.409 163.824 162.685 163.671 162.984 163.582C163.284 163.492 163.599 163.468 163.908 163.512C163.843 163.767 163.838 164.033 163.892 164.291C163.946 164.548 164.058 164.79 164.22 164.998C163.735 164.825 163.405 165.654 163.769 166.034C163.978 166.188 164.223 166.287 164.481 166.32C164.739 166.353 165.001 166.32 165.243 166.224C165.728 166.037 166.255 165.983 166.768 166.069C166.963 166.143 167.124 166.286 167.22 166.471C167.316 166.656 167.34 166.869 167.288 167.071C167.458 166.914 167.664 166.801 167.888 166.744C168.112 166.687 168.347 166.686 168.571 166.743C168.83 166.834 169.055 167.002 169.216 167.224C169.378 167.446 169.467 167.712 169.472 167.986C169.591 167.775 169.778 167.609 170.004 167.518C170.229 167.426 170.479 167.413 170.712 167.481C170.946 167.55 171.149 167.695 171.289 167.893C171.429 168.092 171.498 168.332 171.483 168.574C171.669 168.767 171.813 168.996 171.907 169.247C172 169.498 172.041 169.766 172.026 170.033C172.012 170.3 171.942 170.562 171.822 170.801C171.701 171.041 171.533 171.253 171.327 171.425C171.451 171.467 171.564 171.536 171.659 171.626C171.754 171.716 171.829 171.825 171.878 171.946C171.928 172.067 171.95 172.197 171.945 172.328C171.939 172.459 171.906 172.587 171.847 172.703C171.909 172.626 171.988 172.566 172.079 172.527C172.17 172.487 172.268 172.471 172.367 172.479L172.627 173.74L174.152 173.152C174.144 173.467 174.233 173.776 174.406 174.039C174.58 174.301 174.83 174.504 175.123 174.621C175.425 174.74 175.758 174.757 176.071 174.669C176.384 174.582 176.66 174.395 176.856 174.137L179.716 174.811C180.172 175.43 180.849 175.851 181.607 175.986C182.366 176.121 183.147 175.96 183.79 175.537C183.713 175.888 183.695 176.25 183.738 176.608V176.608Z" fill="#A2BD6A"/>
<path d="M173.805 166.725C173.805 166.933 173.475 167.071 173.337 166.898C172.747 167.313 171.95 167.002 171.309 166.691C170.717 166.43 170.172 166.074 169.697 165.637C169.488 165.406 169.329 165.136 169.229 164.842C169.124 164.54 169.124 164.211 169.229 163.909C169.292 163.445 169.461 163.001 169.722 162.612C169.983 162.223 170.33 161.898 170.737 161.663C171.041 161.541 171.368 161.488 171.695 161.509C172.022 161.53 172.34 161.624 172.626 161.784C172.345 162.167 172.026 162.52 171.673 162.838C171.482 163.063 170.945 163.356 170.91 163.736C170.919 164.015 171.009 164.285 171.17 164.514C171.396 164.981 171.714 165.399 172.106 165.74C172.332 165.913 172.592 166.036 172.869 166.103C173.082 166.123 173.291 166.169 173.493 166.242C173.587 166.282 173.667 166.35 173.722 166.436C173.778 166.522 173.806 166.623 173.805 166.725V166.725Z" fill="#A2BD6A"/>
<path d="M186.389 175.917C186.287 176.07 186.164 176.21 186.025 176.331C185.85 176.493 185.643 176.616 185.418 176.694C184.898 176.883 184.327 176.883 183.806 176.694H183.668C182.938 176.911 182.155 176.875 181.449 176.591C181.199 176.474 180.927 176.41 180.652 176.4C180.357 176.4 180.149 176.521 179.837 176.4C179.71 176.196 179.6 175.983 179.507 175.761C179.248 175.126 178.878 174.541 178.415 174.033C177.774 173.498 176.873 173.636 176.526 172.582C176.409 172.199 176.411 171.789 176.531 171.407C176.652 171.024 176.886 170.687 177.202 170.44C177.329 170.081 177.473 169.73 177.635 169.386C177.719 169.213 177.84 169.062 177.99 168.942C178.14 168.822 178.315 168.738 178.502 168.695C178.691 168.659 178.885 168.699 179.044 168.806C179.203 168.913 179.314 169.078 179.351 169.265C179.351 169.852 178.589 170.146 178.415 170.699C178.361 171.066 178.441 171.44 178.641 171.753C178.76 172.045 178.931 172.314 179.143 172.548C179.854 173.256 181.172 173.101 181.761 173.913C181.818 173.826 181.892 173.751 181.98 173.695C182.067 173.638 182.166 173.601 182.268 173.585C182.371 173.568 182.476 173.574 182.577 173.6C182.678 173.627 182.772 173.675 182.853 173.74C183.062 173.626 183.305 173.592 183.537 173.642C183.77 173.693 183.976 173.826 184.118 174.016C184.399 174.415 184.572 174.879 184.621 175.364C184.936 175.258 185.277 175.255 185.595 175.354C185.913 175.454 186.19 175.65 186.389 175.917V175.917Z" fill="#A2BD6A"/>
<path d="M170.615 176.228C170.269 176.551 169.87 176.814 169.436 177.005C169.317 177.058 169.206 177.128 169.107 177.213L168.726 177.541C168.552 177.708 168.353 177.848 168.136 177.955C167.738 178.111 167.148 177.869 167.183 177.437C166.615 177.572 166.025 177.589 165.449 177.488C164.874 177.387 164.326 177.17 163.838 176.85C163.758 177.045 163.628 177.215 163.46 177.342C163.293 177.47 163.094 177.551 162.884 177.575C162.465 177.619 162.042 177.584 161.636 177.472L158.95 176.919H158.499C158.132 176.876 157.784 176.733 157.493 176.504C157.366 176.375 157.295 176.201 157.295 176.02C157.295 175.839 157.366 175.666 157.493 175.537C157.32 175.485 157.159 175.398 157.022 175.28C156.884 175.163 156.773 175.019 156.694 174.856C156.616 174.693 156.573 174.516 156.567 174.336C156.561 174.156 156.594 173.976 156.661 173.809C156.868 173.201 157.24 172.663 157.736 172.254L157.892 172.116C157.82 171.996 157.762 171.868 157.719 171.736C157.511 171.131 157.526 170.472 157.761 169.877C157.996 169.282 158.436 168.789 159.002 168.488C159.041 168.276 159.122 168.075 159.241 167.895C159.359 167.716 159.513 167.562 159.692 167.443C159.872 167.324 160.073 167.242 160.285 167.201C160.497 167.161 160.715 167.164 160.926 167.209C161.088 167.239 161.242 167.304 161.376 167.399C161.872 167.157 162.439 167.1 162.974 167.24C163.508 167.38 163.975 167.706 164.288 168.159C164.608 168.015 164.961 167.956 165.31 167.989C165.66 168.023 165.995 168.147 166.282 168.349C166.958 168.816 166.923 169.645 167.72 169.835C168.518 170.025 169.298 169.697 170.026 170.457C170.351 170.802 170.556 171.241 170.613 171.71C170.669 172.18 170.572 172.655 170.338 173.066C170.858 174.034 171.343 175.347 170.615 176.228Z" fill="#F1ED78"/>
<path d="M168.241 176.349C168.001 176.442 167.74 176.472 167.484 176.436C167.229 176.399 166.987 176.299 166.782 176.143C166.576 175.986 166.415 175.781 166.312 175.544C166.21 175.308 166.17 175.05 166.196 174.794C165.914 174.764 165.645 174.666 165.41 174.509C165.175 174.351 164.983 174.139 164.849 173.89C164.716 173.641 164.646 173.363 164.645 173.081C164.644 172.799 164.712 172.521 164.844 172.271C164.797 172.36 164.73 172.437 164.648 172.496C164.566 172.554 164.472 172.592 164.372 172.607C164.273 172.623 164.171 172.614 164.075 172.583C163.979 172.551 163.892 172.498 163.821 172.427C163.819 172.613 163.775 172.797 163.691 172.964C163.607 173.131 163.487 173.277 163.338 173.39C163.189 173.503 163.016 173.581 162.833 173.618C162.649 173.655 162.46 173.649 162.279 173.602C161.982 173.988 161.558 174.255 161.081 174.357C160.604 174.458 160.107 174.386 159.679 174.155C159.446 173.887 159.269 173.575 159.158 173.239C159.028 172.919 159.025 172.562 159.151 172.241C159.277 171.919 159.521 171.658 159.835 171.511C159.682 170.919 159.717 170.294 159.934 169.722C160.151 169.15 160.54 168.658 161.048 168.315C160.844 167.972 160.782 167.563 160.875 167.175C160.664 167.129 160.446 167.127 160.234 167.167C160.022 167.207 159.821 167.289 159.641 167.409C159.462 167.528 159.308 167.682 159.19 167.861C159.071 168.04 158.99 168.242 158.95 168.453C158.39 168.767 157.959 169.27 157.737 169.872C157.514 170.473 157.515 171.134 157.737 171.736C157.72 171.908 157.72 172.082 157.737 172.254C157.221 172.644 156.824 173.171 156.593 173.774C156.525 173.942 156.493 174.121 156.499 174.302C156.504 174.482 156.548 174.659 156.626 174.822C156.704 174.984 156.816 175.129 156.954 175.246C157.091 175.363 157.252 175.45 157.425 175.502C157.298 175.631 157.227 175.805 157.227 175.986C157.227 176.167 157.298 176.341 157.425 176.47C157.715 176.698 158.063 176.842 158.43 176.884L161.568 177.524C161.974 177.636 162.397 177.671 162.816 177.627C163.025 177.602 163.224 177.522 163.392 177.394C163.56 177.267 163.69 177.097 163.769 176.902C164.257 177.222 164.806 177.439 165.381 177.54C165.956 177.641 166.546 177.624 167.115 177.489C167.115 177.921 167.669 178.163 168.068 178.007C168.305 177.894 168.522 177.742 168.709 177.558L169.091 177.23C169.19 177.145 169.301 177.075 169.42 177.023C169.071 176.729 168.672 176.501 168.241 176.349V176.349Z" fill="#D3E169"/>
<path d="M190.966 175.986C190.752 176.246 190.501 176.473 190.221 176.66L190.03 176.833C189.95 176.92 189.875 177.013 189.805 177.109C189.695 177.262 189.56 177.396 189.406 177.506C189.146 177.662 188.696 177.506 188.678 177.264C188.3 177.423 187.893 177.505 187.482 177.505C187.072 177.505 186.665 177.423 186.286 177.264C186.252 177.411 186.18 177.546 186.076 177.655C185.973 177.764 185.842 177.844 185.697 177.886C185.405 177.939 185.105 177.939 184.813 177.886H182.889H182.577C182.319 177.907 182.06 177.853 181.832 177.731C181.721 177.663 181.641 177.555 181.609 177.429C181.576 177.303 181.594 177.17 181.658 177.057C181.535 177.038 181.416 176.995 181.309 176.93C181.203 176.865 181.11 176.779 181.038 176.677C180.965 176.576 180.913 176.461 180.886 176.339C180.859 176.217 180.856 176.091 180.878 175.969C180.969 175.521 181.185 175.107 181.502 174.777L181.589 174.656C181.521 174.586 181.468 174.504 181.433 174.414C181.215 174.02 181.146 173.561 181.238 173.12C181.33 172.68 181.578 172.287 181.936 172.012C181.94 171.861 181.975 171.712 182.037 171.574C182.1 171.436 182.19 171.312 182.301 171.21C182.412 171.107 182.543 171.027 182.686 170.975C182.828 170.923 182.98 170.9 183.132 170.906C183.24 170.881 183.353 170.881 183.461 170.906C183.779 170.68 184.168 170.576 184.557 170.614C184.946 170.652 185.308 170.83 185.576 171.114C185.782 170.972 186.021 170.887 186.27 170.865C186.52 170.844 186.77 170.888 186.997 170.993C187.517 171.252 187.586 171.839 188.176 171.874C188.765 171.909 189.25 171.598 189.909 172.029C190.163 172.229 190.349 172.503 190.442 172.812C190.535 173.121 190.531 173.451 190.429 173.757C190.88 174.5 191.365 175.295 190.966 175.986Z" fill="#F1ED78"/>
<path d="M189.319 176.349C189.16 176.438 188.981 176.485 188.799 176.485C188.617 176.485 188.437 176.438 188.279 176.349C188.121 176.257 187.986 176.13 187.887 175.977C187.787 175.823 187.726 175.649 187.707 175.468C187.508 175.481 187.309 175.445 187.128 175.363C186.947 175.282 186.788 175.157 186.666 175C186.545 174.843 186.464 174.658 186.431 174.463C186.398 174.267 186.413 174.066 186.476 173.878C186.454 173.946 186.416 174.007 186.366 174.057C186.316 174.107 186.254 174.145 186.187 174.166C186.119 174.188 186.047 174.194 185.977 174.183C185.907 174.172 185.84 174.144 185.783 174.103C185.808 174.234 185.802 174.369 185.766 174.497C185.729 174.626 185.662 174.744 185.571 174.841C185.479 174.939 185.366 175.014 185.24 175.06C185.115 175.105 184.98 175.121 184.847 175.105C184.687 175.406 184.424 175.64 184.106 175.764C183.788 175.887 183.435 175.893 183.113 175.779C182.918 175.624 182.758 175.43 182.645 175.208C182.522 175.004 182.48 174.761 182.528 174.527C182.576 174.294 182.711 174.087 182.905 173.947C182.732 173.554 182.685 173.116 182.772 172.695C182.859 172.274 183.075 171.891 183.391 171.598C183.206 171.382 183.112 171.103 183.131 170.82C182.979 170.813 182.827 170.836 182.685 170.888C182.542 170.94 182.412 171.02 182.3 171.123C182.189 171.226 182.099 171.35 182.036 171.488C181.974 171.626 181.939 171.775 181.935 171.926C181.574 172.198 181.324 172.591 181.232 173.033C181.139 173.474 181.21 173.934 181.432 174.327C181.416 174.448 181.416 174.57 181.432 174.69C181.115 175.021 180.899 175.434 180.808 175.882C180.786 176.005 180.788 176.131 180.816 176.253C180.843 176.374 180.895 176.489 180.967 176.591C181.04 176.692 181.132 176.778 181.239 176.843C181.346 176.909 181.464 176.952 181.588 176.971C181.524 177.084 181.506 177.217 181.538 177.343C181.571 177.468 181.65 177.576 181.761 177.645C181.99 177.766 182.248 177.82 182.507 177.8H184.743C185.035 177.853 185.334 177.853 185.627 177.8C185.772 177.758 185.902 177.678 186.006 177.569C186.11 177.459 186.182 177.325 186.216 177.178C186.595 177.337 187.001 177.419 187.412 177.419C187.823 177.419 188.229 177.337 188.608 177.178C188.608 177.472 189.076 177.575 189.336 177.42C189.49 177.31 189.625 177.176 189.735 177.023C189.805 176.926 189.88 176.834 189.96 176.746L190.151 176.573C189.888 176.454 189.607 176.378 189.319 176.349V176.349Z" fill="#D3E169"/>
<path d="M189.232 204.822L157.113 223.308L111.768 197.392L114.021 196.097L114.766 195.665L143.87 178.958L189.232 204.822Z" fill="#5F546E"/>
<path d="M246.243 172.012L230.764 180.927L208.23 168.055L209.357 167.399H209.461L209.739 167.243L222.791 159.71L223.709 159.175L246.243 172.012Z" fill="#D1A397"/>
</svg>
