<svg width="218" height="244" viewBox="0 0 218 244" fill="none" xmlns="http://www.w3.org/2000/svg">
<path fill-rule="evenodd" clip-rule="evenodd" d="M93.6095 116.786C100.367 112.407 108.531 110.713 116.484 112.041C133.258 115.38 144.471 134.04 141.438 150.596C138.037 169.028 115.519 174.287 99.2971 171.04C82.1099 167.701 75.8141 151.694 79.996 135.686C81.9931 127.911 86.8517 121.165 93.6095 116.786ZM114.968 118.032C84.1779 113.779 71.8159 163.814 105.777 165.14C120.023 165.826 136.337 160.978 135.648 143.827C135.478 137.877 133.369 132.143 129.639 127.49C125.909 122.838 120.759 119.518 114.968 118.032Z" fill="url(#paint0_linear_590_14399)"/>
<path d="M61.7058 98.3206C53.0514 102.989 45.4427 109.363 39.3434 117.053C33.244 124.743 28.7818 133.588 26.2285 143.05C26.1103 143.825 26.2816 144.615 26.7099 145.273C27.1383 145.93 27.7939 146.408 28.5527 146.617C29.3115 146.825 30.1208 146.75 30.8274 146.404C31.5339 146.059 32.0885 145.467 32.3864 144.742C34.6981 136.027 38.7827 127.878 44.3871 120.797C49.9915 113.717 56.9966 107.857 64.9686 103.58C68.5531 101.842 65.3363 96.5369 61.7058 98.3206Z" fill="url(#paint1_linear_590_14399)"/>
<path d="M23.6543 155.949C24.1764 155.363 24.896 154.988 25.6771 154.895C26.4581 154.988 27.1778 155.363 27.6998 155.949C28.2218 156.534 28.5101 157.29 28.5101 158.073C28.5101 158.856 28.2218 159.612 27.6998 160.198C27.1778 160.783 26.4581 161.158 25.6771 161.252C24.896 161.158 24.1764 160.783 23.6543 160.198C23.1323 159.612 22.844 158.856 22.844 158.073C22.844 157.29 23.1323 156.534 23.6543 155.949Z" fill="url(#paint2_linear_590_14399)"/>
<path fill-rule="evenodd" clip-rule="evenodd" d="M195.481 105.364C206.011 116.177 213.218 129.76 216.253 144.513C219.858 165.281 217.419 186.641 209.222 206.074L208.975 206.635C203.173 219.826 195.677 236.869 180.408 241.153C169.235 244.287 156.005 243.923 143.548 243.58C138.739 243.447 134.044 243.318 129.627 243.394C105.225 243.806 80.6393 244.034 56.0993 243.074C48.1031 243.074 39.6014 243.074 32.7082 238.5C22.502 230.41 14.584 219.819 9.73062 207.766C1.33423 189.553 -0.609832 169.045 4.21597 149.59C7.15796 134.151 13.5502 119.567 22.9197 106.919C21.0811 104.047 19.1195 101.203 17.1524 98.3516C8.49918 85.8077 -0.261962 73.1072 0.861329 57.1581C2.10211 42.2484 7.70865 25.6462 19.2434 15.5844C38.5479 -1.29577 67.0046 -0.438534 92.5759 0.331851C98.5979 0.513309 104.46 0.689884 110.005 0.628849C129.122 0.40015 148.331 0.766056 167.357 2.04663C181.695 3.00708 194.424 6.39154 204.121 18.0541C213.817 29.7167 216.391 47.5994 214.92 62.2349C213.522 76.3763 206.965 86.8682 200.003 98.0089C198.498 100.416 196.975 102.853 195.481 105.364ZM92.4522 6.68018C72.3388 6.04389 50.4519 5.35144 33.6273 13.8464C25.8086 18.199 19.2926 24.5413 14.7465 32.2241C10.2003 39.9068 7.78732 48.6539 7.75461 57.5698C7.16119 72.4915 15.354 84.2951 23.5089 96.0441C24.8271 97.9433 26.1444 99.8411 27.4234 101.75C31.2655 97.5049 35.6002 93.7282 40.3368 90.4995C41.9341 89.4139 43.5645 88.4926 45.1999 87.5684C45.4936 87.4025 45.7874 87.2365 46.0811 87.0693C35.1438 72.6168 24.2983 52.4474 43.14 38.3151C49.3492 33.6527 58.2658 33.002 66.312 32.4148C68.2108 32.2762 70.0612 32.1412 71.816 31.9578C81.007 30.9974 90.1981 30.0826 99.3891 30.0826C103.79 30.0352 108.691 29.7508 113.864 29.4506C133.597 28.3057 157.302 26.9302 172.412 37.5833C190.913 50.6277 178.189 70.5157 169.02 84.8461L168.579 85.5362C168.446 85.7436 168.315 85.9497 168.184 86.1546C174.994 89.6184 181.484 93.6741 187.577 98.2745C188.396 98.852 189.164 99.5303 189.92 100.197L189.927 100.204C190.186 100.432 190.444 100.66 190.702 100.881C192.02 98.6928 193.36 96.5619 194.685 94.4555L194.686 94.4544C201.444 83.7083 207.802 73.6001 208.762 59.7194C209.589 45.6785 206.74 28.5277 195.803 18.5573C184.618 8.357 168.873 8.0235 154.145 7.71155C151.505 7.65564 148.898 7.60041 146.355 7.4892C134.269 6.98609 122.137 6.98609 110.051 6.98609C104.474 7.06049 98.5443 6.87293 92.4522 6.68018ZM51.5957 84.3709C69.9318 75.8641 90.7495 73.6688 110.832 73.6688C128.389 73.4537 145.802 76.848 161.98 83.6392C163.068 81.9492 164.25 80.2745 165.439 78.591C170.071 72.0276 174.799 65.3293 174.434 57.0667C173.836 44.0778 163.956 39.4127 152.697 37.812C125.147 35.8083 97.4762 36.1143 69.9777 38.7267C68.4502 38.9088 66.8958 39.0469 65.3352 39.1856C56.7075 39.9525 47.8918 40.736 42.4046 49.0629C33.9949 61.5031 43.8752 74.5377 51.5957 84.3709ZM194.332 221.807C204.243 206.664 209.951 189.18 210.876 171.132L211.06 170.903C211.933 147.989 206.556 124.298 188.956 108.016C167.862 87.5267 139.554 80.3462 110.832 80.026C81.3746 80.2547 49.6656 84.874 29.6751 108.794C13.7747 127.774 1.96417 163.448 9.40891 187.917C13.6827 201.957 19.0136 216.684 29.905 227.158C40.4851 237.281 52.445 237.357 65.6879 237.442H65.6896C67.3441 237.453 69.0186 237.464 70.713 237.494C93.9203 237.951 117.358 237.723 140.335 237.22C143.324 237.156 146.393 237.189 149.489 237.223C166.524 237.406 184.377 237.597 194.332 221.807Z" fill="url(#paint3_linear_590_14399)"/>
<defs>
<linearGradient id="paint0_linear_590_14399" x1="109.319" y1="0" x2="109.319" y2="243.8" gradientUnits="userSpaceOnUse">
<stop stop-color="#4299FF"/>
<stop offset="1" stop-color="#1D6BD0"/>
</linearGradient>
<linearGradient id="paint1_linear_590_14399" x1="109.319" y1="0" x2="109.319" y2="243.8" gradientUnits="userSpaceOnUse">
<stop stop-color="#4299FF"/>
<stop offset="1" stop-color="#1D6BD0"/>
</linearGradient>
<linearGradient id="paint2_linear_590_14399" x1="109.319" y1="0" x2="109.319" y2="243.8" gradientUnits="userSpaceOnUse">
<stop stop-color="#4299FF"/>
<stop offset="1" stop-color="#1D6BD0"/>
</linearGradient>
<linearGradient id="paint3_linear_590_14399" x1="109.319" y1="0" x2="109.319" y2="243.8" gradientUnits="userSpaceOnUse">
<stop stop-color="#4299FF"/>
<stop offset="1" stop-color="#1D6BD0"/>
</linearGradient>
</defs>
</svg>
